<?xml version="1.0" encoding="utf-8"?>
<!-- Generator: Adobe Illustrator 17.1.0, SVG Export Plug-In . SVG Version: 6.00 Build 0)  -->
<!DOCTYPE svg PUBLIC "-//W3C//DTD SVG 1.1 Tiny//EN" "http://www.w3.org/Graphics/SVG/1.1/DTD/svg11-tiny.dtd">
<svg version="1.1" baseProfile="tiny" id="圖層_1"
	 xmlns="http://www.w3.org/2000/svg" xmlns:xlink="http://www.w3.org/1999/xlink" x="0px" y="0px" viewBox="0 0 800 160"
	 xml:space="preserve">
<g>
	<path fill="#DB4441" d="M308.7,83.1c-1.7,0-2.9,0.1-4.2,0.5l-0.5-2.4c1.6,0.5,2.9,0.6,4.7,0.6h12.9c1.4-1.9,2-2.8,3.3-5.1h-5v0.8
		c0,1.2-0.9,1.5-4.2,1.5c-2.3,0-2.6-0.1-2.6-1.3c0.1-3.6,0.2-5.2,0.2-9c0-5.8,0-6.8-0.3-9.8c3.4,1.2,4.4,1.7,7.5,3.4h25.8
		c1.2-1,2.3-2.1,3.5-3.2c2.2,1.4,2.9,1.9,5.1,3.3c0.5,0.4,0.7,0.6,0.7,0.9c0,0.5-0.6,0.9-2.3,1.7c0,6.8,0,7.1,0.1,12.2
		c0,0.8-0.2,1.2-0.8,1.4c-0.5,0.2-2.6,0.4-4.1,0.4c-1.6,0-1.8-0.1-1.9-1v-1.2h-14c-1.7,2.5-2.3,3.3-3.7,5.1h24.2
		c1.9-2.1,2.5-2.7,4.4-4.7c2.9,2.1,3.8,2.8,6.8,5.1c0.2,0.2,0.3,0.5,0.3,0.5c0,0.3-0.3,0.5-0.8,0.5h-22.7c2.3,2.1,4,3.1,6.8,4
		c4.7,1.6,10,2.4,16.9,2.5v0.8c-1.5,0.8-2.1,1.4-2.8,2.6c-0.6,1-1.2,2.3-1.4,3.1c-0.3,1-0.5,1.2-0.9,1.2c-1.2,0-5.1-1.6-8.5-3.5
		c-0.6,4.1-0.8,4.9-1.1,6.6c-0.7,4.1-2.3,6.4-4.8,7.5c-1.3,0.5-3.5,0.9-5.1,0.9c-0.8,0-1-0.2-1-1c-0.1-1.6-0.7-2.7-1.9-3.4
		c-1-0.7-1.8-0.9-6.8-2.4l0.1-0.8c3.8,0.4,8.6,0.7,10.1,0.7c1.4,0,1.9-0.3,2.3-1.4c0.5-1.3,1-3.8,1.4-7.3h-10.8
		c-2,4.7-5.3,8.3-10.2,11.1c-4.9,2.8-9.4,4-17.8,5.1l-0.2-0.7c6.6-2.3,10.1-4,13.7-6.6c3.4-2.6,5.5-5.1,7.3-8.8h-5.3
		c-1.8,0-2.7,0.1-4,0.4l-0.3-1.6c-3.8,2.1-7.5,3.4-13.9,5.3l-0.3-0.8c8.3-4.3,13.3-8,17.7-13.1H308.7z M320.6,54.9c0-1.2,0-1.5,0-2
		c0-1.7,0-2.2-0.2-3.8c1.9,0.2,3.3,0.3,4.2,0.3c4.2,0.3,5.5,0.6,5.5,1.4c0,0.6-0.7,0.9-2.7,1.4v2.7H339c0-0.6,0-1,0-1.4
		c0-1.7-0.1-2.6-0.2-4.4c9.4,0.8,9.6,0.8,9.6,1.7c0,0.6-0.7,1-2.6,1.5v2.6h6.6c2-2.1,2.7-2.7,4.7-4.7c3,2.2,3.9,2.9,6.8,5.1
		c0.2,0.3,0.3,0.5,0.3,0.6c0,0.2-0.2,0.3-0.7,0.3h-17.6c0,1.3,0,1.6,0.1,3c0,0.5-0.1,0.7-0.3,0.9c-0.4,0.5-1.8,0.7-4.4,0.7
		c-1.9,0-2.3-0.2-2.3-1.1l0.1-3.5h-11.6c0,1,0,1.5,0.1,3c0,0.5-0.1,0.8-0.3,0.9c-0.4,0.4-2.1,0.6-4.2,0.6c-2.2,0-2.5-0.2-2.5-1.2
		c0.1-1.6,0.1-2.1,0.1-3.3H309c-1.6,0-2.8,0.1-4.5,0.4l-0.5-2.3c1.9,0.4,3.4,0.6,5,0.6H320.6z M327.8,83.1c-3.4,3.7-6.2,6-9.9,8.2
		c1,0.2,2.3,0.3,3.2,0.3h6c0.9-2.5,1.2-3.7,1.2-6.6c9.1,1,9.4,1,9.4,1.9c0,0.6-0.6,0.9-2.6,1.4c-0.5,1.6-0.6,2.3-0.9,3.3h10.3
		c0.6-0.6,0.9-0.8,1.4-1.4c-2.7-2-4.6-4.3-6.2-7.2H327.8z M346.7,63.7h-26.8v5h26.8V63.7z M319.9,70.1v5.3h26.8v-5.3H319.9z"/>
	<path fill="#DB4441" d="M403.4,108.9c5.6-1.8,9.2-3.5,13.3-6c2.9-1.8,4-2.7,5.4-4.4c8.2,2.7,9.3,3.2,9.3,3.9c0,0.6-0.9,0.9-3.7,0.9
		c-8.1,4.1-13.3,5.5-24.1,6.4L403.4,108.9z M427.8,64.5c-6,3.3-9.5,4.9-18.4,8.2c-0.3,1.8-0.5,2.3-1.1,2.3c-0.8,0-1.5-1.8-3.5-8.5
		c0.8,0.1,1.5,0.1,1.8,0.1c3.6,0,12.7-1.2,21.1-2.7L427.8,64.5z M406.8,77.7c3.6-0.8,5-1.2,7.2-1.9c0-1.1-0.1-1.6-0.1-3.1
		c2.2,0.8,2.7,1,4.3,1.6c4.1-1.7,6.6-3,9.4-4.8c3.3-2.3,6-5.3,7.3-8c0.5-1,0.7-1.7,1-3.2c9.3,1.2,9.7,1.3,9.7,2.1
		c0,0.5-0.8,0.9-2.2,1.1c1.5,2.5,4,4.6,7.2,6c4,1.7,8.3,2.5,14.4,2.5v0.8c-2.3,1.1-3.6,3-4.5,6c-0.1,0.6-0.4,0.8-0.7,0.8
		c-0.9,0-4.9-1.9-7.3-3.4c-4.9-3.3-8.4-7.3-10.3-12.5h-0.1c-2,4.3-4.4,7.1-8.4,9.8c-2.2,1.5-4.7,2.5-9.2,4h21.4
		c1.2-1.2,1.5-1.5,2.7-2.6c2.5,1.8,3.2,2.3,5.6,4c0.5,0.5,0.7,0.7,0.7,1c0,0.5-0.5,0.8-1.6,1.6V85c0,3.8,0.1,6.8,0.1,12.2
		c0,1.4-1,1.8-4.8,1.8c-2,0-2.2-0.1-2.3-0.9v-0.7H421v0.7c0,1-0.8,1.2-4.6,1.2c-2.1,0-2.5-0.2-2.5-1.2c0.2-5.5,0.2-8,0.2-17.2
		c0-1.4,0-2.5,0-3.1c-2.3,0.4-3.6,0.5-7.1,0.7L406.8,77.7z M407.4,51.1c10.7,1.2,14.1,2.6,14.1,5.9c0,2.6-1.6,5-3.2,5
		c-0.9,0-1.1-0.2-2.7-2.5c-1.8-2.4-4.4-4.9-8.5-7.7L407.4,51.1z M446.3,82.1v-5.4H421v5.4H446.3z M421,83.4v5.5h25.3v-5.5H421z
		 M421,90.3v5.9h25.3v-5.9H421z M431.6,57.5c-3.1,2.9-5.3,4.3-9.8,6.6l-0.5-0.4c4.2-5,6.9-10.1,7.7-14.7c8.6,1.8,9.6,2.1,9.6,2.9
		c0,0.6-1,1-3.1,1.3c-1.2,1.6-1.7,2.1-2.5,3h18.4c1.6-1.8,2.1-2.3,3.7-4c2.9,2,3.8,2.5,6.4,4.7c0.7,0.6,1,1,1,1.3c0,0.7-1,1-3.7,1.2
		c-4.2,2.4-5.8,3.3-9.6,4.9l-0.6-0.4c1.4-2.3,1.8-3.2,3.3-6.4H431.6z M437.4,99.6c11,1,15.5,1.5,17.6,2.1c3.2,0.8,4.9,2.8,4.9,5.8
		c0,1.8-0.8,3-1.9,3c-0.7,0-1.1-0.2-2.5-1.2c-4.9-3.4-10.7-6.2-18.4-8.9L437.4,99.6z"/>
</g>
<g>
	<g>
		<g>
			<polygon fill="#DB4441" points="212.7,63.3 150.8,63.3 184.5,42.6 246.3,42.6 			"/>
			<polygon fill="#FFFFFF" points="195.6,56.3 190.5,56.3 201.6,49.6 206.6,49.6 			"/>
			<line fill="none" stroke="#DB4441" stroke-miterlimit="10" x1="150.8" y1="125.1" x2="150.8" y2="63.3"/>
			<line fill="none" stroke="#DB4441" stroke-miterlimit="10" x1="211.9" y1="125.1" x2="211.9" y2="63.3"/>
			<line fill="none" stroke="#DB4441" stroke-miterlimit="10" x1="246.3" y1="104.5" x2="246.3" y2="42.6"/>
			<line fill="none" stroke="#DB4441" stroke-miterlimit="10" x1="150.8" y1="125.1" x2="211.9" y2="125.1"/>
			<line fill="none" stroke="#DB4441" stroke-miterlimit="10" x1="211.9" y1="125.1" x2="246.3" y2="104.5"/>
			<line fill="none" stroke="#DB4441" stroke-miterlimit="10" x1="201.6" y1="49.6" x2="201.6" y2="56.3"/>
		</g>
		<g>
			<path fill="#DB4441" d="M182.4,111.5h-1.8v-3.8c-2.5-0.3-4.3-0.8-5.6-1.6c-2.2-1.5-3.2-3.9-3.2-7.4h5.1c0.2,1.6,0.4,2.7,0.7,3.2
				c0.5,0.8,1.5,1.4,2.9,1.6v-8.1L179,95c-2.4-0.7-4.1-1.7-5.1-3c-1-1.3-1.5-2.8-1.5-4.6c0-1.2,0.2-2.2,0.6-3.2
				c0.4-1,0.9-1.8,1.6-2.5c0.9-0.9,1.9-1.5,3-1.9c0.7-0.2,1.6-0.4,2.9-0.5v-2.5h1.8v2.6c2,0.2,3.7,0.7,4.8,1.5
				c2.1,1.4,3.2,3.5,3.3,6.6h-5c-0.1-1.1-0.3-1.9-0.6-2.5c-0.5-0.9-1.3-1.4-2.6-1.5v7.2c3,1,5,2,6,2.7c1.7,1.3,2.5,3.2,2.5,5.6
				c0,3.2-1.2,5.5-3.5,6.9c-1.4,0.9-3.1,1.4-5.1,1.6V111.5z M180.5,83.7c-1.1,0-1.9,0.3-2.4,0.9c-0.5,0.6-0.8,1.3-0.8,2.3
				c0,1.1,0.4,1.9,1.2,2.5c0.4,0.3,1.1,0.7,2,0.9V83.7z M182.4,103.5c1-0.1,1.7-0.4,2.2-0.7c0.8-0.6,1.2-1.6,1.2-3
				c0-1.1-0.4-1.9-1.1-2.6c-0.4-0.4-1.2-0.7-2.2-1.1V103.5z"/>
		</g>
	</g>
	<g>
		<g>
			<polygon fill="#DB4441" points="555,57.8 616.9,57.8 583.2,37.2 521.4,37.2 			"/>
			<polygon fill="#FFFFFF" points="572.1,50.9 577.2,50.9 566.1,44.1 561.1,44.1 			"/>
			<line fill="none" stroke="#DB4441" stroke-miterlimit="10" x1="616.9" y1="119.7" x2="616.9" y2="57.8"/>
			<line fill="none" stroke="#DB4441" stroke-miterlimit="10" x1="555.8" y1="119.7" x2="555.8" y2="57.8"/>
			<line fill="none" stroke="#DB4441" stroke-miterlimit="10" x1="521.4" y1="99" x2="521.4" y2="37.2"/>
			<line fill="none" stroke="#DB4441" stroke-miterlimit="10" x1="616.9" y1="119.7" x2="555.8" y2="119.7"/>
			<line fill="none" stroke="#DB4441" stroke-miterlimit="10" x1="555.8" y1="119.7" x2="521.4" y2="99"/>
			<line fill="none" stroke="#DB4441" stroke-miterlimit="10" x1="566.1" y1="44.1" x2="566.1" y2="50.9"/>
		</g>
		<g>
			<path fill="#DB4441" d="M585.3,102.2c-2-0.2-3.6-0.7-5.1-1.6c-2.3-1.4-3.5-3.8-3.5-6.9c0-2.4,0.8-4.3,2.5-5.6c1-0.8,3-1.7,6-2.7
				v-7.2c-1.2,0.1-2.1,0.6-2.6,1.5c-0.3,0.5-0.5,1.3-0.6,2.5h-5c0.1-3,1.2-5.2,3.3-6.6c1.2-0.8,2.8-1.4,4.8-1.5v-2.6h1.8V74
				c1.3,0.1,2.3,0.3,2.9,0.5c1.1,0.3,2.1,1,3,1.9c0.7,0.7,1.2,1.5,1.6,2.5c0.4,1,0.6,2,0.6,3.2c0,1.8-0.5,3.3-1.5,4.6
				c-1,1.3-2.7,2.2-5.1,3l-1.5,0.5V98c1.4-0.3,2.4-0.8,2.9-1.6c0.3-0.5,0.6-1.6,0.7-3.2h5.1c0,3.5-1,6-3.2,7.4
				c-1.2,0.8-3.1,1.4-5.6,1.6v3.8h-1.8V102.2z M587.2,84.8c0.9-0.3,1.6-0.6,2-0.9c0.8-0.6,1.2-1.5,1.2-2.5c0-1-0.3-1.7-0.8-2.3
				c-0.5-0.6-1.3-0.9-2.4-0.9V84.8z M585.3,90.6c-1,0.4-1.8,0.8-2.2,1.1c-0.7,0.6-1.1,1.5-1.1,2.6c0,1.4,0.4,2.4,1.2,3
				c0.4,0.3,1.2,0.6,2.2,0.7V90.6z"/>
		</g>
	</g>
</g>
<g>
	<rect x="114.9" y="15.7" fill="none" stroke="#DB4441" stroke-miterlimit="10" width="534" height="128"/>
	<rect x="109.9" y="10.7" fill="none" stroke="#DB4441" stroke-miterlimit="10" width="544" height="138"/>
	<rect x="104.2" y="4.7" fill="#FFFFFF" stroke="#DB4441" stroke-miterlimit="10" width="22.7" height="22.7"/>
	<rect x="108.7" y="9.2" fill="#DB4441" width="13.6" height="13.6"/>
	<rect x="637.5" y="4.7" fill="#FFFFFF" stroke="#DB4441" stroke-miterlimit="10" width="22.7" height="22.7"/>
	<rect x="637.5" y="132.3" fill="#FFFFFF" stroke="#DB4441" stroke-miterlimit="10" width="22.7" height="22.7"/>
	<rect x="104.2" y="132.3" fill="#FFFFFF" stroke="#DB4441" stroke-miterlimit="10" width="22.7" height="22.7"/>
	<rect x="642.1" y="9.2" fill="#DB4441" width="13.6" height="13.6"/>
	<rect x="642.1" y="136.9" fill="#DB4441" width="13.6" height="13.6"/>
	<rect x="108.7" y="136.9" fill="#DB4441" width="13.6" height="13.6"/>
</g>
</svg>
