<?xml version="1.0" encoding="utf-8"?>
<!-- Generator: Adobe Illustrator 17.1.0, SVG Export Plug-In . SVG Version: 6.00 Build 0)  -->
<!DOCTYPE svg PUBLIC "-//W3C//DTD SVG 1.1 Tiny//EN" "http://www.w3.org/Graphics/SVG/1.1/DTD/svg11-tiny.dtd">
<svg version="1.1" baseProfile="tiny" id="圖層_1"
	 xmlns="http://www.w3.org/2000/svg" xmlns:xlink="http://www.w3.org/1999/xlink" x="0px" y="0px" viewBox="0 0 800 160"
	 xml:space="preserve">
<g>
	<path fill="#DB4441" d="M307,54.7c11.2,2.7,13.8,4,13.8,7.4c0,2.5-1.3,4.6-2.8,4.6c-0.7,0-1-0.3-3.8-4.3c-1.7-2.2-5.2-5.4-7.7-7
		c-2.9,3.9-4,5.1-8.6,9c0.8,0.1,0.8,0.1,3.6,0.3h5.1c1.4-1.7,1.9-2.3,3.2-3.9c2.2,1.8,2.8,2.4,4.8,4.2c0.2,0.3,0.3,0.5,0.3,0.5
		c0,0.3-0.3,0.5-0.6,0.5h-12.7c-1.7,0-2.1,0.1-3.4,0.3l-0.4-1.9c-1.8,1.5-2.9,2.3-4.2,3.1c2,1,2.8,1.5,5.3,3.1h12.4
		c1.3-1.5,1.7-2,3.1-3.4c2.3,1.4,3,1.9,5.2,3.4c0.6,0.5,0.8,0.8,0.8,1.2c0,0.5-0.5,0.9-2.1,1.8c0,2.1,0,3.6,0,4.7
		c0,3.5,0.1,5.2,0.2,9c-0.1,1.4-0.9,1.6-5.1,1.6c-1.3,0-1.6-0.2-1.6-1v-1.1h-14.1c-0.4,1.5-0.6,2.1-1.2,3.6c1.4,0.7,2.3,1.3,4.7,2.7
		h10.7c1.4-1.6,1.8-2,3.2-3.5c2.2,1.5,2.9,2,5,3.5c0.6,0.5,0.9,0.7,0.9,1c0,0.5-0.3,0.7-2,1.7c0,5,0.1,6.6,0.2,12
		c-0.1,1.6-0.8,1.9-5.2,1.9c-1.3,0-1.6-0.2-1.6-1.2v-1.8h-11.6v2c-0.1,1.4-0.8,1.6-4.7,1.6c-1.6,0-2-0.3-2-1.6
		c0.1-4.6,0.1-6.2,0.1-9.7v-3.6c-2.5,4.4-4.4,6.6-8.6,10l-0.5-0.6c5.5-8.1,7.1-15.1,7.1-30.9c0-2,0-3-0.1-4.9
		c-2,1.2-3.2,1.9-6.4,3.4l-0.5-0.7c4.4-3.6,7.3-6.8,10.4-11.5c2.5-3.7,3.8-6.3,4.8-9.7c9.9,2.4,9.9,2.4,9.9,3.1c0,0.7-0.9,1-2.8,1
		L307,54.7z M298.5,79c-0.1,3.2-0.3,4.5-0.6,6.4h13.8V79H298.5z M311.6,77.6v-5.7h-12.9c-0.1,3.1-0.1,4.9-0.1,5.7H311.6z
		 M300.5,105.2h11.6V94.4h-11.6V105.2z M332.7,57.9c0,0.6-0.4,0.8-2.3,1.5c0,3.4,0,6.6,0,8.3c0,7.2,0.1,11,0.3,25.5
		c0,0.1,0,0.3,0,0.3c0,0.8-0.3,1.4-0.8,1.6c-0.8,0.3-2.5,0.6-4.2,0.6c-1.9,0-2.3-0.3-2.3-1.7c0.2-5.9,0.3-11.6,0.3-31.4
		c0-1.9-0.1-4.3-0.3-6.8C331.8,56.8,332.7,57,332.7,57.9z M335.9,57.7c0-2.2-0.1-3.5-0.3-6.2c2.3,0.2,4,0.4,5.2,0.5
		c3.9,0.3,4.8,0.6,4.8,1.5c0,0.7-0.6,1-2.6,1.6v31.6l0.3,16.6c-0.1,3.1-0.7,4.3-2.9,5.3c-1.6,0.7-5,1.4-6.6,1.4
		c-0.5,0-0.6-0.1-0.6-1.1c-0.1-3.4-2-4.7-9.1-6.4v-0.8c5.1,0.3,6.7,0.4,10.8,0.5c0.9-0.1,1.1-0.3,1.1-0.9L335.9,57.7z"/>
	<path fill="#DB4441" d="M405.6,76.1h3.6c1.8-2.2,2.3-2.9,4.1-5.2c2.7,2.3,3.6,3.1,6.4,5.5c0.1,0.2,0.3,0.4,0.3,0.5
		c0,0.3-0.3,0.5-0.6,0.5h-13.7v13.7c0.1,11.8,0.1,11.8,0.2,16.3c-0.1,1.8-1,2.2-4.6,2.2c-2.9,0-3.4-0.3-3.4-1.9
		c0.1-3.6,0.1-3.6,0.2-8.3c0.1-4.2,0.2-5,0.2-8.3V77.5H391c-1.6,0-2.6,0.1-4.7,0.4l-0.5-2.5c2.7,0.5,4.4,0.7,5.5,0.7h7V56.9H392
		c-1.2,0-2.1,0.1-4.3,0.4l-0.5-2.3c2,0.3,4.2,0.6,5.1,0.6h15.1c1.9-2.3,2.5-3,4.5-5.2c3,2.4,3.9,3.1,6.8,5.7
		c0.2,0.2,0.3,0.4,0.3,0.5c0,0.3-0.3,0.4-0.8,0.4h-12.6V76.1z M430.7,57.3c0,0.3-0.3,0.6-0.8,0.9c-0.1,0.1-0.1,0.1-1.2,0.5
		c-0.4,0.1-0.5,0.2-0.8,0.3c0.1,19.7,0.1,30.9,0.2,33.8c0,1-0.1,1.4-0.6,1.7c-0.5,0.4-2.3,0.6-4.8,0.6c-1.6,0-2-0.3-2-1.4
		c0,0,0-0.1,0-0.2c0.1-4.7,0.2-8.5,0.3-10.8c0.1-4.2,0.2-11.2,0.2-18.2c0-4.6-0.1-6.2-0.5-9.2C429.3,56.1,430.7,56.3,430.7,57.3z
		 M435,56.5c0-1.6-0.1-2.7-0.3-5.3c1.4,0.1,2.4,0.3,3.1,0.3c2.4,0.3,4,0.5,4.4,0.5c1.8,0.1,2.7,0.6,2.7,1.3c0,0.6-0.7,1-2.6,1.6
		l-0.1,29l0.2,18.6c-0.1,3-0.6,4.2-2.3,5.2c-1.4,0.8-2.5,1.2-4.9,1.6c-1.4,0.3-2,0.3-2.6,0.3c-0.7,0-0.8-0.1-0.8-1.2
		c-0.3-3.5-1.9-4.6-9.8-6.5l0.1-0.8c5.4,0.5,7.2,0.6,11.7,0.8c1,0,1.2-0.2,1.2-1.2V56.5z"/>
	<path fill="#DB4441" d="M536.9,64.5c-2.2,10.9-4.6,17.1-8.7,23.4c-3.5,5.3-8.2,9.9-13.8,13.5c-2.6,1.7-4.5,2.6-8.6,4.4l-0.4-0.7
		c9-6.8,14.4-13,18.7-21.7c3.1-6.3,4.9-11.8,6.3-18.9h-3.8c-1.5,5.9-2.7,8.9-5.5,13.4c-4,6.4-8,10.3-15.8,15.2l-0.5-0.6
		c5.2-5.4,7.9-9.4,11-16.1c2.1-4.6,2.9-7,3.8-12h-2.2c-3.9,5.6-6.3,8.2-11.5,12.2l-0.5-0.5c2.5-3.7,3.5-5.5,5.1-8.7h-7.7v13.1
		c4-1.2,5.3-1.6,8.5-2.8l0.3,0.7c-2.7,2-2.7,2.1-8.6,5.5v8.1c0,3.2,0,5.1,0.2,16.5c0,0.6-0.1,0.9-0.5,1.1c-0.6,0.5-2.1,0.7-4.5,0.7
		c-1.9,0-2.4-0.3-2.4-1.1c0,0,0-0.1,0-0.1c0.3-8.4,0.4-13.6,0.4-16.2v-5.1c-1.8,1-1.8,1-6.2,3.2c-0.1,2.1-0.3,2.9-1,2.9
		c-0.8,0-1.4-1.7-3.8-9.4c3.1-0.3,6.8-1,11-2.2V67.5h-4c-1.8,4.4-3.4,7.1-6.8,12.1l-0.7-0.3c1.4-4.3,2.1-6.8,2.7-10.5
		c0.7-3.4,1.4-10.1,1.4-12.1c0-0.4,0-0.9-0.1-1.6c3.6,0.8,4.7,1,7.5,1.9v-0.7c0-2.5-0.1-4.5-0.3-6.2c7.9,0.8,8.6,0.9,9.3,1.1
		c0.6,0.2,0.8,0.5,0.8,0.8c0,0.6-0.7,1-3.1,1.6v12.5h0.8c1.3-2.1,1.7-2.8,3-5c1.8,2.4,2.4,3.1,4.1,5.5l0.1,0.1
		c2.7-5.9,4.5-12,5-16.3c9.2,2.3,10.2,2.6,10.2,3.4c0,0.6-0.7,0.9-3,1.3c-1.8,3.4-2.6,4.9-4.7,8.1h18.5c1.4-1.6,1.9-2.1,3.4-3.6
		c2.3,1.8,3.1,2.3,5,4.1c0.6,0.5,0.8,0.8,0.8,1.2c0,0.5-0.5,0.8-2.1,1.8c-0.6,15.3-1,22-2.1,28.5c-1.4,8.6-3.1,12-6.4,13.6
		c-1.4,0.6-4.2,1.2-6.1,1.2c-0.8,0-1-0.2-1.1-1.4c-0.1-1.8-0.7-2.9-1.9-3.7c-1.2-0.9-2.1-1.2-7.9-2.9l0.1-0.8
		c6.1,0.6,10.3,0.9,12.2,0.9c2,0,2.7-0.9,3.6-4.9c1-4.5,1.8-11,2.3-17.2c0-0.9,0.2-4.3,0.7-15.4H536.9z M496.1,58.5
		c-0.4,0.1-0.5,0.1-1,0.3c-1,3.5-1.5,4.9-2.4,7.3h3.4V58.5z"/>
</g>
<g>
	<g>
		<g>
			<g id="XMLID_14_">
				<g>
					<path fill="#DB4441" d="M220.4,70.1c3.9,3.6,5.8,7.9,4.2,9.6c-0.2,0.3-0.6,0.5-0.9,0.6c-0.3,0.1-0.6,0.1-1,0.2
						c0.6-0.8,1-1.4,1.1-1.4c0,0,0,0,0,0c1.4-1.6-0.2-5.4-3.7-8.6c-3.5-3.2-7.5-4.4-8.9-2.9c0,0,0,0,0,0c-0.1,0.1-0.6,0.5-1.3,1.2
						c0-0.4,0-0.7,0.1-1c0.1-0.4,0.2-0.7,0.5-1C212,65.1,216.5,66.5,220.4,70.1z"/>
					<circle fill="#DB4441" cx="203.6" cy="88.5" r="1.9"/>
				</g>
				<g>
					<path fill="none" stroke="#DB4441" stroke-miterlimit="10" d="M209.9,68.8c0-0.4,0-0.7,0.1-1c0.1-0.4,0.2-0.7,0.5-1
						c1.6-1.8,6.1-0.3,10,3.2c3.9,3.6,5.8,7.9,4.2,9.6c-0.2,0.3-0.6,0.5-0.9,0.6c-0.3,0.1-0.6,0.1-1,0.2"/>
					<path fill="none" stroke="#DB4441" stroke-miterlimit="10" d="M211.2,67.5c1.4-1.6,5.4-0.3,8.9,2.9c3.5,3.2,5.2,7,3.7,8.6"/>
					<line fill="none" stroke="#DB4441" stroke-miterlimit="10" x1="229.7" y1="78.5" x2="229.7" y2="78.5"/>
					<path fill="none" stroke="#DB4441" stroke-miterlimit="10" d="M211.1,61.6L211.1,61.6c2.1-2.3,8-0.4,13.1,4.3
						c5.1,4.6,7.6,10.3,5.5,12.6"/>
					<path fill="none" stroke="#DB4441" stroke-miterlimit="10" d="M232.6,36.7c2.1-2.3,8.2-0.2,13.7,4.8c5.5,5,8.2,10.9,6.1,13.2"
						/>
					<polyline fill="none" stroke="#DB4441" stroke-miterlimit="10" points="211.1,61.6 209.9,67.8 209.9,67.9 					"/>
					<polyline fill="none" stroke="#DB4441" stroke-miterlimit="10" points="229.7,78.5 223.7,80.3 223.6,80.3 					"/>
					<line fill="none" stroke="#DB4441" stroke-miterlimit="10" x1="211.1" y1="61.6" x2="232.6" y2="36.7"/>
					<polyline fill="none" stroke="#DB4441" stroke-miterlimit="10" points="229.7,78.5 229.7,78.5 252.4,54.7 					"/>
					<path fill="none" stroke="#DB4441" stroke-miterlimit="10" d="M211.2,67.5C211.2,67.5,211.2,67.5,211.2,67.5
						c-0.1,0.1-0.6,0.5-1.3,1.2c-3.7,3.3-13.8,12.4-18,14.7c0,0-2.1,17.9-6.8,25.5"/>
					<path fill="none" stroke="#DB4441" stroke-miterlimit="10" d="M223.8,79C223.8,79,223.8,79,223.8,79c-0.1,0.1-0.5,0.6-1.1,1.5
						c-3,4-11,14.9-12.9,19.4c0,0-17.6,3.8-24.8,9.2"/>
					<line fill="none" stroke="#DB4441" stroke-width="2" stroke-miterlimit="10" x1="185.1" y1="109" x2="202.3" y2="90"/>
					<circle fill="none" stroke="#DB4441" stroke-miterlimit="10" cx="203.6" cy="88.5" r="1.9"/>
				</g>
			</g>
		</g>
		<path fill="#DB4441" d="M185.1,113.7c0,0-5.2,10.5,0,10.5C190.2,124.2,185.1,113.7,185.1,113.7z"/>
	</g>
	<g>
		<g>
			<g id="XMLID_15_">
				<g>
					<path fill="#DB4441" d="M621.4,69.1c-1.6-1.8-6.1-0.3-10,3.2c-3.9,3.6-5.8,7.9-4.2,9.6c0.2,0.3,0.6,0.5,0.9,0.6
						c0.3,0.1,0.6,0.1,1,0.2c-0.6-0.8-1-1.4-1.1-1.4c0,0,0,0,0,0c-1.4-1.6,0.2-5.4,3.7-8.6c3.5-3.2,7.5-4.4,8.9-2.9c0,0,0,0,0,0
						c0.1,0.1,0.6,0.5,1.3,1.2c0-0.4,0-0.7-0.1-1C621.8,69.7,621.6,69.3,621.4,69.1z"/>
					<circle fill="#DB4441" cx="628.2" cy="90.8" r="1.9"/>
				</g>
				<g>
					<path fill="none" stroke="#DB4441" stroke-miterlimit="10" d="M621.9,71c0-0.4,0-0.7-0.1-1c-0.1-0.4-0.2-0.7-0.5-1
						c-1.6-1.8-6.1-0.3-10,3.2c-3.9,3.6-5.8,7.9-4.2,9.6c0.2,0.3,0.6,0.5,0.9,0.6c0.3,0.1,0.6,0.1,1,0.2"/>
					<path fill="none" stroke="#DB4441" stroke-miterlimit="10" d="M620.6,69.8c-1.4-1.6-5.4-0.3-8.9,2.9c-3.5,3.2-5.2,7-3.7,8.6"/>
					<line fill="none" stroke="#DB4441" stroke-miterlimit="10" x1="602.1" y1="80.8" x2="602.1" y2="80.8"/>
					<path fill="none" stroke="#DB4441" stroke-miterlimit="10" d="M620.7,63.9L620.7,63.9c-2.1-2.3-8-0.4-13.1,4.3
						c-5.1,4.6-7.6,10.3-5.5,12.6"/>
					<path fill="none" stroke="#DB4441" stroke-miterlimit="10" d="M599.2,39c-2.1-2.3-8.2-0.2-13.7,4.8c-5.5,5-8.2,10.9-6.1,13.2"
						/>
					<polyline fill="none" stroke="#DB4441" stroke-miterlimit="10" points="620.7,63.9 621.9,70 621.9,70.2 					"/>
					<polyline fill="none" stroke="#DB4441" stroke-miterlimit="10" points="602.1,80.8 608.1,82.5 608.2,82.6 					"/>
					<line fill="none" stroke="#DB4441" stroke-miterlimit="10" x1="620.7" y1="63.9" x2="599.2" y2="39"/>
					<polyline fill="none" stroke="#DB4441" stroke-miterlimit="10" points="602.1,80.8 602.1,80.7 579.4,57 					"/>
					<path fill="none" stroke="#DB4441" stroke-miterlimit="10" d="M620.6,69.8C620.6,69.8,620.6,69.8,620.6,69.8
						c0.1,0.1,0.6,0.5,1.3,1.2c3.7,3.3,13.8,12.4,18,14.7c0,0,2.1,17.9,6.8,25.5"/>
					<path fill="none" stroke="#DB4441" stroke-miterlimit="10" d="M608,81.2C608,81.2,608,81.2,608,81.2c0.1,0.1,0.5,0.6,1.1,1.5
						c3,4,11,14.9,12.9,19.4c0,0,17.6,3.8,24.8,9.2"/>
					<line fill="none" stroke="#DB4441" stroke-width="2" stroke-miterlimit="10" x1="646.8" y1="111.3" x2="629.5" y2="92.2"/>
					<circle fill="none" stroke="#DB4441" stroke-miterlimit="10" cx="628.2" cy="90.8" r="1.9"/>
				</g>
			</g>
		</g>
		<path fill="#DB4441" d="M646.8,115.9c0,0,5.2,10.5,0,10.5C641.6,126.4,646.8,115.9,646.8,115.9z"/>
	</g>
</g>
<g>
	<rect x="128.6" y="16.7" fill="none" stroke="#DB4441" stroke-miterlimit="10" width="574" height="128"/>
	<rect x="123.6" y="11.7" fill="none" stroke="#DB4441" stroke-miterlimit="10" width="584" height="138"/>
	<rect x="117.9" y="5.7" fill="#FFFFFF" stroke="#DB4441" stroke-miterlimit="10" width="22.7" height="22.7"/>
	<rect x="122.4" y="10.2" fill="#DB4441" width="13.6" height="13.6"/>
	<rect x="691.2" y="5.7" fill="#FFFFFF" stroke="#DB4441" stroke-miterlimit="10" width="22.7" height="22.7"/>
	<rect x="691.2" y="133.3" fill="#FFFFFF" stroke="#DB4441" stroke-miterlimit="10" width="22.7" height="22.7"/>
	<rect x="117.9" y="133.3" fill="#FFFFFF" stroke="#DB4441" stroke-miterlimit="10" width="22.7" height="22.7"/>
	<rect x="695.8" y="10.2" fill="#DB4441" width="13.6" height="13.6"/>
	<rect x="695.8" y="137.9" fill="#DB4441" width="13.6" height="13.6"/>
	<rect x="122.4" y="137.9" fill="#DB4441" width="13.6" height="13.6"/>
</g>
</svg>
