<?xml version="1.0" encoding="utf-8"?>
<!-- Generator: Adobe Illustrator 17.1.0, SVG Export Plug-In . SVG Version: 6.00 Build 0)  -->
<!DOCTYPE svg PUBLIC "-//W3C//DTD SVG 1.1 Tiny//EN" "http://www.w3.org/Graphics/SVG/1.1/DTD/svg11-tiny.dtd">
<svg version="1.1" baseProfile="tiny" id="圖層_1"
	 xmlns="http://www.w3.org/2000/svg" xmlns:xlink="http://www.w3.org/1999/xlink" x="0px" y="0px" viewBox="0 0 800 160"
	 xml:space="preserve">
<g>
	<path fill="#DB4441" d="M261.9,89.1c2-2.2,2.6-2.9,4.7-4.9c3.3,2.5,4.3,3.2,7.5,5.7c0.1,0.1,0.3,0.3,0.3,0.3c0,0.2-0.3,0.3-0.8,0.3
		h-24.7c3.7,3.1,6.4,4.6,11,6.1c4.7,1.6,10,2.4,16.1,2.5v0.8c-2.8,1.4-3.8,2.9-4.6,6.2c-0.2,0.7-0.4,0.8-0.9,0.8
		c-1,0-4.5-1.2-6.9-2.3c-3.6-1.6-7.3-4.1-10-6.7c-1.9-1.8-3.2-3.4-5.8-6.9V102l0.1,3.4c0,0.5,0.1,1.2,0.1,2.1
		c-0.1,0.6-0.2,0.8-0.7,1c-0.6,0.3-3.3,0.5-5.2,0.5c-1.1,0-1.4-0.3-1.4-1.1c0.1-3,0.2-6.3,0.2-9.2v-3.5c-4.8,3.8-8,5.8-13,8
		c-4.2,1.8-7.5,2.7-13.8,4.1l-0.2-0.7c7.1-3.1,10.7-5.3,16.1-9.5c3.1-2.5,3.9-3.3,6.6-6.6h-14.6c-2.3,0-4.1,0.1-5.8,0.3l-0.5-2.2
		c2.3,0.4,4.9,0.6,7,0.6h18.2c0-0.7,0-1.2,0-1.6c0-1.9-0.1-2.5-0.3-4.1c1.9,0.1,3.4,0.3,4.3,0.3c3.9,0.3,5.2,0.6,5.2,1.4
		c0,0.5-0.3,0.7-2.3,1.4v2.5H261.9z M257.9,65.2c1.6-1.9,2.1-2.5,3.9-4.3c2.8,2.1,3.6,2.8,6.2,5c0.1,0.1,0.2,0.3,0.2,0.3
		c0,0.2-0.2,0.3-0.5,0.3h-18.6v6.1h8.6c1.6-1.9,2.1-2.5,3.8-4.3c2.9,2.1,3.8,2.8,6.5,5c0.2,0.1,0.3,0.3,0.3,0.3
		c0,0.2-0.2,0.3-0.6,0.3h-18.7v6.8h10.5c2-2.1,2.6-2.7,4.6-4.7c3.2,2.3,4.1,3.1,7.1,5.4c0.1,0.2,0.2,0.3,0.2,0.4
		c0,0.1-0.2,0.3-0.6,0.3H230v1.7c-0.1,0.7-0.3,0.9-0.7,1.1c-0.6,0.3-3.1,0.5-4.8,0.5c-1.1,0-1.5-0.3-1.6-1.1c0-0.8,0.1-4,0.3-9.6
		v-9.4c-3.1,2.7-4.6,3.8-8.6,6.2l-0.5-0.5c4.2-4.5,6.5-7.6,9.2-12.4c2-3.5,3.1-6,4.6-10.1c2,0.6,3.5,1,4.5,1.2
		c4.7,1.1,5.5,1.4,5.5,2.1c0,0.2-0.1,0.4-0.3,0.6c-0.2,0.1-1.3,0.5-3.2,0.8c-1.8,2.4-2.4,3.2-3.7,4.7h12.4c1.8-3.6,2.7-5.8,3.4-9
		c9.6,2.3,10,2.4,10,3.2c0,0.7-0.6,1-3.4,1.3c-1.4,0.9-1.4,0.9-4.5,3.2c-0.5,0.3-0.8,0.5-2.1,1.4h12.7c2-2.1,2.6-2.8,4.6-5
		c3.2,2.3,4.2,3.1,7.1,5.7c0.2,0.1,0.3,0.3,0.3,0.4c0,0.2-0.3,0.3-0.6,0.3h-21.4v6H257.9z M242.2,59.2H230v6h12.2V59.2z M242.2,66.6
		H230v6.1h12.2V66.6z M242.2,74.1H230v6.8h12.2V74.1z"/>
	<path fill="#DB4441" d="M332.8,107c0,0.6-0.1,1-0.4,1.2c-0.6,0.5-2.2,0.7-4.4,0.7c-1.8,0-2.2-0.3-2.3-1.3c0.2-7.7,0.2-8.1,0.2-9.8
		c0-6.1-0.1-10.3-0.1-12.1c-1,0.1-2,0.2-2.6,0.2c-1.4,0-1.8-0.3-1.9-1.4c0.1-2.5,0.1-9.7,0.1-11.6c0-0.5,0-2-0.1-4.5
		c-2.4,1-3.5,1.4-6.6,2.3l-0.4-0.6c6-3.4,11-7.1,16.1-11.9c4.4-4.2,6.5-6.8,8.4-10.3c9.9,2,10.4,2.1,10.4,2.9c0,0.6-0.5,0.8-2.7,1.2
		c3.8,3.4,6.9,5.1,12.5,7c5.2,1.7,9.5,2.5,16.9,3.1v0.5c-1.8,1.2-2.5,1.9-3.3,3.4c-0.5,0.8-0.9,1.9-1,2.5c-0.1,0.6-0.3,0.8-0.8,0.8
		c-0.3,0-0.3,0-3-0.9c0.3,0.3,0.5,0.5,0.5,0.7c0,0.3-0.4,0.7-1.2,1.2c-0.1,1.7-0.1,2.8-0.1,3.8c0,2.1,0.1,3.5,0.3,9.6
		c0,0.1,0,0.3,0,0.3c0,0.7-0.2,1-0.8,1.3c-0.6,0.3-3,0.5-4.6,0.5c-1,0-1.3-0.2-1.6-1v-1h-32.3v1c-0.1,0.5-0.3,0.6-0.8,0.8
		c2.3,0.8,3.2,1.2,6,2.5h22.2c1.4-1.6,1.9-2,3.4-3.3c2.3,1.4,3,1.8,5.1,3.3c0.7,0.5,1,0.8,1,1.2c0,0.5-0.3,0.7-2.2,1.9
		c0,5.6,0,5.6,0.4,15.7c0,0.8-0.3,1.1-0.9,1.4c-0.6,0.2-3.4,0.5-4.8,0.5c-1,0-1.4-0.3-1.6-1v-2.3h-23.2V107z M328.5,68h31.4
		c1-1.1,1.4-1.4,2.1-2.2c-8.2-4.4-11.8-7.3-16.4-13.5c-6.1,6-12,10.2-19.7,14L328.5,68z M340.8,69.4h-12.7v12.9h12.7V69.4z
		 M330.8,70.7c4.9,1.9,7.4,4.1,7.4,6.1c0,2-2.1,4.5-3.8,4.5c-0.8,0-1-0.4-1.4-2.7c-0.5-3.1-1.2-4.9-2.8-7.5L330.8,70.7z M356,89.4
		h-23.2v6.2H356V89.4z M332.8,96.9v7H356v-7H332.8z M344.7,62.4c2.1-2.4,2.1-2.4,3.6-4.1c2.7,1.9,3.4,2.5,6,4.5
		c0.2,0.3,0.4,0.5,0.4,0.6c0,0.2-0.2,0.3-0.6,0.3h-16.4c-1.2,0-2.1,0.1-3.2,0.3l-0.5-2.1c1.7,0.4,2.5,0.5,3.6,0.5H344.7z
		 M347.1,82.3h13.3V69.4h-13.3V82.3z M349,81.1c1.8-4,2.9-7,3.4-10.5c6,2,6.9,2.4,6.9,3.1c0,0.7-0.7,1-2.2,1
		c-3.5,3.7-4.6,4.6-7.7,6.8L349,81.1z"/>
	<path fill="#DB4441" d="M413.4,76.1c1.4,0.3,2.4,0.4,3.3,0.4h4c1.5-1.8,2-2.3,3.6-4.1c2.3,1.6,3,2.1,5.2,3.8
		c0.6,0.5,0.8,0.8,0.8,1.2c0,0.5-0.2,0.6-2.5,2.2v15.8c1.8,2.7,3.1,3.8,5.9,4.7c2.1,0.7,6.7,1,12.1,1c8.6,0,16.8-0.4,29.3-1.5
		l0.1,0.7c-2.1,1-3.2,2.1-3.9,4.1c-0.2,0.7-0.3,1-0.4,2.1c-0.1,0.6-0.3,0.7-1.3,0.7c-0.1,0-0.4,0-0.8,0.1c-4.2,0.1-10.6,0.2-15,0.2
		c-12.7,0-17.3-0.7-21-3.3c-2.9-2-4.4-4-6.5-8.6c-2.9,4.6-3.9,6-7.5,10.1c0.1,1,0.2,1.5,0.2,1.8c0,0.7-0.3,1.1-0.8,1.1
		c-0.8,0-1.4-0.8-5.3-8.8c2.6-0.8,4.4-1.6,8.1-3.8v-18h-4.5c-0.8,0-2,0.1-2.8,0.3L413.4,76.1z M415.8,50.7
		c9.6,4.6,12.3,6.8,12.3,9.8c0,3.1-2.3,6.3-4.6,6.3c-1.2,0-1.7-0.7-2.7-4.2c-1.4-5.1-3-8.3-5.6-11.4L415.8,50.7z M457.9,80.2v-1
		c0-1.6-0.1-3-0.4-6.2c2.2,0.2,2.8,0.3,4.4,0.5c0.3-0.5,1.1-2.3,2.6-5.6h-8.1c-1.2,0-1.8,0.1-2.8,0.3l-0.5-2
		c1.2,0.3,2.4,0.4,3.4,0.4h8.1c1.3-1.3,1.7-1.8,3.2-3.1c2.4,1.8,3.2,2.4,5.6,4.4c0.4,0.4,0.6,0.6,0.6,0.8c0,0.6-0.2,0.7-3,0.9
		c-1.7,1.3-5,3.5-6.4,4.2c1.5,0.3,2,0.5,2,0.9s-0.1,0.6-2.2,1.5v4h2.1c1.6-2.1,2.1-2.7,3.7-4.7c2.5,2.1,3.2,2.9,5.4,5
		c0.2,0.2,0.3,0.4,0.3,0.5c0,0.4-0.3,0.5-1,0.5h-10.5v7.2c0,2.1,0,2.1,0,3.1c0,0.7,0,0.7,0.1,1.3c-0.1,2.7-0.8,4-2.9,4.8
		c-1.3,0.5-3.9,1.1-5.2,1.1c-0.5,0-0.5-0.1-0.6-1c-0.3-3-1.4-4.2-5.2-5.3l0.1-0.7c2.1,0.3,2.9,0.3,6.4,0.4c0.7,0,1-0.3,1-1.2v-9.6
		h-8.1c-0.1,0.8-0.1,0.8-0.5,5.5c-0.5,4.9-1.5,8.1-2.9,9.6c-1,1-2.5,1.6-4.7,1.9c-1.1,0.1-1.2,0.1-1.4,0.1c-0.5,0-0.6-0.1-0.6-1
		c-0.1-2.8-1.4-4.4-4.5-5.3l0.1-0.7c2,0.2,4.2,0.3,5,0.3c1.2,0,1.9-0.5,2.2-1.6c0.9-3.2,1.4-7.9,2-19.8h-3.8
		c-0.7,6.8-1.2,9.9-2.4,13.2c-1.6,4.7-4.4,8.7-8.6,12.5l-0.5-0.5c3.1-6,4.4-11.8,5.1-21.2c0.3-3.6,0.3-4.9,0.4-13.4h-2.8
		c-1.1,0-1.7,0.1-2.9,0.3l-0.4-2.1c1.3,0.3,2.3,0.5,3.3,0.5h4.4v-4.4c0-1.8-0.1-3.2-0.5-6.1c7.2,0.5,9.5,1,9.5,2
		c0,0.5-0.4,0.8-2.5,1.5v7h1.5c1.4-1.6,1.8-2.1,3.1-3.8c2.1,1.7,2.8,2.3,4.9,4.2l0.2,0.3c1.6-4.4,2.3-7.9,2.7-11.4
		c7.7,1.8,9.6,2.3,9.6,3.2c0,0.6-0.5,0.8-2.7,1.3c-2.5,4-2.5,4-3.8,5.9h6.4c1.8-2,2.3-2.7,4.2-4.7c2.7,2,3.5,2.7,6,4.9
		c0.3,0.3,0.4,0.5,0.4,0.6c0,0.3-0.3,0.5-0.7,0.5h-17.4c-2.1,2.7-3.6,4.3-7,7.4c0.7,0.5,0.8,0.6,1.7,1.3c0.5,0.4,0.7,0.6,0.7,0.8
		c0,0.4-0.5,0.8-2,1.7c-0.3,4.6-0.3,5.3-0.5,8.2H457.9z M441,61.1c-0.1,5.2-0.1,5.2-0.3,7.9h3.4c1.2-1.4,1.2-1.4,2.9-3.1
		c1.2,0.8,1.4,1,2.3,1.6c1.6-3.1,2-4.1,2.9-6.5l-0.7,0.1H441z"/>
	<path fill="#DB4441" d="M522.5,80.5c-2.5,2.2-5.2,4-9.1,6.2l-0.5-0.7c4.3-4.4,7.1-8,10.3-13.1c2.7-4.3,4-7,5.1-10.4
		c8.1,2.9,9.1,3.4,9.1,4.1c0,0.7-0.6,0.9-2.9,1c-2.7,3.7-4.2,5.5-7,8.3c3.2,0.5,4.2,0.8,4.2,1.6c0,0.5-0.4,0.7-2.1,1.3v10.4
		c0,3.1,0.1,8.7,0.1,16.8c0,0.8-0.2,1.3-0.5,1.6c-0.6,0.5-2.2,0.8-4.6,0.8c-2.1,0-2.6-0.3-2.6-1.6c0.2-4,0.5-13.6,0.5-16.6V80.5z
		 M513.6,68.3c4.2-4.2,6.7-7.3,9.2-11.5c1.9-3.2,2.8-5.1,3.7-7.9c2.1,0.8,3.6,1.4,4.7,1.7c4,1.4,4.9,2,4.9,2.6c0,0.7-0.8,0.9-2.9,1
		c-4,4.5-7,7.3-11.1,10.1c-2.3,1.6-4.2,2.5-8.2,4.5L513.6,68.3z M540,71.8c-1.6,0-2.7,0.1-4.5,0.4l-0.5-2.3c1.9,0.4,3.2,0.5,5,0.5
		h22.1l4.9-5.7c3.4,2.5,4.4,3.4,7.4,6c0.3,0.3,0.4,0.5,0.4,0.7c0,0.3-0.3,0.4-0.8,0.4h-11.8v13.3c0,7.2,0,7.2,0.1,16.1
		c0,2.9-0.7,4.2-2.7,5.4c-1.7,0.9-4.9,1.7-7.1,1.7c-0.6,0-0.8-0.2-0.8-0.8c-0.2-1.4-0.5-2.3-1.2-3.1c-1.2-1.4-2.1-1.8-9.7-3.7
		l0.1-0.9c7.5,0.5,8,0.5,12.9,0.6c0.8-0.1,1-0.3,1-1V71.8H540z M537.7,54c2.1,0.5,3.4,0.6,4.7,0.6h15.9l4.9-5.5
		c3.4,2.5,4.4,3.2,7.4,5.7c0.3,0.3,0.5,0.5,0.5,0.7c0,0.3-0.3,0.5-0.8,0.5h-27.8c-1.3,0-2.3,0.1-4.3,0.4L537.7,54z"/>
</g>
<g>
	<g>
		<g id="XMLID_19_">
			<g>
				<path fill="#DB4441" d="M141.2,105.7v25.6c-1.5-0.4-2.3-1.4-2.3-1.4v-24.2H141.2z"/>
			</g>
			<g>
				<path fill="none" stroke="#DB4441" stroke-linecap="round" stroke-linejoin="round" d="M141.2,105.7h4.6v24.2
					c0,0-0.6,1.5-3.4,1.5c-0.4,0-0.8-0.1-1.2-0.1c-1.5-0.4-2.3-1.4-2.3-1.4v-24.2H141.2z"/>
			</g>
		</g>
		<g id="XMLID_17_">
			<g>
				<polygon fill="#FFFFFF" points="163.4,35.4 166.8,34.8 166.8,103.3 119.4,111.5 119.4,108.6 163.4,101 				"/>
				<polygon fill="#DB4441" points="163.4,32.5 166.8,34.8 163.4,35.4 				"/>
				<polygon fill="#DB4441" points="119.4,43 116,40.7 163.4,32.5 163.4,35.4 				"/>
				<polygon fill="#DB4441" points="119.4,108.6 119.4,111.5 116,109.2 				"/>
				<polygon fill="#FFFFFF" points="119.4,108.6 119.4,43 163.4,35.4 163.4,101 				"/>
				<polygon fill="#DB4441" points="116,109.2 116,40.7 119.4,43 119.4,108.6 				"/>
			</g>
			<g>
				<polygon fill="none" stroke="#DB4441" stroke-linecap="round" stroke-linejoin="round" points="166.8,34.8 166.8,103.3 
					119.4,111.5 119.4,108.6 119.4,43 163.4,35.4 				"/>
				<polyline fill="none" stroke="#DB4441" stroke-linecap="round" stroke-linejoin="round" points="119.4,108.6 116,109.2 
					116,40.7 163.4,32.5 163.4,35.4 				"/>
				
					<line fill="none" stroke="#DB4441" stroke-linecap="round" stroke-linejoin="round" x1="163.4" y1="32.5" x2="166.8" y2="34.8"/>
				<line fill="none" stroke="#DB4441" stroke-linecap="round" stroke-linejoin="round" x1="116" y1="40.7" x2="119.4" y2="43"/>
				
					<line fill="none" stroke="#DB4441" stroke-linecap="round" stroke-linejoin="round" x1="116" y1="109.2" x2="119.4" y2="111.5"/>
			</g>
		</g>
		<path fill="#DB4441" d="M157.4,53.6c-1.4,1.1-1.9,2.4-1.6,4.1c0.1,0.5,0.2,1,0.3,1.4c0.2,0.5,0.1,0.9-0.2,1.4
			c-0.5,0.7-0.8,1.5-1,2.3c-0.1,0.4-0.3,0.8-0.5,1.1c-0.8,0.9-1.1,1.8-1.2,2.9c-0.2,1.3-0.5,2.6-0.8,3.9c-0.2,1.1-0.4,2.2-0.7,3.3
			c-0.2,0.9-0.5,1.7-0.8,2.6c-0.3,1-0.6,2-1.1,3c-0.5,1.1-1.1,2.1-1.7,3.2c-0.3,0.5-0.6,1-1,1.5c-0.4,0.6-0.7,1.2-1.2,1.6
			c-1.5,1.5-2.1,3.3-2.3,5.1c-0.1,1.1-0.1,2.1-0.1,3.2c0,0.7-0.4,1.4-0.8,2c-0.1,0.1-0.2,0.2-0.3,0.2c-0.5,0.1-1,0.2-1.5,0.3
			c-0.1-0.9-0.1-1.8-0.3-2.7c-0.4-1.5-1-2.8-2.6-3.4c-1-0.4-1.9-1.1-2.8-1.7c-0.2-0.1-0.2-0.5-0.2-0.7c0.1-0.5-0.1-0.8-0.2-1.2
			c-0.6-1.4-1.5-2.6-2.2-3.9c-0.3-0.6-0.3-1.3,0.2-2.1c0.7-1.1,0.7-2.2,0.6-3.3c-0.2-1.6,0.2-3.3,1.3-4.7c0.6-0.7,1.1-1.3,1.3-2.2
			c0.1-0.2,0.2-0.4,0.3-0.6c1-1.1,1.5-2.5,2.2-3.8c0.4-0.8,0.9-1.6,1.4-2.4c0.3-0.5,0.6-1,0.8-1.5c0.3-0.7,0.7-1.3,1.4-1.8
			c0.8-0.5,1.2-1.2,1.5-2.1c0.4-1.1,1.1-2.2,1.6-3.2c0.1-0.2,0.4-0.4,0.6-0.5c1-0.5,2.1-1,3.1-1.6c0.4-0.2,0.8-0.5,1.1-0.8
			c0.5-0.5,0.9-1,1.4-1.4c0.7-0.6,1.1-0.6,1.6,0c0.5,0.7,1.2,1.1,2.2,1.2C156.4,52.2,157.3,52.5,157.4,53.6z"/>
	</g>
	<g>
		<g id="XMLID_22_">
			<g>
				<path fill="#DB4441" d="M647.3,105.7v25.6c1.5-0.4,2.3-1.4,2.3-1.4v-24.2H647.3z"/>
			</g>
			<g>
				<path fill="none" stroke="#DB4441" stroke-linecap="round" stroke-linejoin="round" d="M647.3,105.7h-4.6v24.2
					c0,0,0.6,1.5,3.4,1.5c0.4,0,0.8-0.1,1.2-0.1c1.5-0.4,2.3-1.4,2.3-1.4v-24.2H647.3z"/>
			</g>
		</g>
		<g id="XMLID_21_">
			<g>
				<polygon fill="#FFFFFF" points="669.1,111.5 669.1,108.6 625,101 625,35.4 621.7,34.8 621.7,103.3 				"/>
				<polygon fill="#DB4441" points="625,35.4 625,32.5 621.7,34.8 				"/>
				<polygon fill="#DB4441" points="669.1,43 672.4,40.7 625,32.5 625,35.4 				"/>
				<polygon fill="#DB4441" points="669.1,108.6 669.1,111.5 672.4,109.2 				"/>
				<polygon fill="#FFFFFF" points="669.1,108.6 669.1,43 625,35.4 625,101 				"/>
				<polygon fill="#DB4441" points="672.4,109.2 672.4,40.7 669.1,43 669.1,108.6 				"/>
			</g>
			<g>
				<polygon fill="none" stroke="#DB4441" stroke-linecap="round" stroke-linejoin="round" points="621.7,34.8 621.7,103.3 
					669.1,111.5 669.1,108.6 669.1,43 625,35.4 				"/>
				<polyline fill="none" stroke="#DB4441" stroke-linecap="round" stroke-linejoin="round" points="669.1,108.6 672.4,109.2 
					672.4,40.7 625,32.5 625,35.4 				"/>
				<line fill="none" stroke="#DB4441" stroke-linecap="round" stroke-linejoin="round" x1="625" y1="32.5" x2="621.7" y2="34.8"/>
				<line fill="none" stroke="#DB4441" stroke-linecap="round" stroke-linejoin="round" x1="672.4" y1="40.7" x2="669.1" y2="43"/>
				
					<line fill="none" stroke="#DB4441" stroke-linecap="round" stroke-linejoin="round" x1="672.4" y1="109.2" x2="669.1" y2="111.5"/>
			</g>
		</g>
		<path fill="#DB4441" d="M631,53.6c1.4,1.1,1.9,2.4,1.6,4.1c-0.1,0.5-0.2,1-0.3,1.4c-0.2,0.5-0.1,0.9,0.2,1.4
			c0.5,0.7,0.8,1.5,1,2.3c0.1,0.4,0.3,0.8,0.5,1.1c0.8,0.9,1.1,1.8,1.2,2.9c0.2,1.3,0.5,2.6,0.8,3.9c0.2,1.1,0.4,2.2,0.7,3.3
			c0.2,0.9,0.5,1.7,0.8,2.6c0.3,1,0.6,2,1.1,3c0.5,1.1,1.1,2.1,1.7,3.2c0.3,0.5,0.6,1,1,1.5c0.4,0.6,0.7,1.2,1.2,1.6
			c1.5,1.5,2.1,3.3,2.3,5.1c0.1,1.1,0.1,2.1,0.1,3.2c0,0.7,0.4,1.4,0.8,2c0.1,0.1,0.2,0.2,0.3,0.2c0.5,0.1,1,0.2,1.5,0.3
			c0.1-0.9,0.1-1.8,0.3-2.7c0.4-1.5,1-2.8,2.6-3.4c1-0.4,1.9-1.1,2.8-1.7c0.2-0.1,0.2-0.5,0.2-0.7c-0.1-0.5,0.1-0.8,0.2-1.2
			c0.6-1.4,1.5-2.6,2.2-3.9c0.3-0.6,0.3-1.3-0.2-2.1c-0.7-1.1-0.7-2.2-0.6-3.3c0.2-1.6-0.2-3.3-1.3-4.7c-0.6-0.7-1.1-1.3-1.3-2.2
			c-0.1-0.2-0.2-0.4-0.3-0.6c-1-1.1-1.5-2.5-2.2-3.8c-0.4-0.8-0.9-1.6-1.4-2.4c-0.3-0.5-0.6-1-0.8-1.5c-0.3-0.7-0.7-1.3-1.4-1.8
			c-0.8-0.5-1.2-1.2-1.5-2.1c-0.4-1.1-1.1-2.2-1.6-3.2c-0.1-0.2-0.4-0.4-0.6-0.5c-1-0.5-2.1-1-3.1-1.6c-0.4-0.2-0.8-0.5-1.1-0.8
			c-0.5-0.5-0.9-1-1.4-1.4c-0.7-0.6-1.1-0.6-1.6,0c-0.5,0.7-1.2,1.1-2.2,1.2C632,52.2,631.1,52.5,631,53.6z"/>
	</g>
</g>
<g>
	<rect x="76.9" y="16" fill="none" stroke="#DB4441" stroke-miterlimit="10" width="634" height="128"/>
	<rect x="71.9" y="11" fill="none" stroke="#DB4441" stroke-miterlimit="10" width="644" height="138"/>
	<rect x="66.2" y="5" fill="#FFFFFF" stroke="#DB4441" stroke-miterlimit="10" width="22.7" height="22.7"/>
	<rect x="70.7" y="9.5" fill="#DB4441" width="13.6" height="13.6"/>
	<rect x="699.5" y="5" fill="#FFFFFF" stroke="#DB4441" stroke-miterlimit="10" width="22.7" height="22.7"/>
	<rect x="699.5" y="132.7" fill="#FFFFFF" stroke="#DB4441" stroke-miterlimit="10" width="22.7" height="22.7"/>
	<rect x="66.2" y="132.7" fill="#FFFFFF" stroke="#DB4441" stroke-miterlimit="10" width="22.7" height="22.7"/>
	<rect x="704.1" y="9.5" fill="#DB4441" width="13.6" height="13.6"/>
	<rect x="704.1" y="137.2" fill="#DB4441" width="13.6" height="13.6"/>
	<rect x="70.7" y="137.2" fill="#DB4441" width="13.6" height="13.6"/>
</g>
</svg>
