<?xml version="1.0" encoding="utf-8"?>
<!-- Generator: Adobe Illustrator 17.1.0, SVG Export Plug-In . SVG Version: 6.00 Build 0)  -->
<!DOCTYPE svg PUBLIC "-//W3C//DTD SVG 1.1 Tiny//EN" "http://www.w3.org/Graphics/SVG/1.1/DTD/svg11-tiny.dtd">
<svg version="1.1" baseProfile="tiny" id="圖層_1"
	 xmlns="http://www.w3.org/2000/svg" xmlns:xlink="http://www.w3.org/1999/xlink" x="0px" y="0px" viewBox="0 0 800 160"
	 xml:space="preserve">
<g>
	<path fill="#DB4441" d="M244.4,53.5c1.8-1.5,2.3-2,4.1-3.4c2.5,1.6,3.2,2.1,5.7,3.8c0.5,0.3,0.7,0.6,0.7,0.8c0,0.5-0.3,0.7-2.5,1.3
		c1.8,1.9,2.4,2.5,3.7,3.6c2.7-3,4.4-5.3,5.9-8.3c2.2,1,2.2,1,6.5,3.1c0.6,0.3,0.8,0.5,0.8,0.8c0,0.6-0.6,0.9-1.7,0.9
		c-0.3,0-0.6,0-1-0.1c-2.7,1.8-4.8,2.8-9,4.6c2,1.3,3.1,1.9,5.9,3.1c3-2.8,5.3-5.5,7-8.1c7.4,3.8,7.4,3.8,7.4,4.3
		c0,0.5-0.5,0.8-1.3,0.8c-0.5,0-1,0-1.7-0.1c-0.7,0.3-1.2,0.5-1.6,0.7c-3.3,1.4-3.3,1.4-7.9,3.1c5.2,1.7,8.6,2.2,15.9,2.5v0.7
		c-2.3,1.2-3.4,2.7-4.2,5.7c-0.2,0.6-0.4,0.8-0.8,0.8c-0.6,0-4.4-1.3-6.9-2.4c0.3,0.3,0.4,0.4,0.4,0.7c0,0.3-0.1,0.5-1.4,1.2v5.1
		c0,1,0.3,1.1,3.1,1.1c1,0,1.4-0.2,1.8-0.8c0.2-0.3,1.2-2.4,2.3-4.7l0.3,0.1l-0.1,3.5c-0.1,0.3-0.1,0.3-0.1,0.5
		c0,0.4,0.3,0.6,0.6,0.8c1.6,0.5,2.2,1.3,2.2,2.6c0,1.2-0.8,2.2-2.1,2.6c-0.7,0.2-3.5,0.5-5.3,0.5c-5.2,0-6.4-0.1-7.3-0.5
		c-1-0.5-1.4-1.1-1.5-2.5c0-2.6,0-2.8,0-3.6v-5.2h-5.4c0,4.2-0.5,6.3-2.1,8.8c-2,3.2-4.4,4.9-9.6,6.9L245,88c3.4-3,4.7-5.3,5.4-9.4
		c0.3-1.8,0.4-3.6,0.4-7.9c0-1,0-1.4-0.1-2.5c3.1,1.2,4,1.6,7,3.3h4.9c1-0.8,1.4-1.1,2.4-2c-6-3.6-8-5.5-13.7-12.6
		c-4.5,5.1-7.2,7.5-11.8,10.5c-2.5,1.7-4.8,2.9-7.7,4.2c0.5,0.1,0.8,0.1,1.1,0.1h5.9c1.4-1.4,1.8-1.8,3.2-3.1
		c2.1,1.2,2.8,1.7,4.9,3.2c0.4,0.4,0.6,0.6,0.6,0.9c0,0.4-0.4,0.8-1.9,1.8c-0.1,2.1-0.1,3.6-0.1,4.2c0,1.7,0.1,2.7,0.2,5.1
		c0,0.1,0,0.2,0,0.2c0,1.1-1,1.4-4.9,1.4c-1.6,0-2-0.2-2-1v-2h-5.2c-1.4,5.1-1.4,5.1-2.2,7.9h6.9c1.4-1.6,1.9-2,3.4-3.3
		c2.3,1.4,2.9,1.9,5.1,3.5c0.4,0.4,0.6,0.6,0.6,0.8c0,0.6-0.6,1.1-2.1,2c-1.6,10.2-2.3,12.7-4.2,15c-1.1,1.3-2.7,2-5.3,2.3
		c-0.7,0.1-2.1,0.2-2.7,0.2c-1.2,0-1.2-0.1-1.5-1.4c-0.3-1.6-0.6-2.5-1.4-3.1c-1.2-1-2.9-1.8-6.2-2.8l0.1-0.8c8.9,1,9.5,1,11,1
		c1.1,0,1.5-0.5,2.1-2.9c0.6-2.4,0.9-3.9,1.5-9.1H231c-0.3,0.8-0.3,1-0.6,1.8c-0.4,0.8-0.6,0.9-1.8,0.9c-3.6,0-5.1-0.4-5.1-1.3
		c0-0.2,0.1-0.5,0.3-1.1c1.7-4.9,2.9-9.4,3.7-14.6c2.9,1.4,3.8,1.9,6.7,3.6h4.6V73h-5.7c-0.5,0-1.3,0.1-2,0.2l-0.4-1.2
		c-3.3,1.4-5.6,2.1-10.7,3.5l-0.3-0.6c6-3.1,9.8-5.5,14.2-9.1c4.4-3.6,7-6.5,10.1-10.9h-12c-0.7,0-2.7,0.2-4,0.4l-0.5-2.3
		c1.9,0.4,3.2,0.6,4.4,0.6H244.4z M223.6,55.8c4.9,0.9,6.2,1.2,8.5,2.3c2,0.9,2.7,1.8,2.7,3.3c0,0.9-0.4,2-1,2.9
		c-0.6,0.8-1.9,1.6-2.5,1.6c-0.5,0-0.7-0.2-1.7-2c-1.2-2.3-2.9-4.4-6.2-7.5L223.6,55.8z M265.2,88.3c1.4-1.4,1.9-1.8,3.3-3.1
		c2.4,1.6,3.1,2.2,5.6,4c0.4,0.4,0.5,0.5,0.5,0.8c0,0.5-0.6,0.8-2.7,1.4c-2.6,3.9-3.8,5.4-6.3,7.9c5.2,1.7,8.3,2.1,15.5,2.3v0.8
		c-2.8,1.3-4.2,3-5.5,6.5c-0.3,0.6-0.5,0.8-0.8,0.8c-0.3,0-1.8-0.6-3.5-1.2c-3.9-1.6-6.6-3.1-10-5.6c-5.4,4-9.9,5.9-19,7.7l-0.2-0.7
		c5.6-2.5,10-5.4,15.3-10.3c-3.2-3.3-4.7-5.5-6.3-10c-1.3,0.1-1.6,0.1-2.7,0.4l-0.5-2.3c1.3,0.3,2.8,0.5,3.9,0.5H265.2z M252.2,89.7
		c2.3,3.6,4,5.3,7.9,7.3c2-2.2,2.9-3.6,4.8-7.3H252.2z"/>
	<path fill="#DB4441" d="M380.7,101.3c-2.3,1-3.4,2.1-4.7,4.6c-0.3,0.7-0.6,1.4-0.9,2.2c-0.1,0.5-0.3,0.7-0.6,0.7
		c-0.5,0-2.1-0.7-4.2-2c-7.7-4.5-12.3-9.5-15.5-17c-1.5-3.4-2.2-5.7-3.4-11.4c-3.4,3.8-4.7,5-7.8,7.5v13.8c4.9-0.6,9.3-1.3,14.5-2.5
		l0.2,0.7c-5.1,2.9-14.5,6.8-26.1,10.5c-0.5,2.1-0.8,2.8-1.4,2.8c-0.8,0-1-0.7-3.4-9.9c2.6-0.1,3.5-0.1,7.3-0.6
		c0.6-0.1,0.6-0.1,1.9-0.3V90.5c-5.7,3.3-9.3,4.8-16.7,7.1l-0.3-0.7c6.4-3.6,10-6.1,15-10.5c3.2-2.9,4.7-4.5,7.5-8h-17.6
		c-1.6,0-2.9,0.1-4.2,0.5l-0.4-2.3c1.5,0.4,2.9,0.5,4.5,0.5H346v-7.7h-15.4c-1.6,0-2.5,0.1-3.8,0.4l-0.3-2.3
		c1.4,0.4,2.7,0.5,4.2,0.5H346v-7.2h-18.3c-1.8,0-3,0.1-4.2,0.4l-0.3-2.3c1.7,0.4,2.9,0.5,4.6,0.5H346v-1.7c0-2.7-0.1-4-0.4-7
		c10.7,1,10.7,1,10.7,1.9c0,0.7-0.8,1.2-3,1.8v5.1h12.5c2.2-2.3,2.9-3.1,5.1-5.4c3.3,2.5,4.2,3.2,7.3,5.8c0.3,0.3,0.4,0.4,0.4,0.6
		c0,0.3-0.3,0.4-0.7,0.4h-24.6V68h10.1c1.6-1.7,3.1-3.4,4.6-5c3.1,2.2,4,2.9,7,5.3c0.3,0.3,0.4,0.5,0.4,0.6c0,0.3-0.3,0.5-0.8,0.5
		h-21.3v7.7H368c2.2-2.3,2.9-3.1,5-5.3c3.3,2.4,4.4,3.2,7.4,5.7c0.3,0.3,0.4,0.5,0.4,0.7c0,0.3-0.3,0.4-0.6,0.4h-27.6
		c1.8,5.4,3.2,8.1,6.4,11.6c4.1-3.9,6.6-7,8.6-10.7c7.7,4.3,8.8,4.9,8.8,5.7c0,0.5-0.5,0.8-1.1,0.8s-1.4-0.1-2.2-0.3
		c-4.6,2.6-8.5,4.4-12.7,5.8c2.2,2,4.4,3.6,7,4.9c3.6,1.9,6.6,2.8,13.5,4.3L380.7,101.3z"/>
	<path fill="#DB4441" d="M420.2,63.3c2.1,0.4,3.4,0.5,5.5,0.5H467c2.1-2.5,2.9-3.2,5.1-5.5c3.3,2.3,4.2,3.1,7.2,5.6
		c0.3,0.3,0.5,0.6,0.5,0.7c0,0.3-0.4,0.5-1,0.5h-53c-2.1,0-3,0.1-5.1,0.4L420.2,63.3z M428.1,54.8c1.9,0.4,3.2,0.5,5,0.5h26.3
		c2-2.3,2.7-2.9,4.7-5c3.1,2.2,4,2.9,7,5.3c0.3,0.3,0.3,0.5,0.3,0.7c0,0.3-0.3,0.5-0.8,0.5h-37.5c-1.8,0-3.1,0.1-4.6,0.4L428.1,54.8
		z M428.2,80.8c2,0.3,3.1,0.5,4.9,0.5h26.5c2-2.3,2.6-2.9,4.6-5.1c3.2,2.2,4.1,2.9,7.2,5.3c0.3,0.3,0.4,0.5,0.4,0.7
		c0,0.3-0.3,0.5-0.8,0.5h-37.8c-1.6,0-2.8,0.1-4.5,0.4L428.2,80.8z M428.3,72c1.9,0.3,3.5,0.5,5.1,0.5h26.3c2-2.3,2.7-2.9,4.7-5.1
		c3.1,2.2,4.1,2.9,7.1,5.3c0.3,0.3,0.4,0.5,0.4,0.6c0,0.3-0.4,0.5-0.9,0.5h-37.6c-1.7,0-2.7,0.1-4.6,0.4L428.3,72z M436.4,109.1
		c0,0.5-0.1,0.8-0.4,1c-0.5,0.4-2.1,0.6-4.4,0.6c-2.6,0-2.9-0.1-2.9-1.5c0.3-6.2,0.3-7.6,0.3-11.9c0-6.2-0.1-8.3-0.3-11.7
		c3.6,1.6,4.7,2.2,8.1,4h24.9c1.7-1.8,2.2-2.3,3.9-4c2.6,1.6,3.3,2.1,5.7,4c0.6,0.5,0.8,0.8,0.8,1.2c0,0.5-0.4,0.8-2.5,2
		c0.1,10.9,0.1,12.4,0.3,15.9c0,0.8-0.2,1.2-0.9,1.5c-0.6,0.3-2.5,0.5-4.4,0.5c-1.9,0-2.3-0.3-2.3-1.4V106h-25.9V109.1z
		 M436.4,104.7h25.9V91.1h-25.9V104.7z"/>
	<path fill="#DB4441" d="M519.2,62.9c1.2,0.3,3.1,0.5,4.2,0.5h9.6l4.4-4.7c2.7,2.1,3.5,2.7,6.2,5c0.2,0.3,0.3,0.5,0.3,0.6
		c0,0.3-0.3,0.5-0.8,0.5h-19.6c-1.5,0-2.3,0.1-3.8,0.3L519.2,62.9z M520.7,71.3c1.6,0.4,2.9,0.5,4.2,0.5h5.6c1.7-1.9,2.3-2.5,4-4.4
		c2.5,2,3.2,2.7,5.6,4.9c0.2,0.3,0.3,0.4,0.3,0.5c0,0.3-0.3,0.4-0.6,0.4H525c-1.4,0-2.2,0.1-3.8,0.3L520.7,71.3z M520.7,79.7
		c1.8,0.3,3.2,0.5,4.5,0.5h5.5c1.8-1.9,2.3-2.5,3.9-4.4c2.6,2,3.4,2.7,5.8,4.7c0.2,0.2,0.3,0.5,0.3,0.6c0,0.3-0.3,0.4-0.7,0.4h-15
		c-1.4,0-2.3,0.1-3.8,0.4L520.7,79.7z M521,54.3c1.4,0.4,3.1,0.6,4.2,0.6h5.9c1.6-2.1,2.1-2.7,3.9-4.7c2.8,2.1,3.6,2.9,6.4,5.1
		c0.3,0.3,0.5,0.5,0.5,0.7s-0.3,0.4-0.8,0.4h-15.9c-1.6,0-2.3,0.1-3.8,0.3L521,54.3z M527.7,109c0,1.2-0.8,1.6-3.8,1.6
		c-2.4,0-2.7-0.2-2.7-1.4c0.2-8.8,0.3-10.9,0.3-13.8c0-5.3-0.1-7.7-0.2-10.4c3.1,1.8,4,2.3,7.1,4.2h4.5c1.3-1.6,1.7-2.1,3.1-3.7
		c2,1.4,2.6,1.9,4.4,3.3c0.6,0.5,0.8,0.8,0.8,1.2c0,0.5-0.4,0.8-2,1.6l-0.1,4.2V99c0,2.5,0,3.4,0.2,9.3c0,1.3-0.8,1.6-4.2,1.6
		c-1.9,0-2.2-0.2-2.3-1.2v-2.3h-5.3V109z M527.7,105.1h5.3V90.4h-5.3V105.1z M538,75.5c4.6-4.4,7.8-8.3,11-13.7
		c2.7-4.5,4.4-8.2,5.3-11.6c2,0.5,3.4,0.8,4.4,1c4.4,1,5.2,1.4,5.2,2c0,0.5-0.6,0.8-2.2,1.2c2.3,3.8,4.4,5.8,8.3,8.1
		c3.6,2.2,6.6,3.3,11.5,4.3l-0.1,0.7c-2.5,1.6-3.2,2.8-4.4,6.2c-0.1,0.3-0.2,0.5-0.5,0.5c-0.6,0-2.6-1.3-4.5-2.9
		c-5.5-4.4-8.3-8.6-11.2-16.1c-3.2,5.5-6.4,9.3-11.3,13.5c-3.1,2.6-5.7,4.4-10.9,7.4L538,75.5z M557.5,91.7v0.5
		c0,2.2,0.1,7.2,0.1,15.1c0,1.1-0.6,1.4-3.3,1.4c-1.8,0-2.1-0.2-2.1-1.2c0.1-7.4,0.1-12.4,0.1-15v-0.7h-3.7v6.8
		c0.1,7.3,0.1,7.3,0.1,10.4c0,0.1,0,0.2,0,0.3c0,1.1-0.9,1.4-4.1,1.4c-1.8,0-2.2-0.2-2.2-1.3c0.2-7.3,0.3-11.1,0.3-24.3
		c0-5.5-0.1-7-0.3-10.6c3.1,1.5,4,2,7,3.5h20.2c1.5-1.4,1.9-1.9,3.4-3.3c2.2,1.6,2.9,2,4.9,3.7c0.5,0.5,0.7,0.8,0.7,1
		c0,0.5-0.5,0.8-2,1.8v15.6l0.1,8c0,3-1,4.2-3.6,4.9c-1,0.3-2.1,0.4-2.9,0.4s-0.8,0-0.8-2c-0.1-2.5-0.8-3.6-2.7-4.1v3.4
		c0,1.1-0.7,1.4-3.3,1.4c-1.6,0-2-0.2-2-1.2v-0.1c0-1,0-1.3,0-2.2l0.1-12.8v-0.7H557.5z M552.3,79.3h-3.7v11.1h3.7V79.3z M548.7,70
		c1.4,0.3,2.9,0.5,4.3,0.5h6.5c1.3-1.6,2.5-3.1,3.8-4.6c2.5,2.1,3.2,2.8,5.7,5.1c0.1,0.2,0.3,0.4,0.3,0.5c0,0.2-0.3,0.4-0.6,0.4H553
		c-1.2,0-2.1,0.1-3.8,0.3L548.7,70z M561.3,79.3h-3.8v11.1h3.8V79.3z M570.4,90.4V79.3h-4v11.1H570.4z M566.4,92.5
		c0,2.9,0,6.6,0.1,10.9c1,0.1,1.4,0.1,2,0.1c0.3,0,0.7,0,1.2,0c0.6-0.1,0.7-0.3,0.7-0.9V91.7h-4V92.5z"/>
</g>
<g>
	<g id="XMLID_11_">
		<g>
			<path fill="#DB4441" d="M77.8,64.6c-2.3,0-4.2,6.1-4.2,13.6s1.9,13.6,4.2,13.6h2.3c-0.1-0.2-0.1-0.4-0.2-0.5l18.2-0.7
				c-1.5-2.1-2.5-6.9-2.5-12.4c0-5.9,1.2-11,2.8-12.8c0.4-0.5,0.9-0.8,1.4-0.8H77.8z"/>
			<path fill="#DB4441" d="M98.2,90.6l-18.2,0.7c0,0.1,0.1,0.3,0.2,0.5h19.3c0,0,0.1,0,0.1-0.1c-0.3-0.1-0.6-0.3-0.9-0.7
				C98.4,90.9,98.3,90.8,98.2,90.6z"/>
			<path fill="#FFFFFF" d="M97.9,93.1c0.6-0.5,1.1-0.9,1.5-1.3H80.1c0.8,2.8,3.8,10.5,8.6,8c0.7-0.4,1.5-0.8,2.3-1.4l4.1-3
				c0.1-0.1,0.2-0.2,0.3-0.2C96.3,94.5,97.1,93.7,97.9,93.1z"/>
			<path fill="#FFFFFF" d="M90.2,99c-0.8,0.6-0.1,1.3,0.6,2.2l12.8,16.5c0.7,0.9,1.9,1.1,2.8,0.5l3.4-2.7c0.1-0.1,0.3-0.2,0.3-0.4
				l0.4-1.1c0,0,0,0,0,0c0-0.5-0.2-0.9-0.5-1.3L97.3,96.1c-0.6-0.8-1.2-1.2-1.9-0.9c-1.4,1.1-2.9,2.3-4.4,3.2L90.2,99z"/>
			<path fill="#FFFFFF" d="M95,95.4l-4.1,3c1.5-1,3-2.1,4.4-3.2C95.2,95.2,95.1,95.3,95,95.4z"/>
			<path fill="#DB4441" d="M95.3,95.2c0.7-0.3,1.3,0.2,1.9,0.9l12.8,16.5c0.3,0.4,0.5,0.9,0.5,1.3l0.9-2.6c0-0.5-0.1-1.2-0.4-1.6
				L97.9,93.1C97.1,93.7,96.3,94.5,95.3,95.2z"/>
			<path fill="#FFFFFF" d="M100.9,65c-0.9,0.2-1.7,0.3-2.4,0.4c-1.6,1.9-2.8,6.9-2.8,12.8c0,5.5,1,10.2,2.5,12.4l2.6-0.1
				c0,0-0.3,0.3-0.8,0.7c0.3,0,0.6,0.1,0.9,0.2c13,2.3,38.2,13,49.6,18c-3.8-5.1-6.4-17.2-6.4-31.2c0-14.1,2.7-26.1,6.4-31.2
				C139.1,52,113.9,62.7,100.9,65z"/>
			<path fill="#FFFFFF" d="M100.8,90.5l-2.6,0.1c0.1,0.2,0.2,0.3,0.4,0.5c0.5,0,1,0.1,1.5,0.2C100.5,90.8,100.8,90.5,100.8,90.5z"/>
			<path fill="#FFFFFF" d="M98.5,65.4l1.8-0.7c-0.1-0.1-0.3-0.1-0.5-0.1C99.4,64.6,98.9,64.9,98.5,65.4z"/>
			<path fill="#FFFFFF" d="M100.3,64.7l-1.8,0.7c0.7-0.1,1.5-0.2,2.4-0.4C100.7,64.9,100.5,64.8,100.3,64.7z"/>
			<path fill="#FFFFFF" d="M98.5,91l1.2,0.4c0.1-0.1,0.2-0.2,0.3-0.2C99.5,91.2,99,91.1,98.5,91z"/>
			<path fill="#FFFFFF" d="M99.7,91.5L98.5,91c0.3,0.3,0.6,0.6,0.9,0.7c0,0,0,0,0,0C99.6,91.6,99.6,91.5,99.7,91.5z"/>
			<path fill="#FFFFFF" d="M99.4,91.8h0.5C99.7,91.8,99.6,91.8,99.4,91.8C99.5,91.7,99.5,91.7,99.4,91.8
				C99.4,91.7,99.4,91.8,99.4,91.8z"/>
			<path fill="#FFFFFF" d="M99.7,91.5c-0.1,0.1-0.2,0.1-0.3,0.2c0.1,0,0.3,0.1,0.4,0.1c0.2,0,0.3,0,0.5-0.1L99.7,91.5z"/>
			<path fill="#FFFFFF" d="M99.7,91.5l0.6,0.2c0.2-0.1,0.4-0.2,0.6-0.3c-0.3-0.1-0.6-0.1-0.9-0.2C99.9,91.3,99.8,91.4,99.7,91.5z"/>
			<path fill="#FFFFFF" d="M151.1,46.3l-50.8,18.4c0.2,0.1,0.4,0.2,0.6,0.3c13-2.3,38.2-13,49.6-18
				C150.7,46.7,150.9,46.5,151.1,46.3z"/>
			<path fill="#FFFFFF" d="M100.3,91.7l50.8,18.4c-0.2-0.2-0.4-0.5-0.6-0.7c-11.5-5-36.7-15.7-49.6-18
				C100.7,91.5,100.5,91.6,100.3,91.7z"/>
			<path fill="#FFFFFF" d="M110.5,113.9l-0.4,1.1C110.4,114.8,110.5,114.4,110.5,113.9z"/>
			<path fill="#DB4441" d="M146,78.2c0-2.2,0.1-4.4,0.2-6.6c0.8-12.5,3.7-22.5,7.4-26c-0.9,0.4-1.9,0.8-3,1.3
				c-3.8,5.1-6.4,17.2-6.4,31.2c0,14,2.7,26.1,6.4,31.2c1.2,0.5,2.2,1,3,1.3c-3.8-3.5-6.7-13.5-7.4-26C146,82.7,146,80.5,146,78.2z"
				/>
			<path fill="#FFFFFF" d="M161.4,74L161.4,74c0.1,0,0.1-0.1,0.1-0.1c0,0,0,0,0,0c0.6,0,1.1,2.4,1.1,4.3c0,1.9-0.5,4.3-1.1,4.3
				c-0.6,0-1.1-2.4-1.1-4.3C160.5,76.5,160.9,74.4,161.4,74z M146.2,84.8c0.8,12.5,3.7,22.5,7.4,26c1,0.5,1.8,0.8,2.3,1
				c5.2-2,9.2-16.3,9.2-33.6c0-17.3-4-31.6-9.2-33.6c-0.5,0.2-1.3,0.6-2.3,1c-3.8,3.5-6.7,13.5-7.4,26c-0.1,2.1-0.2,4.3-0.2,6.6
				C146,80.5,146,82.7,146.2,84.8z"/>
			<path fill="#DB4441" d="M151.1,46.3c-0.2,0.2-0.4,0.5-0.6,0.7c1.2-0.5,2.2-1,3-1.3c0.2-0.2,0.4-0.3,0.5-0.4L151.1,46.3z"/>
			<path fill="#DB4441" d="M150.6,109.4c0.2,0.2,0.4,0.5,0.6,0.7l3,1.1c-0.2-0.1-0.4-0.3-0.5-0.4
				C152.7,110.4,151.7,109.9,150.6,109.4z"/>
			<path fill="#DB4441" d="M151.1,46.3l3-1.1c0.5-0.3,1-0.6,1.4-0.7c-0.3-0.1-0.6-0.1-0.9-0.1C153.4,44.3,152.2,45,151.1,46.3z"/>
			<path fill="#DB4441" d="M154.1,111.2l-3-1.1c1.1,1.3,2.3,1.9,3.5,1.9c0.3,0,0.6,0,0.9-0.1C155.1,111.8,154.6,111.6,154.1,111.2z"
				/>
			<path fill="#FFFFFF" d="M154.1,45.2c-0.2,0.1-0.4,0.3-0.5,0.4c1-0.5,1.8-0.8,2.3-1c0,0,0,0-0.1,0L154.1,45.2z"/>
			<path fill="#FFFFFF" d="M153.6,110.8c0.2,0.2,0.4,0.3,0.5,0.4l1.7,0.6c0,0,0,0,0.1,0C155.4,111.6,154.6,111.2,153.6,110.8z"/>
			<path fill="#FFFFFF" d="M154.1,45.2l1.7-0.6c-0.1,0-0.2-0.1-0.3-0.1C155.1,44.6,154.6,44.8,154.1,45.2z"/>
			<path fill="#FFFFFF" d="M155.9,111.8l-1.7-0.6c0.5,0.3,1,0.6,1.4,0.7C155.7,111.9,155.8,111.9,155.9,111.8z"/>
			<path fill="#FFFFFF" d="M155.6,44.5c0.1,0,0.2,0.1,0.3,0.1l0.6-0.2l0,0C156.2,44.3,155.9,44.4,155.6,44.5z"/>
			<path fill="#FFFFFF" d="M155.9,111.8c-0.1,0-0.2,0.1-0.3,0.1c0.3,0.1,0.6,0.1,0.9,0.1l0,0L155.9,111.8z"/>
			<path fill="#FFFFFF" d="M156.5,44.4l-0.6,0.2c0,0,0,0,0.1,0C156.2,44.5,156.4,44.4,156.5,44.4z"/>
			<path fill="#FFFFFF" d="M155.9,111.8l0.6,0.2C156.4,112,156.2,111.9,155.9,111.8C155.9,111.8,155.9,111.8,155.9,111.8z"/>
			<path fill="#FFFFFF" d="M156.5,44.4c-0.1,0-0.2,0.1-0.5,0.2c5.2,2,9.2,16.3,9.2,33.6c0,17.3-4,31.6-9.2,33.6
				c0.3,0.1,0.5,0.2,0.5,0.2l0,0c5.8,0,10.5-15.2,10.5-33.9C167,59.5,162.3,44.3,156.5,44.4L156.5,44.4z"/>
			<path fill="#DB4441" d="M161.4,74c-0.5,0.4-0.9,2.5-0.9,4.2c0,1.9,0.5,4.3,1.1,4.3c0.6,0,1.1-2.4,1.1-4.3c0-1.9-0.5-4.3-1.1-4.3
				c0,0,0,0,0,0C161.5,73.9,161.4,73.9,161.4,74L161.4,74z"/>
			<path fill="#DB4441" d="M161.5,73.9c0,0-0.1,0-0.1,0.1C161.4,73.9,161.5,73.9,161.5,73.9z"/>
		</g>
		<g>
			<path fill="none" stroke="#DB4441" stroke-miterlimit="10" d="M90.9,98.4c-0.8,0.5-1.5,1-2.3,1.4c-4.8,2.5-7.8-5.2-8.6-8"/>
			<path fill="none" stroke="#DB4441" stroke-miterlimit="10" d="M99.4,91.8c-0.4,0.4-0.9,0.8-1.5,1.3c-0.7,0.6-1.6,1.4-2.5,2.1"/>
			<path fill="none" stroke="#DB4441" stroke-miterlimit="10" d="M150.6,47c-11.5,5-36.7,15.7-49.6,18c-0.9,0.2-1.7,0.3-2.4,0.4"/>
			<path fill="none" stroke="#DB4441" stroke-miterlimit="10" d="M150.6,109.4c-11.5-5-36.7-15.7-49.6-18c-0.3-0.1-0.6-0.1-0.9-0.2
				c-0.5-0.1-1-0.1-1.5-0.2"/>
			<path fill="none" stroke="#DB4441" stroke-miterlimit="10" d="M155.6,44.5c-0.3-0.1-0.6-0.1-0.9-0.1c-1.2,0-2.4,0.7-3.5,1.9
				c-0.2,0.2-0.4,0.5-0.6,0.7c-3.8,5.1-6.4,17.2-6.4,31.2c0,14,2.7,26.1,6.4,31.2c0.2,0.2,0.4,0.5,0.6,0.7c1.1,1.3,2.3,1.9,3.5,1.9
				c0.3,0,0.6,0,0.9-0.1"/>
			<path fill="none" stroke="#DB4441" stroke-miterlimit="10" d="M99.5,91.7c0.1,0,0.3,0.1,0.4,0.1c0.2,0,0.3,0,0.5-0.1
				c0.2-0.1,0.4-0.2,0.6-0.3"/>
			<path fill="none" stroke="#DB4441" stroke-miterlimit="10" d="M101.3,65.4c-0.1-0.1-0.2-0.3-0.4-0.4c-0.2-0.1-0.4-0.3-0.6-0.3
				c-0.1-0.1-0.3-0.1-0.5-0.1c-0.5,0-1,0.3-1.4,0.8c-1.6,1.9-2.8,6.9-2.8,12.8c0,5.5,1,10.2,2.5,12.4c0.1,0.2,0.2,0.3,0.4,0.5
				c0.3,0.3,0.6,0.6,0.9,0.7"/>
			<path fill="none" stroke="#DB4441" stroke-miterlimit="10" d="M146.2,71.6c-0.1,2.1-0.2,4.3-0.2,6.6c0,2.3,0.1,4.5,0.2,6.6
				c0.8,12.5,3.7,22.5,7.4,26c0.2,0.2,0.4,0.3,0.5,0.4c0.5,0.3,1,0.6,1.4,0.7c0.3,0.1,0.6,0.1,0.9,0.1c5.8,0,10.5-15.2,10.5-33.9
				c0-18.7-4.7-33.9-10.5-33.9c-0.3,0-0.6,0-0.9,0.1c-0.5,0.1-1,0.4-1.4,0.7c-0.2,0.1-0.4,0.3-0.5,0.4
				C149.8,49.1,146.9,59.1,146.2,71.6z"/>
			<path fill="none" stroke="#DB4441" stroke-miterlimit="10" d="M99.9,91.8h-0.5H80.1h-2.3c-2.3,0-4.2-6.1-4.2-13.6
				s1.9-13.6,4.2-13.6h22.1"/>
			<path fill="none" stroke="#DB4441" stroke-miterlimit="10" d="M110.5,113.9c0-0.5-0.2-0.9-0.5-1.3L97.3,96.1
				c-0.6-0.8-1.2-1.2-1.9-0.9c-0.1,0-0.2,0.1-0.3,0.2l-4.1,3L90.2,99c-0.8,0.6-0.1,1.3,0.6,2.2l12.8,16.5c0.7,0.9,1.9,1.1,2.8,0.5
				l3.4-2.7c0.1-0.1,0.3-0.2,0.3-0.4C110.4,114.8,110.5,114.4,110.5,113.9"/>
			<path fill="none" stroke="#DB4441" stroke-miterlimit="10" d="M110.1,115.1l0.4-1.1c0,0,0,0,0,0l0.9-2.6c0-0.5-0.1-1.2-0.4-1.6
				L97.9,93.1l-0.2-0.3"/>
			<path fill="none" stroke="#DB4441" stroke-linecap="round" stroke-linejoin="round" d="M161.5,73.9c0,0-0.1,0-0.1,0.1"/>
			<path fill="none" stroke="#DB4441" stroke-linecap="round" stroke-linejoin="round" d="M161.4,74c-0.5,0.4-0.9,2.5-0.9,4.2
				c0,1.9,0.5,4.3,1.1,4.3c0.6,0,1.1-2.4,1.1-4.3c0-1.9-0.5-4.3-1.1-4.3"/>
			<path fill="none" stroke="#DB4441" stroke-linecap="round" stroke-linejoin="round" d="M161.5,73.9
				C161.5,73.9,161.5,73.9,161.5,73.9c0,0-0.1,0-0.2,0.1h0c-0.8,0.2-4.2,0.8-15.2-2.3"/>
			<path fill="none" stroke="#DB4441" stroke-linecap="round" stroke-linejoin="round" d="M161.5,82.5c0,0-2.6-1.4-15.4,2.3"/>
		</g>
	</g>
	<g id="XMLID_12_">
		<g>
			<path fill="#DB4441" d="M722.2,64.6c2.3,0,4.2,6.1,4.2,13.6s-1.9,13.6-4.2,13.6h-2.3c0.1-0.2,0.1-0.4,0.2-0.5l-18.2-0.7
				c1.5-2.1,2.5-6.9,2.5-12.4c0-5.9-1.2-11-2.8-12.8c-0.4-0.5-0.9-0.8-1.4-0.8H722.2z"/>
			<path fill="#DB4441" d="M701.8,90.6l18.2,0.7c0,0.1-0.1,0.3-0.2,0.5h-19.3c0,0-0.1,0-0.1-0.1c0.3-0.1,0.6-0.3,0.9-0.7
				C701.6,90.9,701.7,90.8,701.8,90.6z"/>
			<path fill="#FFFFFF" d="M702.1,93.1c-0.6-0.5-1.1-0.9-1.5-1.3h19.3c-0.8,2.8-3.8,10.5-8.6,8c-0.7-0.4-1.5-0.8-2.3-1.4l-4.1-3
				c-0.1-0.1-0.2-0.2-0.3-0.2C703.7,94.5,702.9,93.7,702.1,93.1z"/>
			<path fill="#FFFFFF" d="M709.8,99c0.8,0.6,0.1,1.3-0.6,2.2l-12.8,16.5c-0.7,0.9-1.9,1.1-2.8,0.5l-3.4-2.7
				c-0.1-0.1-0.3-0.2-0.3-0.4l-0.4-1.1c0,0,0,0,0,0c0-0.5,0.2-0.9,0.5-1.3l12.8-16.5c0.6-0.8,1.2-1.2,1.9-0.9
				c1.4,1.1,2.9,2.3,4.4,3.2L709.8,99z"/>
			<path fill="#FFFFFF" d="M705,95.4l4.1,3c-1.5-1-3-2.1-4.4-3.2C704.8,95.2,704.9,95.3,705,95.4z"/>
			<path fill="#DB4441" d="M704.7,95.2c-0.7-0.3-1.3,0.2-1.9,0.9l-12.8,16.5c-0.3,0.4-0.5,0.9-0.5,1.3l-0.9-2.6
				c0-0.5,0.1-1.2,0.4-1.6l13.1-16.6C702.9,93.7,703.7,94.5,704.7,95.2z"/>
			<path fill="#FFFFFF" d="M699.1,65c0.9,0.2,1.7,0.3,2.4,0.4c1.6,1.9,2.8,6.9,2.8,12.8c0,5.5-1,10.2-2.5,12.4l-2.6-0.1
				c0,0,0.3,0.3,0.8,0.7c-0.3,0-0.6,0.1-0.9,0.2c-13,2.3-38.2,13-49.6,18c3.8-5.1,6.4-17.2,6.4-31.2c0-14.1-2.7-26.1-6.4-31.2
				C660.9,52,686.1,62.7,699.1,65z"/>
			<path fill="#FFFFFF" d="M699.2,90.5l2.6,0.1c-0.1,0.2-0.2,0.3-0.4,0.5c-0.5,0-1,0.1-1.5,0.2C699.5,90.8,699.2,90.5,699.2,90.5z"
				/>
			<path fill="#FFFFFF" d="M701.5,65.4l-1.8-0.7c0.1-0.1,0.3-0.1,0.5-0.1C700.6,64.6,701.1,64.9,701.5,65.4z"/>
			<path fill="#FFFFFF" d="M699.7,64.7l1.8,0.7c-0.7-0.1-1.5-0.2-2.4-0.4C699.3,64.9,699.5,64.8,699.7,64.7z"/>
			<path fill="#FFFFFF" d="M701.5,91l-1.2,0.4c-0.1-0.1-0.2-0.2-0.3-0.2C700.5,91.2,701,91.1,701.5,91z"/>
			<path fill="#FFFFFF" d="M700.3,91.5l1.2-0.4c-0.3,0.3-0.6,0.6-0.9,0.7c0,0,0,0,0,0C700.4,91.6,700.4,91.5,700.3,91.5z"/>
			<path fill="#FFFFFF" d="M700.6,91.8h-0.5C700.3,91.8,700.4,91.8,700.6,91.8C700.5,91.7,700.5,91.7,700.6,91.8
				C700.6,91.7,700.6,91.8,700.6,91.8z"/>
			<path fill="#FFFFFF" d="M700.3,91.5c0.1,0.1,0.2,0.1,0.3,0.2c-0.1,0-0.3,0.1-0.4,0.1c-0.2,0-0.3,0-0.5-0.1L700.3,91.5z"/>
			<path fill="#FFFFFF" d="M700.3,91.5l-0.6,0.2c-0.2-0.1-0.4-0.2-0.6-0.3c0.3-0.1,0.6-0.1,0.9-0.2
				C700.1,91.3,700.2,91.4,700.3,91.5z"/>
			<path fill="#FFFFFF" d="M648.9,46.3l50.8,18.4c-0.2,0.1-0.4,0.2-0.6,0.3c-13-2.3-38.2-13-49.6-18
				C649.3,46.7,649.1,46.5,648.9,46.3z"/>
			<path fill="#FFFFFF" d="M699.7,91.7l-50.8,18.4c0.2-0.2,0.4-0.5,0.6-0.7c11.5-5,36.7-15.7,49.6-18
				C699.3,91.5,699.5,91.6,699.7,91.7z"/>
			<path fill="#FFFFFF" d="M689.5,113.9l0.4,1.1C689.6,114.8,689.5,114.4,689.5,113.9z"/>
			<path fill="#DB4441" d="M654,78.2c0-2.2-0.1-4.4-0.2-6.6c-0.8-12.5-3.7-22.5-7.4-26c0.9,0.4,1.9,0.8,3,1.3
				c3.8,5.1,6.4,17.2,6.4,31.2c0,14-2.7,26.1-6.4,31.2c-1.2,0.5-2.2,1-3,1.3c3.8-3.5,6.7-13.5,7.4-26C654,82.7,654,80.5,654,78.2z"
				/>
			<path fill="#FFFFFF" d="M653.8,84.8c-0.8,12.5-3.7,22.5-7.4,26c-1,0.5-1.8,0.8-2.3,1c-5.2-2-9.2-16.3-9.2-33.6
				c0-17.3,4-31.6,9.2-33.6c0.5,0.2,1.3,0.6,2.3,1c3.8,3.5,6.7,13.5,7.4,26c0.1,2.1,0.2,4.3,0.2,6.6C654,80.5,654,82.7,653.8,84.8z
				 M638.6,74L638.6,74c-0.1,0-0.1-0.1-0.1-0.1c0,0,0,0,0,0c-0.6,0-1.1,2.4-1.1,4.3c0,1.9,0.5,4.3,1.1,4.3c0.6,0,1.1-2.4,1.1-4.3
				C639.5,76.5,639.1,74.4,638.6,74z"/>
			<path fill="#DB4441" d="M648.9,46.3c0.2,0.2,0.4,0.5,0.6,0.7c-1.2-0.5-2.2-1-3-1.3c-0.2-0.2-0.4-0.3-0.5-0.4L648.9,46.3z"/>
			<path fill="#DB4441" d="M649.4,109.4c-0.2,0.2-0.4,0.5-0.6,0.7l-3,1.1c0.2-0.1,0.4-0.3,0.5-0.4
				C647.3,110.4,648.3,109.9,649.4,109.4z"/>
			<path fill="#DB4441" d="M648.9,46.3l-3-1.1c-0.5-0.3-1-0.6-1.4-0.7c0.3-0.1,0.6-0.1,0.9-0.1C646.6,44.3,647.8,45,648.9,46.3z"/>
			<path fill="#DB4441" d="M645.9,111.2l3-1.1c-1.1,1.3-2.3,1.9-3.5,1.9c-0.3,0-0.6,0-0.9-0.1C644.9,111.8,645.4,111.6,645.9,111.2z
				"/>
			<path fill="#FFFFFF" d="M645.9,45.2c0.2,0.1,0.4,0.3,0.5,0.4c-1-0.5-1.8-0.8-2.3-1c0,0,0,0,0.1,0L645.9,45.2z"/>
			<path fill="#FFFFFF" d="M646.4,110.8c-0.2,0.2-0.4,0.3-0.5,0.4l-1.7,0.6c0,0,0,0-0.1,0C644.6,111.6,645.4,111.2,646.4,110.8z"/>
			<path fill="#FFFFFF" d="M645.9,45.2l-1.7-0.6c0.1,0,0.2-0.1,0.3-0.1C644.9,44.6,645.4,44.8,645.9,45.2z"/>
			<path fill="#FFFFFF" d="M644.1,111.8l1.7-0.6c-0.5,0.3-1,0.6-1.4,0.7C644.3,111.9,644.2,111.9,644.1,111.8z"/>
			<path fill="#FFFFFF" d="M644.4,44.5c-0.1,0-0.2,0.1-0.3,0.1l-0.6-0.2l0,0C643.8,44.3,644.1,44.4,644.4,44.5z"/>
			<path fill="#FFFFFF" d="M644.1,111.8c0.1,0,0.2,0.1,0.3,0.1c-0.3,0.1-0.6,0.1-0.9,0.1l0,0L644.1,111.8z"/>
			<path fill="#FFFFFF" d="M643.5,44.4l0.6,0.2c0,0,0,0-0.1,0C643.8,44.5,643.6,44.4,643.5,44.4z"/>
			<path fill="#FFFFFF" d="M644.1,111.8l-0.6,0.2C643.6,112,643.8,111.9,644.1,111.8C644.1,111.8,644.1,111.8,644.1,111.8z"/>
			<path fill="#FFFFFF" d="M643.5,44.4c0.1,0,0.2,0.1,0.5,0.2c-5.2,2-9.2,16.3-9.2,33.6c0,17.3,4,31.6,9.2,33.6
				c-0.3,0.1-0.5,0.2-0.5,0.2l0,0c-5.8,0-10.5-15.2-10.5-33.9C633,59.5,637.7,44.3,643.5,44.4L643.5,44.4z"/>
			<path fill="#DB4441" d="M638.6,74c0.5,0.4,0.9,2.5,0.9,4.2c0,1.9-0.5,4.3-1.1,4.3c-0.6,0-1.1-2.4-1.1-4.3c0-1.9,0.5-4.3,1.1-4.3
				c0,0,0,0,0,0C638.5,73.9,638.6,73.9,638.6,74L638.6,74z"/>
			<path fill="#DB4441" d="M638.5,73.9c0,0,0.1,0,0.1,0.1C638.6,73.9,638.5,73.9,638.5,73.9z"/>
		</g>
		<g>
			<path fill="none" stroke="#DB4441" stroke-miterlimit="10" d="M709.1,98.4c0.8,0.5,1.5,1,2.3,1.4c4.8,2.5,7.8-5.2,8.6-8"/>
			<path fill="none" stroke="#DB4441" stroke-miterlimit="10" d="M700.6,91.8c0.4,0.4,0.9,0.8,1.5,1.3c0.7,0.6,1.6,1.4,2.5,2.1"/>
			<path fill="none" stroke="#DB4441" stroke-miterlimit="10" d="M649.4,47c11.5,5,36.7,15.7,49.6,18c0.9,0.2,1.7,0.3,2.4,0.4"/>
			<path fill="none" stroke="#DB4441" stroke-miterlimit="10" d="M649.4,109.4c11.5-5,36.7-15.7,49.6-18c0.3-0.1,0.6-0.1,0.9-0.2
				c0.5-0.1,1-0.1,1.5-0.2"/>
			<path fill="none" stroke="#DB4441" stroke-miterlimit="10" d="M644.4,44.5c0.3-0.1,0.6-0.1,0.9-0.1c1.2,0,2.4,0.7,3.5,1.9
				c0.2,0.2,0.4,0.5,0.6,0.7c3.8,5.1,6.4,17.2,6.4,31.2c0,14-2.7,26.1-6.4,31.2c-0.2,0.2-0.4,0.5-0.6,0.7c-1.1,1.3-2.3,1.9-3.5,1.9
				c-0.3,0-0.6,0-0.9-0.1"/>
			<path fill="none" stroke="#DB4441" stroke-miterlimit="10" d="M700.5,91.7c-0.1,0-0.3,0.1-0.4,0.1c-0.2,0-0.3,0-0.5-0.1
				c-0.2-0.1-0.4-0.2-0.6-0.3"/>
			<path fill="none" stroke="#DB4441" stroke-miterlimit="10" d="M698.7,65.4c0.1-0.1,0.2-0.3,0.4-0.4c0.2-0.1,0.4-0.3,0.6-0.3
				c0.1-0.1,0.3-0.1,0.5-0.1c0.5,0,1,0.3,1.4,0.8c1.6,1.9,2.8,6.9,2.8,12.8c0,5.5-1,10.2-2.5,12.4c-0.1,0.2-0.2,0.3-0.4,0.5
				c-0.3,0.3-0.6,0.6-0.9,0.7"/>
			<path fill="none" stroke="#DB4441" stroke-miterlimit="10" d="M653.8,71.6c0.1,2.1,0.2,4.3,0.2,6.6c0,2.3-0.1,4.5-0.2,6.6
				c-0.8,12.5-3.7,22.5-7.4,26c-0.2,0.2-0.4,0.3-0.5,0.4c-0.5,0.3-1,0.6-1.4,0.7c-0.3,0.1-0.6,0.1-0.9,0.1
				c-5.8,0-10.5-15.2-10.5-33.9c0-18.7,4.7-33.9,10.5-33.9c0.3,0,0.6,0,0.9,0.1c0.5,0.1,1,0.4,1.4,0.7c0.2,0.1,0.4,0.3,0.5,0.4
				C650.2,49.1,653.1,59.1,653.8,71.6z"/>
			<path fill="none" stroke="#DB4441" stroke-miterlimit="10" d="M700.1,91.8h0.5h19.3h2.3c2.3,0,4.2-6.1,4.2-13.6
				s-1.9-13.6-4.2-13.6h-22.1"/>
			<path fill="none" stroke="#DB4441" stroke-miterlimit="10" d="M689.5,113.9c0-0.5,0.2-0.9,0.5-1.3l12.8-16.5
				c0.6-0.8,1.2-1.2,1.9-0.9c0.1,0,0.2,0.1,0.3,0.2l4.1,3l0.7,0.6c0.8,0.6,0.1,1.3-0.6,2.2l-12.8,16.5c-0.7,0.9-1.9,1.1-2.8,0.5
				l-3.4-2.7c-0.1-0.1-0.3-0.2-0.3-0.4C689.6,114.8,689.5,114.4,689.5,113.9"/>
			<path fill="none" stroke="#DB4441" stroke-miterlimit="10" d="M689.9,115.1l-0.4-1.1c0,0,0,0,0,0l-0.9-2.6c0-0.5,0.1-1.2,0.4-1.6
				l13.1-16.6l0.2-0.3"/>
			<path fill="none" stroke="#DB4441" stroke-linecap="round" stroke-linejoin="round" d="M638.5,73.9c0,0,0.1,0,0.1,0.1"/>
			<path fill="none" stroke="#DB4441" stroke-linecap="round" stroke-linejoin="round" d="M638.6,74c0.5,0.4,0.9,2.5,0.9,4.2
				c0,1.9-0.5,4.3-1.1,4.3c-0.6,0-1.1-2.4-1.1-4.3c0-1.9,0.5-4.3,1.1-4.3"/>
			<path fill="none" stroke="#DB4441" stroke-linecap="round" stroke-linejoin="round" d="M638.5,73.9
				C638.5,73.9,638.5,73.9,638.5,73.9c0,0,0.1,0,0.2,0.1h0c0.8,0.2,4.2,0.8,15.2-2.3"/>
			<path fill="none" stroke="#DB4441" stroke-linecap="round" stroke-linejoin="round" d="M638.5,82.5c0,0,2.6-1.4,15.4,2.3"/>
		</g>
	</g>
</g>
<g>
	<rect x="42.7" y="16" fill="none" stroke="#DB4441" stroke-miterlimit="10" width="714" height="128"/>
	<rect x="37.7" y="11" fill="none" stroke="#DB4441" stroke-miterlimit="10" width="724" height="138"/>
	<rect x="32" y="5" fill="#FFFFFF" stroke="#DB4441" stroke-miterlimit="10" width="22.7" height="22.7"/>
	<rect x="36.5" y="9.6" fill="#DB4441" width="13.6" height="13.6"/>
	<rect x="745.3" y="5" fill="#FFFFFF" stroke="#DB4441" stroke-miterlimit="10" width="22.7" height="22.7"/>
	<rect x="745.3" y="132.7" fill="#FFFFFF" stroke="#DB4441" stroke-miterlimit="10" width="22.7" height="22.7"/>
	<rect x="32" y="132.7" fill="#FFFFFF" stroke="#DB4441" stroke-miterlimit="10" width="22.7" height="22.7"/>
	<rect x="749.9" y="9.6" fill="#DB4441" width="13.6" height="13.6"/>
	<rect x="749.9" y="137.2" fill="#DB4441" width="13.6" height="13.6"/>
	<rect x="36.5" y="137.2" fill="#DB4441" width="13.6" height="13.6"/>
</g>
</svg>
