<?xml version="1.0" encoding="utf-8"?>
<!-- Generator: Adobe Illustrator 17.1.0, SVG Export Plug-In . SVG Version: 6.00 Build 0)  -->
<!DOCTYPE svg PUBLIC "-//W3C//DTD SVG 1.1 Tiny//EN" "http://www.w3.org/Graphics/SVG/1.1/DTD/svg11-tiny.dtd">
<svg version="1.1" baseProfile="tiny" id="圖層_1"
	 xmlns="http://www.w3.org/2000/svg" xmlns:xlink="http://www.w3.org/1999/xlink" x="0px" y="0px" viewBox="0 0 140 60"
	 xml:space="preserve">
<g>
	<g id="XMLID_16_">
		<g>
			<path d="M3.7,30.8C3.5,41.6,7.4,50.5,12,50.6l47-0.5c-4.1-1-7.3-8.9-7.1-18.4c0.2-9.6,3.6-17.4,7.8-18.2l-47.1-2.2
				C7.9,11.3,3.9,20,3.7,30.8z"/>
			<path fill="#DB4441" d="M60,50.1l-1.1,0c0.3,0.1,0.6,0.1,0.8,0.1L60,50.1z"/>
			<path fill="#DB4441" d="M67.7,45.5c0.4-0.2,0.8-0.5,1.1-0.9c-1.5-0.2-2.5-0.3-2.6-0.3c0,0,0,0,0,0c-3.1-0.1-5.5-5.7-5.4-12.5
				c0.1-6.9,2.7-12.4,5.8-12.3c0,0,0,0,0,0c0.1,0,1.1-0.1,2.6-0.2c-0.4-0.4-0.7-0.7-1.1-0.9c-0.5-0.3-1-0.4-1.5-0.4
				c-3.5-0.1-6.4,6.2-6.5,13.9c-0.1,7.7,2.6,14,6,14.1C66.7,45.9,67.2,45.8,67.7,45.5z"/>
			<path d="M99.4,32.5c0-1.6-1.2-2.8-2.8-2.9c-1.6,0-2.8,1.2-2.9,2.8c0,1.6,1.2,2.8,2.8,2.9C98.1,35.3,99.4,34.1,99.4,32.5z"/>
		</g>
		<g>
			<path fill="none" stroke="#000000" stroke-miterlimit="10" d="M69.3,19.3c-0.4-0.4-0.7-0.7-1.1-0.9c-0.5-0.3-1-0.4-1.5-0.4
				c-3.5-0.1-6.4,6.2-6.5,13.9c-0.1,7.7,2.6,14,6,14.1c0.5,0,1.1-0.1,1.6-0.4c0.4-0.2,0.8-0.5,1.1-0.9"/>
			<path fill="none" stroke="#000000" stroke-miterlimit="10" d="M66.6,19.5c-3.1-0.1-5.7,5.5-5.8,12.3c-0.1,6.9,2.3,12.5,5.4,12.5"
				/>
			<path fill="none" stroke="#000000" stroke-miterlimit="10" d="M60.4,13.5c-0.3,0-0.5,0-0.8,0.1c-4.2,0.8-7.6,8.6-7.8,18.2
				c-0.2,9.5,2.9,17.4,7.1,18.4c0.3,0.1,0.6,0.1,0.8,0.1"/>
			<path fill="none" stroke="#000000" stroke-miterlimit="10" d="M12.5,11.4C7.9,11.3,3.9,20,3.7,30.8C3.5,41.6,7.4,50.5,12,50.6"/>
			<polyline fill="none" stroke="#000000" stroke-miterlimit="10" points="60.4,13.5 60.6,13.6 68.1,18.4 68.3,18.5 			"/>
			<polyline fill="none" stroke="#000000" stroke-miterlimit="10" points="60,50.1 67.7,45.5 67.8,45.5 			"/>
			<line fill="none" stroke="#000000" stroke-miterlimit="10" x1="59.8" y1="50.2" x2="60" y2="50.1"/>
			<polyline fill="none" stroke="#000000" stroke-miterlimit="10" points="60.6,13.6 59.6,13.5 12.5,11.4 12.3,11.4 			"/>
			<polyline fill="none" stroke="#000000" stroke-miterlimit="10" points="60,50.1 60,50.1 58.9,50.1 12,50.6 11.6,50.6 			"/>
			<path fill="none" stroke="#000000" stroke-miterlimit="10" d="M66.6,19.5C66.6,19.5,66.6,19.5,66.6,19.5c0.2,0,1.1-0.1,2.7-0.2
				c7.2-0.5,27.1-2.2,33.8-4.5c0,0,21.2,15.7,34,18.4"/>
			<path fill="none" stroke="#000000" stroke-miterlimit="10" d="M66.2,44.4C66.2,44.4,66.2,44.4,66.2,44.4c0.2,0,1.1,0.1,2.7,0.3
				c7.2,0.8,27,3.2,33.6,5.7c0,0,21.7-14.9,34.7-17.2"/>
			<line fill="none" stroke="#000000" stroke-width="2" stroke-miterlimit="10" x1="137.1" y1="33.2" x2="99.4" y2="32.5"/>
			<path fill="none" stroke="#000000" stroke-miterlimit="10" d="M93.8,32.4c0,1.6,1.2,2.8,2.8,2.9c1.6,0,2.8-1.2,2.9-2.8
				c0-1.6-1.2-2.8-2.8-2.9C95.1,29.6,93.8,30.9,93.8,32.4z"/>
		</g>
	</g>
</g>
</svg>
