<?xml version="1.0" encoding="utf-8"?>
<!-- Generator: Adobe Illustrator 17.1.0, SVG Export Plug-In . SVG Version: 6.00 Build 0)  -->
<!DOCTYPE svg PUBLIC "-//W3C//DTD SVG 1.1 Tiny//EN" "http://www.w3.org/Graphics/SVG/1.1/DTD/svg11-tiny.dtd">
<svg version="1.1" baseProfile="tiny" id="圖層_1"
	 xmlns="http://www.w3.org/2000/svg" xmlns:xlink="http://www.w3.org/1999/xlink" x="0px" y="0px" viewBox="0 0 80 200"
	 xml:space="preserve">
<g>
	<g id="XMLID_24_">
		<g>
			<path fill="#FFFFFF" d="M45.3,101.4v73.5c0,0-0.7,1.9-4.2,1.9c-0.5,0-1-0.1-1.4-0.2v-75.2H45.3z"/>
			<path fill="#DB4441" d="M39.7,101.4v75.2c-1.9-0.5-2.7-1.7-2.7-1.7v-73.5H39.7z"/>
		</g>
		<g>
			<path fill="none" stroke="#DB4441" stroke-linecap="round" stroke-linejoin="round" d="M39.7,101.4h5.6v73.5c0,0-0.7,1.9-4.2,1.9
				c-0.5,0-1-0.1-1.4-0.2c-1.9-0.5-2.7-1.7-2.7-1.7v-73.5H39.7z"/>
		</g>
	</g>
	<g id="XMLID_23_">
		<g>
			<polygon fill="#FFFFFF" points="70.9,14.9 70.9,98.4 13.1,108.4 13.1,104.9 66.8,95.6 66.8,15.6 			"/>
			<polygon fill="#DB4441" points="70.9,14.9 66.8,15.6 66.8,12.1 			"/>
			<polygon fill="#FFFFFF" points="66.8,15.6 66.8,95.6 13.1,104.9 13.1,24.9 			"/>
			<polygon fill="#DB4441" points="66.8,12.1 66.8,15.6 13.1,24.9 9,22.1 			"/>
			<polygon fill="#DB4441" points="13.1,104.9 13.1,108.4 9,105.6 			"/>
			<polygon fill="#DB4441" points="13.1,24.9 13.1,104.9 9,105.6 9,22.1 			"/>
		</g>
		<g>
			<polygon fill="none" stroke="#DB4441" stroke-linecap="round" stroke-linejoin="round" points="70.9,14.9 70.9,98.4 13.1,108.4 
				13.1,104.9 13.1,24.9 66.8,15.6 			"/>
			<polyline fill="none" stroke="#DB4441" stroke-linecap="round" stroke-linejoin="round" points="13.1,104.9 9,105.6 9,22.1 
				66.8,12.1 66.8,15.6 			"/>
			<line fill="none" stroke="#DB4441" stroke-linecap="round" stroke-linejoin="round" x1="66.8" y1="12.1" x2="70.9" y2="14.9"/>
			<line fill="none" stroke="#DB4441" stroke-linecap="round" stroke-linejoin="round" x1="9" y1="22.1" x2="13.1" y2="24.9"/>
			<line fill="none" stroke="#DB4441" stroke-linecap="round" stroke-linejoin="round" x1="9" y1="105.6" x2="13.1" y2="108.4"/>
		</g>
	</g>
	<path fill="#DB4441" d="M59.5,37.8c-1.7,1.3-2.3,2.9-1.9,5c0.1,0.6,0.2,1.2,0.4,1.7c0.2,0.6,0.2,1.2-0.2,1.7
		c-0.6,0.9-1,1.8-1.2,2.8c-0.1,0.5-0.3,1-0.6,1.4c-0.9,1.1-1.3,2.2-1.5,3.5c-0.3,1.6-0.7,3.2-1,4.8c-0.3,1.3-0.5,2.7-0.9,4
		c-0.3,1.1-0.6,2.1-1,3.2c-0.4,1.2-0.8,2.4-1.3,3.6c-0.6,1.3-1.3,2.6-2,3.8c-0.4,0.6-0.8,1.3-1.2,1.9c-0.5,0.7-0.9,1.4-1.4,2
		c-1.8,1.8-2.6,4-2.8,6.3c-0.2,1.3-0.1,2.6-0.1,3.9c0,0.9-0.5,1.7-1,2.5c-0.1,0.1-0.2,0.2-0.3,0.2c-0.6,0.1-1.2,0.2-1.8,0.3
		c-0.1-1.1-0.1-2.2-0.4-3.3c-0.4-1.9-1.2-3.4-3.2-4.1c-1.3-0.4-2.3-1.3-3.4-2.1c-0.2-0.1-0.3-0.6-0.2-0.9c0.1-0.6-0.1-1-0.3-1.5
		c-0.8-1.7-1.8-3.1-2.7-4.7c-0.4-0.8-0.4-1.6,0.2-2.6c0.8-1.3,0.9-2.7,0.7-4c-0.2-2,0.2-4,1.6-5.7c0.7-0.8,1.3-1.6,1.6-2.7
		c0.1-0.2,0.2-0.5,0.4-0.7c1.2-1.4,1.9-3,2.6-4.6c0.5-1,1.1-2,1.7-2.9c0.4-0.6,0.8-1.2,1-1.9c0.4-0.9,0.9-1.6,1.7-2.2
		c1-0.6,1.5-1.5,1.9-2.6c0.5-1.4,1.3-2.6,2-3.9c0.1-0.3,0.5-0.5,0.7-0.6c1.2-0.7,2.5-1.3,3.8-1.9c0.5-0.3,1-0.6,1.4-1
		c0.6-0.6,1.1-1.2,1.8-1.7c0.9-0.7,1.3-0.7,1.9,0c0.7,0.9,1.5,1.4,2.7,1.4C58.3,36.2,59.4,36.5,59.5,37.8z"/>
</g>
</svg>
