<?xml version="1.0" encoding="utf-8"?>
<!-- Generator: Adobe Illustrator 17.1.0, SVG Export Plug-In . SVG Version: 6.00 Build 0)  -->
<!DOCTYPE svg PUBLIC "-//W3C//DTD SVG 1.1 Tiny//EN" "http://www.w3.org/Graphics/SVG/1.1/DTD/svg11-tiny.dtd">
<svg version="1.1" baseProfile="tiny" id="圖層_1"
	 xmlns="http://www.w3.org/2000/svg" xmlns:xlink="http://www.w3.org/1999/xlink" x="0px" y="0px" viewBox="0 0 160 240"
	 xml:space="preserve">
<g>
	<path fill="none" stroke="#000000" stroke-miterlimit="10" d="M46,63.9c0,0,15.6-4.7,19.6-3.4"/>
	<path fill="none" stroke="#000000" stroke-miterlimit="10" d="M63.4,56.5c0,0,4.6,7.6,8.4,9.3C75.6,67.5,81,69,81.9,69"/>
	<path fill="none" stroke="#000000" stroke-miterlimit="10" d="M80.5,67.6c0.3,0.4,1,1.1,3.3,2.3c2.4,1.2,7.9,5.1,9.1,6.8
		s2,2.6,2.8,2.9c0.8,0.3,1,1.3,2,2.2s1.5,1.4,2.9,3c1.4,1.6,4.6,5.2,7.1,2.3s2.4-6.6,1.5-9c-0.9-2.5-2.6-8.1-6.2-9"/>
	<path fill="none" stroke="#000000" stroke-miterlimit="10" d="M104.2,69.7c0,0-2.5-2-4.2-3.6s-5-5.2-5.2-9.3"/>
	<path fill="none" stroke="#000000" stroke-miterlimit="10" d="M96.8,62.4c0,0-1-7.9,5-12.3"/>
	<path fill="none" stroke="#000000" stroke-miterlimit="10" d="M98.9,65c0,0,2.7,0,4.8-1.1"/>
	<path fill="none" stroke="#000000" stroke-miterlimit="10" d="M103.2,63.6c0,0,0.6,1.1,2.8,0.5c2.2-0.5,9.3-2.8,11.3-3.4"/>
	<path fill="none" stroke="#000000" stroke-miterlimit="10" d="M116.8,60.4c0,0,6.3-0.6,7.9-0.6c0.3,0,5.3,0.4,8,0.2
		s2.7-0.3,2.7-0.3"/>
	<path fill="none" stroke="#000000" stroke-miterlimit="10" d="M117.6,56c0.1-0.2,2.5-2.4,3.6-2.4"/>
	<path fill="none" stroke="#000000" stroke-miterlimit="10" d="M119.9,53.2c0,0,5.9,1.1,10.8-0.2"/>
	<path fill="none" stroke="#000000" stroke-miterlimit="10" d="M129.8,52.1c0,0,3.2,1.8,3.8,3.9s3.1,4.6,3.1,4.6"/>
	<path fill="none" stroke="#000000" stroke-miterlimit="10" d="M137.6,57.4c0,0-1.5,3.7-0.7,8.7s2.8,6.9,3.9,7.2s2-0.3,2.4-1.1"/>
	<path fill="none" stroke="#000000" stroke-miterlimit="10" d="M144.6,65.7c0,0-0.1-2.1-0.9-1.9c-0.8,0.2-2,1.6-1.8,2.6
		s1.1,6.6,1.8,5.8C144.4,71.3,144.7,66.4,144.6,65.7z"/>
	<path fill="none" stroke="#000000" stroke-miterlimit="10" d="M144.5,64.7c0,0,1.3-2.9,0.6-5.7c-0.6-2.8-2.5-6.5-2.5-6.5"/>
	<path fill="none" stroke="#000000" stroke-miterlimit="10" d="M113.9,46c0.5,0,3.5,1.1,5,0.8c1.5-0.3,6.5-0.7,6.5-0.7"/>
	<path fill="none" stroke="#000000" stroke-miterlimit="10" d="M124.5,45.5c0,0,2.1,1,4.1,1.5c2,0.5,5.2,1.6,6.3,2
		c0,0,3,2.7,5.7,3.3s7,1.9,8.8,0.3s1.9-2,1-3.4c-1-1.3-5.2-2.8-5.4-3.7c-0.2-0.9-1.4-1.9-2.2-2.2c0,0-1.7-1.2-2.6-1.1
		c-0.9,0-1.9,0.1-1.9,0.1"/>
	<path fill="none" stroke="#000000" stroke-miterlimit="10" d="M150.6,49.6c0,0,0.7-2.4-5.8-4.5"/>
	<path fill="none" stroke="#000000" stroke-miterlimit="10" d="M139.3,42c0,0-5.2-3-6.3-4c-1.1-0.9-2.2-2.3-4-2.6s-7.9-0.3-11.2-0.5
		c-3.4-0.2-5.6-0.7-7.1-1.5c-1.5-0.7-4.8-2.2-7.9-1.1c-3.1,1.1-4.4,2.6-4.4,2.6"/>
	<path fill="none" stroke="#000000" stroke-miterlimit="10" d="M100.5,32.9c0,0-4.5,1-5.8,1.4c-1.4,0.4-8.5,1.2-10.4,1.4
		s-3.7,0-5.3-0.1c-1.6-0.1-2.2,0.9-4.6,0.7c-2.4-0.2-7.9,0.1-9.8-0.6s-5.7-1.1-7.7-0.6c-2,0.5-8.7,1.5-8.7,1.5"/>
	<path fill="none" stroke="#000000" stroke-miterlimit="10" d="M58,60.9c0,0-7.4,12.4-9.3,9.7s-7.3-27,0.8-35.8
		c1.1-1.2,2.7,1.1,2.7,1.1"/>
	<path fill="none" stroke="#000000" stroke-miterlimit="10" d="M49.7,70.9c0,0-5.9,2.1-8.1,1.9c-2.3-0.2-16,3.7-16,3.7"/>
	<line fill="none" stroke="#000000" stroke-miterlimit="10" x1="50" y1="34.5" x2="39.8" y2="36.8"/>
	<path fill="none" stroke="#000000" stroke-miterlimit="10" d="M43.4,72.7c0,0-18.8,24.9-19.2,19.8s0.9-17.6,3-23.9
		c2.1-6.2,4.3-20,5.6-22.7c1.3-2.8,4.8-10.3,10.6-9.9"/>
	<path fill="none" stroke="#000000" stroke-miterlimit="10" d="M43.4,35.7c0,0-3.3-1.8-5.8-1.1c-2.4,0.7-4.7,1.3-6.9,1
		c-2.2-0.4-17.1-4.2-23.7-3.3"/>
	<path fill="none" stroke="#000000" stroke-miterlimit="10" d="M24.4,93.3c0,0-4.7-0.3-10.3-2.4s-5.5,0.7-5.5,0.7"/>
	<path fill="none" stroke="#000000" stroke-miterlimit="10" d="M144.6,67.8c0,0,3.4,0.3,3.8-0.9c0.4-1.2,0.5-1.9,0-2.4
		c-0.5-0.4-2-2.2-2-3c0-0.8-0.4-4.7,1.1-3c0,0,0-3.7-1.1-4.9"/>
	<path fill="none" stroke="#000000" stroke-miterlimit="10" d="M148.6,64.9c0,0-0.7-6.1-1.1-6.5"/>
	<path fill="none" stroke="#000000" stroke-miterlimit="10" d="M119.6,59.8c0,0,4.8,2.8,8,3.3c3.3,0.4,1.2,1.8,1.6,3
		c0.3,1.2-0.4,5.5,2.2,6.4c2.7,0.9,2.7-1.3,2.1-1.7c-0.6-0.4-1.8-3.4-1.3-4.2c0.4-0.9,1.6-2.8,1.6-2.8s0.3-3.3-0.3-3.5"/>
	<path fill="none" stroke="#000000" stroke-miterlimit="10" d="M133.8,71.1c0,0,0.9-4.1-0.2-7.2"/>
	<path fill="none" stroke="#000000" stroke-miterlimit="10" d="M100.4,82.7c0,0,1.6,5,3.9,4s2.9-4.7,2.8-6.2
		c-0.1-1.4-1.3-3.1-2.5-3.2C103.3,77.3,102.5,78.4,100.4,82.7z"/>
</g>
<g>
	<g>
		<polygon points="88.9,147.3 150.8,147.3 117.1,126.7 55.3,126.7 		"/>
		<polygon fill="#FFFFFF" points="106,140.4 111.1,140.4 100,133.6 95,133.6 		"/>
		<line fill="none" stroke="#000000" stroke-miterlimit="10" x1="150.8" y1="209.2" x2="150.8" y2="147.3"/>
		<line fill="none" stroke="#000000" stroke-miterlimit="10" x1="89.7" y1="209.2" x2="89.7" y2="147.3"/>
		<line fill="none" stroke="#000000" stroke-miterlimit="10" x1="55.3" y1="188.6" x2="55.3" y2="126.7"/>
		<line fill="none" stroke="#000000" stroke-miterlimit="10" x1="150.8" y1="209.2" x2="89.7" y2="209.2"/>
		<line fill="none" stroke="#000000" stroke-miterlimit="10" x1="89.7" y1="209.2" x2="55.3" y2="188.6"/>
		<line fill="none" stroke="#000000" stroke-miterlimit="10" x1="100" y1="133.6" x2="100" y2="140.4"/>
	</g>
	<g>
		<path d="M119.2,191.7c-2-0.2-3.6-0.7-5.1-1.6c-2.3-1.4-3.5-3.8-3.5-6.9c0-2.4,0.8-4.3,2.5-5.6c1-0.8,3-1.7,6-2.7v-7.2
			c-1.2,0.1-2.1,0.6-2.6,1.5c-0.3,0.5-0.5,1.3-0.6,2.5h-5c0.1-3,1.2-5.2,3.3-6.6c1.2-0.8,2.8-1.4,4.8-1.5V161h1.8v2.5
			c1.3,0.1,2.3,0.3,2.9,0.5c1.1,0.3,2.1,1,3,1.9c0.7,0.7,1.2,1.5,1.6,2.5c0.4,1,0.6,2,0.6,3.2c0,1.8-0.5,3.3-1.5,4.6
			c-1,1.3-2.7,2.2-5.1,3l-1.5,0.5v8.1c1.4-0.3,2.4-0.8,2.9-1.6c0.3-0.5,0.6-1.6,0.7-3.2h5.1c0,3.5-1,6-3.2,7.4
			c-1.2,0.8-3.1,1.4-5.6,1.6v3.8h-1.8V191.7z M121.1,174.4c0.9-0.3,1.6-0.6,2-0.9c0.8-0.6,1.2-1.5,1.2-2.5c0-1-0.3-1.7-0.8-2.3
			c-0.5-0.6-1.3-0.9-2.4-0.9V174.4z M119.2,180.1c-1,0.4-1.8,0.8-2.2,1.1c-0.7,0.6-1.1,1.5-1.1,2.6c0,1.4,0.4,2.4,1.2,3
			c0.4,0.3,1.2,0.6,2.2,0.7V180.1z"/>
	</g>
</g>
</svg>
