<?xml version="1.0" encoding="utf-8"?>
<!-- Generator: Adobe Illustrator 17.1.0, SVG Export Plug-In . SVG Version: 6.00 Build 0)  -->
<!DOCTYPE svg PUBLIC "-//W3C//DTD SVG 1.1 Tiny//EN" "http://www.w3.org/Graphics/SVG/1.1/DTD/svg11-tiny.dtd">
<svg version="1.1" baseProfile="tiny" id="圖層_1"
	 xmlns="http://www.w3.org/2000/svg" xmlns:xlink="http://www.w3.org/1999/xlink" x="0px" y="0px" viewBox="0 0 150 150"
	 xml:space="preserve">
<g id="XMLID_25_">
	<g>
		<path d="M135.4,76v-1.4h-0.8c-0.3-9.4-2.8-18.3-7-26.1l0,0l-0.7-1.2l0,0c-3.6-6.4-8.3-12-13.9-16.7c14.3,10.2,23.7,27,23.7,45.9
			c0,18.9-9.4,35.7-23.7,45.9c6.3-5.2,11.5-11.7,15.2-19.1l0.2,0.1l0.7-1.2l-0.3-0.2c3.7-7.8,5.8-16.4,5.8-25.6c0-0.2,0-0.4,0-0.6
			H135.4z"/>
		<path d="M134.6,76c0,0.2,0,0.4,0,0.6c0,9.2-2.1,17.8-5.8,25.6l-5.6-3.2l-0.7,1.2l5.6,3.3c-3.7,7.4-8.9,13.9-15.2,19.1c0,0,0,0,0,0
			c-9.2,6.5-20.5,10.4-32.6,10.4c-9.8,0-19-2.5-27-6.9c5.4,1.7,11.1,2.6,17,2.6c3.6,0,7.2-0.3,10.7-1v4h1.4v-4.3
			c26-5.5,45.5-28.6,45.5-56.3c0-7.3-1.3-14.2-3.8-20.6l3.5-2c4.2,7.8,6.7,16.7,7,26.1h-5.9V76H134.6z M109.7,123.3l-3.4-5.8
			l-1.2,0.7l3.4,5.8L109.7,123.3z"/>
		<path fill="#FFFFFF" d="M134.6,76h-5.9v-1.4h5.9C134.6,75.1,134.6,75.5,134.6,76z"/>
		<path fill="#FFFFFF" d="M123.3,99l5.6,3.2c-0.2,0.4-0.4,0.8-0.6,1.2l-5.6-3.3L123.3,99z"/>
		<path fill="#FFFFFF" d="M127.6,48.6l-3.5,2c-0.2-0.4-0.3-0.9-0.5-1.3l3.4-1.9C127.2,47.8,127.4,48.2,127.6,48.6z"/>
		<path d="M126.9,47.4l-3.4,1.9c-3.5-8.6-9.1-16.2-16.2-22.1c1.9,1.1,3.8,2.2,5.6,3.5c0,0,0,0,0,0C118.6,35.3,123.3,41,126.9,47.4z"
			/>
		<path fill="#FFFFFF" d="M124.1,50.6c2.5,6.4,3.8,13.3,3.8,20.6c0,27.6-19.5,50.7-45.5,56.3V125H81v2.7c-3.5,0.6-7,1-10.7,1
			c-5.9,0-11.6-0.9-17-2.6C35.8,116.6,24,98,24,76.6c0-31.1,25.2-56.4,56.4-56.4c9.8,0,19,2.5,27.1,6.9c7,5.9,12.6,13.5,16.2,22.1
			l-2.5,1.4l0.7,1.2L124.1,50.6z M109.8,77.5v-1.7l-27.5-0.3c-0.2-0.4-0.6-0.7-1-0.9L81.1,35h-1.5l-0.3,39.5
			c-0.4,0.2-0.7,0.5-0.9,0.9l-8.8-0.1v2.6l8.8-0.1c0.2,0.4,0.5,0.7,0.9,0.9l0,7.1h2.3l-0.1-7.1c0.4-0.2,0.7-0.5,1-0.9L109.8,77.5z
			 M103.8,34.5l3.4-5.8l-1.2-0.7l-3.4,5.8L103.8,34.5z M79.5,28.3v-6.7h-1.4v6.7H79.5z M54.6,125.4l3.4-5.8l-1.2-0.7l-3.4,5.8
			L54.6,125.4z M55.4,35.2l-3.4-5.8L50.9,30l3.4,5.8L55.4,35.2z M39.4,102.6l-0.7-1.2l-5.8,3.4l0.7,1.2L39.4,102.6z M37.4,54.2
			l0.7-1.2l-5.8-3.4l-0.7,1.2L37.4,54.2z M31.9,78.7v-1.4h-6.7v1.4H31.9z"/>
		<path fill="#231F20" d="M124.1,50.6l-2.3,1.3l-0.7-1.2l2.5-1.4C123.8,49.7,123.9,50.2,124.1,50.6z"/>
		<path fill="#231F20" d="M93.1,18.3c26.8,5.8,46.9,29.7,46.9,58.3c0,33-26.7,59.7-59.7,59.7c-0.9,0-1.8,0-2.7-0.1
			c13.4-0.6,25.7-5.6,35.3-13.6c0,0,0,0,0,0c14.3-10.2,23.7-27,23.7-45.9c0-19-9.4-35.7-23.7-45.9c0,0,0,0,0,0
			c-2.8-2.3-5.8-4.4-9-6.2C100.6,22.1,96.9,20,93.1,18.3z"/>
		<path fill="#231F20" d="M109.8,75.7v1.7l-27.5,0.3c0.2-0.3,0.3-0.7,0.3-1.2c0-0.4-0.1-0.8-0.3-1.2L109.8,75.7z"/>
		<polygon fill="#FFFFFF" points="106.3,117.5 109.7,123.3 108.5,124 105.1,118.2 		"/>
		<path fill="#231F20" d="M113,30.7c-1.8-1.3-3.6-2.4-5.6-3.5c-1.1-0.9-2.2-1.8-3.4-2.7C107.2,26.3,110.2,28.3,113,30.7z"/>
		<polygon fill="#231F20" points="107.2,28.6 103.8,34.5 102.6,33.8 106,27.9 		"/>
		<path fill="#231F20" d="M104,24.5c1.2,0.8,2.3,1.7,3.4,2.7c-8-4.4-17.3-6.9-27.1-6.9C49.2,20.3,24,45.5,24,76.6
			c0,21.4,11.9,39.9,29.4,49.5c-5.5-1.7-10.6-4.2-15.2-7.3l0,0C27.3,108,20.6,93.1,20.6,76.6c0-32.1,25.3-58.2,57-59.6
			C87.2,17.4,96.1,20.1,104,24.5z"/>
		<path fill="#231F20" d="M93.1,18.3c3.9,1.7,7.5,3.7,10.9,6.2c-7.9-4.4-16.8-7.1-26.4-7.5c0.9,0,1.8-0.1,2.7-0.1
			C84.7,17,89,17.4,93.1,18.3z"/>
		<path fill="#FFFFFF" d="M82.4,127.4v4.3H81v-4C81.5,127.6,81.9,127.5,82.4,127.4z"/>
		<path fill="#231F20" d="M82.4,125v2.4c-0.4,0.1-0.9,0.2-1.4,0.3V125H82.4z"/>
		<path d="M82.4,75.5c0.2,0.3,0.3,0.8,0.3,1.2c0,0.4-0.1,0.8-0.3,1.2l-1,0l0-2.4L82.4,75.5z"/>
		<path d="M81.4,77.8l1,0c-0.2,0.4-0.6,0.7-1,0.9L81.4,77.8z"/>
		<path d="M82.4,75.5l-1,0l0-0.9C81.8,74.7,82.1,75.1,82.4,75.5z"/>
		<path fill="#231F20" d="M80.3,133c12.2,0,23.4-3.9,32.6-10.4c-9.7,8-21.9,13-35.3,13.6c-15.4-0.7-29.3-7.2-39.5-17.4
			c4.6,3.1,9.8,5.6,15.2,7.3C61.4,130.5,70.6,133,80.3,133z"/>
		<path fill="#231F20" d="M81.4,78.7l0.1,7.1h-2.3l0-7.1c0.3,0.2,0.7,0.3,1.1,0.3C80.7,79,81.1,78.9,81.4,78.7z"/>
		<path d="M81.4,77.8l0,0.9c-0.3,0.2-0.7,0.3-1.1,0.3c-0.4,0-0.8-0.1-1.1-0.3l0-0.9L81.4,77.8z"/>
		<path d="M81.4,75.4l0,2.4l-2.1,0l0-2.4L81.4,75.4z M81.3,76.6c0-0.5-0.4-1-1-1c-0.5,0-1,0.4-1,1c0,0.5,0.4,1,1,1
			C80.9,77.6,81.3,77.2,81.3,76.6z"/>
		<path d="M81.4,74.5l0,0.9l-2.1,0l0-0.9c0.3-0.2,0.7-0.3,1.1-0.3C80.7,74.3,81.1,74.4,81.4,74.5z"/>
		<path fill="#231F20" d="M81.1,35l0.3,39.5c-0.3-0.2-0.7-0.2-1-0.2c-0.4,0-0.7,0.1-1.1,0.3L79.5,35H81.1z"/>
		<path fill="#231F20" d="M80.3,75.7c0.5,0,1,0.4,1,1c0,0.5-0.4,1-1,1c-0.5,0-1-0.4-1-1C79.3,76.1,79.8,75.7,80.3,75.7z"/>
		<rect x="78.2" y="21.6" fill="#231F20" width="1.4" height="6.7"/>
		<path d="M79.3,74.5l0,0.9l-0.9,0C78.5,75,78.9,74.7,79.3,74.5z"/>
		<path d="M79.3,75.4l0,2.4l-0.9,0c-0.2-0.4-0.3-0.8-0.3-1.2c0-0.4,0.1-0.9,0.3-1.2L79.3,75.4z"/>
		<path d="M79.2,77.8l0,0.9c-0.4-0.2-0.7-0.5-0.9-0.9L79.2,77.8z"/>
		<path fill="#231F20" d="M69.5,75.3l8.8,0.1c-0.2,0.4-0.3,0.8-0.3,1.2c0,0.4,0.1,0.9,0.3,1.2l-8.8,0.1V75.3z"/>
		<path d="M74.9,17c0.9,0,1.8,0,2.7,0.1c-31.7,1.4-57,27.6-57,59.6c0,16.5,6.7,31.4,17.5,42.2c-8.4-5.7-15.3-13.6-19.7-22.9
			c-2.1-6-3.2-12.5-3.2-19.2C15.2,43.7,42,17,74.9,17z"/>
		<path d="M77.6,136.2c-0.9,0-1.8,0.1-2.7,0.1c-26.2,0-48.5-16.9-56.5-40.4c4.4,9.3,11.3,17.2,19.7,22.9l0,0
			C48.3,129,62.2,135.6,77.6,136.2z"/>
		
			<rect x="52.3" y="121.5" transform="matrix(0.4999 -0.8661 0.8661 0.4999 -77.9557 109.2789)" fill="#231F20" width="6.7" height="1.4"/>
		<polygon fill="#231F20" points="52.1,29.3 55.4,35.2 54.3,35.8 50.9,30 		"/>
		
			<rect x="35.5" y="100.3" transform="matrix(-0.4994 -0.8664 0.8664 -0.4994 -35.5719 186.8651)" fill="#231F20" width="1.4" height="6.7"/>
		<polygon fill="#231F20" points="38.1,53 37.4,54.2 31.6,50.9 32.2,49.7 		"/>
		<rect x="25.2" y="77.3" fill="#231F20" width="6.7" height="1.4"/>
	</g>
	<g>
		<path fill="none" stroke="#FFFFFF" stroke-miterlimit="10" d="M77.6,136.2c-0.9,0-1.8,0.1-2.7,0.1c-26.2,0-48.5-16.9-56.5-40.4
			c-2.1-6-3.2-12.5-3.2-19.2C15.2,43.7,42,17,74.9,17c0.9,0,1.8,0,2.7,0.1"/>
		<path fill="none" stroke="#FFFFFF" stroke-miterlimit="10" d="M38.1,118.8C27.3,108,20.6,93.1,20.6,76.6c0-32.1,25.3-58.2,57-59.6
			c0.9,0,1.8-0.1,2.7-0.1c4.4,0,8.6,0.5,12.7,1.4c26.8,5.8,46.9,29.7,46.9,58.3c0,33-26.7,59.7-59.7,59.7c-0.9,0-1.8,0-2.7-0.1
			C62.2,135.6,48.3,129,38.1,118.8"/>
		<path fill="none" stroke="#FFFFFF" stroke-miterlimit="10" d="M113,122.6c-9.2,6.5-20.5,10.4-32.6,10.4c-9.8,0-19-2.5-27-6.9
			C35.8,116.6,24,98,24,76.6c0-31.1,25.2-56.4,56.4-56.4c9.8,0,19,2.5,27.1,6.9c1.9,1.1,3.8,2.2,5.6,3.5"/>
		<path fill="none" stroke="#FFFFFF" stroke-miterlimit="10" d="M113,30.7c14.3,10.2,23.7,27,23.7,45.9c0,18.9-9.4,35.7-23.7,45.9"
			/>
		<path fill="none" stroke="#231F20" stroke-miterlimit="10" d="M82.4,75.5c0.2,0.3,0.3,0.8,0.3,1.2c0,0.4-0.1,0.8-0.3,1.2
			c-0.2,0.4-0.6,0.7-1,0.9c-0.3,0.2-0.7,0.3-1.1,0.3c-0.4,0-0.8-0.1-1.1-0.3c-0.4-0.2-0.7-0.5-0.9-0.9c-0.2-0.4-0.3-0.8-0.3-1.2
			c0-0.4,0.1-0.9,0.3-1.2c0.2-0.4,0.6-0.7,0.9-0.9c0.3-0.2,0.7-0.3,1.1-0.3c0.4,0,0.7,0.1,1,0.2C81.8,74.7,82.1,75.1,82.4,75.5z"/>
	</g>
</g>
</svg>
