<?xml version="1.0" encoding="utf-8"?>
<!-- Generator: Adobe Illustrator 17.1.0, SVG Export Plug-In . SVG Version: 6.00 Build 0)  -->
<!DOCTYPE svg PUBLIC "-//W3C//DTD SVG 1.1 Tiny//EN" "http://www.w3.org/Graphics/SVG/1.1/DTD/svg11-tiny.dtd">
<svg version="1.1" baseProfile="tiny" id="圖層_1"
	 xmlns="http://www.w3.org/2000/svg" xmlns:xlink="http://www.w3.org/1999/xlink" x="0px" y="0px" viewBox="0 0 140 140"
	 xml:space="preserve">
<g id="XMLID_42_">
	<g>
		<path fill="#DB4441" d="M123.1,70v1.2h-0.7c0-0.4,0-0.8,0-1.2H123.1z"/>
		<path fill="#DB4441" d="M122.4,71.2H117V70h5.4C122.4,70.4,122.4,70.8,122.4,71.2z"/>
		<path fill="#DB4441" d="M116.8,96.4l-0.2-0.1c0.2-0.4,0.4-0.7,0.5-1.1l0.2,0.1L116.8,96.4z"/>
		<path fill="#DB4441" d="M112.1,92.2l5.1,2.9c-0.2,0.4-0.4,0.8-0.5,1.1l-5.1-3L112.1,92.2z"/>
		<path fill="#DB4441" d="M112.4,46.9l3.1-1.8c0.2,0.4,0.4,0.7,0.6,1.1l-3.2,1.8C112.7,47.6,112.5,47.3,112.4,46.9z"/>
		<path fill="#DB4441" d="M112.4,46.9c-3.2-7.9-8.3-14.8-14.8-20.2c1.8,1,3.4,2,5.1,3.2c0,0,0,0,0,0c5.1,4.2,9.4,9.4,12.7,15.2
			L112.4,46.9z"/>
		<path fill="#FFFFFF" d="M112.8,48l-2.1,1.2l-0.6-1.1l2.2-1.3C112.5,47.3,112.7,47.6,112.8,48z"/>
		<path fill="#DB4441" d="M117.2,95.2c3.4-7.1,5.3-15,5.3-23.4c0-0.2,0-0.4,0-0.6h0.7V70h-0.7c-0.3-8.6-2.5-16.7-6.4-23.8l0,0
			l-0.6-1.1l0,0c-3.3-5.8-7.6-11-12.7-15.2c13.1,9.3,21.6,24.6,21.6,41.9c0,17.3-8.5,32.6-21.6,41.9c5.7-4.8,10.5-10.7,13.9-17.4
			l0.2,0.1l0.6-1.1L117.2,95.2z"/>
		<polygon fill="#DB4441" points="96.6,109.1 99.7,114.4 98.6,115 95.5,109.7 		"/>
		<path fill="#FFFFFF" d="M84.5,18.6c24.5,5.3,42.8,27.1,42.8,53.2c0,30.1-24.4,54.4-54.4,54.4c-0.8,0-1.6,0-2.5-0.1
			c12.2-0.5,23.4-5.1,32.2-12.4c0,0,0,0,0,0c13.1-9.3,21.6-24.6,21.6-41.9c0-17.3-8.5-32.6-21.6-41.9c0,0,0,0,0,0
			c-2.5-2.1-5.3-4-8.2-5.6C91.4,22,88.1,20.1,84.5,18.6z"/>
		<polygon fill="#FFFFFF" points="96.3,27.4 97.4,28 94.4,33.3 93.3,32.7 		"/>
		<path fill="#FFFFFF" d="M94.5,24.2c2.9,1.6,5.6,3.5,8.2,5.6c-1.6-1.2-3.3-2.2-5.1-3.2C96.6,25.8,95.6,25,94.5,24.2z"/>
		<path fill="#FFFFFF" d="M75.1,71.8c0,0.4-0.1,0.7-0.3,1.1l-0.9,0l0-2.2l0.9,0C74.9,71,75.1,71.4,75.1,71.8z"/>
		<path fill="#FFFFFF" d="M74.8,70.7L99.8,71v1.6l-25.1,0.3c0.2-0.3,0.3-0.7,0.3-1.1C75.1,71.4,74.9,71,74.8,70.7z"/>
		<path fill="#DB4441" d="M74.8,118.1v3.9h-1.2v-3.7C74,118.3,74.4,118.2,74.8,118.1z"/>
		<path fill="#FFFFFF" d="M73.6,115.9h1.2v2.2c-0.4,0.1-0.8,0.2-1.2,0.3V115.9z"/>
		<path fill="#FFFFFF" d="M73.9,72.9l0.9,0c-0.2,0.4-0.5,0.7-0.9,0.8L73.9,72.9z"/>
		<path fill="#FFFFFF" d="M73.9,70.7l0-0.8c0.4,0.2,0.7,0.5,0.9,0.8L73.9,70.7z"/>
		<path fill="#FFFFFF" d="M71.9,73.7c0.3,0.2,0.6,0.2,1,0.2c0.4,0,0.7-0.1,1-0.2l0.1,6.5h-2.1L71.9,73.7z"/>
		<path fill="#DB4441" d="M99.7,114.4l-3.1-5.3l-1.1,0.6l3.1,5.3L99.7,114.4z M63.8,119.3c3.3,0,6.6-0.3,9.7-0.9v3.7h1.2v-3.9
			c23.7-5,41.5-26.1,41.5-51.3c0-6.6-1.2-13-3.5-18.8l3.2-1.8c3.8,7.1,6.1,15.2,6.4,23.8H117v1.2h5.4c0,0.2,0,0.4,0,0.6
			c0,8.4-1.9,16.3-5.3,23.4l-5.1-2.9l-0.6,1.1l5.1,3c-3.4,6.7-8.1,12.7-13.9,17.4c0,0,0,0,0,0c-8.4,6-18.7,9.5-29.8,9.5
			c-8.9,0-17.3-2.3-24.6-6.3C53.2,118.5,58.4,119.3,63.8,119.3z"/>
		<path fill="#FFFFFF" d="M94.5,24.2c-7.2-4-15.3-6.4-24-6.8c0.8,0,1.6-0.1,2.5-0.1c4,0,7.9,0.4,11.6,1.2
			C88.1,20.1,91.4,22,94.5,24.2z"/>
		<path fill="#FFFFFF" d="M72.9,69.7c0.3,0,0.7,0.1,0.9,0.2l0,0.8l-1.9,0l0-0.8C72.2,69.7,72.6,69.7,72.9,69.7z"/>
		<path fill="#FFFFFF" d="M73.9,72.9l-2,0l0-2.2l1.9,0L73.9,72.9z M73.8,71.8c0-0.5-0.4-0.9-0.9-0.9c-0.5,0-0.9,0.4-0.9,0.9
			c0,0.5,0.4,0.9,0.9,0.9C73.4,72.7,73.8,72.3,73.8,71.8z"/>
		<path fill="#FFFFFF" d="M72.9,72.7c-0.5,0-0.9-0.4-0.9-0.9c0-0.5,0.4-0.9,0.9-0.9c0.5,0,0.9,0.4,0.9,0.9
			C73.8,72.3,73.4,72.7,72.9,72.7z"/>
		<path fill="#FFFFFF" d="M71.9,72.9l2,0l0,0.8c-0.3,0.2-0.6,0.2-1,0.2c-0.4,0-0.7-0.1-1-0.2L71.9,72.9z"/>
		<path fill="#FFFFFF" d="M73.6,33.8l0.3,36.1c-0.3-0.1-0.6-0.2-0.9-0.2c-0.3,0-0.7,0.1-1,0.2l0.2-36.1H73.6z"/>
		<rect x="71" y="21.6" fill="#FFFFFF" width="1.2" height="6.1"/>
		<path fill="#FFFFFF" d="M71.9,69.9l0,0.8l-0.9,0C71.3,70.3,71.6,70.1,71.9,69.9z"/>
		<path fill="#FFFFFF" d="M71.9,70.7l0,2.2l-0.9,0c-0.2-0.3-0.3-0.7-0.3-1.1c0-0.4,0.1-0.8,0.3-1.1L71.9,70.7z"/>
		<path fill="#FFFFFF" d="M71.9,72.9l0,0.8c-0.4-0.2-0.6-0.5-0.8-0.8L71.9,72.9z"/>
		<path fill="#FFFFFF" d="M63,70.6l8,0.1c-0.2,0.3-0.3,0.7-0.3,1.1c0,0.4,0.1,0.8,0.3,1.1L63,73V70.6z"/>
		<path fill="#DB4441" d="M70.4,126.2c-0.8,0-1.6,0.1-2.5,0.1c-23.9,0-44.2-15.4-51.5-36.9c4,8.5,10.3,15.7,18,20.9l0,0
			C43.7,119.6,56.4,125.6,70.4,126.2z"/>
		
			<rect x="47.3" y="112.7" transform="matrix(0.4999 -0.8661 0.8661 0.4999 -72.934 100.3212)" fill="#FFFFFF" width="6.1" height="1.2"/>
		<polygon fill="#FFFFFF" points="47.1,28.7 50.2,34 49.1,34.6 46.1,29.3 		"/>
		<path fill="#FFFFFF" d="M72.9,123.2c11.1,0,21.4-3.5,29.8-9.5c-8.8,7.3-20,11.9-32.2,12.4c-14.1-0.6-26.7-6.6-36-15.9
			c4.2,2.9,8.9,5.1,13.9,6.7C55.6,121,64,123.2,72.9,123.2z"/>
		<polygon fill="#FFFFFF" points="34.4,50.3 33.7,51.4 28.4,48.3 29.1,47.2 		"/>
		
			<rect x="29.6" y="95.9" transform="matrix(-0.8661 0.4999 -0.4999 -0.8661 109.1861 163.7497)" fill="#FFFFFF" width="6.1" height="1.2"/>
		<path fill="#FFFFFF" d="M97.6,26.7c-7.3-4-15.7-6.3-24.7-6.3c-28.4,0-51.4,23-51.4,51.4c0,19.5,10.8,36.4,26.8,45.2
			c-5-1.5-9.7-3.8-13.9-6.7l0,0c-9.8-9.9-15.9-23.5-15.9-38.5c0-29.2,23-53.1,52-54.4c8.7,0.4,16.9,2.8,24,6.8
			C95.6,25,96.6,25.8,97.6,26.7z"/>
		<path fill="#FFFFFF" d="M97.4,28l-1.1-0.6l-3.1,5.3l1.1,0.6L97.4,28z M22.6,73.7h6.1v-1.2h-6.1V73.7z M35,94.4l-5.3,3.1l0.6,1.1
			l5.3-3.1L35,94.4z M72.2,21.6H71v6.1h1.2V21.6z M52.5,111l-1.1-0.6l-3.1,5.3l1.1,0.6L52.5,111z M72.9,20.4c9,0,17.4,2.3,24.7,6.3
			c6.4,5.4,11.5,12.3,14.8,20.2l-2.2,1.3l0.6,1.1l2.1-1.2c2.2,5.8,3.5,12.2,3.5,18.8c0,25.2-17.8,46.3-41.5,51.3v-2.2h-1.2v2.5
			c-3.2,0.6-6.4,0.9-9.7,0.9c-5.4,0-10.6-0.8-15.5-2.3c-16-8.7-26.8-25.7-26.8-45.2C21.5,43.4,44.5,20.4,72.9,20.4z M73.9,69.9
			l-0.3-36.1h-1.4l-0.2,36.1c-0.4,0.2-0.7,0.5-0.9,0.8l-8-0.1V73l8-0.1c0.2,0.3,0.5,0.6,0.8,0.8l0,6.5h2.1l-0.1-6.5
			c0.4-0.2,0.7-0.5,0.9-0.8l25.1-0.3V71l-25.1-0.3C74.6,70.4,74.2,70.1,73.9,69.9z M50.2,34l-3.1-5.3l-1.1,0.6l3.1,5.3L50.2,34z
			 M33.7,51.4l0.6-1.1l-5.3-3.1l-0.6,1.1L33.7,51.4z"/>
		<rect x="22.6" y="72.4" fill="#FFFFFF" width="6.1" height="1.2"/>
		<path fill="#DB4441" d="M13.5,71.8c0-30.1,24.4-54.4,54.4-54.4c0.8,0,1.7,0,2.5,0.1c-28.9,1.3-52,25.1-52,54.4
			c0,15,6.1,28.6,15.9,38.5c-7.7-5.2-14-12.5-18-20.9C14.6,83.9,13.5,77.9,13.5,71.8z"/>
	</g>
	<g>
		<path fill="none" stroke="#DB4441" stroke-miterlimit="10" d="M70.4,126.2c-0.8,0-1.6,0.1-2.5,0.1c-23.9,0-44.2-15.4-51.5-36.9
			c-1.9-5.5-2.9-11.4-2.9-17.6c0-30.1,24.4-54.4,54.4-54.4c0.8,0,1.7,0,2.5,0.1"/>
		<path fill="none" stroke="#DB4441" stroke-miterlimit="10" d="M34.4,110.3c-9.8-9.9-15.9-23.5-15.9-38.5c0-29.2,23-53.1,52-54.4
			c0.8,0,1.6-0.1,2.5-0.1c4,0,7.9,0.4,11.6,1.2c24.5,5.3,42.8,27.1,42.8,53.2c0,30.1-24.4,54.4-54.4,54.4c-0.8,0-1.6,0-2.5-0.1
			C56.4,125.6,43.7,119.6,34.4,110.3"/>
		<path fill="none" stroke="#DB4441" stroke-miterlimit="10" d="M102.7,113.7c-8.4,6-18.7,9.5-29.8,9.5c-8.9,0-17.3-2.3-24.6-6.3
			c-16-8.7-26.8-25.7-26.8-45.2c0-28.4,23-51.4,51.4-51.4c9,0,17.4,2.3,24.7,6.3c1.8,1,3.4,2,5.1,3.2"/>
		<path fill="none" stroke="#DB4441" stroke-miterlimit="10" d="M102.7,29.9c13.1,9.3,21.6,24.6,21.6,41.9
			c0,17.3-8.5,32.6-21.6,41.9"/>
	</g>
</g>
<g>
	<path fill="#DB4441" d="M46.6,72.7c5.6-4.3,9.3-7.9,13.1-12.6c3.3-4.1,5.8-8.6,7.1-12.4c9,2,9,2,9,2.5c0,0.5-0.6,0.8-2.3,1.1
		c2.7,3.7,5.6,6.3,10.3,9c4.3,2.5,7.8,3.7,12.7,4.6v0.6c-1.5,0.7-2.1,1.2-2.8,2.1c-0.6,0.8-1.2,2.1-1.6,3.3
		c-0.2,0.7-0.4,0.9-0.7,0.9c-0.5,0-2.3-1-4.4-2.4c-3.8-2.6-7.2-5.9-9.9-9.7c-1.6-2.2-2.8-4.2-4.6-7.7c-4.1,6-7.4,9.6-12.1,13.3
		c-4.3,3.3-8.6,5.9-13.7,8L46.6,72.7z M52.5,74.4c1.4,0.3,2.7,0.5,4.1,0.5h23.3c1.4-1.4,1.8-1.9,3.2-3.2c2.1,1.5,2.7,1.9,4.7,3.4
		c0.5,0.4,0.7,0.7,0.7,0.9c0,0.6-0.7,1-2.4,1.6c-2.2,5.1-6.2,12.6-8.9,17.1c-0.5,0.6-0.9,0.8-1.7,0.8c-1.7,0-4.2-0.4-4.7-0.8
		c-0.3-0.2-0.4-0.4-0.4-0.7c0-0.2,0.2-0.5,0.4-0.9c3.7-5.8,6.9-11.8,9.2-17.1H56.6c-1.5,0-2.3,0.1-3.7,0.3L52.5,74.4z M59.9,66.3
		c1.2,0.3,2.2,0.4,3.4,0.4h9.5c1.6-1.9,2.1-2.5,3.7-4.3c2.5,1.9,3.2,2.5,5.6,4.5c0.2,0.2,0.3,0.4,0.3,0.5c0,0.2-0.3,0.4-0.6,0.4
		H63.3c-1.1,0-1.8,0.1-3,0.3L59.9,66.3z"/>
</g>
</svg>
