<?xml version="1.0" encoding="utf-8"?>
<!-- Generator: Adobe Illustrator 17.1.0, SVG Export Plug-In . SVG Version: 6.00 Build 0)  -->
<!DOCTYPE svg PUBLIC "-//W3C//DTD SVG 1.1 Tiny//EN" "http://www.w3.org/Graphics/SVG/1.1/DTD/svg11-tiny.dtd">
<svg version="1.1" baseProfile="tiny" id="圖層_1"
	 xmlns="http://www.w3.org/2000/svg" xmlns:xlink="http://www.w3.org/1999/xlink" x="0px" y="0px" viewBox="0 0 140 140"
	 xml:space="preserve">
<g id="XMLID_43_">
	<g>
		<path d="M16.4,69.6v1.2h0.7c0-0.4,0-0.8,0-1.2H16.4z"/>
		<path d="M17.1,70.9h5.4v-1.2h-5.4C17.1,70,17.1,70.4,17.1,70.9z"/>
		<path d="M22.4,94.8c-3.4-7.1-5.3-15-5.3-23.4c0-0.2,0-0.4,0-0.6h-0.7v-1.2h0.7c0.3-8.6,2.5-16.7,6.4-23.8l0,0l0.6-1.1l0,0
			c3.3-5.8,7.6-11,12.7-15.2c-13.1,9.3-21.6,24.6-21.6,41.9c0,17.3,8.5,32.6,21.6,41.9c-5.7-4.8-10.5-10.7-13.9-17.4L22.8,96
			l-0.6-1.1L22.4,94.8z"/>
		<path d="M22.1,94.9l0.6,1.1l0.2-0.1c-0.2-0.4-0.4-0.7-0.5-1.1L22.1,94.9z"/>
		<path d="M39.8,114l3.1-5.3l1.1,0.6l-3.1,5.3L39.8,114z M64.7,117.8c-23.7-5-41.5-26.1-41.5-51.3c0-6.6,1.2-13,3.5-18.8l-3.2-1.8
			C19.7,53,17.4,61,17.1,69.6h5.4v1.2h-5.4c0,0.2,0,0.4,0,0.6c0,8.4,1.9,16.3,5.3,23.4l5.1-2.9l0.6,1.1l-5.1,3
			c3.4,6.7,8.1,12.7,13.9,17.4c0,0,0,0,0,0c8.4,6,18.7,9.5,29.8,9.5c8.9,0,17.3-2.3,24.6-6.3c-4.9,1.5-10.1,2.3-15.5,2.3
			c-3.3,0-6.6-0.3-9.7-0.9v3.7h-1.2V117.8z"/>
		<path d="M23.5,45.8l3.2,1.8c0.2-0.4,0.3-0.8,0.5-1.2l-3.1-1.8C23.9,45.1,23.7,45.5,23.5,45.8z"/>
		<path d="M24.1,44.7l3.1,1.8c3.2-7.9,8.3-14.8,14.8-20.2c-1.8,1-3.4,2-5.1,3.2c0,0,0,0,0,0C31.7,33.8,27.4,38.9,24.1,44.7z"/>
		<path fill="#FFFFFF" d="M12.2,71.4c0,30.1,24.4,54.4,54.4,54.4c0.8,0,1.7,0,2.5-0.1c-12.2-0.5-23.4-5.1-32.2-12.4c0,0,0,0,0,0
			C23.7,104,15.2,88.7,15.2,71.4c0-17.3,8.5-32.6,21.6-41.9c0,0,0,0,0,0c2.5-2.1,5.3-4,8.2-5.6c3.1-2.2,6.4-4.1,10-5.6
			C30.5,23.6,12.2,45.4,12.2,71.4z"/>
		<path d="M27.4,91.9l-5.1,2.9c0.2,0.4,0.4,0.8,0.5,1.1l5.1-3L27.4,91.9z"/>
		<path fill="#FFFFFF" d="M26.7,47.7l2.1,1.2l0.6-1.1l-2.2-1.3C27,46.9,26.8,47.3,26.7,47.7z"/>
		<path fill="#FFFFFF" d="M39.7,70.6v1.6l25.1,0.3c-0.2-0.3-0.3-0.7-0.3-1.1c0-0.4,0.1-0.8,0.3-1.1L39.7,70.6z"/>
		<path fill="#FFFFFF" d="M36.9,29.5c1.6-1.1,3.3-2.2,5.1-3.2c1-0.9,2-1.7,3.1-2.4C42.1,25.5,39.4,27.4,36.9,29.5z"/>
		<polygon fill="#FFFFFF" points="42.1,27.6 45.2,33 46.2,32.3 43.2,27 		"/>
		<polygon points="40.9,114.6 44,109.3 42.9,108.7 39.8,114 		"/>
		<path fill="#FFFFFF" d="M55,18.2c-3.5,1.5-6.9,3.4-10,5.6c7.2-4,15.3-6.4,24-6.8c-0.8,0-1.6-0.1-2.5-0.1
			C62.6,17,58.7,17.4,55,18.2z"/>
		<path d="M64.7,117.8v3.9H66V118C65.6,118,65.1,117.9,64.7,117.8z"/>
		<path fill="#FFFFFF" d="M64.7,115.6v2.2c0.4,0.1,0.8,0.2,1.2,0.3v-2.5H64.7z"/>
		<path fill="#FFFFFF" d="M64.8,70.4c-0.2,0.3-0.3,0.7-0.3,1.1c0,0.4,0.1,0.7,0.3,1.1l0.9,0l0-2.2L64.8,70.4z"/>
		<path fill="#FFFFFF" d="M65.6,72.5l-0.9,0c0.2,0.4,0.5,0.7,0.9,0.8L65.6,72.5z"/>
		<path fill="#FFFFFF" d="M64.8,70.4l0.9,0l0-0.8C65.3,69.7,65,70,64.8,70.4z"/>
		<path fill="#FFFFFF" d="M66.6,122.9c-11.1,0-21.4-3.5-29.8-9.5c8.8,7.3,20,11.9,32.2,12.4c14.1-0.6,26.7-6.6,36-15.9
			c-4.2,2.9-8.9,5.1-13.9,6.7C83.9,120.6,75.5,122.9,66.6,122.9z"/>
		<path fill="#FFFFFF" d="M65.6,73.3l-0.1,6.5h2.1l0-6.5c-0.3,0.2-0.6,0.2-1,0.2C66.3,73.6,65.9,73.5,65.6,73.3z"/>
		<path fill="#FFFFFF" d="M65.6,72.5l0,0.8c0.3,0.2,0.6,0.2,1,0.2c0.4,0,0.7-0.1,1-0.2l0-0.8L65.6,72.5z"/>
		<path fill="#FFFFFF" d="M65.7,70.4l0,2.2l2,0l0-2.2L65.7,70.4z M65.7,71.4c0-0.5,0.4-0.9,0.9-0.9c0.5,0,0.9,0.4,0.9,0.9
			c0,0.5-0.4,0.9-0.9,0.9C66.1,72.3,65.7,71.9,65.7,71.4z"/>
		<path fill="#FFFFFF" d="M65.7,69.5l0,0.8l1.9,0l0-0.8c-0.3-0.2-0.6-0.2-1-0.2C66.3,69.3,66,69.4,65.7,69.5z"/>
		<path fill="#FFFFFF" d="M65.9,33.5l-0.3,36.1c0.3-0.1,0.6-0.2,0.9-0.2c0.3,0,0.7,0.1,1,0.2l-0.2-36.1H65.9z"/>
		<path fill="#FFFFFF" d="M66.6,70.5c-0.5,0-0.9,0.4-0.9,0.9c0,0.5,0.4,0.9,0.9,0.9c0.5,0,0.9-0.4,0.9-0.9
			C67.5,70.9,67.1,70.5,66.6,70.5z"/>
		<rect x="67.3" y="21.2" fill="#FFFFFF" width="1.2" height="6.1"/>
		<path fill="#FFFFFF" d="M67.6,69.5l0,0.8l0.9,0C68.2,70,67.9,69.7,67.6,69.5z"/>
		<path fill="#FFFFFF" d="M67.6,70.3l0,2.2l0.9,0c0.2-0.3,0.3-0.7,0.3-1.1c0-0.4-0.1-0.8-0.3-1.1L67.6,70.3z"/>
		<path fill="#FFFFFF" d="M67.6,72.5l0,0.8c0.4-0.2,0.6-0.5,0.9-0.8L67.6,72.5z"/>
		<path fill="#FFFFFF" d="M76.5,70.2l-8,0.1c0.2,0.3,0.3,0.7,0.3,1.1c0,0.4-0.1,0.8-0.3,1.1l8,0.1V70.2z"/>
		<path d="M69.1,125.8c0.8,0,1.6,0.1,2.5,0.1c23.9,0,44.2-15.4,51.5-36.9c-4,8.5-10.3,15.7-18,20.9l0,0
			C95.8,119.2,83.1,125.2,69.1,125.8z"/>
		
			<rect x="86.1" y="112.3" transform="matrix(-0.4999 -0.8661 0.8661 -0.4999 35.8564 246.6069)" fill="#FFFFFF" width="6.1" height="1.2"/>
		<polygon fill="#FFFFFF" points="92.4,28.3 89.3,33.6 90.4,34.2 93.5,28.9 		"/>
		<polygon fill="#FFFFFF" points="105.2,49.9 105.8,51 111.1,47.9 110.5,46.9 		"/>
		<path fill="#FFFFFF" d="M90.1,115.9l-3.1-5.3l1.1-0.6l3.1,5.3L90.1,115.9z M65.7,69.5l0.3-36.1h1.4l0.2,36.1
			c0.4,0.2,0.7,0.5,0.9,0.8l8-0.1v2.4l-8-0.1c-0.2,0.3-0.5,0.6-0.9,0.8l0,6.5h-2.1l0.1-6.5c-0.4-0.2-0.7-0.5-0.9-0.8l-25.1-0.3v-1.6
			l25.1-0.3C65,70,65.3,69.7,65.7,69.5z M110.8,72.1h6.1v1.2h-6.1V72.1z M109.2,98.2l-5.3-3.1l0.6-1.1l5.3,3.1L109.2,98.2z
			 M23.2,66.5c0,25.2,17.8,46.3,41.5,51.3v-2.2H66v2.5c3.2,0.6,6.4,0.9,9.7,0.9c5.4,0,10.6-0.8,15.5-2.3c16-8.7,26.8-25.7,26.8-45.2
			C118,43,95,20,66.6,20c-9,0-17.4,2.3-24.7,6.3c-6.4,5.4-11.5,12.3-14.8,20.2l2.2,1.3l-0.6,1.1l-2.1-1.2
			C24.5,53.5,23.2,59.8,23.2,66.5z M45.2,33l-3.1-5.3l1.1-0.6l3.1,5.3L45.2,33z M67.3,27.4v-6.1h1.2v6.1H67.3z M89.3,33.6l3.1-5.3
			l1.1,0.6l-3.1,5.3L89.3,33.6z M105.8,51l-0.6-1.1l5.3-3.1l0.6,1.1L105.8,51z"/>
		
			<rect x="103.8" y="95.5" transform="matrix(-0.8661 -0.4999 0.4999 -0.8661 151.3687 232.8217)" fill="#FFFFFF" width="6.1" height="1.2"/>
		<rect x="110.8" y="72.1" fill="#FFFFFF" width="6.1" height="1.2"/>
		<path fill="#FFFFFF" d="M118,71.4c0,19.5-10.8,36.4-26.8,45.2c5-1.5,9.7-3.8,13.9-6.7l0,0c9.9-9.9,15.9-23.5,15.9-38.5
			c0-29.2-23-53.1-52-54.4c-8.7,0.4-16.9,2.8-24,6.8c-1.1,0.8-2.1,1.6-3.1,2.4c7.3-4,15.7-6.3,24.7-6.3C95,20,118,43,118,71.4z"/>
		<path d="M126,71.4C126,41.4,101.6,17,71.6,17c-0.8,0-1.7,0-2.5,0.1c28.9,1.3,52,25.1,52,54.4c0,15-6.1,28.6-15.9,38.5
			c7.7-5.2,14-12.5,18-20.9C125,83.5,126,77.6,126,71.4z"/>
	</g>
	<g>
		<path fill="none" stroke="#231F20" stroke-miterlimit="10" d="M69.1,125.8c0.8,0,1.6,0.1,2.5,0.1c23.9,0,44.2-15.4,51.5-36.9
			c1.9-5.5,2.9-11.4,2.9-17.6C126,41.4,101.6,17,71.6,17c-0.8,0-1.7,0-2.5,0.1"/>
		<path fill="none" stroke="#231F20" stroke-miterlimit="10" d="M105.1,109.9c9.9-9.9,15.9-23.5,15.9-38.5c0-29.2-23-53.1-52-54.4
			c-0.8,0-1.6-0.1-2.5-0.1c-4,0-7.9,0.4-11.6,1.2c-24.5,5.3-42.8,27.1-42.8,53.2c0,30.1,24.4,54.4,54.4,54.4c0.8,0,1.7,0,2.5-0.1
			C83.1,125.2,95.8,119.2,105.1,109.9"/>
		<path fill="none" stroke="#231F20" stroke-miterlimit="10" d="M36.9,113.4c8.4,6,18.7,9.5,29.8,9.5c8.9,0,17.3-2.3,24.6-6.3
			c16-8.7,26.8-25.7,26.8-45.2C118,43,95,20,66.6,20c-9,0-17.4,2.3-24.7,6.3c-1.8,1-3.4,2-5.1,3.2"/>
		<path fill="none" stroke="#231F20" stroke-miterlimit="10" d="M36.8,29.5c-13.1,9.3-21.6,24.6-21.6,41.9
			c0,17.3,8.5,32.6,21.6,41.9"/>
	</g>
</g>
<g>
	<path fill="#231F20" d="M58.3,56.2c0-2.2-0.1-3.1-0.3-5.1c6.7,0.5,7,0.6,7.5,0.8c0.4,0.2,0.6,0.3,0.6,0.6c0,0.5-0.4,0.7-2.1,1.2V59
		h9.4v-2.8c0-1.8-0.1-2.9-0.2-5.1c7.3,0.6,8.1,0.7,8.1,1.5c0,0.5-0.5,0.8-2.1,1.3V59h3.7c1.6-1.8,2-2.4,3.6-4.2
		c2.4,1.9,3.1,2.5,5.4,4.5c0.2,0.3,0.3,0.4,0.3,0.5c0,0.2-0.3,0.3-0.7,0.3H79.1v9.4H84c1.6-1.9,2.1-2.4,3.8-4.3
		c2.4,1.9,3.2,2.5,5.5,4.6c0.2,0.2,0.3,0.3,0.3,0.4c0,0.2-0.2,0.3-0.5,0.3H49.6c-1.4,0-2.4,0.1-3.6,0.4L45.7,69
		c1.5,0.4,2.5,0.5,3.9,0.5h8.7v-9.4h-6.1c-1.2,0-2.3,0.1-3.5,0.4l-0.3-1.9c1.2,0.3,2.6,0.5,3.8,0.5h6.1V56.2z M59.7,97.3
		c0,0.6-0.1,0.8-0.4,1c-0.5,0.3-1.7,0.5-3.6,0.5c-1.6,0-1.9-0.2-1.9-1.4c0.2-5.3,0.3-9.4,0.3-16c0-4.1-0.1-5.4-0.3-8.8
		c3,1.2,3.8,1.7,6.6,3.3h17c1.4-1.4,1.8-1.9,3.2-3.2c2,1.4,2.6,1.8,4.5,3.3c0.5,0.4,0.6,0.6,0.6,0.9c0,0.4-0.4,0.7-1.9,1.5
		c0,2.4,0,4.4,0,5.6c0,4.8,0.1,7.4,0.3,13.1c0,0.5-0.1,0.7-0.2,0.9c-0.4,0.4-1.7,0.6-3.8,0.6c-1.8,0-2-0.1-2-1v-2.4H59.7V97.3z
		 M77.9,77.1H59.7v7.6h18.1V77.1z M59.7,85.8v8.4h18.1v-8.4H59.7z M64.1,60.1v9.4h9.4v-9.4H64.1z"/>
</g>
</svg>
