<?xml version="1.0" encoding="utf-8"?>
<!-- Generator: Adobe Illustrator 17.1.0, SVG Export Plug-In . SVG Version: 6.00 Build 0)  -->
<!DOCTYPE svg PUBLIC "-//W3C//DTD SVG 1.1 Tiny//EN" "http://www.w3.org/Graphics/SVG/1.1/DTD/svg11-tiny.dtd">
<svg version="1.1" baseProfile="tiny" id="圖層_1"
	 xmlns="http://www.w3.org/2000/svg" xmlns:xlink="http://www.w3.org/1999/xlink" x="0px" y="0px" viewBox="0 0 280 40"
	 xml:space="preserve">
<g>
	<g>
		<path fill="#FFFFFF" d="M26.3,14.8c-1,2.9-2.7,5.5-4,6.7l0.1,0c1-0.4,2.9-1.3,4.5-3.4v4.5c0,0.4,0.1,0.5,0.5,0.4l1.5-0.1
			c0.4,0,0.4-0.1,0.4-0.6V16c0.2,0.3,0.7,1,1.1,2.5c0.2,0.8,0.2,1,0.8,1c0.6,0,1.4-0.6,1.4-1.4c0-1.6-2.4-2.3-3.2-2.5v-0.9h3.8
			c0.1,0,0.3,0,0.3-0.1c0-0.2-1.6-1.8-1.7-1.8c-0.1,0-0.1,0.1-0.3,0.3l-1,1.4h-1.1v-2c0.4-0.1,0.5-0.2,0.5-0.3
			c0-0.1-0.1-0.1-0.2-0.1c-0.1,0-2.3-0.2-2.7-0.3v2.8h-4.1l0.1,0.2H26.3z"/>
		<path fill="#FFFFFF" d="M28.3,11.3h-1.9c0.9-0.2,1.2-0.9,1.2-1.5c0-1.8-2.9-2.8-3.1-2.9h4.9C29,8.9,28.7,9.9,28.3,11.3 M42,6
			c0-0.2-2-2-2.4-2.3c-1.3,1.1-3.2,2.1-3.7,2.4c-0.3-0.1-2-0.4-2.4-0.5v5.8c0-0.2-1.6-2-1.8-2c-0.1,0-0.2,0.2-0.3,0.3l-0.9,1.6h-1.9
			c0.9-0.8,2.4-2.3,3-3.1c0.1,0,0.5,0.1,0.5-0.2c0-0.3-2.1-1-2.5-1.1h3.4c0.1,0,0.3,0,0.3-0.1c0-0.2-1.4-1.8-1.6-1.8
			c-0.1,0-0.1,0.1-0.3,0.3l-1,1.4h-1.4V4.5c0.3-0.1,0.6-0.2,0.6-0.4c0-0.1-0.2-0.1-0.3-0.2c-0.8-0.1-2.2-0.3-2.8-0.3v3H23l0.1,0.2
			h1.2c0.8,1.2,1,3,1.1,3.5c0.1,0.6,0.1,0.7,0.3,0.8h-3.3l0.1,0.3h10.8c0.1,0,0.2,0,0.3-0.1v2.1c0,2.5-0.3,6.9-3.5,9.2l0,0
			c5.7-1.8,5.9-7.3,5.9-10.3v-0.9h1.3v11.1c0,0.5,0,0.5,0.5,0.5l1.6-0.1c0.5,0,0.5-0.1,0.5-0.5V11.5h1.8c0.1,0,0.3,0,0.3-0.2
			c0-0.2-2.2-2-2.3-2c-0.1,0-0.2,0.2-0.3,0.3l-1.2,1.6h-2.1V6.6c2.3-0.1,4.6-0.4,5.4-0.5c0.1,0,0.2,0.1,0.3,0.1
			C41.9,6.1,42,6.1,42,6"/>
		<path fill="#FFFFFF" d="M59.6,9.8h-2.8V7.7h2.8V9.8z M59.6,7.5h-2.8V5.4h2.8V7.5z M54.8,17.9L52.4,18v-1.9h2.4V17.9z M54.8,15.9
			h-2.4v-1.8h2.4V15.9z M54.8,13.9h-2.4v-1.6h2.4V13.9z M63,5.9c0-0.4-2.2-2-2.5-2c-0.2,0-0.4,0.3-0.5,0.4l-0.6,0.8h-2.6
			c-2-0.5-2.2-0.5-2.5-0.6v6c0,0.4,0,0.5,0.4,0.5l1.7-0.1c0.4,0,0.4-0.1,0.4-0.4v-0.4h2.8v9.3c0,0.4,0,0.6-0.5,0.6
			c-0.2,0-0.9,0-1.9-0.1v-7.6h1.9c0.1,0,0.1,0,0.1-0.2c0-0.2-1.7-1.5-1.8-1.5c-0.1,0-0.1,0.1-0.2,0.2L56.3,12h-8.1l0.1,0.3H50v6
			l-1.8,0.1c0.1,0.4,0.7,2.4,0.8,2.8c2.5-0.9,4.6-2,5.8-2.7v3.2c0,0.5,0,0.5,0.5,0.5l1.5-0.1c0.4,0,0.4-0.2,0.4-0.6v-1.5
			c1.4,0.6,1.6,1.2,1.6,2.2c0,0.7,0,0.8,0.7,0.8c2.6,0,2.6-1.2,2.6-2V6.5C62.7,6.2,63,6.1,63,5.9"/>
		<path fill="#FFFFFF" d="M50.4,9.8h-2.7V7.7h2.7V9.8z M50.4,7.5h-2.7V5.4h2.7V7.5z M53.6,5.9c0-0.3-2.5-1.9-2.6-1.9
			c-0.1,0-0.2,0.2-0.4,0.4l-0.5,0.7h-2.4c-0.9-0.2-2.1-0.5-2.6-0.6v18c0,0.5,0,0.6,0.4,0.5l1.9-0.1c0.4,0,0.4-0.2,0.4-0.6V10.1h2.7
			v0.6c0,0.4,0,0.5,0.3,0.4l1.7-0.1c0.4,0,0.4-0.3,0.4-0.6V6.4C53.2,6.3,53.6,6.1,53.6,5.9"/>
		<path fill="#FFFFFF" d="M71.3,13.4c0-2.8,0.3-4.9,0.9-6.3c0.6-1.3,1.7-2,3.2-2c1.1,0,1.8,0.7,2.3,2.1c0.5,1.4,0.7,3.5,0.7,6.2
			H71.3z M71.3,13.6h10.7c0-3.5-0.9-5.8-2.6-7.4c-1.2-1.1-2.7-1.6-4.5-1.6c-1.9,0-3.7,0.8-5.3,2.4c-1.8,1.8-2.7,4.2-2.7,7.1
			c0,2.7,0.9,4.9,2.7,6.5c1.5,1.4,3.2,2.1,5.1,2.1c2.2,0,4-0.7,5.3-2c1.3-1.3,2-3,2-5.1h-0.3c0,2.2-0.7,3.9-2.1,5.1
			c-1.2,1-2.5,1.6-4,1.6c-1.4,0-2.5-0.7-3.2-2C71.7,19,71.3,16.6,71.3,13.6"/>
		<path fill="#FFFFFF" d="M101.3,19.6c0,0.4,0,0.6-0.3,0.6c-0.1,0-0.4,0-0.5,0v-3.5h0.7V19.6z M101.3,16.5h-0.7v-3.3h0.7V16.5z
			 M98.7,16.5H98v-3.3h0.8V16.5z M96,16.5h-0.7v-3.3H96V16.5z M104.3,13.6c0-0.3-2.2-1.8-2.3-1.8c-0.1,0-0.2,0.1-0.3,0.3l-0.5,0.8
			h-5.9c-0.4-0.1-1.6-0.4-2.1-0.5v10.1c0,0.5,0.1,0.5,0.5,0.5l1.1-0.1c0.4,0,0.5-0.1,0.5-0.4v-5.7H96v5.4c0,0.4,0.2,0.4,0.5,0.3
			l1-0.1c0.4,0,0.4-0.1,0.4-0.5v-5.2h0.8v5.4c0,0.3,0,0.4,0.4,0.4l1.2-0.1c0.3,0,0.3-0.3,0.3-0.5v-1.3c0.4,0.3,0.6,0.4,0.6,1.5
			c0,0.7,0,0.8,0.6,0.8c1.7,0,1.7-1,1.7-1.6v-7.2C103.7,14.1,104.3,13.9,104.3,13.6"/>
		<path fill="#FFFFFF" d="M89.9,20.8h-1.4v-4.5h1.4V20.8z M93,16.7c0-0.3-2.1-2-2.3-2c-0.1,0-0.2,0.1-0.4,0.4L89.6,16h-1
			c-0.9-0.2-1.8-0.4-2.6-0.5v6.9c0,0.4,0,0.5,0.5,0.4l1.4-0.1c0.4,0,0.4-0.2,0.4-0.5V21h1.4v1.2c0,0.4,0.1,0.4,0.5,0.4l1.4-0.1
			c0.4,0,0.4,0,0.4-0.5v-4.8C92.7,17,93,16.9,93,16.7"/>
		<path fill="#FFFFFF" d="M94.5,10.5c1.6-1.4,3.1-3.3,4.3-5.4c0.9,5.4,4.6,6.8,5.1,6.8c0.4,0,0.5-0.4,0.5-0.6c0-0.9,0.1-1.4,1.2-2.1
			v0c-3.9-0.8-5.9-2.9-6.6-4.3c0.4,0,0.6,0,0.6-0.2c0-0.2-2.4-0.9-3.2-1.1c-0.2,0.7-0.8,2.4-2,4.6c-1.4,2.5-2.2,3.3-2.8,3.9
			c-0.1-0.1-0.8-0.7-0.9-0.7c-0.1,0-0.1,0.1-0.3,0.3l-1,1.4H86l0.1,0.2h6.3c0.1,0,0.3,0,0.3-0.1c0-0.1-0.9-0.8-1.1-1
			c0.6-0.3,1.6-0.8,2.8-1.7l0.1,0.2h6.4c0.1,0,0.3,0,0.3-0.2c0-0.2-1.7-1.6-1.9-1.6c-0.1,0-0.1,0.1-0.2,0.2l-1,1.4H94.5z"/>
		<path fill="#FFFFFF" d="M86.1,5.3l0.1,0.3H93c0.1,0,0.3,0,0.3-0.1c0-0.2-1.9-1.7-2.1-1.7c-0.1,0-0.2,0.1-0.3,0.2l-1,1.4H86.1z"/>
		<path fill="#FFFFFF" d="M85.3,7.8L85.4,8h8.2c0.1,0,0.3,0,0.3-0.1c0-0.2-1.8-1.8-2-1.8c-0.1,0-0.1,0.1-0.3,0.3l-1.1,1.4H85.3z"/>
		<path fill="#FFFFFF" d="M86,10.5l0.1,0.3h6.2c0.1,0,0.3,0,0.3-0.2c0-0.2-1.7-1.6-1.9-1.6c-0.1,0-0.2,0.1-0.3,0.2l-0.9,1.3H86z"/>
		<path fill="#FFFFFF" d="M122,20.9h-4.3v-2.3h4.3V20.9z M122,18.4h-4.3v-2.1h4.3V18.4z M125.4,16.8L125.4,16.8
			c-0.1-0.3-2.3-2-2.4-2c-0.1,0-0.2,0-0.4,0.3l-0.6,0.8h-4c-2.1-0.4-2.3-0.5-2.7-0.5v6.1c0,0.4,0.1,0.5,0.5,0.4l1.6-0.1
			c0.4,0,0.4-0.1,0.4-0.8h4.3c0,0.5,0,0.6,0.5,0.6l1.7-0.1c0.5,0,0.5-0.2,0.5-0.5v-3.8C124.8,17.2,125.4,17,125.4,16.8"/>
		<path fill="#FFFFFF" d="M120.3,12.1h-1.1V9.9h1.1V12.1z M123.1,10.2c0-0.2-1.7-1.5-1.9-1.5c-0.1,0-0.3,0.2-0.4,0.3l-0.6,0.6h-0.8
			c-0.6-0.1-1.3-0.3-2.2-0.5v3.3c0,0.4,0.1,0.4,0.4,0.4l1.2-0.1c0.3,0,0.4-0.1,0.4-0.4h1.1c0,0.5,0,0.6,0.5,0.6l1.3-0.1
			c0.4,0,0.4-0.2,0.4-0.5v-1.7C122.7,10.5,123.1,10.4,123.1,10.2"/>
		<path fill="#FFFFFF" d="M123.1,13.8h-6.5V8.2h6.5V13.8z M126.3,8.6c0-0.2-2.1-1.7-2.2-1.7c-0.1,0-0.1,0-0.4,0.3L123,7.9h-6.2
			c-1.6-0.3-1.8-0.3-2.5-0.4v2.1c-0.7-0.8-1.3-1.4-1.4-1.4c-0.1,0-0.3,0.2-0.3,0.3l-0.7,1V4.6c0.6-0.1,0.6-0.2,0.6-0.3
			c0-0.1-0.1-0.1-0.2-0.2c-0.1,0-1.4-0.2-3-0.3v5.9h-2.8l0.1,0.3h2.7v7.1l-2.8,0.5c0.1,0.5,0.9,2.8,1.1,3.1c2.2-1.1,5.3-2.9,7.3-4.6
			v0l-3,0.6V10h2.4v4.3c0,0.4,0,0.5,0.4,0.5l1.6-0.1c0.3,0,0.3-0.1,0.3-0.6h6.5c0,0.6,0,0.7,0.4,0.6l1.6-0.1c0.4,0,0.4-0.1,0.4-0.4
			v-5C126,9,126.3,8.7,126.3,8.6"/>
		<path fill="#FFFFFF" d="M121,6.1V4.4c0.2,0,0.6-0.1,0.6-0.3c0-0.1-0.1-0.2-0.5-0.2c-0.7,0-2.1-0.2-2.7-0.2v2.4h-5.9l0.1,0.3h13.8
			c0.1,0,0.2,0,0.2-0.2c0-0.3-2.1-1.9-2.3-1.9c-0.1,0-0.2,0.2-0.3,0.3l-1.2,1.6H121z"/>
		<path fill="#FFFFFF" d="M111.2,22.6l0.1,0.2h15.4c0.1,0,0.2,0,0.2-0.2c0-0.2-1.6-1.9-1.8-1.9c-0.1,0-0.2,0.1-0.3,0.3l-0.9,1.5
			H111.2z"/>
		<path fill="#FFFFFF" d="M116.7,29.9c-0.2-0.1-0.4-0.1-0.7-0.1c-0.4,0-0.7,0.1-0.9,0.4c-0.2,0.2-0.4,0.5-0.4,0.9
			c0,0.4,0.1,0.7,0.4,0.9c0.2,0.2,0.6,0.3,1,0.4c0.4,0.1,0.8,0.2,0.9,0.3c0.2,0.1,0.3,0.4,0.3,0.7c0,0.2-0.1,0.4-0.3,0.5
			c-0.1,0.1-0.3,0.2-0.5,0.2c-0.3,0-0.5,0-0.6-0.1c-0.1,0-0.3-0.1-0.5-0.3c-0.1-0.1-0.2-0.3-0.3-0.5c-0.1-0.2-0.2-0.5-0.3-0.9h-0.1
			v1.8c0,0,0.2-0.2,0.4-0.5c0.2,0.2,0.4,0.4,0.6,0.4c0.1,0,0.4,0.1,0.7,0.1c0.4,0,0.7-0.1,0.9-0.3c0.3-0.2,0.5-0.5,0.5-1
			c0-0.5-0.1-0.8-0.4-1c-0.2-0.2-0.6-0.3-1-0.4c-0.5-0.1-0.8-0.2-1-0.3c-0.2-0.1-0.4-0.3-0.4-0.6c0-0.3,0.1-0.5,0.3-0.6
			c0.2-0.1,0.4-0.1,0.6-0.1c0.3,0,0.6,0.1,0.9,0.4c0.3,0.3,0.4,0.6,0.5,1l0.1,0v-1.5c0,0-0.2,0.1-0.4,0.3
			C117.1,30.1,117,30.1,116.7,29.9 M111.3,33.6c0,0.2,0,0.3-0.1,0.3c-0.1,0-0.3,0.1-0.4,0.1c-0.2,0-0.3,0-0.5,0v0.1h3V34
			c-0.5,0-0.8,0-0.9-0.1c0,0-0.1,0-0.1-0.1c0,0,0-0.1,0-0.3v-1.9c0-0.6,0.1-1,0.4-1.4c0.2-0.3,0.4-0.4,0.6-0.4
			c0.2,0,0.3,0.1,0.4,0.2c-0.1,0-0.2,0-0.3,0.1c-0.1,0.1-0.1,0.2-0.1,0.4c0,0.2,0,0.3,0.1,0.4c0.1,0.1,0.2,0.1,0.4,0.1
			c0.1,0,0.2,0,0.2,0c0.2-0.1,0.3-0.3,0.3-0.6c0-0.1,0-0.2-0.1-0.3c-0.1-0.1-0.2-0.2-0.3-0.3c-0.2-0.1-0.3-0.1-0.4-0.1
			c-0.3,0-0.6,0.2-0.9,0.5c-0.2,0.2-0.3,0.5-0.3,0.8v-1.3l-2,0.2V30c0.4,0,0.7,0,0.9,0.1c0,0,0.1,0.1,0.1,0.1c0,0,0,0.1,0,0.3V33.6z
			 M108,31.7c-0.1,0.1-0.4,0.1-0.8,0.2c-0.4,0-0.8,0.2-1.1,0.4c-0.3,0.2-0.4,0.6-0.4,0.9c0,0.4,0.1,0.6,0.4,0.8
			c0.2,0.1,0.5,0.2,0.8,0.2s0.5,0,0.7-0.1c0.3-0.1,0.5-0.3,0.7-0.7c0.1,0.3,0.2,0.5,0.3,0.6c0.1,0.1,0.4,0.2,0.7,0.2
			c0.4,0,0.6-0.1,0.8-0.3c0.1-0.1,0.1-0.4,0.1-0.8c0-0.1,0-0.3,0-0.4v-0.4H110v0.1c0,0.1,0,0.2,0,0.3s0,0.2,0,0.3
			c0,0.3,0,0.6-0.1,0.8c-0.1,0.2-0.2,0.3-0.4,0.3c-0.2,0-0.3-0.1-0.4-0.3c0-0.1,0-0.3,0-0.7v-2.2c0-0.3-0.1-0.5-0.4-0.6
			c-0.3-0.2-0.7-0.3-1.2-0.3c-0.3,0-0.6,0-0.8,0.1c-0.4,0.1-0.6,0.3-0.7,0.6c0,0.1-0.1,0.2-0.1,0.3c0,0.2,0.1,0.4,0.3,0.5
			c0.1,0,0.2,0.1,0.2,0.1c0.1,0,0.3,0,0.4-0.1c0.1-0.1,0.2-0.2,0.2-0.4c0-0.1,0-0.2-0.1-0.3c-0.1-0.1-0.2-0.2-0.3-0.2
			c0,0-0.1,0-0.1,0c0.1-0.2,0.2-0.3,0.4-0.4c0.2-0.1,0.4-0.1,0.6-0.1c0.3,0,0.5,0,0.6,0.1c0.1,0.1,0.1,0.3,0.1,0.5v0.6
			C108.2,31.4,108.1,31.6,108,31.7 M107.9,33.8c-0.2,0.2-0.5,0.3-0.7,0.3c-0.2,0-0.3-0.1-0.4-0.2c-0.1-0.1-0.1-0.4-0.1-0.8
			c0-0.4,0.1-0.7,0.2-0.9c0.1-0.2,0.3-0.3,0.5-0.3c0.2,0,0.3,0,0.5-0.1c0.2,0,0.3-0.1,0.4-0.2V33C108.2,33.3,108.1,33.6,107.9,33.8
			 M102.5,31.9c0-0.7,0.1-1.2,0.2-1.5c0.2-0.3,0.4-0.5,0.8-0.5c0.3,0,0.5,0.2,0.6,0.5c0.1,0.3,0.2,0.8,0.2,1.5H102.5z M105.1,32
			c0-0.9-0.2-1.5-0.7-1.9c-0.3-0.3-0.7-0.4-1.1-0.4c-0.5,0-0.9,0.2-1.3,0.6c-0.4,0.4-0.7,1-0.7,1.7c0,0.7,0.2,1.2,0.7,1.6
			c0.4,0.3,0.8,0.5,1.3,0.5c0.6,0,1-0.2,1.3-0.5c0.3-0.3,0.5-0.7,0.5-1.2h-0.1c0,0.5-0.2,0.9-0.5,1.2c-0.3,0.3-0.6,0.4-1,0.4
			c-0.4,0-0.6-0.2-0.8-0.5c-0.2-0.3-0.3-0.9-0.3-1.6H105.1z M95.7,33.6c0,0.2,0,0.3-0.1,0.3c-0.1,0-0.3,0.1-0.4,0.1
			c-0.2,0-0.3,0-0.5,0v0.1h3V34c-0.5,0-0.8,0-0.9-0.1c0,0-0.1,0-0.1-0.1c0,0,0-0.1,0-0.3v-1.9c0-0.6,0.1-1,0.4-1.4
			c0.2-0.3,0.4-0.4,0.6-0.4c0.2,0,0.3,0.1,0.4,0.2c-0.1,0-0.2,0-0.3,0.1c-0.1,0.1-0.1,0.2-0.1,0.4c0,0.2,0,0.3,0.1,0.4
			c0.1,0.1,0.2,0.1,0.4,0.1c0.1,0,0.2,0,0.2,0c0.2-0.1,0.3-0.3,0.3-0.6c0-0.1,0-0.2-0.1-0.3c-0.1-0.1-0.2-0.2-0.3-0.3
			c-0.2-0.1-0.3-0.1-0.4-0.1c-0.3,0-0.6,0.2-0.9,0.5c-0.2,0.2-0.3,0.5-0.3,0.8v-1.3l-2,0.2V30c0.4,0,0.7,0,0.9,0.1
			c0,0,0.1,0.1,0.1,0.1c0,0,0,0.1,0,0.3V33.6z M92.6,32.3c0,0.4-0.1,0.8-0.3,1.2C92,33.8,91.8,34,91.4,34c-0.2,0-0.3-0.1-0.4-0.2
			c-0.1-0.1-0.1-0.4-0.1-0.7v-3.3L89,29.9V30h0.2c0.3,0,0.4,0,0.5,0c0.1,0,0.1,0,0.1,0.1c0,0,0,0.1,0,0.2V33c0,0.3,0.1,0.6,0.3,0.8
			c0.2,0.2,0.5,0.4,1,0.4h0.1c0,0,0.1,0,0.1,0c0.3,0,0.6-0.2,0.8-0.5c0.2-0.2,0.3-0.5,0.3-0.8v1.3l1.9-0.2v-0.1
			c-0.5,0-0.7,0-0.8-0.1l-0.1-0.1c0,0,0-0.1,0-0.2c0-0.1,0-0.2,0-0.3v-3.4l-2.1,0.1V30c0.5,0,0.8,0,0.8,0c0.1,0,0.1,0,0.2,0.1
			c0,0.1,0.1,0.2,0.1,0.3V32.3z M87.8,33.6c-0.2,0.3-0.4,0.5-0.8,0.5c-0.4,0-0.7-0.2-0.8-0.5C86,33.3,86,32.7,86,32
			c0-0.7,0.1-1.3,0.2-1.6c0.2-0.3,0.4-0.5,0.8-0.5c0.4,0,0.7,0.2,0.8,0.5c0.1,0.3,0.2,0.8,0.2,1.6C88.1,32.7,88,33.3,87.8,33.6
			 M88.4,30.4C88,30,87.5,29.8,87,29.8c-0.5,0-1,0.2-1.4,0.6c-0.5,0.4-0.7,1-0.7,1.6c0,0.7,0.2,1.2,0.7,1.7c0.4,0.4,0.9,0.5,1.4,0.5
			c0.5,0,1-0.2,1.4-0.6c0.5-0.4,0.7-1,0.7-1.6C89.1,31.3,88.9,30.8,88.4,30.4 M81.1,33.5c0,0.2,0,0.3,0,0.4c0,0-0.1,0.1-0.1,0.1
			c-0.1,0-0.2,0.1-0.5,0.1c-0.2,0-0.6,0-0.9,0v0.1H84V34c-0.4,0-0.7,0-0.9,0c-0.2,0-0.4,0-0.5-0.1c-0.1,0-0.1-0.1-0.1-0.1
			c0-0.1,0-0.2,0-0.4v-2.2l1.2-1.9c0.2-0.3,0.4-0.6,0.7-1.1c0.3-0.3,0.7-0.5,1.1-0.5v-0.1h-2.8v0.1c0.8,0,1.1,0.3,1.1,0.8
			c0,0.2-0.1,0.4-0.2,0.7L82.3,31l-1.6-2.7c-0.1-0.1-0.1-0.2-0.1-0.3c0-0.1,0.1-0.2,0.3-0.3c0.2-0.1,0.5-0.1,0.9-0.1v-0.1h-4.1v0.1
			c0.5,0,0.9,0,1,0.1c0.2,0.1,0.3,0.2,0.5,0.5l1.9,3.1V33.5z M72.7,35.9c0.5-0.2,0.9-0.5,1.2-0.9c0.2-0.3,0.3-0.7,0.3-1.1
			c0-0.2-0.1-0.4-0.2-0.6c-0.1-0.1-0.3-0.2-0.5-0.2c-0.2,0-0.4,0.1-0.5,0.2c-0.1,0.1-0.2,0.3-0.2,0.5c0,0.1,0.1,0.3,0.2,0.4
			c0.1,0.1,0.2,0.1,0.4,0.1c0.1,0,0.1,0,0.2,0c0.1,0,0.1,0,0.1-0.1c0,0.3,0,0.5-0.2,0.8c-0.2,0.4-0.5,0.6-0.9,0.8L72.7,35.9z
			 M70.1,29.9c-0.2-0.1-0.4-0.1-0.7-0.1c-0.4,0-0.7,0.1-0.9,0.4c-0.2,0.2-0.4,0.5-0.4,0.9c0,0.4,0.1,0.7,0.4,0.9
			c0.2,0.2,0.6,0.3,1,0.4c0.4,0.1,0.8,0.2,0.9,0.3c0.2,0.1,0.3,0.4,0.3,0.7c0,0.2-0.1,0.4-0.3,0.5c-0.1,0.1-0.3,0.2-0.5,0.2
			c-0.3,0-0.5,0-0.6-0.1c-0.1,0-0.3-0.1-0.5-0.3c-0.1-0.1-0.2-0.3-0.3-0.5c-0.1-0.2-0.2-0.5-0.3-0.9h-0.1v1.8c0,0,0.2-0.2,0.4-0.5
			c0.2,0.2,0.4,0.4,0.6,0.4c0.1,0,0.4,0.1,0.7,0.1c0.4,0,0.7-0.1,0.9-0.3c0.3-0.2,0.5-0.5,0.5-1c0-0.5-0.1-0.8-0.4-1
			c-0.2-0.2-0.6-0.3-1-0.4c-0.5-0.1-0.8-0.2-1-0.3c-0.2-0.1-0.4-0.3-0.4-0.6c0-0.3,0.1-0.5,0.3-0.6c0.2-0.1,0.4-0.1,0.6-0.1
			c0.3,0,0.6,0.1,0.9,0.4c0.3,0.3,0.4,0.6,0.5,1l0.1,0v-1.5c0,0-0.2,0.1-0.4,0.3C70.5,30.1,70.4,30.1,70.1,29.9 M64.8,31.9
			c0-0.7,0.1-1.2,0.2-1.5c0.2-0.3,0.4-0.5,0.8-0.5c0.3,0,0.5,0.2,0.6,0.5c0.1,0.3,0.2,0.8,0.2,1.5H64.8z M67.4,32
			c0-0.9-0.2-1.5-0.7-1.9c-0.3-0.3-0.7-0.4-1.1-0.4c-0.5,0-0.9,0.2-1.3,0.6c-0.4,0.4-0.7,1-0.7,1.7c0,0.7,0.2,1.2,0.7,1.6
			c0.4,0.3,0.8,0.5,1.3,0.5c0.6,0,1-0.2,1.3-0.5c0.3-0.3,0.5-0.7,0.5-1.2h-0.1c0,0.5-0.2,0.9-0.5,1.2c-0.3,0.3-0.6,0.4-1,0.4
			c-0.4,0-0.6-0.2-0.8-0.5c-0.2-0.3-0.3-0.9-0.3-1.6H67.4z M62.4,31c0.2-0.5,0.3-0.8,0.5-0.9c0.1-0.1,0.4-0.2,0.6-0.2v-0.1h-1.7v0.1
			c0.5,0,0.7,0.1,0.7,0.4c0,0.1,0,0.3-0.1,0.5l-0.7,2l-1-2.6L60.6,30c0-0.1,0.1-0.1,0.2-0.1c0.2,0,0.3,0,0.5,0v-0.1h-2.4v0.1h0.2
			c0.2,0,0.3,0,0.4,0.1c0,0,0.1,0.1,0.1,0.3l1.5,4l-0.3,0.9c-0.1,0.4-0.3,0.6-0.4,0.8c-0.1,0.1-0.3,0.2-0.5,0.2c-0.1,0-0.1,0-0.2,0
			c-0.1,0-0.1,0-0.2-0.1c0.3,0,0.4-0.2,0.4-0.5c0-0.2-0.1-0.3-0.2-0.4c-0.1-0.1-0.2-0.1-0.4-0.1c-0.1,0-0.2,0-0.2,0.1
			c-0.2,0.1-0.3,0.3-0.3,0.5c0,0.1,0,0.2,0.1,0.3c0,0.1,0.1,0.2,0.3,0.3c0.1,0.1,0.4,0.1,0.6,0.1c0.2,0,0.4-0.1,0.6-0.3
			c0.1-0.2,0.3-0.4,0.4-0.9L62.4,31z M55.9,31.9c0-0.7,0.1-1.2,0.2-1.5c0.2-0.3,0.4-0.5,0.8-0.5c0.3,0,0.5,0.2,0.6,0.5
			c0.1,0.3,0.2,0.8,0.2,1.5H55.9z M58.6,32c0-0.9-0.2-1.5-0.7-1.9c-0.3-0.3-0.7-0.4-1.1-0.4c-0.5,0-0.9,0.2-1.3,0.6
			c-0.4,0.4-0.7,1-0.7,1.7c0,0.7,0.2,1.2,0.7,1.6c0.4,0.3,0.8,0.5,1.3,0.5c0.6,0,1-0.2,1.3-0.5c0.3-0.3,0.5-0.7,0.5-1.2h-0.1
			c0,0.5-0.2,0.9-0.5,1.2c-0.3,0.3-0.6,0.4-1,0.4c-0.4,0-0.6-0.2-0.8-0.5c-0.2-0.3-0.3-0.9-0.3-1.6H58.6z M49.2,33.6
			c0,0.2,0,0.3-0.1,0.3C49,34,48.8,34,48.7,34c-0.2,0-0.3,0-0.5,0v0.1h3V34c-0.5,0-0.8,0-0.9-0.1c0,0-0.1,0-0.1-0.1c0,0,0-0.1,0-0.3
			v-1.9c0-0.6,0.1-1,0.4-1.4c0.2-0.3,0.4-0.4,0.6-0.4c0.2,0,0.3,0.1,0.4,0.2c-0.1,0-0.2,0-0.3,0.1c-0.1,0.1-0.1,0.2-0.1,0.4
			c0,0.2,0,0.3,0.1,0.4c0.1,0.1,0.2,0.1,0.4,0.1c0.1,0,0.2,0,0.2,0c0.2-0.1,0.3-0.3,0.3-0.6c0-0.1,0-0.2-0.1-0.3
			c-0.1-0.1-0.2-0.2-0.3-0.3c-0.2-0.1-0.3-0.1-0.4-0.1c-0.3,0-0.6,0.2-0.9,0.5c-0.2,0.2-0.3,0.5-0.3,0.8v-1.3l-2,0.2V30
			c0.4,0,0.7,0,0.9,0.1c0,0,0.1,0.1,0.1,0.1c0,0,0,0.1,0,0.3V33.6z M46,32.3c0,0.4-0.1,0.8-0.3,1.2c-0.2,0.4-0.5,0.5-0.8,0.5
			c-0.2,0-0.3-0.1-0.4-0.2c-0.1-0.1-0.1-0.4-0.1-0.7v-3.3l-1.9,0.1V30h0.2c0.3,0,0.4,0,0.5,0c0.1,0,0.1,0,0.1,0.1c0,0,0,0.1,0,0.2
			V33c0,0.3,0.1,0.6,0.3,0.8c0.2,0.2,0.5,0.4,1,0.4h0.1c0,0,0.1,0,0.1,0c0.3,0,0.6-0.2,0.8-0.5c0.2-0.2,0.3-0.5,0.3-0.8v1.3l1.9-0.2
			v-0.1c-0.5,0-0.7,0-0.8-0.1L47,33.7c0,0,0-0.1,0-0.2c0-0.1,0-0.2,0-0.3v-3.4l-2.1,0.1V30c0.5,0,0.8,0,0.8,0c0.1,0,0.1,0,0.2,0.1
			c0,0.1,0.1,0.2,0.1,0.3V32.3z M41.3,33.6c-0.2,0.3-0.4,0.5-0.8,0.5c-0.4,0-0.7-0.2-0.8-0.5c-0.1-0.3-0.2-0.9-0.2-1.6
			c0-0.7,0.1-1.3,0.2-1.6c0.2-0.3,0.4-0.5,0.8-0.5c0.4,0,0.7,0.2,0.8,0.5c0.1,0.3,0.2,0.8,0.2,1.6C41.5,32.7,41.4,33.3,41.3,33.6
			 M41.9,30.4c-0.4-0.4-0.9-0.5-1.4-0.5c-0.5,0-1,0.2-1.4,0.6c-0.5,0.4-0.7,1-0.7,1.6c0,0.7,0.2,1.2,0.7,1.7
			c0.4,0.4,0.9,0.5,1.4,0.5c0.5,0,1-0.2,1.4-0.6c0.5-0.4,0.7-1,0.7-1.6C42.6,31.3,42.4,30.8,41.9,30.4 M34.5,33.5c0,0.2,0,0.3,0,0.4
			c0,0-0.1,0.1-0.1,0.1c-0.1,0-0.2,0.1-0.5,0.1c-0.2,0-0.6,0-0.9,0v0.1h4.5V34c-0.4,0-0.7,0-0.9,0c-0.2,0-0.4,0-0.5-0.1
			c-0.1,0-0.1-0.1-0.1-0.1c0-0.1,0-0.2,0-0.4v-2.2l1.2-1.9c0.2-0.3,0.4-0.6,0.7-1.1c0.3-0.3,0.7-0.5,1.1-0.5v-0.1H36v0.1
			c0.8,0,1.1,0.3,1.1,0.8c0,0.2-0.1,0.4-0.2,0.7L35.8,31l-1.6-2.7c-0.1-0.1-0.1-0.2-0.1-0.3c0-0.1,0.1-0.2,0.3-0.3
			c0.2-0.1,0.5-0.1,0.9-0.1v-0.1h-4.1v0.1c0.5,0,0.9,0,1,0.1c0.2,0.1,0.3,0.2,0.5,0.5l1.9,3.1V33.5z"/>
	</g>
	<g>
		<g>
			<path d="M187,8.5h-12.5c-2.2,0-4,1.8-4,4V25c0,2.2,1.8,4,4,4H187c2.2,0,4-1.8,4-4V12.5C191.1,10.3,189.3,8.5,187,8.5z
				 M189.3,22.8c0,3.4-6.1,4.5-7.9,4.5h-1.2c-1.8,0-7.9-1.1-7.9-4.5v-7.7c0-1.8,2.3-4.9,4.1-4.9h8.8c1.8,0,4.1,3,4.1,4.9V22.8z"/>
			<circle cx="180.8" cy="19" r="4.4"/>
			<path d="M181.8,12.4c0-0.9,1.2-2.1,2-2.4c-0.5-0.2-2.4-0.3-2.9-0.3c-0.6,0-2.6,0.1-3.1,0.4c1,0.4,2,1.4,2,2.3
				c0,1.3-0.5,2.4-1.2,2.9c0.6,0.4,1.5,0.7,2.4,0.7c0.8,0,1.6-0.2,2.3-0.6C182.4,14.9,181.8,13.8,181.8,12.4z"/>
			<ellipse fill="#FFFFFF" cx="184.4" cy="12.6" rx="2.6" ry="2.7"/>
			<ellipse fill="#FFFFFF" cx="177.3" cy="12.6" rx="2.6" ry="2.7"/>
			<g>
				<path fill="#231916" d="M190.5,25.8c0.2,1-1.8,2.1-4.5,2.4c-2.7,0.3-5.2-0.2-5.4-1.2c-0.2-1,1.8-2.1,4.5-2.4
					C187.8,24.3,190.3,24.8,190.5,25.8z"/>
				<path fill="#231916" d="M181.1,27.1c0.2-1-1.8-2.1-4.5-2.4c-2.7-0.3-5.2,0.2-5.4,1.2c-0.2,1,1.8,2.1,4.5,2.4
					C178.4,28.6,180.8,28.1,181.1,27.1z"/>
			</g>
			<circle fill="#FFFFFF" cx="180.8" cy="19" r="2.8"/>
			<polygon fill="#00A0E8" points="174.8,23.8 176.7,23.8 187,14 185,14 			"/>
		</g>
		<g>
			<g>
				<rect x="198.5" y="16" fill="#FFFFFF" width="4.5" height="1.1"/>
				<rect x="198.5" y="14.3" fill="#FFFFFF" width="4.5" height="1.1"/>
				<path fill="#FFFFFF" d="M212.8,10.7l1.2-1.2h-17.2v1.2h7.5V12h-8.7v5h1.7v-3.8h7v4.3l-0.1,0c0,0-2.4,0.8-3.9,1.3
					c-1.5,0.4-5,1.4-5,1.4l0.6,1.3c0,0,2.8-0.7,4.9-1.3c2.1-0.6,4.4-1.5,4.4-1.5s2.5,0.9,4.1,1.4c1.7,0.5,4.4,1.3,4.4,1.3l1.2-1.2
					c0,0-3.2-0.8-4.8-1.4c-1.5-0.5-4.1-1.4-4.1-1.4l-0.1-0.1v-4.2h7.1v3.9h0l1.7-1.7V12h-8.7v-1.4H212.8z"/>
				<rect x="207.5" y="16" fill="#FFFFFF" width="4.6" height="1.1"/>
				<rect x="207.5" y="14.2" fill="#FFFFFF" width="4.6" height="1.1"/>
				<rect x="204.4" y="20" fill="#FFFFFF" width="1.7" height="2.2"/>
				<path fill="#FFFFFF" d="M198,21.6V23h12c0,0-1,0.6-2.2,1.2c-1.2,0.6-2.3,1.1-2.3,1.1l-2.7-1.6l-1.2,1.1l6,3.5l1-1.1l-1.7-1
					c0,0,1.3-0.4,2.9-1.4c1.7-1,2.4-1.5,2.4-1.5l0-1.8H198z"/>
			</g>
			<g>
				<path fill="#FFFFFF" d="M218.5,17.1l0.3-0.5v11.8h1.5V13.9l0,0c0.5-1,1.6-3.9,1.6-3.9l-1.4-0.6c-0.6,2-1.3,3.5-1.9,4.6
					c-0.6,1.2-1.4,2.1-2.2,3.2l0.6,2C217.5,18.5,218,17.8,218.5,17.1z"/>
				<polygon fill="#FFFFFF" points="226.6,26.4 224.8,24.7 223.6,25.9 225.4,27.6 				"/>
				<path fill="#FFFFFF" d="M233.7,22.8l0-1.5h1.1l0.4,0.7l1.4-0.7l-1.2-2.3l-1.3,0.7l0.1,0.3H230l0-1.2l5.9,0l0-5.9H230v-1h5
					l1.2-1.2v0H230V9.4h-1.6v1.2h-6v1.2h6v1h-5.8v5.9h5.8l0,1.2H222l0,1.3l10,0l0,1.5h-10.3V24H232v2.2c0,0.3-0.5,0.7-1.4,0.7
					l-0.4,0c-0.3,0-2.5,0-2.9,0l-1.4,1.4h5.7c0.8,0,1.4-0.1,1.7-0.4c0.3-0.3,0.5-0.7,0.5-1.3V24h1.6l1.3-1.3v0H233.7z M230,14h4.4
					v1.4H230V14z M230,16.3h4.4v1.4H230V16.3z M228.4,17.7h-4.3v-1.4h4.3V17.7z M228.4,15.3h-4.3V14h4.3V15.3z"/>
			</g>
			<g>
				<path fill="#FFFFFF" d="M243.2,23.6c0,0,1.6-2.9,2.2-8.7l0-1.6l-3.8,0l0-0.2c0.1-0.8,0.2-1.8,0.3-2.7l0.1-0.9l-1.5-0.1
					c-0.1,1.4-0.3,2.5-0.4,3.7l0,0.2h-2.2v1.4h2l0,0.2c-0.4,2.2-1.1,4.8-1.7,6.6c1.2,0.8,2.1,1.5,2.9,2.2l0.1,0.1c0,0-1.6,2-3,3.2
					l1.3,1.3c1.6-1.4,2.9-3.5,2.9-3.5l0.2,0.2c0.4,0.4,0.8,0.7,1.1,1.1l1.1-1.1C244.3,24.6,243.2,23.6,243.2,23.6z M241.9,22.6
					l-0.3-0.3c-0.2-0.2-0.4-0.3-0.7-0.5c-0.3-0.2-0.6-0.4-0.9-0.6l-0.1-0.1l0-0.1c0.4-1.3,1-3.8,1.4-6.1l0-0.2h2.3l0,0.2
					C243.5,19.4,241.9,22.6,241.9,22.6z"/>
				<path fill="#FFFFFF" d="M255.4,24.3c-1.2-1.7-1.6-2.6-1.6-2.6l2.5,0l1.4-1.4v0h-6v-1h3.9v-7.1h0.6l1.4-1.4v0h-2V9.4h-1.5v1.3
					h-6.4V9.4h-1.5v1.3h-1.4v1.4h1.4v7.1h3.9v1h-5.4v1.4l3.5,0c0,0-0.2,0.6-1.5,2.4c-1.2,1.7-2.4,2.7-2.4,2.7l1,1.3
					c0,0,1.8-1.8,2.8-3.2c1-1.4,1.7-3.2,1.7-3.2h0.4v6.8h1.6v-6.8l0.5,0c0,0,0.4,1.6,1.9,3.6c0.9,1.3,2,2.4,2.6,2.8l1.1-1.1
					C257.6,26.8,256.4,25.6,255.4,24.3z M247.7,12.1h6.4v2.2h-6.4V12.1z M247.7,17.8v-2.2h6.4v2.2H247.7z"/>
			</g>
		</g>
	</g>
</g>
</svg>
