<?xml version="1.0" encoding="utf-8"?>
<!-- Generator: Adobe Illustrator 17.1.0, SVG Export Plug-In . SVG Version: 6.00 Build 0)  -->
<!DOCTYPE svg PUBLIC "-//W3C//DTD SVG 1.1 Tiny//EN" "http://www.w3.org/Graphics/SVG/1.1/DTD/svg11-tiny.dtd">
<svg version="1.1" baseProfile="tiny" id="圖層_1"
	 xmlns="http://www.w3.org/2000/svg" xmlns:xlink="http://www.w3.org/1999/xlink" x="0px" y="0px" viewBox="0 0 40 10"
	 xml:space="preserve">
<g>
	<path fill="#FFFFFF" d="M8.2,3.8C7.9,4.5,7.5,5.2,7.1,5.5l0,0c0.3-0.1,0.8-0.3,1.2-0.9v1.2c0,0.1,0,0.1,0.1,0.1l0.4,0
		C9,5.9,9,5.8,9,5.7V4.1C9,4.1,9.2,4.3,9.2,4.7C9.3,4.9,9.3,5,9.4,5c0.2,0,0.4-0.2,0.4-0.4C9.8,4.2,9.2,4,9,4V3.7h1c0,0,0.1,0,0.1,0
		c0-0.1-0.4-0.5-0.5-0.5c0,0,0,0-0.1,0.1L9.2,3.7H9V3.1c0.1,0,0.1-0.1,0.1-0.1c0,0,0,0-0.1,0S8.5,3,8.3,3v0.7H7.3l0,0.1
		C7.3,3.8,8.2,3.8,8.2,3.8z"/>
	<path fill="#FFFFFF" d="M8.7,2.8H8.2c0.2-0.1,0.3-0.2,0.3-0.4c0-0.5-0.8-0.7-0.8-0.8H9C8.9,2.2,8.8,2.5,8.7,2.8 M12.3,1.4
		c0,0-0.5-0.5-0.6-0.6c-0.3,0.3-0.8,0.6-1,0.6c-0.1,0-0.5-0.1-0.6-0.1v1.5c0-0.1-0.4-0.5-0.5-0.5c0,0-0.1,0-0.1,0.1L9.3,2.8H8.8
		C9.1,2.6,9.5,2.2,9.6,2c0,0,0.1,0,0.1,0c0-0.1-0.6-0.3-0.7-0.3H10c0,0,0.1,0,0.1,0c0,0-0.4-0.5-0.4-0.5c0,0,0,0-0.1,0.1L9.3,1.6H9
		V1.1C9.1,1,9.1,1,9.1,1c0,0,0,0-0.1,0c-0.2,0-0.6-0.1-0.7-0.1v0.8h-1l0,0.1h0.3C7.9,2.1,7.9,2.5,8,2.7C8,2.8,8,2.9,8,2.9H7.2l0,0.1
		H10c0,0,0.1,0,0.1,0v0.5c0,0.7-0.1,1.8-0.9,2.4l0,0c1.5-0.5,1.6-1.9,1.6-2.7V2.9h0.3v2.9c0,0.1,0,0.1,0.1,0.1l0.4,0
		c0.1,0,0.1,0,0.1-0.1V2.9h0.5c0,0,0.1,0,0.1,0c0,0-0.6-0.5-0.6-0.5s0,0-0.1,0.1l-0.3,0.4h-0.5V1.6c0.6,0,1.2-0.1,1.4-0.1
		C12.3,1.5,12.3,1.5,12.3,1.4C12.3,1.5,12.3,1.5,12.3,1.4"/>
	<path fill="#FFFFFF" d="M17,2.5h-0.7V1.9H17V2.5z M17,1.8h-0.7V1.3H17V1.8z M15.7,4.6l-0.6,0V4.1h0.6V4.6z M15.7,4.1h-0.6V3.6h0.6
		V4.1z M15.7,3.5h-0.6V3.1h0.6V3.5z M17.9,1.4c0-0.1-0.6-0.5-0.7-0.5c0,0-0.1,0.1-0.1,0.1l-0.1,0.2h-0.7c-0.5-0.1-0.6-0.1-0.7-0.2
		v1.6c0,0.1,0,0.1,0.1,0.1l0.4,0c0.1,0,0.1,0,0.1-0.1V2.5h0.7V5c0,0.1,0,0.2-0.1,0.2c0,0-0.2,0-0.5,0v-2h0.5c0,0,0,0,0,0
		s-0.5-0.4-0.5-0.4s0,0-0.1,0.1L16.1,3H14l0,0.1h0.4v1.6l-0.5,0c0,0.1,0.2,0.6,0.2,0.7c0.6-0.2,1.2-0.5,1.5-0.7v0.9
		c0,0.1,0,0.1,0.1,0.1l0.4,0c0.1,0,0.1,0,0.1-0.2V5.1c0.4,0.1,0.4,0.3,0.4,0.6c0,0.2,0,0.2,0.2,0.2c0.7,0,0.7-0.3,0.7-0.5V1.6
		C17.8,1.5,17.9,1.5,17.9,1.4"/>
	<path fill="#FFFFFF" d="M14.6,2.5h-0.7V1.9h0.7V2.5z M14.6,1.8h-0.7V1.3h0.7V1.8z M15.4,1.4c0-0.1-0.6-0.5-0.7-0.5
		c0,0-0.1,0-0.1,0.1l-0.1,0.2h-0.6c-0.2-0.1-0.6-0.1-0.7-0.2v4.7c0,0.1,0,0.1,0.1,0.1l0.5,0c0.1,0,0.1,0,0.1-0.1V2.5h0.7v0.1
		c0,0.1,0,0.1,0.1,0.1l0.4,0c0.1,0,0.1-0.1,0.1-0.2v-1C15.3,1.5,15.4,1.5,15.4,1.4"/>
	<path fill="#FFFFFF" d="M20.1,3.4c0-0.7,0.1-1.3,0.2-1.7c0.2-0.4,0.4-0.5,0.8-0.5c0.3,0,0.5,0.2,0.6,0.6c0.1,0.4,0.2,0.9,0.2,1.6
		C21.9,3.4,20.1,3.4,20.1,3.4z M20.1,3.5h2.8c0-0.9-0.2-1.5-0.7-1.9c-0.3-0.3-0.7-0.4-1.2-0.4s-1,0.2-1.4,0.6
		c-0.5,0.5-0.7,1.1-0.7,1.9c0,0.7,0.2,1.3,0.7,1.7c0.4,0.4,0.8,0.6,1.3,0.6c0.6,0,1.1-0.2,1.4-0.5C22.7,5,22.9,4.6,22.9,4h-0.1
		c0,0.6-0.2,1-0.6,1.3c-0.3,0.3-0.7,0.4-1.1,0.4c-0.4,0-0.7-0.2-0.9-0.5C20.2,4.9,20.1,4.2,20.1,3.5"/>
	<path fill="#FFFFFF" d="M28,5c0,0.1,0,0.2-0.1,0.2c0,0-0.1,0-0.1,0V4.3H28V5z M28,4.2h-0.2V3.3H28V4.2z M27.3,4.2h-0.2V3.3h0.2V4.2
		z M26.6,4.2h-0.2V3.3h0.2V4.2z M28.8,3.5c0-0.1-0.6-0.5-0.6-0.5c0,0,0,0-0.1,0.1L28,3.3h-1.6c-0.1,0-0.4-0.1-0.6-0.1v2.7
		c0,0.1,0,0.1,0.1,0.1l0.3,0c0.1,0,0.1,0,0.1-0.1V4.3h0.2v1.4c0,0.1,0.1,0.1,0.1,0.1l0.3,0c0.1,0,0.1,0,0.1-0.1V4.3h0.2v1.4
		c0,0.1,0,0.1,0.1,0.1l0.3,0c0.1,0,0.1-0.1,0.1-0.1V5.3c0.1,0.1,0.1,0.1,0.2,0.4c0,0.2,0,0.2,0.1,0.2c0.4,0,0.4-0.3,0.4-0.4V3.7
		C28.6,3.6,28.8,3.5,28.8,3.5"/>
	<path fill="#FFFFFF" d="M25,5.3h-0.4V4.1H25V5.3z M25.8,4.3c0-0.1-0.6-0.5-0.6-0.5c0,0-0.1,0-0.1,0.1l-0.2,0.2h-0.3
		C24.4,4,24.2,4,24,3.9v1.8c0,0.1,0,0.1,0.1,0.1l0.4,0c0.1,0,0.1-0.1,0.1-0.1V5.4h0.4v0.3c0,0.1,0,0.1,0.1,0.1l0.4,0
		c0.1,0,0.1,0,0.1-0.1V4.4C25.7,4.3,25.8,4.3,25.8,4.3"/>
	<path fill="#FFFFFF" d="M26.2,2.6c0.4-0.4,0.8-0.9,1.1-1.4C27.5,2.7,28.5,3,28.6,3c0.1,0,0.1-0.1,0.1-0.1c0-0.2,0-0.4,0.3-0.6l0,0
		c-1-0.2-1.6-0.8-1.7-1.1c0.1,0,0.2,0,0.2,0c0-0.1-0.6-0.2-0.9-0.3c-0.1,0.2-0.2,0.6-0.5,1.2c-0.4,0.7-0.6,0.9-0.7,1
		c0,0-0.2-0.2-0.2-0.2c0,0,0,0-0.1,0.1l-0.3,0.3h-0.9l0,0.1h1.7c0,0,0.1,0,0.1,0s-0.2-0.2-0.3-0.3C25.6,3,25.8,2.9,26.2,2.6
		L26.2,2.6l1.7,0.1c0,0,0.1,0,0.1,0c0,0-0.5-0.4-0.5-0.4s0,0-0.1,0.1l-0.3,0.4L26.2,2.6L26.2,2.6z"/>
	<path fill="#FFFFFF" d="M24,1.3L24,1.3l1.8,0.1c0,0,0.1,0,0.1,0c0-0.1-0.5-0.5-0.5-0.5s0,0-0.1,0.1L25,1.3C25,1.3,24,1.3,24,1.3z"
		/>
	<path fill="#FFFFFF" d="M23.7,1.9L23.7,1.9L25.9,2C26,2,26,2,26,2s-0.5-0.5-0.5-0.5s0,0-0.1,0.1l-0.3,0.4H23.7z"/>
	<path fill="#FFFFFF" d="M23.9,2.6L23.9,2.6l1.7,0.1c0,0,0.1,0,0.1,0c0,0-0.5-0.4-0.5-0.4s-0.1,0-0.1,0.1l-0.2,0.3
		C24.9,2.6,23.9,2.6,23.9,2.6z"/>
	<path fill="#FFFFFF" d="M33.4,5.4h-1.1V4.8h1.1V5.4z M33.4,4.7h-1.1V4.1h1.1V4.7z M34.3,4.3L34.3,4.3c0-0.1-0.6-0.5-0.6-0.5
		s0,0-0.1,0.1l-0.2,0.2h-1.1C31.8,4,31.7,4,31.6,4v1.6c0,0.1,0,0.1,0.1,0.1l0.4,0c0.1,0,0.1,0,0.1-0.2h1.1c0,0.1,0,0.2,0.1,0.2
		l0.4,0c0.1,0,0.1-0.1,0.1-0.1v-1C34.2,4.4,34.3,4.3,34.3,4.3"/>
	<path fill="#FFFFFF" d="M33,3h-0.3V2.5H33V3z M33.7,2.6c0,0-0.5-0.4-0.5-0.4s-0.1,0.1-0.1,0.1l-0.2,0.2h-0.2
		c-0.2,0-0.4-0.1-0.6-0.1v0.9c0,0.1,0,0.1,0.1,0.1l0.3,0c0.1,0,0.1,0,0.1-0.1H33c0,0.1,0,0.2,0.1,0.1l0.3,0c0.1,0,0.1-0.1,0.1-0.1
		V2.6C33.6,2.6,33.7,2.6,33.7,2.6"/>
	<path fill="#FFFFFF" d="M33.7,3.5H32V2h1.7L33.7,3.5L33.7,3.5z M34.5,2.1c0-0.1-0.5-0.4-0.6-0.4c0,0,0,0-0.1,0.1L33.7,2H32
		c-0.4-0.1-0.5-0.1-0.7-0.1v0.6C31.2,2.2,31,2.1,31,2.1s-0.1,0.1-0.1,0.1l-0.2,0.3V1.1c0.2,0,0.2-0.1,0.2-0.1c0,0,0,0-0.1,0
		S30.4,1,30,0.9v1.6h-0.7l0,0.1h0.7v1.9l-0.7,0.1c0,0.1,0.2,0.7,0.3,0.8C30.2,5,31,4.5,31.5,4.1l0,0l-0.8,0.2V2.5h0.6v1.1
		c0,0.1,0,0.1,0.1,0.1l0.4,0c0.1,0,0.1,0,0.1-0.2h1.7c0,0.1,0,0.2,0.1,0.2l0.4,0c0.1,0,0.1,0,0.1-0.1V2.3
		C34.5,2.2,34.5,2.2,34.5,2.1"/>
	<path fill="#FFFFFF" d="M33.2,1.5V1c0,0,0.2,0,0.2-0.1c0,0,0,0-0.1-0.1c-0.2,0-0.5,0-0.7-0.1v0.6h-1.5l0,0.1h3.6c0,0,0.1,0,0.1,0
		c0-0.1-0.5-0.5-0.6-0.5C34,1,34,1,34,1l-0.3,0.5H33.2z"/>
	<path fill="#FFFFFF" d="M30.6,5.8L30.6,5.8l4.1,0.1c0,0,0.1,0,0.1,0c0-0.1-0.4-0.5-0.5-0.5c0,0,0,0-0.1,0.1L34,5.8
		C34,5.8,30.6,5.8,30.6,5.8z"/>
	<path fill="#FFFFFF" d="M32,7.8c-0.1,0-0.1,0-0.2,0c-0.1,0-0.2,0-0.2,0.1c-0.1,0.1-0.1,0.1-0.1,0.2c0,0.1,0,0.2,0.1,0.2
		c0.1,0.1,0.2,0.1,0.3,0.1c0.1,0,0.2,0,0.2,0.1c0.1,0,0.1,0.1,0.1,0.2s0,0.1-0.1,0.1s-0.1,0-0.1,0c-0.1,0-0.1,0-0.2,0
		s-0.1,0-0.1-0.1c0,0-0.1-0.1-0.1-0.1c0,0,0-0.1-0.1-0.2h0v0.5c0,0,0,0,0.1-0.1c0.1,0.1,0.1,0.1,0.2,0.1c0,0,0.1,0,0.2,0
		c0.1,0,0.2,0,0.2-0.1c0.1-0.1,0.1-0.1,0.1-0.3s0-0.2-0.1-0.3c-0.1,0-0.1-0.1-0.3-0.1c-0.1,0-0.2-0.1-0.3-0.1
		c-0.1,0-0.1-0.1-0.1-0.1c0-0.1,0-0.1,0.1-0.2c0,0,0.1,0,0.2,0C31.9,7.7,32,7.7,32,7.8c0.1,0.1,0.1,0.2,0.2,0.3h0V7.7
		C32.2,7.7,32.2,7.7,32,7.8C32.1,7.8,32.1,7.8,32,7.8 M30.6,8.7C30.6,8.8,30.6,8.8,30.6,8.7c0,0.1-0.1,0.1-0.1,0.1c0,0-0.1,0-0.1,0
		v0h0.8v0c-0.1,0-0.2,0-0.2,0h0c0,0,0,0,0-0.1V8.2c0-0.2,0-0.3,0.1-0.4c0.1-0.1,0.1-0.1,0.2-0.1s0.1,0,0.1,0.1c0,0-0.1,0-0.1,0
		c0,0,0,0.1,0,0.1c0,0,0,0.1,0,0.1c0,0,0.1,0,0.1,0c0,0,0,0,0.1,0c0.1,0,0.1-0.1,0.1-0.1c0,0,0-0.1,0-0.1c0,0,0-0.1-0.1-0.1
		c0,0-0.1,0-0.1,0c-0.1,0-0.2,0-0.2,0.1c0,0.1-0.1,0.1-0.1,0.2V7.7l-0.6,0v0c0.1,0,0.2,0,0.2,0c0,0,0,0,0,0c0,0,0,0,0,0.1
		C30.6,7.9,30.6,8.7,30.6,8.7z M29.7,8.2c0,0-0.1,0-0.2,0c-0.1,0-0.2,0-0.3,0.1c-0.1,0.1-0.1,0.1-0.1,0.2s0,0.2,0.1,0.2
		c0.1,0,0.1,0.1,0.2,0.1s0.1,0,0.2,0s0.1-0.1,0.2-0.2c0,0.1,0,0.1,0.1,0.2c0,0,0.1,0,0.2,0c0.1,0,0.2,0,0.2-0.1c0,0,0-0.1,0-0.2
		c0,0,0-0.1,0-0.1V8.4h0v0c0,0,0,0.1,0,0.1c0,0,0,0,0,0.1c0,0.1,0,0.2,0,0.2c0,0,0,0.1-0.1,0.1c-0.1,0-0.1,0-0.1-0.1
		c0,0,0-0.1,0-0.2V7.9c0-0.1,0-0.1-0.1-0.2c-0.1,0-0.2-0.1-0.3-0.1c-0.1,0-0.1,0-0.2,0c-0.1,0-0.2,0.1-0.2,0.2c0,0,0,0.1,0,0.1
		c0,0.1,0,0.1,0.1,0.1c0,0,0,0,0.1,0s0.1,0,0.1,0c0,0,0-0.1,0-0.1c0,0,0-0.1,0-0.1c0,0-0.1,0-0.1,0h0c0,0,0-0.1,0.1-0.1
		c0,0,0.1,0,0.2,0s0.1,0,0.2,0c0,0,0,0.1,0,0.1v0.2C29.8,8.1,29.8,8.2,29.7,8.2 M29.7,8.8c-0.1,0.1-0.1,0.1-0.2,0.1
		c0,0-0.1,0-0.1-0.1c0,0,0-0.1,0-0.2s0-0.2,0.1-0.2c0,0,0.1-0.1,0.1-0.1c0,0,0.1,0,0.1,0c0,0,0.1,0,0.1-0.1v0.4
		C29.8,8.6,29.7,8.7,29.7,8.8 M28.3,8.3c0-0.2,0-0.3,0.1-0.4c0-0.1,0.1-0.1,0.2-0.1c0.1,0,0.1,0,0.2,0.1c0,0.1,0,0.2,0,0.4H28.3z
		 M29,8.3c0-0.2-0.1-0.4-0.2-0.5c-0.1-0.1-0.2-0.1-0.3-0.1c-0.1,0-0.2,0.1-0.3,0.2C28,8,28,8.1,28,8.3c0,0.2,0.1,0.3,0.2,0.4
		c0.1,0.1,0.2,0.1,0.3,0.1c0.1,0,0.3,0,0.4-0.1C29,8.7,29,8.6,29,8.4h0c0,0.1,0,0.2-0.1,0.3c-0.1,0.1-0.2,0.1-0.3,0.1
		c-0.1,0-0.2,0-0.2-0.1c0-0.1-0.1-0.2-0.1-0.4L29,8.3L29,8.3z M26.5,8.7C26.5,8.8,26.5,8.8,26.5,8.7c0,0.1-0.1,0.1-0.1,0.1
		c0,0-0.1,0-0.1,0v0h0.8v0c-0.1,0-0.2,0-0.2,0h0c0,0,0,0,0-0.1V8.2c0-0.2,0-0.3,0.1-0.4C27,7.8,27,7.8,27.1,7.8s0.1,0,0.1,0.1
		c0,0-0.1,0-0.1,0c-0.1,0-0.1,0-0.1,0.1C27,8,27,8,27,8c0,0,0.1,0,0.1,0c0,0,0,0,0.1,0c0.1,0,0.1-0.1,0.1-0.1c0,0,0-0.1,0-0.1
		c0,0,0-0.1-0.1-0.1c0,0-0.1,0-0.1,0c-0.1,0-0.2,0-0.2,0.1c0,0.1-0.1,0.1-0.1,0.2V7.7l-0.5,0v0c0.1,0,0.2,0,0.2,0c0,0,0,0,0,0
		c0,0,0,0,0,0.1L26.5,8.7L26.5,8.7z M25.7,8.4c0,0.1,0,0.2-0.1,0.3c-0.1,0.1-0.1,0.1-0.2,0.1c0,0-0.1,0-0.1,0c0,0,0-0.1,0-0.2V7.7
		l-0.5,0v0h0.1c0.1,0,0.1,0,0.1,0c0,0,0,0,0,0c0,0,0,0,0,0.1v0.7c0,0.1,0,0.1,0.1,0.2c0.1,0.1,0.1,0.1,0.3,0.1h0h0
		c0.1,0,0.2-0.1,0.2-0.1s0.1-0.1,0.1-0.2v0.3l0.5,0v0c-0.1,0-0.2,0-0.2,0v0c0,0,0,0,0-0.1s0,0,0-0.1V7.7l-0.5,0v0c0.1,0,0.2,0,0.2,0
		s0,0,0,0c0,0,0,0,0,0.1C25.7,7.9,25.7,8.4,25.7,8.4z M24.4,8.7c0,0.1-0.1,0.1-0.2,0.1c-0.1,0-0.2,0-0.2-0.1c0-0.1-0.1-0.2-0.1-0.4
		s0-0.3,0.1-0.4c0-0.1,0.1-0.1,0.2-0.1c0.1,0,0.2,0,0.2,0.1c0,0.1,0.1,0.2,0.1,0.4C24.5,8.5,24.5,8.6,24.4,8.7 M24.6,7.9
		c-0.1-0.1-0.2-0.1-0.4-0.1c-0.1,0-0.3,0.1-0.4,0.2c-0.1,0.1-0.2,0.3-0.2,0.4c0,0.2,0.1,0.3,0.2,0.4c0.1,0.1,0.2,0.1,0.4,0.1
		c0.1,0,0.3-0.1,0.4-0.2c0.1-0.1,0.2-0.3,0.2-0.4C24.8,8.1,24.7,8,24.6,7.9 M22.6,8.7C22.6,8.7,22.6,8.8,22.6,8.7c0,0.1,0,0.1,0,0.1
		c0,0-0.1,0-0.1,0c-0.1,0-0.1,0-0.2,0v0h1.2v0c-0.1,0-0.2,0-0.2,0c-0.1,0-0.1,0-0.1,0c0,0,0,0,0,0c0,0,0,0,0-0.1V8.1l0.3-0.5
		c0-0.1,0.1-0.2,0.2-0.3c0.1-0.1,0.2-0.1,0.3-0.1v0h-0.7v0c0.2,0,0.3,0.1,0.3,0.2c0,0.1,0,0.1-0.1,0.2L23,8l-0.5-0.7c0,0,0,0,0-0.1
		s0-0.1,0.1-0.1c0.1,0,0.1,0,0.2,0v0h-1.1v0c0.1,0,0.2,0,0.3,0c0,0,0.1,0.1,0.1,0.1l0.5,0.8L22.6,8.7L22.6,8.7z M20.4,9.3
		c0.1-0.1,0.2-0.1,0.3-0.2c0.1-0.1,0.1-0.2,0.1-0.3c0-0.1,0-0.1,0-0.2s-0.1-0.1-0.1-0.1c-0.1,0-0.1,0-0.1,0c0,0,0,0.1,0,0.1
		c0,0,0,0.1,0,0.1s0.1,0,0.1,0h0c0,0,0,0,0,0c0,0.1,0,0.1-0.1,0.2C20.6,9.2,20.5,9.2,20.4,9.3L20.4,9.3z M19.8,7.8
		c-0.1,0-0.1,0-0.2,0s-0.2,0-0.2,0.1c-0.1,0.1-0.1,0.1-0.1,0.2c0,0.1,0,0.2,0.1,0.2c0.1,0.1,0.2,0.1,0.3,0.1c0.1,0,0.2,0,0.2,0.1
		c0.1,0,0.1,0.1,0.1,0.2s0,0.1-0.1,0.1c0,0-0.1,0-0.1,0c-0.1,0-0.1,0-0.2,0s-0.1,0-0.1-0.1c0,0-0.1-0.1-0.1-0.1c0,0,0-0.1-0.1-0.2h0
		v0.5c0,0,0,0,0.1-0.1c0.1,0.1,0.1,0.1,0.2,0.1c0,0,0.1,0,0.2,0c0.1,0,0.2,0,0.2-0.1C20,8.7,20,8.6,20,8.5s0-0.2-0.1-0.3
		c-0.1,0-0.1-0.1-0.3-0.1c-0.1,0-0.2-0.1-0.3-0.1c0,0-0.1,0-0.1-0.1c0-0.1,0-0.1,0.1-0.2c0,0,0.1,0,0.2,0
		C19.7,7.7,19.8,7.8,19.8,7.8C19.9,7.9,19.9,8,20,8.1h0V7.7c0,0,0,0-0.1,0.1C19.9,7.8,19.8,7.8,19.8,7.8 M18.3,8.3
		c0-0.2,0-0.3,0.1-0.4c0-0.1,0.1-0.1,0.2-0.1c0.1,0,0.1,0,0.2,0.1c0,0.1,0,0.2,0,0.4H18.3z M19,8.3c0-0.2-0.1-0.4-0.2-0.5
		c-0.1-0.1-0.2-0.1-0.3-0.1c-0.1,0-0.2,0.1-0.3,0.2c-0.1,0.1-0.2,0.3-0.2,0.5c0,0.2,0.1,0.3,0.2,0.4c0.1,0.1,0.2,0.1,0.3,0.1
		c0.1,0,0.3,0,0.4-0.1s0.1-0.2,0.1-0.3h0c0,0.1,0,0.2-0.1,0.3c-0.1,0.1-0.2,0.1-0.3,0.1s-0.2,0-0.2-0.1c0-0.1-0.1-0.2-0.1-0.4
		L19,8.3L19,8.3z M17.7,8c0-0.1,0.1-0.2,0.1-0.2c0,0,0.1,0,0.2,0v0h-0.5v0c0.1,0,0.2,0,0.2,0.1C17.8,7.9,17.8,7.9,17.7,8l-0.2,0.5
		l-0.3-0.7V7.8c0,0,0,0,0.1,0c0,0,0.1,0,0.1,0v0h-0.6v0h0.1c0.1,0,0.1,0,0.1,0c0,0,0,0,0,0.1l0.4,1l-0.1,0.2c0,0.1-0.1,0.2-0.1,0.2
		s-0.1,0.1-0.1,0.1h0c0,0,0,0,0,0c0.1,0,0.1-0.1,0.1-0.1c0,0,0-0.1,0-0.1s-0.1,0-0.1,0s0,0-0.1,0c-0.1,0-0.1,0.1-0.1,0.1
		c0,0,0,0.1,0,0.1s0,0.1,0.1,0.1c0,0,0.1,0,0.2,0c0.1,0,0.1,0,0.1-0.1c0,0,0.1-0.1,0.1-0.2L17.7,8z M16,8.3c0-0.2,0-0.3,0.1-0.4
		c0-0.1,0.1-0.1,0.2-0.1c0.1,0,0.1,0,0.2,0.1c0,0.1,0,0.2,0,0.4H16z M16.7,8.3c0-0.2-0.1-0.4-0.2-0.5c-0.1-0.1-0.2-0.1-0.3-0.1
		c-0.1,0-0.2,0.1-0.3,0.2c-0.1,0.1-0.2,0.3-0.2,0.5c0,0.2,0.1,0.3,0.2,0.4c0.1,0.1,0.2,0.1,0.3,0.1c0.1,0,0.3,0,0.4-0.1
		s0.1-0.2,0.1-0.3h0c0,0.1,0,0.2-0.1,0.3c-0.1,0.1-0.2,0.1-0.3,0.1s-0.2,0-0.2-0.1c0-0.1-0.1-0.2-0.1-0.4L16.7,8.3L16.7,8.3z
		 M14.2,8.7C14.2,8.8,14.2,8.8,14.2,8.7c0,0.1-0.1,0.1-0.1,0.1s-0.1,0-0.1,0v0h0.8v0c-0.1,0-0.2,0-0.2,0h0c0,0,0,0,0-0.1V8.2
		c0-0.2,0-0.3,0.1-0.4c0.1-0.1,0.1-0.1,0.2-0.1c0.1,0,0.1,0,0.1,0.1c0,0-0.1,0-0.1,0c0,0,0,0.1,0,0.1c0,0,0,0.1,0,0.1
		c0,0,0.1,0,0.1,0s0,0,0.1,0C15,8.1,15.1,8,15.1,8c0,0,0-0.1,0-0.1c0,0,0-0.1-0.1-0.1c0,0-0.1,0-0.1,0c-0.1,0-0.2,0-0.2,0.1
		c0,0.1-0.1,0.1-0.1,0.2V7.7l-0.5,0v0c0.1,0,0.2,0,0.2,0c0,0,0,0,0,0c0,0,0,0,0,0.1L14.2,8.7L14.2,8.7z M13.4,8.4
		c0,0.1,0,0.2-0.1,0.3c-0.1,0.1-0.1,0.1-0.2,0.1c0,0-0.1,0-0.1,0s0-0.1,0-0.2V7.7l-0.5,0v0h0.1c0.1,0,0.1,0,0.1,0c0,0,0,0,0,0
		c0,0,0,0,0,0.1v0.7c0,0.1,0,0.1,0.1,0.2c0.1,0.1,0.1,0.1,0.3,0.1h0h0c0.1,0,0.2-0.1,0.2-0.1s0.1-0.1,0.1-0.2v0.3l0.5,0v0
		c-0.1,0-0.2,0-0.2,0v0c0,0,0,0,0-0.1s0,0,0-0.1V7.7l-0.5,0v0c0.1,0,0.2,0,0.2,0c0,0,0,0,0,0c0,0,0,0,0,0.1
		C13.4,7.9,13.4,8.4,13.4,8.4z M12.2,8.7c0,0.1-0.1,0.1-0.2,0.1c-0.1,0-0.2,0-0.2-0.1c0-0.1-0.1-0.2-0.1-0.4s0-0.3,0.1-0.4
		c0-0.1,0.1-0.1,0.2-0.1s0.2,0,0.2,0.1c0,0.1,0.1,0.2,0.1,0.4C12.2,8.5,12.2,8.6,12.2,8.7 M12.3,7.9c-0.1-0.1-0.2-0.1-0.4-0.1
		s-0.3,0.1-0.4,0.2c-0.1,0.1-0.2,0.3-0.2,0.4c0,0.2,0.1,0.3,0.2,0.4c0.1,0.1,0.2,0.1,0.4,0.1c0.1,0,0.3-0.1,0.4-0.2
		c0.1-0.1,0.2-0.3,0.2-0.4C12.5,8.1,12.4,8,12.3,7.9 M10.4,8.7C10.4,8.7,10.4,8.8,10.4,8.7c0,0.1,0,0.1,0,0.1c0,0-0.1,0-0.1,0
		c-0.1,0-0.1,0-0.2,0v0h1.2v0c-0.1,0-0.2,0-0.2,0c-0.1,0-0.1,0-0.1,0c0,0,0,0,0,0c0,0,0,0,0-0.1V8.1l0.3-0.5c0-0.1,0.1-0.2,0.2-0.3
		c0.1-0.1,0.2-0.1,0.3-0.1v0h-0.7v0c0.2,0,0.3,0.1,0.3,0.2c0,0.1,0,0.1-0.1,0.2L10.8,8l-0.5-0.7c0,0,0,0,0-0.1s0-0.1,0.1-0.1
		c0.1,0,0.1,0,0.2,0v0H9.4v0c0.1,0,0.2,0,0.3,0c0,0,0.1,0.1,0.1,0.1l0.5,0.8L10.4,8.7L10.4,8.7z"/>
</g>
</svg>
