<?xml version="1.0" encoding="utf-8"?>
<!-- Generator: Adobe Illustrator 17.1.0, SVG Export Plug-In . SVG Version: 6.00 Build 0)  -->
<!DOCTYPE svg PUBLIC "-//W3C//DTD SVG 1.1 Tiny//EN" "http://www.w3.org/Graphics/SVG/1.1/DTD/svg11-tiny.dtd">
<svg version="1.1" baseProfile="tiny" id="圖層_1"
	 xmlns="http://www.w3.org/2000/svg" xmlns:xlink="http://www.w3.org/1999/xlink" x="0px" y="0px" viewBox="0 0 40 40"
	 xml:space="preserve">
<g>
	<path fill="#FEFEFE" d="M21.2,31.4c-1.4,0-2.9,0-4.3,0c0,0,0-0.1,0-0.1c0-0.4,0-0.9,0-1.3c0-1.2,0-2.4,0-3.6c0-1.9,0-3.9,0-5.8
		c0-0.1,0-0.1-0.2-0.1c-0.6,0-1.3,0-1.9,0c-0.1,0-0.1,0-0.2,0c-0.1,0,0-0.1-0.1-0.1c0-0.4,0-0.8,0-1.2c0-0.6,0-1.2,0-1.8
		c0-0.2,0-0.2,0.2-0.2c0.7,0,1.3,0,2,0c0.1,0,0.1,0,0.1-0.1c0-0.2,0-0.3,0-0.5c0-0.6,0-1.2,0-1.7c0-0.1,0-0.1,0-0.2
		c0-0.1,0-0.3,0-0.4c0-0.2,0-0.5,0-0.7c0-0.2,0.1-0.5,0.1-0.7c0-0.1,0-0.1,0-0.2c0-0.1,0-0.2,0.1-0.3c0.1-0.1,0.1-0.2,0.1-0.3
		c0,0,0,0,0-0.1c0.1,0,0.1-0.1,0.1-0.2c0,0,0,0,0,0c0,0,0,0,0-0.1c0,0,0,0,0,0c0,0,0.1,0,0-0.1c0,0,0,0,0,0c0.1,0,0.1,0,0.1-0.1
		c0-0.1,0.2-0.2,0.2-0.3c0.1-0.1,0.2-0.2,0.3-0.3c0.3-0.3,0.6-0.5,0.9-0.6c0,0,0.1,0,0.1-0.1c0.3-0.1,0.5-0.2,0.8-0.3
		c0.5-0.1,1.1-0.1,1.6-0.1c0,0,0.1,0,0.1,0c0.1,0,0.2,0,0.2,0c0.4,0,0.9,0,1.3,0.1c0.3,0,0.6,0.1,0.9,0.1c0.1,0,0.1,0,0.2,0
		c0,0,0,0,0,0c0.2,0,0.3,0.1,0.5,0.1c0,0,0,0,0,0c0.1,0,0.1,0,0.2,0c0,0,0,0,0,0c0.1,0,0.2,0,0.3,0.1c0.1,0,0.1,0.1,0.1,0.1
		c0,0.1,0,0.1,0,0.2c0,0.2-0.1,0.4-0.1,0.6c-0.1,0.3-0.1,0.6-0.1,0.9c0,0.2-0.1,0.5-0.1,0.7c0,0,0,0.1,0,0.1c0,0,0,0,0,0.1
		c0,0.1,0,0.2-0.1,0.4c0,0.1,0,0.2-0.1,0.4c0,0.1,0,0.1-0.1,0.1c0,0,0,0,0,0c-0.1,0-0.1,0-0.2,0c-0.1,0-0.1,0-0.2,0c0,0,0,0,0,0
		c-0.4-0.1-0.7-0.1-1.1-0.2c-0.1,0-0.2,0-0.3,0c-0.4,0-0.7,0.1-1,0.2c-0.1,0-0.1,0.1-0.2,0.1c-0.2,0.2-0.3,0.4-0.4,0.7
		c0,0.1,0,0.2,0,0.4c0,0.7,0,1.4,0,2.1c0,0.2,0,0.2,0.2,0.2c1.1,0,2.2,0,3.2,0c0,0,0.1,0,0.1,0c0.1,0,0.1,0,0.1,0.1
		c0,0.3,0,0.6-0.1,0.9c0,0.1,0,0.1,0,0.2c0,0,0,0,0,0c0,0.3,0,0.6-0.1,0.9c0,0.2,0,0.4,0,0.6c0,0.2,0,0.3,0,0.5c0,0,0,0.1,0,0.1
		c-0.1,0-0.1,0-0.2,0c-1,0-2,0-3.1,0c-0.2,0-0.2,0-0.2,0.2c0,3.6,0,7.1,0,10.7C21.2,31.3,21.2,31.4,21.2,31.4z"/>
	<circle fill="none" stroke="#FFFFFF" stroke-miterlimit="10" cx="19.9" cy="20.6" r="14.9"/>
</g>
</svg>
