<?xml version="1.0" encoding="utf-8"?>
<!-- Generator: Adobe Illustrator 17.1.0, SVG Export Plug-In . SVG Version: 6.00 Build 0)  -->
<!DOCTYPE svg PUBLIC "-//W3C//DTD SVG 1.1 Tiny//EN" "http://www.w3.org/Graphics/SVG/1.1/DTD/svg11-tiny.dtd">
<svg version="1.1" baseProfile="tiny" id="圖層_1"
	 xmlns="http://www.w3.org/2000/svg" xmlns:xlink="http://www.w3.org/1999/xlink" x="0px" y="0px" viewBox="0 0 150 200"
	 xml:space="preserve">
<g id="XMLID_42_">
	<g>
		<path fill="#FFFFFF" d="M51,143v4.8c0,5.3,11,9.6,24.6,9.6c6.7,0,12.8-1,17.2-2.7l-12.9-11.4c-4,1.1-8.8,1.7-14,1.7
			C60.3,144.9,55.1,144.2,51,143z"/>
		<path d="M51,117.7V143c4.1,1.2,9.3,2,14.9,2c5.2,0,10-0.6,14-1.7L51,117.7z"/>
		<path d="M51,108.1v9.6l28.9,25.5c6.4-1.7,10.6-4.6,10.6-7.9v-22.8c-4.7,1.5-9.7,2.4-14.9,2.4C66.6,114.9,58.2,112.4,51,108.1z"/>
		<path d="M51,83.2v24.9c7.2,4.3,15.6,6.8,24.6,6.8c5.2,0,10.2-0.8,14.9-2.4V90.8c-3.9,1.2-8.8,1.9-14.1,2c-0.3,0-0.6,0-0.9,0
			s-0.6,0-0.9,0C61.6,92.6,51,88.4,51,83.2z"/>
		<path fill="#FFFFFF" d="M62.5,75.1C55.6,76.8,51,79.8,51,83.2c0,5.2,10.6,9.4,23.8,9.6c-8.1-0.2-14.4-2.8-14.4-6
			c0-1.8,1.9-3.3,5-4.4C63.7,80.3,62.8,77.8,62.5,75.1z"/>
		<path fill="#FFFFFF" d="M64.6,62.6c-1.7,3.9-2.5,8.4-2.1,12.5c2.4-0.6,5-1,7.8-1.3c0.1-1,0.4-2,0.8-2.9c1.8-4.2,4-13.5,4-13.5
			c4.2,6.1,6,12.1,6.1,16.5c2.7,0.2,5.2,0.6,7.4,1.2c1.6-10.9-2.5-27.8-14.3-45.3C74.2,29.7,69,52.4,64.6,62.6z"/>
		<path d="M65.3,82.4c-3.1,1.1-5,2.7-5,4.4c0,3.2,6.4,5.8,14.4,6c0.3,0,0.6,0,0.9,0s0.6,0,0.9,0c6.9-0.2,12.7-2.1,14.1-4.7v-2.5
			c-0.7-1.2-2.3-2.3-4.5-3.1c-2.1,3.3-5.2,5.1-9.2,5C71.3,87.3,67.6,85.3,65.3,82.4z"/>
		<path fill="#FFFFFF" d="M62.5,75.1c0.3,2.7,1.2,5.3,2.8,7.3c2.4-0.8,5.5-1.4,8.9-1.5c-3.4-0.9-4.4-4-3.9-7.1
			C67.5,74.1,64.9,74.5,62.5,75.1z"/>
		<path d="M70.3,73.8c-0.4,3.1,0.6,6.1,3.9,7.1c0.4,0,0.9,0,1.3,0c0.7,0,1.5,0,2.2,0.1c2.2-0.8,3.4-3.4,3.4-7.1
			c-1.8-0.2-3.6-0.3-5.6-0.3C73.8,73.6,72,73.7,70.3,73.8z"/>
		<path d="M71.1,70.9c-0.4,0.9-0.7,1.9-0.8,2.9c1.7-0.2,3.5-0.2,5.3-0.2c1.9,0,3.8,0.1,5.6,0.3c-0.1-4.4-1.9-10.3-6.1-16.5
			C75.1,57.4,72.9,66.7,71.1,70.9z"/>
		<path fill="#FFFFFF" d="M74.3,80.9c-3.4,0.1-6.5,0.7-8.9,1.5c2.3,2.9,6,4.9,11.5,5.1c4,0.1,7.1-1.7,9.2-5
			c-2.2-0.8-5.1-1.4-8.2-1.5c-0.5,0.2-1,0.3-1.6,0.2C75.5,81.1,74.8,81,74.3,80.9z"/>
		<path d="M75.6,80.9c-0.5,0-0.9,0-1.3,0c0.6,0.2,1.2,0.3,1.9,0.3c0.6,0,1.1-0.1,1.6-0.2C77.1,80.9,76.3,80.9,75.6,80.9z"/>
		<path fill="#FFFFFF" d="M90.5,135.3c0,3.3-4.2,6.2-10.6,7.9l12.9,11.4c4.6-1.7,7.4-4.2,7.4-6.9v-39.6c-3,1.8-6.3,3.3-9.7,4.4
			V135.3z"/>
		<path fill="#FFFFFF" d="M81.2,73.8c0,3.7-1.2,6.3-3.4,7.1c3.2,0.2,6,0.7,8.2,1.5c1.2-2,2.1-4.5,2.6-7.4
			C86.3,74.5,83.8,74.1,81.2,73.8z"/>
		<path fill="#FFFFFF" d="M90.5,88.1c-1.4,2.6-7.1,4.5-14.1,4.7c5.3-0.1,10.2-0.8,14.1-2V88.1z"/>
		<path fill="#FFFFFF" d="M86,82.5c2.3,0.8,3.9,1.9,4.5,3.1v-10c-0.6-0.2-1.3-0.4-2-0.5C88.1,78,87.3,80.5,86,82.5z"/>
		<path fill="#FFFFFF" d="M90.5,90.8v21.7c3.4-1.1,6.6-2.6,9.7-4.4V83.2C100.2,86.3,96.4,89.1,90.5,90.8z"/>
		<path fill="#FFFFFF" d="M90.5,88.1v2.7c5.9-1.8,9.7-4.5,9.7-7.6c0-3.1-3.8-5.9-9.7-7.6v10c0.2,0.4,0.4,0.8,0.4,1.3
			S90.8,87.7,90.5,88.1z"/>
		<path d="M90.5,85.6v2.5c0.2-0.4,0.4-0.8,0.4-1.3S90.8,86,90.5,85.6z"/>
	</g>
	<g>
		<path fill="none" stroke="#FFFFFF" stroke-miterlimit="10" d="M51,108.1c-3.5-2.1-6.8-4.7-9.7-7.6c-8.6-8.7-13.9-20.7-13.9-33.9
			c0-26.6,21.6-48.2,48.2-48.2c26.6,0,48.2,21.6,48.2,48.2c0,17.6-9.5,33-23.6,41.5"/>
		<path fill="none" stroke="#FFFFFF" stroke-miterlimit="10" d="M62.5,75.1C55.6,76.8,51,79.8,51,83.2c0,5.2,10.6,9.4,23.8,9.6"/>
		<path fill="none" stroke="#FFFFFF" stroke-miterlimit="10" d="M76.5,92.8c5.3-0.1,10.2-0.8,14.1-2c5.9-1.8,9.7-4.5,9.7-7.6
			c0-3.1-3.8-5.9-9.7-7.6c-0.6-0.2-1.3-0.4-2-0.5"/>
		<path fill="none" stroke="#FFFFFF" stroke-miterlimit="10" d="M65.3,82.4c-3.1,1.1-5,2.7-5,4.4c0,3.2,6.4,5.8,14.4,6
			c0.3,0,0.6,0,0.9,0s0.6,0,0.9,0c6.9-0.2,12.7-2.1,14.1-4.7c0.2-0.4,0.4-0.8,0.4-1.3s-0.1-0.9-0.4-1.3c-0.7-1.2-2.3-2.3-4.5-3.1"/>
		<polyline fill="none" stroke="#FFFFFF" stroke-miterlimit="10" points="100.2,147.7 100.2,108.1 100.2,83.2 100.2,82.7 		"/>
		<path fill="none" stroke="#FFFFFF" stroke-miterlimit="10" d="M92.8,154.6c4.6-1.7,7.4-4.2,7.4-6.9"/>
		<path fill="none" stroke="#FFFFFF" stroke-miterlimit="10" d="M51,147.7c0,5.3,11,9.6,24.6,9.6c6.7,0,12.8-1,17.2-2.7"/>
		<line fill="none" stroke="#FFFFFF" stroke-miterlimit="10" x1="51" y1="143" x2="51" y2="147.7"/>
		<line fill="none" stroke="#FFFFFF" stroke-miterlimit="10" x1="51" y1="117.7" x2="51" y2="143"/>
		<line fill="none" stroke="#FFFFFF" stroke-miterlimit="10" x1="51" y1="108.1" x2="51" y2="117.7"/>
		<polyline fill="none" stroke="#FFFFFF" stroke-miterlimit="10" points="51,82.7 51,83.2 51,108.1 		"/>
		<path fill="none" stroke="#000000" stroke-width="0.5" stroke-linecap="round" stroke-linejoin="round" d="M81.2,73.8
			c-0.1-4.4-1.9-10.3-6.1-16.5c0,0-2.2,9.3-4,13.5c-0.4,0.9-0.7,1.9-0.8,2.9c-0.4,3.1,0.6,6.1,3.9,7.1c0.6,0.2,1.2,0.3,1.9,0.3
			c0.6,0,1.1-0.1,1.6-0.2C80,80.1,81.2,77.5,81.2,73.8z"/>
	</g>
</g>
</svg>
