<?xml version="1.0" encoding="utf-8"?>
<!-- Generator: Adobe Illustrator 17.1.0, SVG Export Plug-In . SVG Version: 6.00 Build 0)  -->
<!DOCTYPE svg PUBLIC "-//W3C//DTD SVG 1.1 Tiny//EN" "http://www.w3.org/Graphics/SVG/1.1/DTD/svg11-tiny.dtd">
<svg version="1.1" baseProfile="tiny" id="圖層_1"
	 xmlns="http://www.w3.org/2000/svg" xmlns:xlink="http://www.w3.org/1999/xlink" x="0px" y="0px" viewBox="0 0 150 200"
	 xml:space="preserve">
<g id="XMLID_41_">
	<g>
		<polygon fill="#FFFFFF" points="117.5,151.7 119.1,158.4 74.6,119.8 78,116.8 		"/>
		<path fill="#FFFFFF" d="M108,63.2v20.4l-3.3,2.9c-0.5-0.1-1-0.1-1.6-0.1h-8l-5.7-5l16.1-14.2C107.2,65.7,108,64.4,108,63.2z"/>
		<path d="M108,63.2c0,1.1-0.8,2.5-2.5,4L89.4,81.4L65.7,60.6h33.4h3.9C106.3,60.6,108,61.6,108,63.2z"/>
		<path fill="#FFFFFF" d="M104.6,86.5l-4.8,4.2L95,86.4h8C103.6,86.4,104.1,86.5,104.6,86.5z"/>
		<polygon fill="#FFFFFF" points="95,86.4 99.9,90.7 85.1,103.8 74.6,94.5 83.7,86.4 		"/>
		<polygon fill="#FFFFFF" points="95,86.4 83.7,86.4 89.4,81.4 		"/>
		<path d="M89.4,81.4l-5.7,5H65.5L43.7,67.2c-1.7-1.5-2.5-2.8-2.5-4c0-1.6,1.7-2.7,5-2.7h3.7h15.8L89.4,81.4z"/>
		<polygon fill="#FFFFFF" points="74.6,94.5 85.1,103.8 74.2,113.5 63.6,104.2 		"/>
		<polygon fill="#FFFFFF" points="74.2,113.5 70.7,116.5 60.1,107.3 63.6,104.2 		"/>
		<polygon fill="#FFFFFF" points="70.7,116.5 31.9,150.8 33.7,143.5 19.1,143.5 60.1,107.3 		"/>
		<path fill="#FFFFFF" d="M43.9,86.7l19.8,17.5l-3.5,3.1L43.7,93.1c-1.7-1.5-2.5-2.8-2.5-4C41.2,87.9,42.1,87.1,43.9,86.7z"/>
		<path fill="#FFFFFF" d="M41.2,84.4l2.6,2.3c-1.7,0.4-2.6,1.3-2.6,2.4V84.4z"/>
	</g>
	<g>
		<path fill="none" stroke="#FFFFFF" stroke-linecap="round" stroke-linejoin="round" d="M105.5,93.1l-1.5,1.3l-14.9,12.9L78,116.8
			l-3.4,3L30,158.4l1.9-7.5l1.8-7.3l-14.6,0l41-36.2l3.5-3.1l11-9.7l9.1-8.1l5.7-5l16.1-14.2c1.7-1.5,2.5-2.8,2.5-4
			c0-1.6-1.7-2.7-5-2.7h-3.9H65.7H49.9h-3.7c-3.3,0-5,1.1-5,2.7c0,1.1,0.8,2.5,2.5,4"/>
		<path fill="none" stroke="#FFFFFF" stroke-linecap="round" stroke-linejoin="round" d="M41.2,89.1c0,1.1,0.8,2.5,2.5,4"/>
		<line fill="none" stroke="#FFFFFF" stroke-linecap="round" stroke-linejoin="round" x1="83.7" y1="86.4" x2="65.5" y2="86.4"/>
		<path fill="none" stroke="#FFFFFF" stroke-linecap="round" stroke-linejoin="round" d="M105.5,93.1c1.7-1.5,2.5-2.8,2.5-4"/>
		<polyline fill="none" stroke="#FFFFFF" stroke-linecap="round" stroke-linejoin="round" points="108,62.3 108,63.2 108,83.6 
			108,89.1 108,89.8 		"/>
		<polyline fill="none" stroke="#FFFFFF" stroke-linecap="round" stroke-linejoin="round" points="41.2,62.3 41.2,63.3 41.2,84.4 
			41.2,89.1 41.2,89.8 		"/>
		<polyline fill="none" stroke="#FFFFFF" stroke-linecap="round" stroke-linejoin="round" points="74.6,94.5 65.5,86.4 43.7,67.2 		
			"/>
		<polyline fill="none" stroke="#FFFFFF" stroke-linecap="round" stroke-linejoin="round" points="74.6,119.8 119.1,158.4 
			117.5,151.7 115.7,143.9 130.1,143.5 89.1,107.3 		"/>
		<line fill="none" stroke="#FFFFFF" stroke-linecap="round" stroke-linejoin="round" x1="43.7" y1="93.1" x2="60.1" y2="107.3"/>
	</g>
</g>
</svg>
