<?xml version="1.0" encoding="utf-8"?>
<!-- Generator: Adobe Illustrator 17.1.0, SVG Export Plug-In . SVG Version: 6.00 Build 0)  -->
<!DOCTYPE svg PUBLIC "-//W3C//DTD SVG 1.1 Tiny//EN" "http://www.w3.org/Graphics/SVG/1.1/DTD/svg11-tiny.dtd">
<svg version="1.1" baseProfile="tiny" id="圖層_1"
	 xmlns="http://www.w3.org/2000/svg" xmlns:xlink="http://www.w3.org/1999/xlink" x="0px" y="0px" viewBox="0 0 120 120"
	 xml:space="preserve">
<g id="XMLID_40_">
	<g>
		<polygon points="101.5,110.9 103.1,117.5 58.6,79 62,76 		"/>
		<path d="M92,22.4v20.4l-3.3,2.9c-0.5-0.1-1-0.1-1.7-0.1h-8l-5.7-5l16.1-14.2C91.2,24.9,92,23.5,92,22.4z"/>
		<path fill="#FFFFFF" d="M92,22.4c0,1.1-0.8,2.5-2.5,4L73.4,40.6L49.7,19.7h33.4H87C90.3,19.7,92,20.8,92,22.4z"/>
		<path d="M88.6,45.7l-4.8,4.2L79,45.6h8C87.6,45.6,88.1,45.6,88.6,45.7z"/>
		<polygon points="79,45.6 83.9,49.9 69.1,62.9 58.6,53.6 67.7,45.6 		"/>
		<polygon points="79,45.6 67.7,45.6 73.4,40.6 		"/>
		<path fill="#FFFFFF" d="M73.4,40.6l-5.7,5H49.5L27.7,26.4c-1.7-1.5-2.5-2.8-2.5-3.9c0-1.6,1.7-2.7,5-2.7h3.7h15.8L73.4,40.6z"/>
		<polygon points="58.6,53.6 69.1,62.9 58.2,72.6 47.6,63.3 		"/>
		<polygon points="58.2,72.6 54.7,75.6 44.1,66.4 47.6,63.3 		"/>
		<polygon points="54.7,75.6 15.9,110 17.7,102.7 3.1,102.7 44.1,66.4 		"/>
		<path d="M27.9,45.8l19.8,17.5l-3.5,3.1L27.7,52.2c-1.7-1.5-2.5-2.9-2.5-4C25.2,47.1,26.1,46.2,27.9,45.8z"/>
		<path d="M25.2,43.5l2.6,2.3c-1.7,0.4-2.6,1.3-2.6,2.4V43.5z"/>
	</g>
	<g>
		<path fill="none" stroke="#000000" stroke-linecap="round" stroke-linejoin="round" d="M89.5,52.2L88,53.5L73.1,66.4L62,76l-3.4,3
			L14,117.5l1.9-7.5l1.8-7.3l-14.6,0l41-36.2l3.5-3.1l11-9.7l9.1-8l5.7-5l16.1-14.2c1.7-1.5,2.5-2.8,2.5-4c0-1.6-1.7-2.7-5-2.7h-3.8
			H49.7H33.9h-3.7c-3.3,0-5,1.1-5,2.7c0,1.1,0.8,2.5,2.5,3.9"/>
		<path fill="none" stroke="#000000" stroke-linecap="round" stroke-linejoin="round" d="M25.2,48.3c0,1.1,0.8,2.5,2.5,4"/>
		<line fill="none" stroke="#000000" stroke-linecap="round" stroke-linejoin="round" x1="67.7" y1="45.6" x2="49.5" y2="45.6"/>
		<path fill="none" stroke="#000000" stroke-linecap="round" stroke-linejoin="round" d="M89.5,52.2c1.7-1.5,2.5-2.9,2.5-4"/>
		<polyline fill="none" stroke="#000000" stroke-linecap="round" stroke-linejoin="round" points="92,21.5 92,22.4 92,42.8 92,48.3 
			92,48.9 		"/>
		<polyline fill="none" stroke="#000000" stroke-linecap="round" stroke-linejoin="round" points="25.2,21.5 25.2,22.4 25.2,43.5 
			25.2,48.3 25.2,48.9 		"/>
		<polyline fill="none" stroke="#000000" stroke-linecap="round" stroke-linejoin="round" points="58.6,53.6 49.5,45.6 27.7,26.4 		
			"/>
		<polyline fill="none" stroke="#000000" stroke-linecap="round" stroke-linejoin="round" points="58.6,79 103.1,117.5 101.5,110.9 
			99.7,103.1 114.1,102.7 73.1,66.4 		"/>
		<line fill="none" stroke="#000000" stroke-linecap="round" stroke-linejoin="round" x1="27.7" y1="52.2" x2="44.1" y2="66.4"/>
	</g>
</g>
</svg>
