<?xml version="1.0" encoding="utf-8"?>
<!-- Generator: Adobe Illustrator 17.1.0, SVG Export Plug-In . SVG Version: 6.00 Build 0)  -->
<!DOCTYPE svg PUBLIC "-//W3C//DTD SVG 1.1 Tiny//EN" "http://www.w3.org/Graphics/SVG/1.1/DTD/svg11-tiny.dtd">
<svg version="1.1" baseProfile="tiny" id="圖層_1"
	 xmlns="http://www.w3.org/2000/svg" xmlns:xlink="http://www.w3.org/1999/xlink" x="0px" y="0px" viewBox="0 0 180 180"
	 xml:space="preserve">
<g id="XMLID_2_">
	<g>
		<path fill="#FFFFFF" d="M149.7,61c3.1,8.1,4.8,17,4.8,26.2c0,35.2-24.8,64.6-57.9,71.6v-3.1h-1.7v3.4c-4.4,0.8-8.9,1.3-13.6,1.3
			c-7.5,0-14.8-1.1-21.7-3.3c-22.3-12.2-37.4-35.9-37.4-63.1c0-39.7,32.1-71.8,71.8-71.8c12.5,0,24.3,3.2,34.5,8.8
			c9,7.5,16.1,17.2,20.6,28.2l-3.1,1.8l0.9,1.5L149.7,61z M123.9,40.5l4.3-7.4l-1.5-0.9l-4.3,7.4L123.9,40.5z M93,32.7v-8.6h-1.7
			v8.6H93z M61.2,156.3l4.3-7.4L64,148l-4.3,7.4L61.2,156.3z M62.3,41.4L58,34l-1.5,0.9l4.3,7.4L62.3,41.4z M41.9,127.3l-0.9-1.5
			l-7.4,4.3l0.9,1.5L41.9,127.3z M39.3,65.7l0.9-1.5l-7.4-4.3l-0.9,1.5L39.3,65.7z M32.4,96.8v-1.7h-8.6v1.7H32.4z"/>
		<path fill="#FFFFFF" d="M163.1,93.4h-7.6v-1.7h7.5C163.1,92.2,163.1,92.8,163.1,93.4z"/>
		<path fill="#FFFFFF" d="M148.7,122.7l7.1,4.1c-0.2,0.5-0.5,1-0.8,1.6l-7.2-4.1L148.7,122.7z"/>
		<path fill="#FFFFFF" d="M154.2,58.4l-4.5,2.6c-0.2-0.5-0.4-1.1-0.7-1.6l4.3-2.5C153.6,57.4,153.9,57.9,154.2,58.4z"/>
		<path fill="#231F20" d="M149.7,61l-2.9,1.7l-0.9-1.5l3.1-1.8C149.3,59.9,149.5,60.5,149.7,61z"/>
		<path fill="#231F20" d="M110.2,19.9c34.2,7.4,59.8,37.9,59.8,74.3c0,42-34,76-76,76c-1.2,0-2.3,0-3.4-0.1
			c17.1-0.8,32.7-7.1,45-17.4c0,0,0,0,0.1,0c18.3-13,30.2-34.4,30.2-58.5c0-24.1-11.9-45.5-30.2-58.5c0,0,0,0-0.1,0
			c-3.5-2.9-7.4-5.6-11.4-7.8C119.8,24.7,115.2,22.1,110.2,19.9z"/>
		<polygon fill="#FFFFFF" points="127.1,146.2 131.4,153.7 129.9,154.5 125.6,147.1 		"/>
		<path fill="#231F20" d="M135.6,35.6c-2.3-1.6-4.6-3.1-7.1-4.4c-1.4-1.2-2.9-2.3-4.4-3.4C128.2,30.1,132,32.7,135.6,35.6z"/>
		<polygon fill="#231F20" points="128.2,33.1 123.9,40.5 122.4,39.6 126.7,32.2 		"/>
		<path fill="#231F20" d="M124.1,27.8c1.5,1.1,2.9,2.2,4.4,3.4c-10.2-5.6-22-8.8-34.5-8.8c-39.7,0-71.8,32.1-71.8,71.8
			c0,27.2,15.1,50.9,37.4,63.1c-7-2.1-13.5-5.3-19.4-9.3l0,0C26.5,134.2,18,115.2,18,94.2c0-40.8,32.2-74.1,72.6-75.9
			C102.7,18.8,114.1,22.2,124.1,27.8z"/>
		<path fill="#231F20" d="M110.2,19.9c4.9,2.1,9.6,4.8,13.9,7.9c-10-5.6-21.4-9-33.6-9.5c1.1-0.1,2.3-0.1,3.4-0.1
			C99.6,18.2,105,18.8,110.2,19.9z"/>
		<path fill="#FFFFFF" d="M96.6,158.9v5.5h-1.7v-5.1C95.5,159.1,96.1,159,96.6,158.9z"/>
		<path fill="#231F20" d="M96.6,155.8v3.1c-0.6,0.1-1.2,0.2-1.7,0.4v-3.4H96.6z"/>
		<path fill="#231F20" d="M94,166c15.5,0,29.8-4.9,41.6-13.2c-12.3,10.2-27.9,16.6-45,17.4c-19.6-0.9-37.3-9.2-50.3-22.2
			c5.9,4,12.4,7.2,19.4,9.3C69.9,162.8,81.6,166,94,166z"/>
		<rect x="91.3" y="24.1" fill="#231F20" width="1.7" height="8.6"/>
		<path fill="#FFFFFF" d="M87.1,18.2c1.2,0,2.3,0,3.5,0.1C50.2,20.1,18,53.4,18,94.2c0,21,8.5,40,22.3,53.7
			c-10.8-7.3-19.5-17.4-25.1-29.2c-2.6-7.7-4-15.9-4-24.5C11.1,52.2,45.1,18.2,87.1,18.2z"/>
		<path fill="#FFFFFF" d="M90.6,170.1c-1.1,0.1-2.3,0.1-3.5,0.1c-33.4,0-61.8-21.5-72-51.5c5.6,11.8,14.3,21.9,25.1,29.2l0,0
			C53.3,160.9,70.9,169.2,90.6,170.1z"/>
		
			<rect x="58.3" y="151.3" transform="matrix(0.4999 -0.8661 0.8661 0.4999 -100.4827 130.2855)" fill="#231F20" width="8.6" height="1.7"/>
		<polygon fill="#231F20" points="58,34 62.3,41.4 60.8,42.2 56.5,34.8 		"/>
		
			<rect x="36.9" y="124.4" transform="matrix(-0.4994 -0.8664 0.8664 -0.4994 -54.7943 225.6936)" fill="#231F20" width="1.7" height="8.6"/>
		<polygon fill="#231F20" points="40.2,64.2 39.3,65.7 31.9,61.4 32.8,59.9 		"/>
		<rect x="23.8" y="95.1" fill="#231F20" width="8.6" height="1.7"/>
	</g>
	<g>
		<path fill="none" stroke="#FFFFFF" stroke-miterlimit="10" d="M90.6,170.1c-1.1,0.1-2.3,0.1-3.5,0.1c-33.4,0-61.8-21.5-72-51.5
			c-2.6-7.7-4-15.9-4-24.5c0-42,34-76,76-76c1.2,0,2.3,0,3.5,0.1"/>
		<path fill="none" stroke="#FFFFFF" stroke-miterlimit="10" d="M40.3,147.9C26.5,134.2,18,115.2,18,94.2
			c0-40.8,32.2-74.1,72.6-75.9c1.1-0.1,2.3-0.1,3.4-0.1c5.6,0,11,0.6,16.2,1.7c34.2,7.4,59.8,37.9,59.8,74.3c0,42-34,76-76,76
			c-1.2,0-2.3,0-3.4-0.1C70.9,169.2,53.3,160.9,40.3,147.9"/>
		<path fill="none" stroke="#FFFFFF" stroke-miterlimit="10" d="M135.6,152.7C123.8,161.1,109.5,166,94,166
			c-12.4,0-24.1-3.2-34.3-8.7c-22.3-12.2-37.4-35.9-37.4-63.1c0-39.7,32.1-71.8,71.8-71.8c12.5,0,24.3,3.2,34.5,8.8
			c2.4,1.3,4.8,2.8,7.1,4.4"/>
		<path fill="none" stroke="#FFFFFF" stroke-miterlimit="10" d="M135.6,35.7c18.3,13,30.2,34.4,30.2,58.5
			c0,24.1-11.9,45.5-30.2,58.5"/>
	</g>
</g>
</svg>
