<?xml version="1.0" encoding="utf-8"?>
<!-- Generator: Adobe Illustrator 17.1.0, SVG Export Plug-In . SVG Version: 6.00 Build 0)  -->
<!DOCTYPE svg PUBLIC "-//W3C//DTD SVG 1.1 Tiny//EN" "http://www.w3.org/Graphics/SVG/1.1/DTD/svg11-tiny.dtd">
<svg version="1.1" baseProfile="tiny" id="圖層_1"
	 xmlns="http://www.w3.org/2000/svg" xmlns:xlink="http://www.w3.org/1999/xlink" x="0px" y="0px" viewBox="0 0 120 80"
	 xml:space="preserve">
<g>
	<g id="XMLID_11_">
		<g>
			<polygon fill="#FFFFFF" points="104.3,12.6 103.3,15.6 99.7,17.7 101.6,12.1 100.8,11.5 102,10.8 			"/>
			<polygon fill="#FFFFFF" points="103.3,15.6 99.7,26.3 95.3,28.9 93.6,27.7 97,25.7 99.7,17.7 			"/>
			<polygon fill="#FFFFFF" points="99.6,9 102,10.8 100.8,11.5 98.5,9.6 			"/>
			<path fill="#FFFFFF" d="M101.6,12.1l-1.9,5.6l-12,7.2l0,0l0,0L58.4,42.6c-0.3-1.6-0.8-3.2-1.5-4.7l43.9-26.4L101.6,12.1z"/>
			<path d="M100.8,11.5L56.9,37.9c-0.4-0.9-0.8-1.7-1.3-2.5L98.5,9.6L100.8,11.5z"/>
			<polygon fill="#FFFFFF" points="99.7,17.7 97,25.7 93.6,27.7 90.4,25.5 90,26.5 87.7,24.9 			"/>
			<polygon fill="#FFFFFF" points="97.5,7.3 99.6,9 98.5,9.6 96.4,8 			"/>
			<path fill="#FFFFFF" d="M96.4,8l2.1,1.6L55.6,35.4c-0.4-0.7-0.9-1.4-1.4-2L96.4,8z"/>
			<polygon points="97.5,7.3 96.4,8 94.8,6.8 			"/>
			<path d="M96.4,8L54.2,33.4c-0.4-0.5-0.8-1-1.2-1.4L94.8,6.8L96.4,8z"/>
			<polygon points="95.3,28.9 92.6,28.4 93.6,27.7 			"/>
			<polygon points="93.6,27.7 92.6,28.4 90,26.5 90.4,25.5 			"/>
			<polygon fill="#FFFFFF" points="90,26.5 86.9,34 83.3,36.1 81.9,34.8 84.2,33.4 87.7,24.9 87.7,24.9 			"/>
			<polygon fill="#FFFFFF" points="87.7,24.9 87.7,24.9 87.7,24.9 			"/>
			<path fill="#FFFFFF" d="M87.7,24.9l-3.5,8.5l-2.3,1.4l-2.3-2.1L79,34l-2.1-1.9l-3.3,7.7L71,41.4l-1.4-1.1L69,41.4l-2.1-1.7
				l-2.5,5.6l-5.5,3.3c0.1-2.1-0.1-4.1-0.5-6.1L87.7,24.9z"/>
			<polygon points="83.3,36.1 80.7,35.6 81.9,34.8 			"/>
			<polygon points="79.6,32.7 81.9,34.8 80.7,35.6 79,34 			"/>
			<polygon fill="#FFFFFF" points="79,34 76.2,40.3 72.5,42.6 71,41.4 73.6,39.8 76.9,32.1 			"/>
			<polygon points="72.5,42.6 69.8,42.1 71,41.4 			"/>
			<polygon points="69.6,40.3 71,41.4 69.8,42.1 69,41.4 			"/>
			<path fill="#FFFFFF" d="M66.9,39.7l2.1,1.7l-2,4.4l-8.3,5c0.1-0.8,0.1-1.5,0.2-2.2l5.5-3.3L66.9,39.7z"/>
			<path fill="#FFFFFF" d="M58.4,42.6c0.4,1.9,0.6,4,0.5,6.1l-2.6,1.5c0.6-4,0.3-7.9-0.9-11.4l1.4-0.9
				C57.6,39.4,58.1,40.9,58.4,42.6z"/>
			<path fill="#FFFFFF" d="M56.3,50.2l2.6-1.5c0,0.7-0.1,1.5-0.2,2.2l-2.9,1.7C56.1,51.8,56.2,51,56.3,50.2z"/>
			<path fill="#FFFFFF" d="M55.9,52.6l2.9-1.7c-0.2,1.7-0.6,3.4-1.1,5.1c-4,12.4-15.9,19.7-26.5,16.3c-1.9-0.6-3.6-1.5-5.1-2.6
				c0.9,0.5,1.8,0.8,2.8,1.2c10.7,3.4,22.5-3.9,26.5-16.3C55.5,53.9,55.7,53.2,55.9,52.6z"/>
			<path fill="#FFFFFF" d="M56.9,37.9l-1.4,0.9c-0.3-0.9-0.6-1.8-1-2.7l1.2-0.7C56.1,36.2,56.5,37,56.9,37.9z"/>
			<path fill="#FFFFFF" d="M55.5,38.7c1.1,3.5,1.5,7.4,0.9,11.4l-6.2,3.7l-1.9-16.9l5-3c0.4,0.7,0.8,1.4,1.2,2.2
				C54.8,36.9,55.2,37.8,55.5,38.7z"/>
			<path fill="#FFFFFF" d="M50.2,53.9l6.2-3.7c-0.1,0.8-0.3,1.6-0.5,2.4l-5.5,3.3L50.2,53.9z"/>
			<path fill="#FFFFFF" d="M50.4,55.9l5.5-3.3c-0.2,0.7-0.3,1.3-0.5,2c-4,12.4-15.9,19.7-26.5,16.3c-1-0.3-1.9-0.7-2.8-1.2
				c-7.2-5.3-10.3-15.8-7-26.1c4-12.4,15.9-19.7,26.5-16.3c1,0.3,1.9,0.7,2.8,1.2c1.5,1.1,2.8,2.4,4,4l-6.7,4l2.2,18.9l2.4-1.5
				L50.4,55.9z"/>
			<path fill="#FFFFFF" d="M55.6,35.4l-1.2,0.7c-0.3-0.8-0.7-1.5-1.2-2.2l0.9-0.5C54.7,34,55.2,34.7,55.6,35.4z"/>
			<path fill="#FFFFFF" d="M54.2,33.4l-0.9,0.5c-0.3-0.5-0.7-1-1-1.5l0.7-0.4C53.4,32.4,53.8,32.9,54.2,33.4z"/>
			<path fill="#FFFFFF" d="M53.3,33.9l-5,3l1.9,16.9l-2.4,1.5l-2.2-18.9l6.7-4C52.6,32.9,52.9,33.4,53.3,33.9z"/>
			<path fill="#FFFFFF" d="M52.9,32l-0.7,0.4c-1.1-1.5-2.5-2.9-4-4C50,29.3,51.6,30.5,52.9,32z"/>
			<path fill="#FFFFFF" d="M48.3,28.4c-0.9-0.5-1.8-0.8-2.8-1.2C34.8,23.9,23,31.2,19,43.6c-3.3,10.3-0.2,20.8,7,26.1
				c-8.8-4.6-13-16.2-9.3-27.5c4-12.4,15.9-19.7,26.5-16.3C45.1,26.4,46.7,27.3,48.3,28.4z"/>
		</g>
		<g>
			<line fill="none" stroke="#231F20" stroke-miterlimit="10" x1="69.8" y1="42.1" x2="69" y2="41.4"/>
			<line fill="none" stroke="#231F20" stroke-miterlimit="10" x1="80.7" y1="35.6" x2="79" y2="34"/>
			<line fill="none" stroke="#231F20" stroke-miterlimit="10" x1="92.6" y1="28.4" x2="90" y2="26.5"/>
			<line fill="none" stroke="#231F20" stroke-miterlimit="10" x1="52.9" y1="32" x2="94.8" y2="6.8"/>
			<polyline fill="none" stroke="#231F20" stroke-miterlimit="10" points="54.2,33.4 96.4,8 97.5,7.3 99.6,9 102,10.8 104.3,12.6 
				103.3,15.6 99.7,26.3 95.3,28.9 93.6,27.7 90.4,25.5 90,26.5 86.9,34 83.3,36.1 81.9,34.8 79.6,32.7 79,34 76.2,40.3 72.5,42.6 
				71,41.4 69.6,40.3 69,41.4 67.1,45.9 58.7,50.9 			"/>
			<path fill="none" stroke="#231F20" stroke-miterlimit="10" d="M26,69.7c-8.8-4.6-13-16.2-9.3-27.5c4-12.4,15.9-19.7,26.5-16.3
				c1.9,0.6,3.6,1.5,5.1,2.6"/>
			<path fill="none" stroke="#231F20" stroke-miterlimit="10" d="M58.7,50.9c-0.2,1.7-0.6,3.4-1.1,5.1c-4,12.4-15.9,19.7-26.5,16.3
				c-1.9-0.6-3.6-1.5-5.1-2.6c-7.2-5.3-10.3-15.8-7-26.1c4-12.4,15.9-19.7,26.5-16.3c1,0.3,1.9,0.7,2.8,1.2c1.8,0.9,3.3,2.1,4.7,3.5
				c0.4,0.4,0.8,0.9,1.2,1.4c0.5,0.6,1,1.3,1.4,2c0.5,0.8,0.9,1.6,1.3,2.5c0.7,1.5,1.2,3,1.5,4.7c0.4,1.9,0.6,4,0.5,6.1
				C58.9,49.4,58.8,50.1,58.7,50.9z"/>
			<line fill="none" stroke="#231F20" stroke-miterlimit="10" x1="92.6" y1="28.4" x2="95.3" y2="28.9"/>
			<line fill="none" stroke="#231F20" stroke-miterlimit="10" x1="80.7" y1="35.6" x2="83.3" y2="36.1"/>
			<line fill="none" stroke="#231F20" stroke-miterlimit="10" x1="69.8" y1="42.1" x2="72.5" y2="42.6"/>
			<line fill="none" stroke="#231F20" stroke-miterlimit="10" x1="94.8" y1="6.8" x2="97.5" y2="7.3"/>
			<polyline fill="none" stroke="#231F20" stroke-miterlimit="10" points="58.4,42.6 87.7,24.9 87.7,24.9 99.7,17.7 103.3,15.6 			
				"/>
		</g>
	</g>
	<g id="XMLID_10_">
		<g>
			<path d="M33.8,34.2L44,66.4c-3.3,1.6-6.9,2-10.4,0.9c-0.9-0.3-1.7-0.7-2.5-1.1c3.3,0.9,6.7,0.5,9.8-1l-9.3-29.5
				C32.3,35.1,33.1,34.6,33.8,34.2z"/>
		</g>
		<g>
			<path fill="none" stroke="#231F20" stroke-linecap="round" stroke-linejoin="round" d="M31.1,66.1c0.8,0.5,1.6,0.8,2.5,1.1
				c3.5,1.1,7.1,0.7,10.4-0.9L33.8,34.2c-0.8,0.4-1.5,0.8-2.3,1.4c-3.2,2.3-5.8,5.7-7.1,10C21.8,53.9,24.7,62.5,31.1,66.1z"/>
			<path fill="none" stroke="#231F20" stroke-linecap="round" stroke-linejoin="round" d="M31.1,66.1c3.3,0.9,6.7,0.5,9.8-1
				l-9.3-29.5"/>
		</g>
	</g>
	<path fill="none" stroke="#231F20" stroke-linecap="round" stroke-linejoin="round" d="M42.2,29.3c-8.9-1.5-18.1,4.8-21.4,15
		c-3.5,11,1.3,22.4,10.8,25.5c7.6,2.4,16-1.3,20.8-8.6L42.2,29.3z"/>
</g>
</svg>
