<?xml version="1.0" encoding="utf-8"?>
<!-- Generator: Adobe Illustrator 17.1.0, SVG Export Plug-In . SVG Version: 6.00 Build 0)  -->
<!DOCTYPE svg PUBLIC "-//W3C//DTD SVG 1.1 Tiny//EN" "http://www.w3.org/Graphics/SVG/1.1/DTD/svg11-tiny.dtd">
<svg version="1.1" baseProfile="tiny" id="圖層_1"
	 xmlns="http://www.w3.org/2000/svg" xmlns:xlink="http://www.w3.org/1999/xlink" x="0px" y="0px" viewBox="0 0 180 140"
	 xml:space="preserve">
<g id="XMLID_9_">
	<g>
		<path fill="#FFFFFF" d="M147.2,32.9c1.8,1.2,3.2,2.4,4,3.5c2.9,4.1,2.3,11.2-4.1,16.1c-5.4,4.1-10.4,7.9-11.9,9.1
			c-0.6-0.4-1.4-0.8-2.3-1.3c-11.6-6.3-42.6-22.2-51.5-26.7l23.9-12.1c0,0,14.3-6.5,33.1-3.6c18.8,2.9,28,12.6,30.9,17.6
			c2.8,5,3.5,20.1-5.4,26.9c-8.9,6.8-17.3,13.1-17.3,13.1v-5.1c0,0-3.9-3.3-7.2-5.9c0.6-0.5,6.3-4.7,12.3-9.3
			c6.4-4.9,7-12.1,4.1-16.1C154.4,37.1,151.1,34.8,147.2,32.9z"/>
		<path fill="#231F20" d="M146.6,75.4v11l-60.5,40.3L85,108.5c4.2-4,61.6-38.2,61.6-38.2V75.4z"/>
		<path fill="#231F20" d="M135.2,61.5c0.9,0.5,1.6,0.9,1.9,1.1c0.7,0.5,1.5,1.1,2.3,1.7c3.4,2.7,7.2,5.9,7.2,5.9
			S89.2,104.5,85,108.5c0,0-3.8-3.2-11.2-9.7c-0.4-0.4-0.9-0.8-1.4-1.2c4.1-3.9,58.4-36,60.6-37.3C133.8,60.7,134.6,61.2,135.2,61.5
			z"/>
		<path fill="#FFFFFF" d="M81.4,33.5c8.9,4.6,39.9,20.4,51.5,26.7c-2.2,1.3-56.5,33.4-60.6,37.3C59.4,86.7,20.9,64.3,16.2,62.1
			c-4.9-2.3-8.8-3.4-8.8-3.4l60.5-30.6c0,0,7,2.1,11.4,4.4C79.7,32.6,80.4,33,81.4,33.5z"/>
		<path fill="#231F20" d="M85,108.5l1.1,18.3c0,0-4.9-2.2-11.6-5.5l-2.1-23.7c0.5,0.4,1,0.8,1.4,1.2C81.2,105.2,85,108.5,85,108.5z"
			/>
		<path fill="#FFFFFF" d="M72.4,97.6l2.1,23.7c-9.9-4.8-23.8-11.9-31.9-17.7c-13.7-9.7-32.7-27-32.7-27L7.4,58.7
			c0,0,3.8,1.1,8.8,3.4C20.9,64.3,59.4,86.7,72.4,97.6z M52.1,104c4.1-2.4,4.4-9.7,0.5-16.3c-3.9-6.6-10.3-10-14.5-7.6
			c-4.1,2.4-4.4,9.7-0.5,16.3C41.5,103,48,106.4,52.1,104z"/>
		<path fill="#FFFFFF" d="M52.6,87.7c3.8,6.6,3.6,13.9-0.5,16.3c-4.1,2.4-10.6-1-14.5-7.6C33.8,89.7,34,82.4,38.2,80
			C42.3,77.6,48.8,81,52.6,87.7z M51.1,101.9c3.5-2,3.7-8.3,0.4-13.9c-3.3-5.6-8.8-8.5-12.3-6.5c-3.5,2-3.7,8.3-0.4,13.9
			C42.1,101.1,47.6,104,51.1,101.9z"/>
		<path fill="#231F20" d="M51.5,88.1c3.3,5.6,3.1,11.8-0.4,13.9c-3.5,2-9-0.9-12.3-6.5c-3.3-5.6-3.1-11.8,0.4-13.9
			C42.8,79.5,48.3,82.4,51.5,88.1z M50.7,97.9c2.1-1.2,2.2-5,0.3-8.3c-2-3.4-5.3-5.1-7.4-3.9c-2.1,1.2-2.2,4.9-0.3,8.3
			C45.3,97.4,48.6,99.1,50.7,97.9z"/>
		<path fill="#FFFFFF" d="M51,89.5c2,3.4,1.8,7.1-0.3,8.3c-2.1,1.2-5.4-0.5-7.4-3.9c-2-3.4-1.8-7.1,0.3-8.3
			C45.7,84.4,49,86.2,51,89.5z"/>
	</g>
	<g>
		<path fill="none" stroke="#231F20" stroke-miterlimit="10" d="M7.4,58.7l60.5-30.6c0,0,7,2.1,11.4,4.4c0.4,0.2,1.1,0.6,2.1,1.1
			c8.9,4.6,39.9,20.4,51.5,26.7c0.9,0.5,1.7,0.9,2.3,1.3c0.9,0.5,1.6,0.9,1.9,1.1c0.7,0.5,1.5,1.1,2.3,1.7c3.4,2.7,7.2,5.9,7.2,5.9
			v5.1v11l-60.5,40.3c0,0-4.9-2.2-11.6-5.5c-9.9-4.8-23.8-11.9-31.9-17.7c-13.7-9.7-32.7-27-32.7-27L7.4,58.7z"/>
		<path fill="none" stroke="#FFFFFF" stroke-miterlimit="10" d="M72.4,97.6c0.5,0.4,1,0.8,1.4,1.2c7.4,6.5,11.2,9.7,11.2,9.7
			l1.1,18.3"/>
		<path fill="none" stroke="#231F20" stroke-miterlimit="10" d="M7.4,58.7c0,0,3.8,1.1,8.8,3.4c4.8,2.2,43.3,24.6,56.2,35.5"/>
		<path fill="none" stroke="#FFFFFF" stroke-miterlimit="10" d="M146.6,70.3c0,0-57.4,34.2-61.6,38.2"/>
		<path fill="none" stroke="#231F20" stroke-miterlimit="10" d="M81.4,33.5l23.9-12.1c0,0,14.3-6.5,33.1-3.6
			c18.8,2.9,28,12.6,30.9,17.6c2.8,5,3.5,20.1-5.4,26.9c-8.9,6.8-17.3,13.1-17.3,13.1"/>
		<path fill="none" stroke="#231F20" stroke-miterlimit="10" d="M95.6,40.3l17.1-8.7c0,0,10.3-5,23.7-2.6c3.4,0.6,7.4,2.1,10.9,3.8
			c3.9,1.9,7.2,4.2,8.5,6c2.9,4.1,2.3,11.2-4.1,16.1c-6,4.6-11.7,8.9-12.3,9.3c0,0-0.1,0-0.1,0"/>
		<path fill="none" stroke="#231F20" stroke-miterlimit="10" d="M52.6,87.7c3.8,6.6,3.6,13.9-0.5,16.3c-4.1,2.4-10.6-1-14.5-7.6
			C33.8,89.7,34,82.4,38.2,80C42.3,77.6,48.8,81,52.6,87.7z"/>
	</g>
</g>
</svg>
