<?xml version="1.0" encoding="utf-8"?>
<!-- Generator: Adobe Illustrator 17.1.0, SVG Export Plug-In . SVG Version: 6.00 Build 0)  -->
<!DOCTYPE svg PUBLIC "-//W3C//DTD SVG 1.1 Tiny//EN" "http://www.w3.org/Graphics/SVG/1.1/DTD/svg11-tiny.dtd">
<svg version="1.1" baseProfile="tiny" id="圖層_1"
	 xmlns="http://www.w3.org/2000/svg" xmlns:xlink="http://www.w3.org/1999/xlink" x="0px" y="0px" viewBox="0 0 140 80"
	 xml:space="preserve">
<g id="XMLID_20_">
	<g>
		<path fill="#DB4441" d="M24.8,54.5C25.4,63,27,68.2,29,68.3l81.6-19.8c0.7-0.2,1.5-0.3,2.4-0.2c-0.4-0.3-0.6-1.8-0.7-3.7
			L24.8,54.5z"/>
		<path fill="#FFFFFF" d="M115.2,44.8c0-0.5,0-1.1,0-1.7c0.1-2.8,0.5-5.1,1-5.4c-0.8,0.1-1.9,0.2-2.9,0.1c-0.5,0.4-0.9,2.6-1,5.2
			c0,0.5,0,1.1,0,1.6c0,2,0.3,3.5,0.7,3.7c1,0,2,0.1,2.9,0.3C115.5,48.2,115.3,46.7,115.2,44.8z"/>
		<path fill="#DB4441" d="M115.2,44.8c0,2,0.3,3.4,0.6,3.8c0.2,0,0.3,0.1,0.4,0.1l14.4,4.2c-0.7-0.4-1.1-3.1-1.2-6.6L115.2,44.8z"/>
		<path fill="#FFFFFF" d="M115.2,44.8l14.3,1.5c0-0.8,0-1.7,0-2.7c0.2-4.9,1-8.9,1.9-9.2l-14.7,3.2c-0.1,0-0.3,0.1-0.4,0.1
			c-0.5,0.3-0.9,2.6-1,5.4C115.2,43.7,115.2,44.3,115.2,44.8z"/>
		<path fill="#DB4441" d="M129.5,46.3c0.1,3.5,0.5,6.2,1.2,6.6l0,0l0.1,0c0.7,0,1.5-2.6,1.8-6.4L129.5,46.3z"/>
		<path fill="#DB4441" d="M129.5,46.3l3.2,0.3c0.1-0.9,0.2-1.9,0.2-2.9c0.2-5.1-0.4-9.3-1.3-9.4l-0.1,0c-0.9,0.3-1.7,4.3-1.9,9.2
			C129.5,44.5,129.5,45.4,129.5,46.3z"/>
	</g>
	<g>
		<path fill="none" stroke="#DB4441" stroke-width="2" stroke-miterlimit="10" d="M31,11.9c-3-0.1-5.8,11.2-6.4,28
			c-0.2,5.5-0.1,10.5,0.2,14.7C25.4,63,27,68.2,29,68.3"/>
		<path fill="none" stroke="#DB4441" stroke-width="2" stroke-miterlimit="10" d="M130.7,52.9c0.1,0,0.1,0,0.1,0
			c0.7,0,1.5-2.6,1.8-6.4c0.1-0.9,0.2-1.9,0.2-2.9c0.2-5.1-0.4-9.3-1.3-9.4"/>
		<path fill="none" stroke="#DB4441" stroke-width="2" stroke-miterlimit="10" d="M131.4,34.4c-0.9,0.3-1.7,4.3-1.9,9.2
			c0,0.9,0,1.8,0,2.7c0.1,3.5,0.5,6.2,1.2,6.6"/>
		<path fill="none" stroke="#DB4441" stroke-width="2" stroke-miterlimit="10" d="M116.4,37.6c0,0-0.1,0-0.1,0
			c-0.5,0.3-0.9,2.6-1,5.4c0,0.6,0,1.2,0,1.7c0,2,0.3,3.4,0.6,3.8c0,0.1,0.1,0.1,0.1,0.1"/>
		<path fill="none" stroke="#DB4441" stroke-width="2" stroke-miterlimit="10" d="M113.5,37.7c0,0-0.1,0-0.1,0.1
			c-0.5,0.4-0.9,2.6-1,5.2c0,0.5,0,1.1,0,1.6c0,2,0.3,3.5,0.7,3.7c0,0,0.1,0,0.1,0.1"/>
		<path fill="none" stroke="#DB4441" stroke-width="2" stroke-miterlimit="10" d="M130.9,52.9l-0.1,0l0,0l-14.4-4.2
			c-0.1,0-0.3-0.1-0.4-0.1c-0.8-0.2-1.9-0.3-2.9-0.3c-0.9,0-1.7,0.1-2.4,0.2L29,68.3"/>
		<path fill="none" stroke="#DB4441" stroke-width="2" stroke-miterlimit="10" d="M31,11.9l80,25.5c0.7,0.2,1.5,0.3,2.4,0.4
			c1,0.1,2.1,0.1,2.9-0.1c0.1,0,0.3,0,0.4-0.1l14.7-3.2l0.1,0"/>
	</g>
</g>
</svg>
