<?xml version="1.0" encoding="utf-8"?>
<!-- Generator: Adobe Illustrator 17.1.0, SVG Export Plug-In . SVG Version: 6.00 Build 0)  -->
<!DOCTYPE svg PUBLIC "-//W3C//DTD SVG 1.1 Tiny//EN" "http://www.w3.org/Graphics/SVG/1.1/DTD/svg11-tiny.dtd">
<svg version="1.1" baseProfile="tiny" id="圖層_1"
	 xmlns="http://www.w3.org/2000/svg" xmlns:xlink="http://www.w3.org/1999/xlink" x="0px" y="0px" viewBox="0 0 100 80"
	 xml:space="preserve">
<g>
	<g>
		<g id="XMLID_5_">
			<g>
				<polygon points="89.7,8.4 92.1,10.3 91,11 88.6,9.1 				"/>
				<polygon points="89.9,17.2 91.8,11.6 91,11 92.1,10.3 94.4,12.1 93.4,15.1 				"/>
				<polygon points="87.7,6.8 89.7,8.4 88.6,9.1 86.5,7.5 				"/>
				<polygon fill="#FFFFFF" points="87.7,6.8 86.5,7.5 85,6.3 				"/>
				<path fill="#FFFFFF" d="M91,11L47,37.4c-0.4-0.9-0.8-1.7-1.3-2.5L88.6,9.1L91,11z"/>
				<polygon points="85.4,28.4 83.8,27.2 87.2,25.2 89.9,17.2 93.4,15.1 89.8,25.7 				"/>
				<polygon fill="#FFFFFF" points="83.8,27.2 85.4,28.4 82.8,27.9 				"/>
				<polygon points="87.2,25.2 83.8,27.2 80.5,24.9 80.1,26 77.9,24.4 89.9,17.2 				"/>
				<path d="M88.6,9.1L45.7,34.9c-0.4-0.7-0.9-1.4-1.4-2L86.5,7.5L88.6,9.1z"/>
				<polygon fill="#FFFFFF" points="82.8,27.9 80.1,26 80.5,24.9 83.8,27.2 				"/>
				<path fill="#FFFFFF" d="M43.1,31.4L85,6.3l1.5,1.2L44.3,32.8C43.9,32.3,43.5,31.9,43.1,31.4z"/>
				<polygon points="77.9,24.4 77.9,24.4 77.9,24.4 				"/>
				<polygon points="80.1,26 77,33.4 73.5,35.6 72.1,34.3 74.3,32.9 77.9,24.4 77.9,24.4 77.9,24.4 				"/>
				<path d="M89.9,17.2l-12,7.2l0,0l0,0v0L48.5,42c-0.3-1.6-0.8-3.2-1.5-4.7L91,11l0.8,0.6L89.9,17.2z"/>
				<polygon fill="#FFFFFF" points="72.1,34.3 73.5,35.6 70.8,35 				"/>
				<polygon fill="#FFFFFF" points="70.8,35 69.1,33.5 69.7,32.1 72.1,34.3 				"/>
				<polygon points="61.1,40.9 63.7,39.3 67.1,31.6 69.1,33.5 66.4,39.8 62.6,42.1 				"/>
				<polygon fill="#FFFFFF" points="62.6,42.1 60,41.5 61.1,40.9 				"/>
				<polygon fill="#FFFFFF" points="59.7,39.8 61.1,40.9 60,41.5 59.2,40.9 				"/>
				<path d="M48.5,42l29.3-17.6l-3.5,8.5l-2.3,1.4l-2.3-2.1l-0.6,1.4l-2.1-1.9l-3.3,7.7l-2.6,1.6l-1.4-1.1l-0.5,1.2l-2.1-1.7
					l-2.5,5.6l-5.5,3.3C49.1,46,49,44,48.5,42z"/>
				<path d="M48.9,50.3c0.1-0.8,0.1-1.5,0.2-2.2l5.5-3.3l2.5-5.6l2.1,1.7l-2,4.4L48.9,50.3z"/>
				<path d="M48.5,42c0.4,1.9,0.6,4,0.5,6.1l-2.6,1.5c0.6-4,0.3-7.9-0.9-11.4l1.4-0.9C47.7,38.8,48.2,40.4,48.5,42z"/>
				<path d="M48.9,50.3L46,52.1c0.2-0.8,0.4-1.6,0.5-2.4v0l2.6-1.5C49,48.8,49,49.6,48.9,50.3z"/>
				<path d="M44.6,35.6c-0.3-0.8-0.7-1.5-1.2-2.2l0.9-0.5c0.5,0.6,1,1.3,1.4,2L44.6,35.6z"/>
				<path d="M45.6,38.2c-0.3-0.9-0.6-1.8-1-2.7l1.2-0.7c0.5,0.8,0.9,1.6,1.3,2.5L45.6,38.2z"/>
				<path d="M43.4,33.4c-0.3-0.5-0.7-1-1-1.5l0.7-0.4c0.4,0.4,0.8,0.9,1.2,1.4L43.4,33.4z"/>
				<path d="M42.4,31.9c-1.1-1.5-2.5-2.9-4-4c1.8,0.9,3.3,2.1,4.7,3.5L42.4,31.9z"/>
				<path d="M40.5,55.4l-0.2-2l6.2-3.7c-0.1,0.8-0.3,1.6-0.5,2.4L40.5,55.4z"/>
				<path d="M45.6,38.2c1.1,3.5,1.5,7.4,0.9,11.4v0l-6.2,3.7l-1.9-16.9l5-3c0.4,0.7,0.8,1.4,1.2,2.2C45,36.4,45.3,37.3,45.6,38.2z"
					/>
				<path d="M9.1,43.1c4-12.4,15.9-19.7,26.5-16.3c1,0.3,1.9,0.7,2.8,1.2c1.5,1.1,2.8,2.4,4,4l-6.7,4l2.2,18.9l2.4-1.5l0.2,2
					l5.5-3.3c-0.2,0.7-0.3,1.3-0.5,2c-4,12.4-15.9,19.7-26.5,16.3c-1-0.3-1.9-0.7-2.8-1.2C9,63.9,5.8,53.3,9.1,43.1z"/>
				<path d="M37.9,54.8l-2.2-18.9l6.7-4c0.4,0.5,0.7,1,1,1.5l-5,3l1.9,16.9L37.9,54.8z"/>
				<path d="M18.9,70.3c10.7,3.4,22.5-3.9,26.5-16.3c0.2-0.7,0.4-1.3,0.5-2l2.9-1.7c-0.2,1.7-0.6,3.4-1.1,5.1
					c-4,12.4-15.9,19.7-26.5,16.3c-1.9-0.6-3.6-1.5-5.1-2.6C17,69.7,18,70,18.9,70.3z"/>
				<path fill="#FFFFFF" d="M35.6,26.8C25,23.3,13.1,30.6,9.1,43.1c-3.3,10.3-0.2,20.8,7,26.1C7.4,64.6,3.2,53,6.8,41.6
					c4-12.4,15.9-19.7,26.5-16.3c1.9,0.6,3.6,1.5,5.1,2.6C37.5,27.4,36.6,27.1,35.6,26.8z"/>
			</g>
			<g>
				<line fill="none" stroke="#FFFFFF" stroke-miterlimit="10" x1="60" y1="41.5" x2="59.2" y2="40.9"/>
				<line fill="none" stroke="#FFFFFF" stroke-miterlimit="10" x1="70.8" y1="35" x2="69.1" y2="33.5"/>
				<line fill="none" stroke="#FFFFFF" stroke-miterlimit="10" x1="82.8" y1="27.9" x2="80.1" y2="26"/>
				<line fill="none" stroke="#FFFFFF" stroke-miterlimit="10" x1="43.1" y1="31.4" x2="85" y2="6.3"/>
				<polyline fill="none" stroke="#FFFFFF" stroke-miterlimit="10" points="44.3,32.8 86.5,7.5 87.7,6.8 89.7,8.4 92.1,10.3 
					94.4,12.1 93.4,15.1 89.8,25.7 85.4,28.4 83.8,27.2 80.5,24.9 80.1,26 77,33.4 73.5,35.6 72.1,34.3 69.7,32.1 69.1,33.5 
					66.4,39.8 62.6,42.1 61.1,40.9 59.7,39.8 59.2,40.9 57.2,45.3 48.9,50.3 				"/>
				<path fill="none" stroke="#FFFFFF" stroke-miterlimit="10" d="M16.2,69.2C7.4,64.6,3.2,53,6.8,41.6c4-12.4,15.9-19.7,26.5-16.3
					c1.9,0.6,3.6,1.5,5.1,2.6"/>
				<path fill="none" stroke="#FFFFFF" stroke-miterlimit="10" d="M48.9,50.3c-0.2,1.7-0.6,3.4-1.1,5.1c-4,12.4-15.9,19.7-26.5,16.3
					c-1.9-0.6-3.6-1.5-5.1-2.6C9,63.9,5.8,53.3,9.1,43.1c4-12.4,15.9-19.7,26.5-16.3c1,0.3,1.9,0.7,2.8,1.2c1.8,0.9,3.3,2.1,4.7,3.5
					c0.4,0.4,0.8,0.9,1.2,1.4c0.5,0.6,1,1.3,1.4,2c0.5,0.8,0.9,1.6,1.3,2.5c0.7,1.5,1.2,3,1.5,4.7c0.4,1.9,0.6,4,0.5,6.1
					C49,48.8,49,49.6,48.9,50.3z"/>
				<line fill="none" stroke="#FFFFFF" stroke-miterlimit="10" x1="82.8" y1="27.9" x2="85.4" y2="28.4"/>
				<line fill="none" stroke="#FFFFFF" stroke-miterlimit="10" x1="70.8" y1="35" x2="73.5" y2="35.6"/>
				<line fill="none" stroke="#FFFFFF" stroke-miterlimit="10" x1="60" y1="41.5" x2="62.6" y2="42.1"/>
				<line fill="none" stroke="#FFFFFF" stroke-miterlimit="10" x1="85" y1="6.3" x2="87.7" y2="6.8"/>
				<polyline fill="none" stroke="#FFFFFF" stroke-miterlimit="10" points="48.5,42 77.9,24.4 77.9,24.4 77.9,24.4 89.9,17.2 
					93.4,15.1 				"/>
			</g>
		</g>
		<g id="XMLID_4_">
			<g>
				<path fill="#FFFFFF" d="M34.2,65.9c-3.3,1.6-6.9,2-10.4,0.9c-0.9-0.3-1.7-0.7-2.5-1.1c3.3,0.9,6.7,0.5,9.8-1l-9.3-29.5
					c0.7-0.5,1.5-1,2.3-1.4L34.2,65.9z"/>
			</g>
			<g>
				<path fill="none" stroke="#FFFFFF" stroke-linecap="round" stroke-linejoin="round" d="M21.2,65.6c0.8,0.5,1.6,0.8,2.5,1.1
					c3.5,1.1,7.1,0.7,10.4-0.9L24,33.7c-0.8,0.4-1.5,0.8-2.3,1.4c-3.2,2.3-5.8,5.7-7.1,10C11.9,53.4,14.9,62,21.2,65.6z"/>
				<path fill="none" stroke="#FFFFFF" stroke-linecap="round" stroke-linejoin="round" d="M21.2,65.6c3.3,0.9,6.7,0.5,9.8-1
					l-9.3-29.5"/>
			</g>
		</g>
		<path fill="none" stroke="#FFFFFF" stroke-linecap="round" stroke-linejoin="round" d="M32.4,28.8c-8.9-1.5-18.1,4.8-21.4,15
			c-3.5,11,1.3,22.4,10.8,25.5c7.6,2.4,16-1.3,20.8-8.6L32.4,28.8z"/>
	</g>
</g>
</svg>
