<?xml version="1.0" encoding="utf-8"?>
<!-- Generator: Adobe Illustrator 17.1.0, SVG Export Plug-In . SVG Version: 6.00 Build 0)  -->
<!DOCTYPE svg PUBLIC "-//W3C//DTD SVG 1.1 Tiny//EN" "http://www.w3.org/Graphics/SVG/1.1/DTD/svg11-tiny.dtd">
<svg version="1.1" baseProfile="tiny" id="圖層_1"
	 xmlns="http://www.w3.org/2000/svg" xmlns:xlink="http://www.w3.org/1999/xlink" x="0px" y="0px" viewBox="0 0 200 140"
	 xml:space="preserve">
<g id="XMLID_1_">
	<g>
		<path d="M149.2,59.5c-0.7-0.4-1.6-0.9-2.5-1.4C134,51.2,100.2,33.9,90.4,29l26.1-13.2c0,0,15.6-7.1,36.1-3.9
			c20.5,3.1,30.6,13.7,33.7,19.2c3.1,5.4,3.9,21.9-5.9,29.4c-9.8,7.5-18.9,14.3-18.9,14.3v-5.6c0,0-4.2-3.6-7.9-6.5
			c0.7-0.5,6.9-5.2,13.4-10.2c7-5.4,7.6-13.2,4.5-17.6c-1.4-2-5-4.5-9.3-6.6c2,1.3,3.5,2.6,4.4,3.8c3.2,4.4,2.5,12.2-4.5,17.6
			C156.4,54.1,150.9,58.3,149.2,59.5z"/>
		<path fill="#FFFFFF" d="M94.4,110.8c4.6-4.4,67.2-41.7,67.2-41.7v5.6v12l-66,44L94.4,110.8z"/>
		<path fill="#FFFFFF" d="M94.4,110.8l1.2,19.9c0,0-5.4-2.4-12.7-6l-2.3-25.9c0.6,0.5,1.1,0.9,1.5,1.4
			C90.2,107.3,94.4,110.8,94.4,110.8z"/>
		<path fill="#FFFFFF" d="M161.6,69.1c0,0-62.7,37.3-67.2,41.7c0,0-4.2-3.5-12.2-10.6c-0.5-0.4-1-0.9-1.5-1.4
			c4.5-4.3,63.7-39.3,66.1-40.7c1,0.5,1.8,1,2.5,1.4c1,0.6,1.7,1,2,1.2c0.7,0.6,1.6,1.2,2.5,1.9C157.4,65.6,161.6,69.1,161.6,69.1z"
			/>
		<path d="M59,88.1c-4.2-7.2-11.3-11-15.8-8.3c-4.5,2.6-4.8,10.6-0.6,17.8c4.2,7.2,11.3,11,15.8,8.3C63,103.3,63.2,95.3,59,88.1z
			 M19.2,60.2c5.2,2.4,47.2,26.9,61.3,38.7l2.3,25.9c-10.8-5.3-25.9-13-34.8-19.3C33.1,94.8,12.4,75.9,12.4,75.9L9.7,56.4
			C9.7,56.4,13.8,57.7,19.2,60.2z"/>
		<path d="M49.2,85.9c2.3-1.3,5.9,0.6,8,4.2c2.1,3.7,2,7.7-0.3,9.1c-2.3,1.3-5.9-0.6-8-4.2C46.8,91.3,46.9,87.2,49.2,85.9z"/>
		<path d="M80.6,98.9C66.5,87,24.4,62.5,19.2,60.2c-5.4-2.5-9.6-3.7-9.6-3.7l66-33.4c0,0,7.7,2.3,12.4,4.8c0.4,0.2,1.2,0.6,2.3,1.2
			c9.7,5,43.6,22.2,56.2,29.2C144.3,59.5,85.1,94.6,80.6,98.9z"/>
		<path d="M43.3,79.7c4.5-2.6,11.6,1.1,15.8,8.3c4.2,7.2,4,15.2-0.6,17.8c-4.5,2.6-11.6-1.1-15.8-8.3C38.5,90.3,38.8,82.4,43.3,79.7
			z M57.4,103.7c3.8-2.2,4-9,0.5-15.2c-3.6-6.1-9.6-9.3-13.4-7.1c-3.8,2.2-4,9-0.5,15.2C47.6,102.7,53.6,105.9,57.4,103.7z"/>
		<path fill="#FFFFFF" d="M57.3,90.1c-2.1-3.7-5.7-5.6-8-4.2c-2.3,1.3-2.4,5.4-0.3,9.1c2.1,3.7,5.7,5.6,8,4.2
			C59.3,97.9,59.4,93.8,57.3,90.1z M57.9,88.5c3.6,6.1,3.4,12.9-0.5,15.2c-3.8,2.2-9.8-0.9-13.4-7.1c-3.6-6.1-3.4-12.9,0.5-15.2
			C48.3,79.2,54.3,82.4,57.9,88.5z"/>
	</g>
	<g>
		<path fill="none" stroke="#FFFFFF" stroke-miterlimit="10" d="M9.7,56.4l66-33.4c0,0,7.7,2.3,12.4,4.8c0.4,0.2,1.2,0.6,2.3,1.2
			c9.7,5,43.6,22.2,56.2,29.2c1,0.5,1.8,1,2.5,1.4c1,0.6,1.7,1,2,1.2c0.7,0.6,1.6,1.2,2.5,1.9c3.7,2.9,7.9,6.5,7.9,6.5v5.6v12
			l-66,44c0,0-5.4-2.4-12.7-6c-10.8-5.3-25.9-13-34.8-19.3C33.1,94.8,12.4,75.9,12.4,75.9L9.7,56.4z"/>
		<path fill="none" stroke="#231F20" stroke-miterlimit="10" d="M80.6,98.9c0.6,0.5,1.1,0.9,1.5,1.4c8.1,7,12.2,10.6,12.2,10.6
			l1.2,19.9"/>
		<path fill="none" stroke="#FFFFFF" stroke-miterlimit="10" d="M9.7,56.4c0,0,4.2,1.2,9.6,3.7c5.2,2.4,47.2,26.9,61.3,38.7"/>
		<path fill="none" stroke="#231F20" stroke-miterlimit="10" d="M161.6,69.1c0,0-62.7,37.3-67.2,41.7"/>
		<path fill="none" stroke="#FFFFFF" stroke-miterlimit="10" d="M90.4,29l26.1-13.2c0,0,15.6-7.1,36.1-3.9
			c20.5,3.1,30.6,13.7,33.7,19.2c3.1,5.4,3.9,21.9-5.9,29.4c-9.8,7.5-18.9,14.3-18.9,14.3"/>
		<path fill="none" stroke="#FFFFFF" stroke-miterlimit="10" d="M105.9,36.4l18.7-9.5c0,0,11.2-5.4,25.8-2.8c3.7,0.7,8,2.3,11.8,4.1
			c4.2,2.1,7.9,4.6,9.3,6.6c3.2,4.4,2.5,12.2-4.5,17.6c-6.6,5-12.8,9.7-13.4,10.2c0,0-0.1,0-0.1,0"/>
		<path fill="none" stroke="#FFFFFF" stroke-miterlimit="10" d="M59,88.1c4.2,7.2,4,15.2-0.6,17.8c-4.5,2.6-11.6-1.1-15.8-8.3
			c-4.2-7.2-4-15.2,0.6-17.8C47.8,77.1,54.8,80.8,59,88.1z"/>
	</g>
</g>
</svg>
