<?xml version="1.0" encoding="utf-8"?>
<!-- Generator: Adobe Illustrator 17.1.0, SVG Export Plug-In . SVG Version: 6.00 Build 0)  -->
<!DOCTYPE svg PUBLIC "-//W3C//DTD SVG 1.1 Tiny//EN" "http://www.w3.org/Graphics/SVG/1.1/DTD/svg11-tiny.dtd">
<svg version="1.1" baseProfile="tiny" id="圖層_1"
	 xmlns="http://www.w3.org/2000/svg" xmlns:xlink="http://www.w3.org/1999/xlink" x="0px" y="0px" viewBox="0 0 90 220"
	 xml:space="preserve">
<g>
	<rect x="38.3" y="110.7" fill="#DB4441" stroke="#DB4441" stroke-miterlimit="10" width="9.5" height="105"/>
	<rect x="38.3" y="110.7" fill="#FFFFFF" stroke="#DB4441" stroke-miterlimit="10" width="4.1" height="105"/>
	<g id="XMLID_10_">
		<g>
			<path fill="#FFFFFF" d="M52,7.5c-0.7-0.7-1.8-1.1-3.1-1c-1.4,0.2-2.6,2.2-3.4,4c-0.7,1.8-0.9,3.4,0.6,3.8s2.3-0.2,3.8-3.2
				C50.6,9.5,51.5,8.3,52,7.5z M45.4,6c-2.5-1.5-3.2-0.4-3.7-0.1c-1.1,0.7-3.8,4.2-4,5.7c-0.2,1.5,1.6,2.1,2.6,2
				c0.9-0.1,2.3-3.1,3.5-5.5C44.3,7.2,44.9,6.5,45.4,6z M36.7,7.2c-0.9-1-1.9-0.8-2.9-0.1c-1,0.7-2.8,3.9-2.8,5
				c-0.1,1,2.3,1.4,3,1.1c0.7-0.3,2-4.3,2.3-5.1C36.3,7.7,36.5,7.4,36.7,7.2z M67.7,11.5c-2.5-2.4-3.6-1.8-4.6-1.7
				c-1.1,0.2-2,1.5-2.7,3.4c-0.7,1.9,0.7,2.9,2.1,3.3c1.4,0.3,3.5-2.5,4.3-4.2C67,12,67.4,11.7,67.7,11.5z M30.6,8.3
				c0,0,0,0-0.9-0.2c-0.9-0.2-2.3,0.6-3.2,1.6c-0.9,1-1.7,3.1-0.8,3.4c0.9,0.3,2.1-0.5,2.7-1.5C28.9,11,29.9,9.3,30.6,8.3z
				 M60.3,7.8c0,0,1.8-0.6,3.9,0c2,0.6,5.4,3.4,5.7,3.6c0,0,0,0,0,0c2.1,0.2,13.1,14.9,15,18.1s1.3,8.7,1.1,10.1
				c-0.1,0.5-2,8.7-4.7,19.1c0.1-3.2,0-3.9-0.6-4.2c0,0,0,0,0,0c-0.3-0.1-3.3-1.6-4.6-0.8c-1.4,0.8-3.1,1.3-3.1,4.1
				c0,2.8,0,18.2,0,22.6c0,2,0,5.1,0,8.1c-2.6,8.4-5.1,15-6.8,16.6c-5.4,5.4-17.8,5.6-32,3.9c-6.1-0.7-11.7-3.7-16.4-7.2
				c-1.6-1.2-3.1-2.5-4.4-3.8c-3.8-3.6-6.6-7.2-7.7-9.2c-2.6-4.6-2.1-8.8-1.8-11.8C4.2,74.4,7,72.6,7,72.6s-1.8-2-1.1-4.1
				c0.6-2.1,2.9-3.3,2.9-3.3s-1.5-2-1.1-3.9s3.4-3.3,3.4-3.3s-1.8-3.3-1.8-4.6c0-1.3,2.1-3.1,2.1-3.1s-0.2-2.5,0-3.9
				c0.2-1.5,2.8-2.3,2.8-2.3s-1.1-3.6-0.8-4.9c0.3-1.3,2-2.6,2-2.6s-0.3-2.3,0-3.8c0.3-1.5,2.6-2.8,2.6-2.8s-1.1-3.4-1-4.6
				c0.2-1.1,2-2.5,2-2.5s0.3-3.6,0.3-5.1c0-1.5,4.9-8,6.9-9.6c2-1.6,4.9-0.8,4.9-0.8s1-1.8,3.1-2.1c2.1-0.3,3.3,1,3.3,1
				S40,4.2,42,4.2c2,0,4.6,1,4.6,1s1.8-1.3,3.4-1c1.6,0.3,2.8,2.3,2.8,2.3s2.8-1.6,4.4-1S60.3,7.8,60.3,7.8z M77.5,34.2
				c0.6-0.7,1-2.7,0-3.8c-1-1.1-5.9-5.4-7.5-6.1c-1.6-0.7-5.7-2.3-7.4-2.5c-1.6-0.2-16-2.4-16-2.4s-2.2-0.7-2.7,1.3
				c0,0-0.5,2.2,0.6,2.7c1.1,0.5,15,2,16.4,2.2s5,1.4,6.9,2.5c2,1.1,7.7,5.3,7.7,5.3S76.8,34.9,77.5,34.2z M75.9,41.4
				c0.7-0.7,1-2.7,0-3.8c-1-1.1-5.9-5.4-7.5-6.1c-1.6-0.7-5.7-2.3-7.4-2.5c-1.6-0.2-16-2.4-16-2.4s-2.2-0.6-2.7,1.3
				c0,0-0.5,2.2,0.6,2.7c1.1,0.5,15,2,16.4,2.2c1.4,0.2,5,1.4,7,2.5c2,1.1,7.7,5.3,7.7,5.3S75.2,42.1,75.9,41.4z M74,49
				c0.7-0.7,1-2.7,0-3.8c-1-1.1-5.9-5.4-7.5-6.1c-1.6-0.7-5.7-2.3-7.4-2.5c-1.6-0.2-16-2.4-16-2.4s-2.2-0.7-2.7,1.3
				c0,0-0.5,2.2,0.6,2.7c1.1,0.5,15,2,16.4,2.2c1.4,0.2,5,1.4,7,2.5c2,1.1,7.7,5.3,7.7,5.3S73.3,49.6,74,49z M72.3,56
				c0.7-0.7,1-2.7,0-3.8c-1-1.1-5.9-5.4-7.5-6.1c-1.6-0.7-5.7-2.3-7.4-2.5c-1.5-0.2-13.8-2-15.7-2.3l2,4.7c4.6,0.6,11.1,1.3,12,1.5
				c1.4,0.2,5,1.4,7,2.5c2,1.1,7.7,5.3,7.7,5.3S71.7,56.6,72.3,56z M70.4,63.5c0.7-0.7,1-2.7,0-3.8c-1-1.1-5.9-5.4-7.5-6.1
				c-1.6-0.7-5.7-2.3-7.4-2.5c-1.1-0.2-8.1-1.2-12.5-1.9L38.7,53c3.8,0.6,13.9,1.8,15.1,1.9c1.4,0.2,5,1.4,6.9,2.5
				c2,1.1,7.7,5.3,7.7,5.3S69.7,64.2,70.4,63.5z M68.3,71c0.7-0.6,1-2.7,0-3.8c-1-1.1-5.9-5.4-7.5-6.1c-1.6-0.7-5.7-2.3-7.4-2.5
				c-1.6-0.2-16-2.4-16-2.4s-2.2-0.7-2.7,1.3c0,0-0.5,2.2,0.6,2.7c1.1,0.5,15,2,16.4,2.2c1.4,0.2,5,1.4,6.9,2.5
				c2,1.1,7.7,5.3,7.7,5.3S67.7,71.7,68.3,71z M66.7,78.6c0.6-0.7,1-2.7,0-3.8c-1-1.1-5.9-5.4-7.5-6.1s-5.7-2.3-7.4-2.5
				c-1.6-0.2-16-2.4-16-2.4s-2.2-0.7-2.7,1.3c0,0-0.5,2.2,0.6,2.7c1.1,0.5,15,2,16.4,2.2c1.4,0.2,5,1.4,6.9,2.5
				c2,1.1,7.7,5.3,7.7,5.3S66,79.2,66.7,78.6z M64.6,86.1c0.6-0.6,1-2.7,0-3.8c-1-1.1-5.9-5.4-7.5-6.1c-1.6-0.7-5.7-2.3-7.4-2.5
				c-1.6-0.2-16-2.4-16-2.4s-2.2-0.7-2.7,1.3c0,0-0.5,2.2,0.6,2.7c1.1,0.5,15,2,16.4,2.2c1.4,0.2,5,1.4,6.9,2.5
				c2,1.1,7.7,5.3,7.7,5.3S63.9,86.8,64.6,86.1z M50.2,104c1.3-0.4,1.2-1.5,1-2.3c-0.2-0.9-2.2-3.2-3-4.3c-0.9-1.1-1.5-3.7-1.5-5.6
				s0.3-5.5,0.1-6.3c-0.2-0.7-0.7-2.1-2.4-2.7c0,0-1.8,0.2-2.1,1.4c-0.2,1.1,0,10.9,0,10.9s-0.1,2.3,1,3.8c1.1,1.5,4,4.4,4,4.4
				S48.8,104.4,50.2,104z M40.8,103.5c1.7,0.3,1.9-0.7,1.6-1.5c-0.2-0.7-3-3.6-3.6-5.4c-0.6-1.8-0.8-5.8-0.7-7.8
				c0.1-2,0.6-7.1-1.5-7.8c0,0-2.1-0.2-2.5,1.8s-1,12.8,1.3,15.7C37.7,101.5,39.1,103.2,40.8,103.5z M38,22.4
				c0.4-0.3,0.5-1.3,0.4-2.3c-0.1-1-0.3-1.2-0.6-1.7c-0.2-0.4-1.2-0.5-1.2-0.5s-11.2-0.1-13.3,0c-2.1,0.1-2.6,4.5-2.6,4.5l15.7,0.3
				C36.6,22.7,37.7,22.7,38,22.4z M36.3,29.5c0.4-0.3,0.5-1.3,0.4-2.3c-0.1-1-0.3-1.2-0.5-1.7C35.9,25.1,35,25,35,25
				s-11.2-0.1-13.3,0c-2.1,0.1-2.6,4.5-2.6,4.5l15.7,0.3C34.8,29.8,35.9,29.8,36.3,29.5z M36.7,46.5c0-1.2-1-2.2-2.2-2.2
				c-1.2,0-2.2,1-2.2,2.2c0,1.2,1,2.2,2.2,2.2C35.7,48.7,36.7,47.7,36.7,46.5z M35.4,103c0.3-0.6-1-1.5-2.1-2.8
				c-1-1.3-3.1-3.6-3.1-7.8c0-4.2,0.6-9.1,0.7-10.1c0-0.9-0.1-1.7-1.1-2.3c0,0-2.2-0.4-2.8,1c-0.5,1.5-1.3,6.1-1.2,8.7
				c0.1,2.6,0.1,5.1,2,7.9c1.9,2.8,5,5.8,5.7,5.9C34.2,103.7,35.1,103.6,35.4,103z M34,36.8c0.4-0.3,0.5-1.3,0.4-2.3
				c-0.1-1-0.3-1.2-0.5-1.7c-0.2-0.4-1.2-0.5-1.2-0.5s-11.2-0.1-13.3,0c-2.1,0.1-2.6,4.5-2.6,4.5l15.7,0.3
				C32.6,37.1,33.7,37.1,34,36.8z M26,44.4l5.7-4.5c-0.4-0.2-0.8-0.2-0.8-0.2s-11.2-0.1-13.3,0c-2.1,0.1-2.6,4.5-2.6,4.5L26,44.4z
				 M28.8,58.8c0.4-0.3,0.5-1.3,0.5-2.2c0-1-0.3-1.2-0.5-1.7c-0.2-0.4-1.1-0.6-1.1-0.6s-11.2-0.5-13.3-0.5s-2.7,4.4-2.7,4.4
				l15.7,0.8C27.3,59.1,28.4,59.1,28.8,58.8z M28.4,51.5l-3.5-4.8c-3.4,0-7.8,0-9,0c-2.1,0.1-2.6,4.5-2.6,4.5L28.4,51.5z
				 M27.7,102.6c0.5-0.2-0.2-1.4-1.1-2.4c-0.9-1-3.7-5.2-3.7-8.4c0.1-3.1,0.8-10.1,0.6-11.1c-0.1-0.9,0-1.5-1-1.5
				c0,0-1.7-0.3-2.2,1.1c-0.5,1.5-1.8,9.3-0.9,12c0.9,2.7,5,8.8,6,9.6C26.5,102.6,27.2,102.8,27.7,102.6z M26.8,66.2
				c0.4-0.3,0.5-1.3,0.5-2.3c0-1-0.3-1.2-0.5-1.7c-0.2-0.4-1.1-0.6-1.1-0.6s-11.2-0.5-13.3-0.5s-2.7,4.4-2.7,4.4l15.7,0.8
				C25.3,66.5,26.4,66.5,26.8,66.2z M24.7,73.7c0.4-0.3,0.5-1.3,0.5-2.2c0-1-0.2-1.2-0.5-1.7c-0.2-0.4-1.1-0.6-1.1-0.6
				s-11.1-0.7-13.3-0.6c-2.1,0-2.8,4.3-2.8,4.3l15.7,1.1C23.2,73.9,24.3,74,24.7,73.7z M20.3,100.8c1.3,0.5,0.5-1.1-0.7-2.5
				c-1.2-1.4-3.1-5.3-3.2-7.4c-0.1-2.1,0.6-10,0.3-11c-0.3-1-0.1-1.2-1.1-1.7c0,0-2-0.2-2.4,0.9c-0.4,1.1-1.2,10.3-0.6,12.1
				C13.3,93.1,19,100.3,20.3,100.8z M14.6,98.2c1.1,0.4-3.4-4.7-3.9-6.4c-0.6-1.7-0.6-4.6-0.5-6.4c0.1-1.8,0.5-5.2,0.1-5.8
				c-0.4-0.6-0.7-1.5-1.5-1.3c0,0-1.7,0.1-2,1.7c-0.2,1.6-0.1,7.9,0.7,9.6C8.3,91.4,13.5,97.8,14.6,98.2z"/>
			<path fill="#DB4441" d="M80.7,54.7c0.7,0.3,0.7,1,0.6,4.2c-1.4,5.4-3,11.4-4.7,17.3c0-7.5,0-14,0-14.9c0-1.7-0.4-3.3,0.9-4.8
				C78.8,55,79.6,54.2,80.7,54.7C80.7,54.7,80.7,54.7,80.7,54.7z"/>
			<path fill="#FFFFFF" d="M80.7,54.6c-1.1-0.5-1.9,0.4-3.2,1.8c-1.3,1.4-0.9,3-0.9,4.8c0,0.8,0,7.4,0,14.9
				c-1.2,4.4-2.5,8.7-3.7,12.6c0-3,0-6.1,0-8.1c0-4.4,0-19.9,0-22.6c0-2.8,1.7-3.3,3.1-4.1C77.4,53,80.4,54.5,80.7,54.6z"/>
			<path fill="#DB4441" d="M77.5,30.5c1,1.1,0.6,3.1,0,3.8c-0.7,0.7-2-0.7-2-0.7s-5.7-4.2-7.7-5.3c-2-1.1-5.6-2.4-6.9-2.5
				s-15.4-1.7-16.4-2.2c-1.1-0.5-0.6-2.7-0.6-2.7c0.5-2,2.7-1.3,2.7-1.3s14.4,2.1,16,2.4c1.6,0.2,5.7,1.8,7.4,2.5
				C71.6,25.1,76.5,29.4,77.5,30.5z"/>
			<path fill="#FFFFFF" d="M76.7,76.1c0,8,0,17.2-0.1,21.4c-0.2,8.2-2,11.3-5,15.9c-3,4.7-13.2,4.7-15.1,4.6
				c-2-0.2-24.8-3.7-29.1-4.4c-4.3-0.7-8-5.2-10-7.7s-4-7.7-4-7.7c1.3,1.3,2.8,2.5,4.4,3.8c5.7,9.2,11.8,9.8,14.7,10.3
				c2.4,0.4,18.2,2.5,20.6,2.8c2.4,0.3,4.9,0.6,9.9-0.3c3.7-0.7,6-2.8,7.4-5.4c2.7-4.6,2.5-10.7,2.5-12.4c0-1.4,0-4.8,0-8.3
				C74.2,84.8,75.4,80.5,76.7,76.1z"/>
			<path fill="#DB4441" d="M75.9,37.7c1,1.1,0.7,3.1,0,3.8c-0.7,0.6-2-0.7-2-0.7s-5.7-4.2-7.7-5.3c-2-1.1-5.6-2.4-7-2.5
				c-1.4-0.2-15.4-1.7-16.4-2.2c-1.1-0.5-0.6-2.7-0.6-2.7c0.5-2,2.7-1.3,2.7-1.3s14.4,2.1,16,2.4c1.6,0.2,5.7,1.8,7.4,2.5
				C70,32.3,74.9,36.6,75.9,37.7z"/>
			<path fill="#DB4441" d="M74,45.2c1,1.1,0.7,3.1,0,3.8c-0.7,0.7-2-0.7-2-0.7s-5.7-4.2-7.7-5.3c-2-1.1-5.6-2.4-7-2.5
				C56,40.2,42.1,38.7,41,38.2c-1.1-0.5-0.6-2.7-0.6-2.7c0.5-2,2.7-1.3,2.7-1.3s14.4,2.1,16,2.4c1.6,0.2,5.7,1.8,7.4,2.5
				C68.1,39.8,73,44.1,74,45.2z"/>
			<path fill="#DB4441" d="M70.4,109.4c-1.5,2.5-3.8,4.6-7.4,5.4c-5,1-7.5,0.7-9.9,0.3c-2.4-0.3-18.2-2.4-20.6-2.8
				c-2.9-0.5-9-1.1-14.7-10.3c4.6,3.5,10.3,6.5,16.4,7.2c14.2,1.6,26.6,1.5,32-3.9c1.6-1.6,4.1-8.2,6.8-16.6c0,3.5,0,6.9,0,8.3
				C72.9,98.7,73.1,104.7,70.4,109.4z"/>
			<path fill="#DB4441" d="M72.3,52.2c1,1.1,0.7,3.1,0,3.8c-0.7,0.6-2-0.7-2-0.7s-5.7-4.2-7.7-5.3c-2-1.1-5.6-2.4-7-2.5
				c-0.9-0.1-7.5-0.8-12-1.5l-2-4.7c2,0.3,14.2,2.1,15.7,2.3c1.6,0.2,5.7,1.8,7.4,2.5C66.4,46.8,71.3,51.2,72.3,52.2z"/>
			<path fill="#DB4441" d="M70.4,59.8c1,1.1,0.7,3.1,0,3.8c-0.6,0.7-2-0.7-2-0.7s-5.7-4.2-7.7-5.3c-2-1.1-5.6-2.4-6.9-2.5
				c-1.2-0.1-11.3-1.3-15.1-1.9l4.3-3.8c4.4,0.6,11.4,1.7,12.5,1.9c1.6,0.2,5.7,1.8,7.4,2.5C64.5,54.4,69.4,58.7,70.4,59.8z"/>
			<path fill="#DB4441" d="M68.3,67.3c1,1.1,0.7,3.1,0,3.8c-0.6,0.7-2-0.7-2-0.7s-5.7-4.2-7.7-5.3c-2-1.1-5.6-2.4-6.9-2.5
				c-1.4-0.2-15.4-1.7-16.4-2.2c-1.1-0.5-0.6-2.7-0.6-2.7c0.5-2,2.7-1.3,2.7-1.3s14.4,2.1,16,2.4c1.6,0.2,5.7,1.8,7.4,2.5
				C62.4,61.9,67.3,66.2,68.3,67.3z"/>
			<path fill="#DB4441" d="M67.7,11.5c-0.3,0.2-0.7,0.4-0.9,0.9c-0.8,1.6-2.9,4.5-4.3,4.2c-1.4-0.3-2.8-1.4-2.1-3.3
				C61,11.4,62,10,63.1,9.9C64.1,9.7,65.2,9.2,67.7,11.5z"/>
			<path fill="#DB4441" d="M66.7,74.8c1,1.1,0.6,3.1,0,3.8c-0.7,0.7-2-0.7-2-0.7S59,73.7,57,72.5c-2-1.1-5.6-2.4-6.9-2.5
				c-1.4-0.2-15.4-1.7-16.4-2.2c-1.1-0.5-0.6-2.7-0.6-2.7c0.5-2,2.7-1.3,2.7-1.3s14.4,2.1,16,2.4c1.6,0.2,5.7,1.8,7.4,2.5
				S65.7,73.8,66.7,74.8z"/>
			<path fill="#DB4441" d="M64.6,82.4c1,1.1,0.6,3.1,0,3.8c-0.7,0.7-2-0.7-2-0.7s-5.7-4.2-7.7-5.3c-2-1.1-5.6-2.4-6.9-2.5
				c-1.4-0.2-15.4-1.7-16.4-2.2c-1.1-0.5-0.6-2.7-0.6-2.7c0.5-2,2.7-1.3,2.7-1.3s14.4,2.1,16,2.4c1.6,0.2,5.7,1.8,7.4,2.5
				C58.7,77,63.6,81.3,64.6,82.4z"/>
			<path fill="#DB4441" d="M52,7.5c-0.5,0.8-1.4,2-2.2,3.7c-1.5,3-2.3,3.7-3.8,3.2s-1.3-2.1-0.6-3.8c0.7-1.8,2-3.8,3.4-4
				C50.2,6.4,51.3,6.8,52,7.5z"/>
			<path fill="#DB4441" d="M51.1,101.7c0.2,0.9,0.4,2-1,2.3c-1.3,0.4-3-0.7-3-0.7s-2.9-2.9-4-4.4c-1.1-1.5-1-3.8-1-3.8
				s-0.2-9.8,0-10.9c0.2-1.1,2.1-1.4,2.1-1.4c1.7,0.6,2.2,2,2.4,2.7c0.2,0.7-0.1,4.3-0.1,6.3s0.6,4.5,1.5,5.6
				C48.9,98.5,50.9,100.8,51.1,101.7z"/>
			<path fill="#DB4441" d="M45.4,6c-0.5,0.5-1.1,1.2-1.6,2.2c-1.2,2.4-2.5,5.4-3.5,5.5c-0.9,0.1-2.7-0.5-2.6-2c0.2-1.5,2.9-5,4-5.7
				C42.2,5.6,42.9,4.5,45.4,6z"/>
			<path fill="#DB4441" d="M42.5,102.1c0.2,0.7,0.1,1.8-1.6,1.5c-1.7-0.3-3.2-2-5.4-5c-2.2-2.9-1.7-13.7-1.3-15.7s2.5-1.8,2.5-1.8
				c2,0.7,1.6,5.7,1.5,7.8c-0.1,2,0.1,6,0.7,7.8C39.5,98.5,42.2,101.3,42.5,102.1z"/>
			<path fill="#DB4441" d="M38.5,20.2c0.1,1-0.1,2-0.4,2.3c-0.4,0.3-1.5,0.3-1.5,0.3l-15.7-0.3c0,0,0.4-4.4,2.6-4.5
				c2.1-0.1,13.3,0,13.3,0s0.9,0.1,1.2,0.5C38.2,19,38.4,19.2,38.5,20.2z"/>
			<path fill="#DB4441" d="M36.7,27.2c0.1,1-0.1,2-0.4,2.3c-0.4,0.3-1.5,0.3-1.5,0.3l-15.7-0.3c0,0,0.4-4.4,2.6-4.5
				c2.1-0.1,13.3,0,13.3,0s0.9,0.1,1.2,0.5C36.4,26,36.6,26.3,36.7,27.2z"/>
			<path fill="#DB4441" d="M36.7,7.2c-0.2,0.3-0.4,0.6-0.5,0.9c-0.2,0.8-1.6,4.8-2.3,5.1c-0.7,0.3-3.1-0.1-3-1.1
				c0.1-1,1.8-4.2,2.8-5C34.8,6.3,35.8,6.2,36.7,7.2z"/>
			<circle fill="#DB4441" cx="34.5" cy="46.5" r="2.2"/>
			<path fill="#DB4441" d="M33.3,100.2c1,1.3,2.4,2.2,2.1,2.8c-0.3,0.6-1.2,0.7-1.9,0.6c-0.7-0.1-3.7-3.2-5.7-5.9
				c-1.9-2.8-1.9-5.3-2-7.9c-0.1-2.6,0.7-7.2,1.2-8.7c0.5-1.5,2.8-1,2.8-1c0.9,0.5,1.1,1.3,1.1,2.3c0,0.9-0.7,5.8-0.7,10.1
				C30.2,96.6,32.3,98.9,33.3,100.2z"/>
			<path fill="#DB4441" d="M34.5,34.5c0.1,1-0.1,2-0.4,2.3c-0.4,0.3-1.5,0.3-1.5,0.3l-15.7-0.3c0,0,0.4-4.4,2.6-4.5
				c2.1-0.1,13.3,0,13.3,0s0.9,0.1,1.2,0.5C34.2,33.3,34.4,33.5,34.5,34.5z"/>
			<path fill="#DB4441" d="M31.7,39.9L26,44.4l-11-0.2c0,0,0.4-4.4,2.6-4.5c2.1-0.1,13.3,0,13.3,0S31.4,39.7,31.7,39.9z"/>
			<path fill="#DB4441" d="M29.7,8.1c0.9,0.2,0.9,0.2,0.9,0.2c-0.6,1-1.7,2.7-2.1,3.4c-0.6,1-1.9,1.8-2.7,1.5
				c-0.9-0.3-0.1-2.5,0.8-3.4C27.4,8.7,28.8,7.9,29.7,8.1z"/>
			<path fill="#DB4441" d="M29.3,56.6c0,1-0.1,2-0.5,2.2c-0.4,0.3-1.5,0.3-1.5,0.3l-15.7-0.8c0,0,0.6-4.3,2.7-4.4s13.3,0.5,13.3,0.5
				s0.9,0.2,1.1,0.6C29.1,55.3,29.3,55.6,29.3,56.6z"/>
			<path fill="#DB4441" d="M24.9,46.7l3.5,4.8l-15.1-0.3c0,0,0.4-4.4,2.6-4.5C17.1,46.7,21.5,46.7,24.9,46.7z"/>
			<path fill="#DB4441" d="M26.6,100.2c0.9,1,1.6,2.1,1.1,2.4s-1.2,0.1-2.1-0.7c-1-0.7-5.1-6.9-6-9.6c-0.9-2.7,0.4-10.5,0.9-12
				c0.5-1.5,2.2-1.1,2.2-1.1c1,0,0.8,0.6,1,1.5c0.1,0.9-0.6,7.9-0.6,11.1C22.8,94.9,25.7,99.2,26.6,100.2z"/>
			<path fill="#DB4441" d="M27.3,64c0,1-0.1,2-0.5,2.3c-0.4,0.3-1.5,0.3-1.5,0.3L9.6,65.6c0,0,0.6-4.3,2.7-4.4s13.3,0.5,13.3,0.5
				s0.9,0.2,1.1,0.6C27,62.7,27.3,63,27.3,64z"/>
			<path fill="#DB4441" d="M25.2,71.5c0,1-0.2,2-0.5,2.2c-0.4,0.3-1.5,0.2-1.5,0.2L7.6,72.9c0,0,0.6-4.3,2.8-4.3
				c2.2,0,13.3,0.6,13.3,0.6s0.9,0.2,1.1,0.6C25,70.2,25.2,70.5,25.2,71.5z"/>
			<path fill="#DB4441" d="M19.6,98.3c1.2,1.4,2,3,0.7,2.5c-1.3-0.5-7-7.8-7.7-9.6c-0.6-1.8,0.2-11,0.6-12.1
				c0.4-1.1,2.4-0.9,2.4-0.9c1,0.5,0.8,0.6,1.1,1.7c0.3,1-0.4,8.9-0.3,11C16.5,93,18.4,96.9,19.6,98.3z"/>
			<path fill="#DB4441" d="M10.7,91.8c0.6,1.7,5.1,6.8,3.9,6.4c-1.1-0.4-6.3-6.9-7.1-8.6c-0.8-1.8-1-8-0.7-9.6c0.2-1.6,2-1.7,2-1.7
				c0.7-0.2,1.1,0.8,1.5,1.3c0.4,0.6,0,4-0.1,5.8C10.1,87.2,10.1,90.1,10.7,91.8z"/>
		</g>
		<g>
			<path fill="none" stroke="#DB4441" stroke-miterlimit="10" d="M69.9,11.4c-0.3-0.2-3.7-3-5.7-3.6c-2.1-0.6-3.9,0-3.9,0
				s-1.5-1.6-3.1-2.3s-4.4,1-4.4,1s-1.1-2-2.8-2.3c-1.6-0.3-3.4,1-3.4,1S44,4.1,42,4.2c-2,0.1-4.6,2.2-4.6,2.2s-1.1-1.3-3.3-1
				C32,5.7,31,7.5,31,7.5s-2.9-0.8-4.9,0.8c-2,1.6-6.9,8.2-6.9,9.6c0,1.5-0.3,5.1-0.3,5.1s-1.8,1.3-2,2.5c-0.2,1.1,1,4.6,1,4.6
				s-2.3,1.3-2.6,2.8c-0.3,1.5,0,3.8,0,3.8s-1.6,1.3-2,2.6c-0.3,1.3,0.8,4.9,0.8,4.9s-2.6,0.8-2.8,2.3c-0.2,1.5,0,3.9,0,3.9
				s-2.1,1.8-2.1,3.1c0,1.3,1.8,4.6,1.8,4.6S8,59.3,7.7,61.3s1.1,3.9,1.1,3.9s-2.3,1.1-2.9,3.3C5.2,70.6,7,72.6,7,72.6
				s-2.8,1.8-3.1,4.7c-0.3,2.9-0.8,7.2,1.8,11.8c1.1,1.9,3.8,5.5,7.7,9.2c1.3,1.3,2.8,2.5,4.4,3.8c4.6,3.5,10.3,6.5,16.4,7.2
				c14.2,1.6,26.6,1.5,32-3.9c1.6-1.6,4.1-8.2,6.8-16.6"/>
			<path fill="none" stroke="#DB4441" stroke-miterlimit="10" d="M81.4,58.8c2.7-10.4,4.7-18.6,4.7-19.1c0.2-1.5,0.8-6.9-1.1-10.1
				s-12.9-18-15-18.1"/>
			<path fill="none" stroke="#DB4441" stroke-miterlimit="10" d="M20.9,22.4c0,0,0.4-4.4,2.6-4.5c2.1-0.1,13.3,0,13.3,0
				s0.9,0.1,1.2,0.5c0.2,0.4,0.5,0.7,0.6,1.7c0.1,1-0.1,2-0.4,2.3c-0.4,0.3-1.5,0.3-1.5,0.3L20.9,22.4z"/>
			<path fill="none" stroke="#DB4441" stroke-miterlimit="10" d="M19.1,29.5c0,0,0.4-4.4,2.6-4.5c2.1-0.1,13.3,0,13.3,0
				s0.9,0.1,1.2,0.5c0.2,0.4,0.5,0.7,0.5,1.7c0.1,1-0.1,2-0.4,2.3c-0.4,0.3-1.5,0.3-1.5,0.3L19.1,29.5z"/>
			<path fill="none" stroke="#DB4441" stroke-miterlimit="10" d="M16.9,36.8c0,0,0.4-4.4,2.6-4.5c2.1-0.1,13.3,0,13.3,0
				s0.9,0.1,1.2,0.5c0.2,0.4,0.5,0.7,0.5,1.7c0.1,1-0.1,2-0.4,2.3c-0.4,0.3-1.5,0.3-1.5,0.3L16.9,36.8z"/>
			<path fill="none" stroke="#DB4441" stroke-miterlimit="10" d="M11.7,58.2c0,0,0.6-4.3,2.7-4.4s13.3,0.5,13.3,0.5s0.9,0.2,1.1,0.6
				c0.2,0.4,0.5,0.7,0.5,1.7c0,1-0.1,2-0.5,2.2c-0.4,0.3-1.5,0.3-1.5,0.3L11.7,58.2z"/>
			<path fill="none" stroke="#DB4441" stroke-miterlimit="10" d="M9.6,65.6c0,0,0.6-4.3,2.7-4.4s13.3,0.5,13.3,0.5s0.9,0.2,1.1,0.6
				c0.2,0.4,0.5,0.7,0.5,1.7c0,1-0.1,2-0.5,2.3c-0.4,0.3-1.5,0.3-1.5,0.3L9.6,65.6z"/>
			<path fill="none" stroke="#DB4441" stroke-miterlimit="10" d="M7.6,72.9c0,0,0.6-4.3,2.8-4.3c2.2,0,13.3,0.6,13.3,0.6
				s0.9,0.2,1.1,0.6c0.2,0.4,0.5,0.7,0.5,1.7c0,1-0.2,2-0.5,2.2c-0.4,0.3-1.5,0.2-1.5,0.2L7.6,72.9z"/>
			<path fill="none" stroke="#DB4441" stroke-miterlimit="10" d="M43.9,20.7c0,0-0.5,2.2,0.6,2.7c1.1,0.5,15,2,16.4,2.2
				s5,1.4,6.9,2.5c2,1.1,7.7,5.3,7.7,5.3s1.3,1.4,2,0.7c0.6-0.7,1-2.7,0-3.8c-1-1.1-5.9-5.4-7.5-6.1c-1.6-0.7-5.7-2.3-7.4-2.5
				c-1.6-0.2-16-2.4-16-2.4S44.4,18.8,43.9,20.7z"/>
			<path fill="none" stroke="#DB4441" stroke-miterlimit="10" d="M42.3,27.9c0,0-0.5,2.2,0.6,2.7c1.1,0.5,15,2,16.4,2.2
				c1.4,0.2,5,1.4,7,2.5c2,1.1,7.7,5.3,7.7,5.3s1.3,1.4,2,0.7c0.7-0.7,1-2.7,0-3.8c-1-1.1-5.9-5.4-7.5-6.1c-1.6-0.7-5.7-2.3-7.4-2.5
				c-1.6-0.2-16-2.4-16-2.4S42.8,26,42.3,27.9z"/>
			<path fill="none" stroke="#DB4441" stroke-miterlimit="10" d="M40.4,35.5c0,0-0.5,2.2,0.6,2.7c1.1,0.5,15,2,16.4,2.2
				c1.4,0.2,5,1.4,7,2.5c2,1.1,7.7,5.3,7.7,5.3s1.3,1.4,2,0.7c0.7-0.7,1-2.7,0-3.8c-1-1.1-5.9-5.4-7.5-6.1c-1.6-0.7-5.7-2.3-7.4-2.5
				c-1.6-0.2-16-2.4-16-2.4S40.9,33.5,40.4,35.5z"/>
			<path fill="none" stroke="#DB4441" stroke-miterlimit="10" d="M34.7,57.6c0,0-0.5,2.2,0.6,2.7c1.1,0.5,15,2,16.4,2.2
				c1.4,0.2,5,1.4,6.9,2.5c2,1.1,7.7,5.3,7.7,5.3s1.3,1.4,2,0.7c0.7-0.6,1-2.7,0-3.8c-1-1.1-5.9-5.4-7.5-6.1
				c-1.6-0.7-5.7-2.3-7.4-2.5c-1.6-0.2-16-2.4-16-2.4S35.2,55.6,34.7,57.6z"/>
			<path fill="none" stroke="#DB4441" stroke-miterlimit="10" d="M33.1,65.1c0,0-0.5,2.2,0.6,2.7c1.1,0.5,15,2,16.4,2.2
				c1.4,0.2,5,1.4,6.9,2.5c2,1.1,7.7,5.3,7.7,5.3s1.3,1.4,2,0.7c0.6-0.7,1-2.7,0-3.8c-1-1.1-5.9-5.4-7.5-6.1s-5.7-2.3-7.4-2.5
				c-1.6-0.2-16-2.4-16-2.4S33.6,63.1,33.1,65.1z"/>
			<path fill="none" stroke="#DB4441" stroke-miterlimit="10" d="M31,72.6c0,0-0.5,2.2,0.6,2.7c1.1,0.5,15,2,16.4,2.2
				c1.4,0.2,5,1.4,6.9,2.5c2,1.1,7.7,5.3,7.7,5.3s1.3,1.4,2,0.7c0.6-0.6,1-2.7,0-3.8c-1-1.1-5.9-5.4-7.5-6.1
				c-1.6-0.7-5.7-2.3-7.4-2.5c-1.6-0.2-16-2.4-16-2.4S31.5,70.7,31,72.6z"/>
			<path fill="none" stroke="#DB4441" stroke-miterlimit="10" d="M31.7,39.9c-0.4-0.2-0.8-0.2-0.8-0.2s-11.2-0.1-13.3,0
				c-2.1,0.1-2.6,4.5-2.6,4.5l11,0.2L31.7,39.9z"/>
			<path fill="none" stroke="#DB4441" stroke-miterlimit="10" d="M24.9,46.7c-3.4,0-7.8,0-9,0c-2.1,0.1-2.6,4.5-2.6,4.5l15.1,0.3
				L24.9,46.7z"/>
			<path fill="none" stroke="#DB4441" stroke-miterlimit="10" d="M72.3,52.2c-1-1.1-5.9-5.4-7.5-6.1c-1.6-0.7-5.7-2.3-7.4-2.5
				c-1.5-0.2-13.8-2-15.7-2.3l2,4.7c4.6,0.6,11.1,1.3,12,1.5c1.4,0.2,5,1.4,7,2.5c2,1.1,7.7,5.3,7.7,5.3s1.3,1.4,2,0.7
				C73,55.3,73.3,53.3,72.3,52.2z"/>
			<path fill="none" stroke="#DB4441" stroke-miterlimit="10" d="M70.4,59.8c-1-1.1-5.9-5.4-7.5-6.1c-1.6-0.7-5.7-2.3-7.4-2.5
				c-1.1-0.2-8.1-1.2-12.5-1.9L38.7,53c3.8,0.6,13.9,1.8,15.1,1.9c1.4,0.2,5,1.4,6.9,2.5c2,1.1,7.7,5.3,7.7,5.3s1.3,1.4,2,0.7
				C71,62.9,71.4,60.8,70.4,59.8z"/>
			<path fill="none" stroke="#DB4441" stroke-miterlimit="10" d="M67.7,11.5c-0.3,0.2-0.7,0.4-0.9,0.9c-0.8,1.6-2.9,4.5-4.3,4.2
				c-1.4-0.3-2.8-1.4-2.1-3.3C61,11.4,62,10,63.1,9.9C64.1,9.7,65.2,9.2,67.7,11.5z"/>
			<path fill="none" stroke="#DB4441" stroke-miterlimit="10" d="M69.9,11.4C69.9,11.4,69.9,11.4,69.9,11.4c-0.2,0-1.3-0.3-2.2,0.1"
				/>
			<path fill="none" stroke="#DB4441" stroke-miterlimit="10" d="M60.3,7.8c0,0-1.4,1.1-1.6,1.9c-0.2,0.8-2.3,5.1-3.1,5.2
				c-0.8,0.2-3.5-0.1-2.8-2.6c0.7-2.5,2.5-4.8,3.7-5c1.2-0.2,2.8,1.4,2.8,1.4"/>
			<path fill="none" stroke="#DB4441" stroke-miterlimit="10" d="M52,7.5C52,7.5,52,7.5,52,7.5"/>
			<path fill="none" stroke="#DB4441" stroke-miterlimit="10" d="M52,7.5c-0.5,0.8-1.4,2-2.2,3.7c-1.5,3-2.3,3.7-3.8,3.2
				s-1.3-2.1-0.6-3.8c0.7-1.8,2-3.8,3.4-4C50.2,6.4,51.3,6.8,52,7.5z"/>
			<path fill="none" stroke="#DB4441" stroke-miterlimit="10" d="M52.8,6.5c0,0-0.3,0.3-0.8,1"/>
			<path fill="none" stroke="#DB4441" stroke-miterlimit="10" d="M45.4,6c-0.5,0.5-1.1,1.2-1.6,2.2c-1.2,2.4-2.5,5.4-3.5,5.5
				c-0.9,0.1-2.7-0.5-2.6-2c0.2-1.5,2.9-5,4-5.7C42.2,5.6,42.9,4.5,45.4,6z"/>
			<path fill="none" stroke="#DB4441" stroke-miterlimit="10" d="M46.6,5.2c0,0-0.5,0.2-1.2,0.8"/>
			<path fill="none" stroke="#DB4441" stroke-miterlimit="10" d="M36.7,7.2c-0.2,0.3-0.4,0.6-0.5,0.9c-0.2,0.8-1.6,4.8-2.3,5.1
				c-0.7,0.3-3.1-0.1-3-1.1c0.1-1,1.8-4.2,2.8-5C34.8,6.3,35.8,6.2,36.7,7.2z"/>
			<path fill="none" stroke="#DB4441" stroke-miterlimit="10" d="M37.4,6.4c0,0-0.4,0.4-0.7,0.8"/>
			<path fill="none" stroke="#DB4441" stroke-miterlimit="10" d="M30.6,8.3c-0.6,1-1.7,2.7-2.1,3.4c-0.6,1-1.9,1.8-2.7,1.5
				c-0.9-0.3-0.1-2.5,0.8-3.4c0.9-1,2.3-1.8,3.2-1.6C30.6,8.3,30.6,8.3,30.6,8.3z"/>
			<path fill="none" stroke="#DB4441" stroke-miterlimit="10" d="M31,7.5c0,0-0.2,0.3-0.5,0.8"/>
			<circle fill="none" stroke="#DB4441" stroke-miterlimit="10" cx="34.5" cy="46.5" r="2.2"/>
			<path fill="none" stroke="#DB4441" stroke-miterlimit="10" d="M44.2,82.8c0,0-1.8,0.2-2.1,1.4c-0.2,1.1,0,10.9,0,10.9
				s-0.1,2.3,1,3.8c1.1,1.5,4,4.4,4,4.4s1.6,1.1,3,0.7c1.3-0.4,1.2-1.5,1-2.3c-0.2-0.9-2.2-3.2-3-4.3c-0.9-1.1-1.5-3.7-1.5-5.6
				s0.3-5.5,0.1-6.3C46.4,84.8,46,83.4,44.2,82.8z"/>
			<path fill="none" stroke="#DB4441" stroke-miterlimit="10" d="M36.7,81.1c0,0-2.1-0.2-2.5,1.8s-1,12.8,1.3,15.7
				c2.2,2.9,3.7,4.7,5.4,5c1.7,0.3,1.9-0.7,1.6-1.5c-0.2-0.7-3-3.6-3.6-5.4c-0.6-1.8-0.8-5.8-0.7-7.8C38.2,86.8,38.7,81.7,36.7,81.1
				z"/>
			<path fill="none" stroke="#DB4441" stroke-miterlimit="10" d="M29.8,80c0,0-2.2-0.4-2.8,1c-0.5,1.5-1.3,6.1-1.2,8.7
				c0.1,2.6,0.1,5.1,2,7.9c1.9,2.8,5,5.8,5.7,5.9c0.7,0.1,1.6,0,1.9-0.6c0.3-0.6-1-1.5-2.1-2.8c-1-1.3-3.1-3.6-3.1-7.8
				c0-4.2,0.6-9.1,0.7-10.1C30.9,81.3,30.8,80.5,29.8,80z"/>
			<path fill="none" stroke="#DB4441" stroke-miterlimit="10" d="M22.6,79.2c0,0-1.7-0.3-2.2,1.1c-0.5,1.5-1.8,9.3-0.9,12
				c0.9,2.7,5,8.8,6,9.6c1,0.7,1.7,0.9,2.1,0.7s-0.2-1.4-1.1-2.4c-0.9-1-3.7-5.2-3.7-8.4c0.1-3.1,0.8-10.1,0.6-11.1
				C23.4,79.8,23.5,79.2,22.6,79.2z"/>
			<path fill="none" stroke="#DB4441" stroke-miterlimit="10" d="M15.6,78.3c0,0-2-0.2-2.4,0.9c-0.4,1.1-1.2,10.3-0.6,12.1
				c0.7,1.8,6.4,9.1,7.7,9.6c1.3,0.5,0.5-1.1-0.7-2.5c-1.2-1.4-3.1-5.3-3.2-7.4c-0.1-2.1,0.6-10,0.3-11
				C16.4,78.9,16.6,78.8,15.6,78.3z"/>
			<path fill="none" stroke="#DB4441" stroke-miterlimit="10" d="M8.8,78.3c0,0-1.7,0.1-2,1.7c-0.2,1.6-0.1,7.9,0.7,9.6
				c0.8,1.8,5.9,8.2,7.1,8.6c1.1,0.4-3.4-4.7-3.9-6.4c-0.6-1.7-0.6-4.6-0.5-6.4c0.1-1.8,0.5-5.2,0.1-5.8C9.9,79,9.6,78.1,8.8,78.3z"
				/>
			<path fill="none" stroke="#DB4441" stroke-miterlimit="10" d="M80.7,54.7c0.7,0.3,0.7,1,0.6,4.2c-0.1,2.1-0.2,5.2-0.2,10
				c0,12.1,0.2,27.4,0.2,29.8c0,4-5.3,20.2-21.9,19.4"/>
			<path fill="none" stroke="#DB4441" stroke-miterlimit="10" d="M13.4,98.2c0,0,2.1,5.2,4,7.7s5.6,7,10,7.7
				c4.3,0.7,27.1,4.2,29.1,4.4c2,0.2,12.1,0.1,15.1-4.6c3-4.7,4.7-7.8,5-15.9c0.1-4.2,0.1-13.3,0.1-21.4c0-7.5,0-14,0-14.9
				c0-1.7-0.4-3.3,0.9-4.8c1.3-1.4,2-2.3,3.2-1.8"/>
			<path fill="none" stroke="#DB4441" stroke-miterlimit="10" d="M80.7,54.7C80.7,54.7,80.7,54.7,80.7,54.7
				c-0.3-0.2-3.3-1.6-4.7-0.8c-1.4,0.8-3.1,1.3-3.1,4.1c0,2.8,0,18.2,0,22.6c0,2,0,5.1,0,8.1c0,3.5,0,6.9,0,8.3
				c0,1.7,0.2,7.7-2.5,12.4c-1.5,2.5-3.8,4.6-7.4,5.4c-5,1-7.5,0.7-9.9,0.3c-2.4-0.3-18.2-2.4-20.6-2.8c-2.9-0.5-9-1.1-14.7-10.3"/>
			<path fill="none" stroke="#DB4441" stroke-miterlimit="10" d="M54.7,109.7c0,0,10.1,2.5,15.8-0.4"/>
		</g>
	</g>
</g>
</svg>
