<?xml version="1.0" encoding="utf-8"?>
<!-- Generator: Adobe Illustrator 17.1.0, SVG Export Plug-In . SVG Version: 6.00 Build 0)  -->
<!DOCTYPE svg PUBLIC "-//W3C//DTD SVG 1.1 Tiny//EN" "http://www.w3.org/Graphics/SVG/1.1/DTD/svg11-tiny.dtd">
<svg version="1.1" baseProfile="tiny" id="圖層_1"
	 xmlns="http://www.w3.org/2000/svg" xmlns:xlink="http://www.w3.org/1999/xlink" x="0px" y="0px" viewBox="0 0 120 200"
	 xml:space="preserve">
<g>
	<path fill="none" d="M20.5,69.9c0,2.9,0.2,20.9,0.2,35.1c0,4.2-0.1,7.4-0.1,9.7c1.4-5.3,2.9-10.9,4.5-16.5c0-0.6,0-1.2,0-1.8
		c0-7,0-19.6,0.2-25.3c0.3-9.9,2.5-13.7,6-19.1c0.4-0.6,0.8-1.1,1.3-1.5c-1.4,0.9-2.8,1.9-4,3.1C22.8,59.3,20.5,67,20.5,69.9z"/>
	<polygon fill="none" points="33.5,173 33.5,172.9 33.5,173 	"/>
	<path fill="#FFFFFF" d="M65.5,48.9V6.4h-5.3v41.7C61.9,48.3,63.7,48.6,65.5,48.9z"/>
	<path fill="#FFFFFF" d="M60.2,48.1V6.4h-1v41.6C59.5,48,59.8,48,60.2,48.1z"/>
	<path d="M70.4,49.6V6.4h-3.9V49C67.8,49.2,69.1,49.4,70.4,49.6z"/>
	<path fill="#FFFFFF" d="M66.5,49V6.4h-1v42.5C65.8,48.9,66.2,49,66.5,49z"/>
	<path fill="#FFFFFF" d="M70.4,6.4v43.3c0.3,0.1,0.7,0.1,1,0.2V6.4H70.4z"/>
	<polygon points="20.8,121.9 20.8,121.9 20.8,121.9 	"/>
	<path d="M108.6,92.1c-0.3,1.8-1.9,2.4-2.8,2.4c0,0-0.1,0-0.2,0c-0.8,0-1.3-0.7-1.6-1.3c-0.1-0.2-0.2-0.3-0.3-0.5
		c-0.4-0.6-0.3-2.4-0.1-5.4c0.1-0.7,0.1-1.3,0.1-1.8c0.1-1.5,0.1-5.2-0.5-7.4c-0.3-0.9-1.7-2.8-2.8-4.4c-1.9-2.6-2.2-3.1-2-3.6
		l0.1-0.3l0.4,0c0.1,0,0.2,0,0.3,0.1c0,0,0.1,0.1,0.1,0.1c-1.4-1.3-2.9-2.5-4.4-3.7C88.5,61.5,82,58.7,75.8,58
		c-20.2-2.3-32.1-0.9-37.4,4.5c-1.2,1.2-3.4,5.4-7.8,19.3l0,9.5l0,6.8c0,7.4,0,17.6,0,20c0,3.1-1.7,4.1-3.2,4.9
		c-0.2,0.1-0.5,0.3-0.7,0.4c-0.4,0.2-0.9,0.3-1.5,0.3c-1.5,0-3.3-0.7-4.5-1.3l0,0l0,0c-0.6-0.3-0.9-0.7-1-1.6
		c-2.7,10.6-4.6,18.4-4.6,18.9c-0.6,5.3-0.2,9.2,1.3,11.7c2.6,4.3,15.3,21,17.4,21.2l0,0l0.1,0l0,0c0.3,0.1,1.4,0.3,2.3-0.1
		c0.4-0.2,0.6-0.4,0.8-0.8c0.8-1.6,3.3-5.2,5.3-5.2c0.1,0,0.3,0,0.4,0c1.3,0.3,2.3,1,2.7,1.9c0.4,0.8,0.5,1.7,0.1,2.6
		c-0.9,2.6-2.2,4.2-3.6,4.4c-0.1,0-0.2,0-0.4,0.1c-0.3,0.1-0.7,0.1-1.1,0.1c-1.2,0-2.5-0.7-4.1-2.1c-0.3,0.1-0.6,0.2-0.9,0.2
		c1.4,1.1,3.8,2.7,5.3,3.1c2.1,0.6,3.9,0.1,4.2,0c0.1-0.1,0.6-0.5,1-0.9l0,0c0.5-0.5,0.6-0.8,0.6-1c0.2-0.9,2.7-6.3,4.1-6.6
		c0.2,0,0.4-0.1,0.7-0.1c0.5,0,2.1,0.1,2.9,1.2c0.5,0.7,0.6,1.5,0.3,2.6c-0.9,3.2-3.1,6-4.7,6.3c-0.1,0-0.2,0-0.3,0
		c-1.2,0-2.5-0.9-3.1-1.4c-0.1,0.1-0.3,0.3-0.4,0.4c0.6,0.6,1.8,1.7,3.1,2.2c1.4,0.5,3.8-0.6,4.7-1.1c0.1-0.1,0.4-0.5,0.8-1
		c1-1.4,1.8-2.8,2.5-4.3c1.6-3.3,2.7-4.8,5-4.1c0.7,0.2,1.2,0.6,1.4,1.2c0.4,0.9,0.3,2.2-0.4,4c-0.6,1.4-2.2,4.8-4.4,5
		c-0.3,0-0.5,0-0.8,0c-1.1,0-2.1-0.3-2.9-1c-0.1,0.2-0.3,0.3-0.4,0.5c0.4,0.6,1.4,1.9,2.7,2.2c1.7,0.3,3.6-1.1,3.7-1.1l0.2-0.2l0,0
		c0.2-0.1,0.6-0.3,1.1-0.8c0.7-0.7,1.3-1.5,1.8-2.5c0.2-0.4,0.4-0.8,0.6-1.3c1.6-3.3,2.7-5.4,3.8-5.5c0.7-0.1,2.1,0.2,3,1.1
		c0.5,0.5,0.7,1.2,0.6,1.9c-0.2,2-3.6,6.3-4.9,7.1c-0.1,0-0.1,0.1-0.2,0.2c-0.4,0.3-0.9,0.7-1.8,0.7c-0.7,0-1.5-0.3-2.5-0.8
		c-0.1,0.1-0.2,0.2-0.3,0.2c1.1,0.4,2.8,0.9,4.2,0.8c2.1-0.1,5-2.3,5.1-2.5c0,0,0.4-0.4,0.8-0.9l0,0l0,0c0.2-0.3,0.4-0.6,0.5-0.9
		c0.4-1.4,1.9-5.9,3-6.4c0.8-0.3,3-0.1,3.8,0.8c0.3,0.3,0.4,0.6,0.4,1c-0.1,1.4-2.2,5.3-3.5,6.2c-0.8,0.5-1.4,0.8-2.1,0.8
		c-0.6,0-1.1-0.2-1.6-0.6c-0.1,0.1-0.1,0.1-0.2,0.2c0.5,0.4,1.5,0.9,3.1,0.7c2.2-0.4,3.3-2.2,3.3-2.3l0.2-0.3l0,0l0.4-0.6
		c0.8-1.2,2-3.2,2.5-4c0.7-1,2-2.1,3.2-2.1c0.2,0,0.5,0,0.7,0.1c0.4,0.1,0.6,0.5,0.7,0.9c0.3,1.1-0.6,3-1.5,4c-0.9,1-2.1,1.7-3.1,2
		c0.9-0.1,2-0.4,2.8-1.1c2.5-2.1,7.9-9.6,7.9-11c0-1.7,0.4-5.8,0.4-6l0-0.2l0.2-0.1c0.5-0.4,2-1.6,2.1-2.6c0.1-1-0.8-4.1-1.1-5.2
		l-0.1-0.4l0.4-0.2c0.7-0.4,2.6-1.7,2.9-3c0.4-1.6,0-4.2,0-4.3l0-0.3l0.2-0.2c0,0,1.8-1.5,2.1-2.8c0.3-1.2-0.6-4.4-1-5.5l0-0.1
		c-0.1,0.6-0.7,5.5-3.5,5.7c-0.8,0-2.5,0.1-5.2,0.1c-4.7,0-10.5-0.1-10.5-0.1c-0.1,0-0.7-0.1-1.1-0.3l-0.7-0.4l7.5-5.9l13.7,0.3
		l0,0.1l0.3-0.1c0.8-0.2,2.8-1.1,2.9-2.3c0.2-1.7,0-4.5,0-4.5l0-0.3l0.2-0.2c0.9-0.8,2.3-2.3,2.3-3.3c0-1.1-1.3-3.7-1.9-4.9
		c-0.3,1.5-1.2,4.9-3.6,4.9l-0.4,0c-3.3,0-15.2-0.5-15.3-0.5c-0.3,0-1.4-0.3-1.8-1l-0.1-0.2c-0.2-0.4-0.5-0.9-0.5-2
		c0-0.7,0-2.5,0.8-3.1c0.4-0.3,1.3-0.4,1.9-0.4l0.2,0l19.1,1l0,0.2c1-0.4,3.4-1.8,3.7-3.4c0.3-2.1-1.2-4.2-1.3-4.3l-0.1-0.2
		c-0.3,1.4-1.2,5-3.6,5.1l-0.4,0c-3.3,0-15.2-0.5-15.3-0.5c-0.3,0-1.4-0.3-1.8-1l-0.1-0.2c-0.2-0.4-0.5-0.9-0.5-2
		c0-0.7,0-2.5,0.8-3.1c0.3-0.3,1-0.4,1.9-0.4l0.2,0l19.1,1l-0.1,0.5c0,0,0,0.1,0,0.1l0.2-0.1c0,0,2.5-1.3,3.2-3.6
		c0.6-1.9-0.8-3.8-1.2-4.2c-0.3,1.5-1.3,4.8-3.6,4.8l-0.1,0c-2.8,0-15.1-0.7-15.6-0.8c-0.3,0-1.4-0.3-1.8-1l-0.1-0.2
		c-0.2-0.4-0.5-0.9-0.5-2c0-0.7,0.1-2.5,0.8-3.1c0.3-0.3,0.9-0.4,1.8-0.4c0.2,0,0.3,0,0.3,0l19,1.3l0,0.3c0.6-0.5,3-2.4,3.3-5.1
		c0.4-3.5,0.9-8.3-2.1-13.6c-1.1-2-3.5-5.1-6.6-8.4c2.2,2.6,4.8,6.1,5.3,7.3C108.6,82.6,108.8,90.2,108.6,92.1z M101,125.4L101,126
		c0,0.2-0.6,5.6-3.5,5.7c-0.8,0-2.6,0.1-5.5,0.1c-1.7,0-3.5,0-5.1,0l-0.3,0l-4.9-6.7L101,125.4z M65.7,64.2c0.2-0.3,0.7-0.7,1.6-0.7
		c0.2,0,0.5,0,0.8,0.1c2.3,0.4,4.1,2.7,6.7,6.1c2.8,3.7,2,16.8,1.6,19c-0.5,2.3-2.6,2.5-3.2,2.5c-0.2,0-0.3,0-0.3,0
		c-2.6-0.8-2.4-5.8-2.2-8.8c0-0.3,0-0.6,0-0.9c0.1-2.4-0.2-7.1-0.8-9.1c-0.4-1.2-1.8-3-2.8-4.3c-0.9-1.1-1.3-1.7-1.4-2.1
		C65.3,65.4,65.3,64.7,65.7,64.2z M55.4,64.1c0.3-0.5,0.7-0.8,1.4-1C57,63,57.3,63,57.6,63c1.5,0,3,1,3.1,1c0.2,0.2,3.6,3.6,4.9,5.3
		c1.4,1.9,1.3,4.7,1.3,4.8c0,1.2,0.3,11.6,0,13c-0.4,1.6-2.8,2-2.9,2l-0.1,0l-0.1,0c-2.4-0.9-3-2.9-3.2-3.5c-0.2-0.6-0.1-2.1,0-4.5
		c0-1.1,0.1-2.2,0.1-3.1c0-2.4-0.7-5.2-1.6-6.4l-0.4-0.5c-1.6-2-3-3.8-3.3-4.7C55.1,65.8,54.9,64.9,55.4,64.1z M37,93.3
		c0.2-0.2,0.5-0.4,0.9-0.4c1,0,2.1,1.1,2.2,1.2c0,0,6.7,4.9,9,6.2c2.2,1.3,6.4,2.7,8,2.9l1.2,0.1c11.9,1.4,17.5,2.1,18.3,2.5
		c1.6,0.7,1,3.4,1,3.7c-0.3,1.3-1.3,2.1-2.7,2.1c-0.6,0-1.1-0.1-1.1-0.1c0,0-16.9-2.5-18.8-2.8c-2-0.3-6.9-2.2-8.8-3
		c-2-0.9-7.9-6.1-9-7.4C35.7,96.9,36.1,94.2,37,93.3z M35.1,102.2c0.2-0.2,0.5-0.4,0.9-0.4c1,0,2,1,2.2,1.2c0,0,6.7,4.9,9,6.2
		c2.3,1.4,6.5,2.8,8,2.9l0.2,0c8.2,0.9,18.3,2.1,19.3,2.6c1.6,0.7,1,3.4,1,3.7c-0.3,1.3-1.3,2.1-2.7,2.1c-0.6,0-1.1-0.1-1.1-0.1
		c0,0-16.9-2.5-18.9-2.8c-2-0.3-6.9-2.2-8.8-3c-2-0.9-7.8-6.1-9-7.4C33.8,105.8,34.2,103.1,35.1,102.2z M32.7,111.1
		c0.2-0.2,0.5-0.4,0.9-0.4c1,0,2,1,2.2,1.2c0,0,6.7,4.9,9,6.2c2.4,1.4,6.5,2.7,8,2.9l0.8,0.1c3.2,0.4,13,1.5,17,2.2l1,0.2l-6,5.3
		l-15-2.2c-2-0.3-6.9-2.2-8.8-3c-2-0.9-7.9-6.1-9-7.4C31.3,114.7,31.7,112,32.7,111.1z M30.4,120c0.2-0.2,0.5-0.4,0.9-0.4
		c1,0,2.1,1.1,2.2,1.2c0,0,6.7,4.9,9,6.2c2.2,1.3,6.4,2.7,8,2.9c0.3,0,1,0.1,2.1,0.2c2.8,0.3,8.2,0.9,12.1,1.5l0.3,0l2.9,6.7
		l-0.9-0.1c-1.3-0.2-6.7-1-11.4-1.7c-3.4-0.5-6.4-1-7.2-1.1c-2-0.3-6.8-2.1-8.8-3c-2-0.9-7.8-6.1-9-7.4
		C29,123.6,29.4,120.9,30.4,120z M64.8,162c-0.3,1.3-1.3,2.1-2.7,2.1c-0.6,0-1.1-0.1-1.1-0.1c0,0-16.9-2.5-18.8-2.8
		c-2-0.3-6.9-2.2-8.8-3c-2-0.9-7.9-6.1-9-7.4c-1.3-1.5-1-4.1,0-5.1c0.2-0.2,0.5-0.4,0.9-0.4c1,0,2.1,1.1,2.2,1.2c0,0,6.7,4.9,9,6.2
		c2.2,1.3,6.4,2.7,8,2.9l1.2,0.1c11.9,1.4,17.5,2.1,18.3,2.5C65.4,159,64.9,161.7,64.8,162z M66.7,153.5c-0.3,1.3-1.3,2.1-2.7,2.1
		c0,0,0,0,0,0c-0.6,0-1.1-0.1-1.1-0.1c0,0-16.9-2.5-18.8-2.8c-2-0.3-6.8-2.1-8.8-3c-2-0.9-7.8-6.1-9-7.4c-1.4-1.5-1-4.2,0-5.1
		c0.2-0.2,0.5-0.4,0.9-0.4c1,0,2.1,1.1,2.2,1.2c0,0,6.7,4.9,9,6.2c2.2,1.3,6.4,2.7,8,2.9l1.3,0.2c11.8,1.4,17.4,2.1,18.2,2.5
		C67.3,150.5,66.7,153.2,66.7,153.5z M68.9,144.6c-0.3,1.3-1.3,2.1-2.7,2.1c-0.6,0-1.1-0.1-1.1-0.1c0,0-16.9-2.5-18.8-2.8
		c-2-0.3-6.9-2.2-8.8-3c-2-0.9-7.9-6.1-9-7.4c-1.3-1.4-0.9-4.2,0-5.1c0.2-0.2,0.5-0.4,0.9-0.4c1,0,2.1,1.1,2.2,1.2
		c0,0,6.7,4.9,9,6.2c2.2,1.3,6.4,2.7,8,2.9l1.3,0.2c11.8,1.4,17.4,2.1,18.2,2.5C69.5,141.6,69,144.3,68.9,144.6z M92,160
		c0,0.2-0.6,5.6-3.5,5.7c-0.8,0-2.5,0.1-5.2,0.1c-4.7,0-10.5-0.1-10.5-0.1c-0.3,0-1.4-0.2-1.8-0.9l-0.1-0.2c-0.3-0.4-0.5-0.9-0.6-2
		c0-0.7-0.1-2.5,0.7-3.1c0.5-0.4,1.7-0.5,2.1-0.5l19.1,0.4L92,160z M94.1,151.6c0,0.2-0.6,5.6-3.5,5.7c-0.8,0-2.5,0.1-5.2,0.1
		c-4.7,0-10.5-0.1-10.5-0.1c-0.3,0-1.4-0.2-1.8-0.9l-0.1-0.2c-0.3-0.4-0.5-0.9-0.6-2c0-0.6-0.1-2.4,0.7-3.1c0.5-0.4,1.7-0.5,2.1-0.5
		l19.1,0.4L94.1,151.6z M96.8,142.5l-0.1,0.5c0,0.2-0.6,5.6-3.5,5.7c-0.8,0-2.5,0.1-5.2,0.1c-4.7,0-10.5-0.1-10.5-0.1
		c-0.3,0-1.4-0.2-1.8-0.9l-0.1-0.2c-0.3-0.4-0.5-0.9-0.6-2c0-0.6-0.1-2.4,0.7-3.1c0.5-0.4,1.7-0.5,2.1-0.5L96.8,142.5z M75.4,134.5
		c-1.7,0-3.1-1.4-3.1-3.1s1.4-3.1,3.1-3.1s3.1,1.4,3.1,3.1S77.1,134.5,75.4,134.5z M80,100.8c-0.3,1.3-1.3,2.1-2.7,2.1
		c-0.6,0-1.1-0.1-1.1-0.1c0,0-16.9-2.5-18.8-2.8c-2-0.3-6.9-2.2-8.8-3c-2-0.9-7.8-6.1-9-7.4c-1.3-1.4-0.9-4.2,0-5.1
		c0.2-0.2,0.5-0.4,0.9-0.4c1,0,2.1,1.1,2.2,1.2c0,0,6.7,4.9,9,6.2c2.3,1.4,6.5,2.8,8,2.9l0.2,0c8.3,0.9,18.3,2.1,19.4,2.6
		C80.6,97.7,80.1,100.4,80,100.8z M84.6,90.9c-0.4,1-1.4,1.6-2.9,1.6c-0.5,0-0.9-0.1-0.9-0.1l-0.2-0.1c-1.4-0.9-1.5-2.2-1.5-3.1
		c0-0.3,0.1-0.9,0.2-1.8C79.6,85.1,80,81,80,77.4c0-4.6-2.1-7.2-3.4-8.7l-0.2-0.2c-0.4-0.5-0.8-0.9-1.2-1.3c-0.9-1-1.7-1.7-1.3-2.5
		c0.3-0.7,1.1-1.1,2.1-1.1c0.2,0,0.4,0,0.6,0.1c1.1,0.2,5,4.3,7,7.2c2.3,3.3,2.4,6.4,2.4,9.4l0,0.3C86.2,83.5,85.3,89.1,84.6,90.9z
		 M92.5,91.7c-0.4,1.1-1.3,1.7-2.6,1.7c-0.2,0-0.4,0-0.5,0l-0.1,0c-1.3,0-1.4-0.9-1.5-1.7c0-0.2,0-0.3-0.1-0.5
		c-0.1-0.6,0.1-2.7,0.3-6c0.2-2.5,0.4-5.4,0.4-7.2c0.1-3.4-3-8.3-4.2-9.5c-0.4-0.5-1.8-2-1.6-3c0-0.3,0.2-0.5,0.5-0.6
		c0.8-0.4,1.7-0.1,3.1,0.8c1.3,1,6.2,8.3,7.3,11.5C94.7,80.6,93.1,90,92.5,91.7z M101,93.1c-0.3,0.9-1.3,1.4-2.8,1.4c0,0,0,0,0,0
		c-0.3,0-0.5,0-0.5,0l-0.2,0c-1.1-0.5-1.2-0.9-1.4-1.7c0-0.2-0.1-0.3-0.1-0.5c-0.2-0.7-0.1-3.3,0.1-7.5c0.1-2.3,0.2-4.5,0.2-5.6
		c-0.1-2.4-2.3-6.9-3.7-8.4c-0.5-0.6-2.1-2.5-1.7-3.5c0.2-0.4,0.7-0.6,1.4-0.3c1.7,0.6,8.6,9.4,9.4,11.6
		C102.5,80.8,101.5,91.8,101,93.1z"/>
	<path fill="#FFFFFF" d="M20.6,116.5l0,0.5c-0.1,3.6,0,4.3,0.5,4.5l0,0l0,0l0,0c1,0.4,1.6-0.3,3.2-2c1.1-1.2,1.1-2.6,1-4.1
		c0-0.4,0-0.8,0-1.2c0-0.3,0-1.1,0-2.4c0-2.8,0-7.8,0-13.4c-1.6,5.6-3.1,11.2-4.5,16.5C20.6,115.4,20.6,116,20.6,116.5z"/>
	<path d="M26.1,122.4c0.2-0.1,0.5-0.3,0.7-0.4c1.5-0.8,2.7-1.5,2.7-4c0-2.4,0-12.5,0-20l0-14.7c-1.1,3.6-2.3,7.5-3.4,11.5
		c0,0.6,0,1.2,0,1.7c0,6.3,0,12.1,0,15.2c0,1.3,0,2.1,0,2.4c0,0.4,0,0.8,0,1.2c0.1,1.6,0.1,3.3-1.2,4.8c-0.8,0.9-1.5,1.6-2.1,2.1
		C24.3,122.7,25.5,122.8,26.1,122.4z"/>
	<path fill="#FFFFFF" d="M63.5,159.2c-0.5-0.2-4-0.8-18-2.4l-1.2-0.1c-1.7-0.2-6-1.7-8.4-3.1c-2.3-1.4-8.8-6.1-9.1-6.3
		c-0.4-0.4-1.1-1-1.5-1c-0.1,0-0.1,0-0.2,0.1c-0.6,0.6-0.9,2.7,0,3.7c1.3,1.4,6.9,6.3,8.7,7.1c2,0.9,6.7,2.7,8.6,3
		c1.9,0.3,18.9,2.8,18.9,2.8c0.1,0,0.4,0.1,0.9,0.1c1,0,1.5-0.4,1.7-1.3C64,161.1,64.1,159.5,63.5,159.2z"/>
	<path d="M29.5,71.9l0-0.3c0-2.5,0-9.2,3-14.5c2.1-3.5,5.1-5.8,9.1-6.6c6.1-1.2,9.1-0.8,11.9-0.4c0.9,0.1,3.4,0.4,6.4,0.8
		c6.8,0.9,16,2.1,17.9,2.4l0.6,0.1C82.1,54,89,55.2,95.5,65.6c1.2,0.9,2.3,1.9,3.5,2.9c-0.9-2-2.4-5.1-3.8-6.8
		c-2.1-2.6-6.4-8-11.5-8.9c-5.3-0.9-32.1-5-34.3-5.2c-2.6-0.2-14.1,0-17.4,5.2c-3.5,5.4-5.5,9-5.8,18.6c-0.2,5.2-0.2,16.3-0.2,23.5
		c1.1-4,2.3-7.9,3.4-11.5L29.5,71.9z"/>
	<path fill="#FFFFFF" d="M65.3,150.7c-0.5-0.2-4-0.8-17.9-2.4l-1.3-0.2c-1.7-0.2-6-1.7-8.4-3.1c-2.3-1.4-8.8-6.1-9.1-6.3
		c-0.4-0.4-1.1-1-1.5-1c-0.1,0-0.1,0-0.2,0.1c-0.6,0.6-1,2.7,0,3.8c1.1,1.2,6.9,6.3,8.7,7.1c1.9,0.9,6.7,2.7,8.6,3
		c1.9,0.3,18.9,2.8,18.9,2.8c0.1,0,0.4,0.1,0.9,0.1c1,0,1.5-0.4,1.8-1.3C65.8,152.6,66,151,65.3,150.7z"/>
	<path fill="#FFFFFF" d="M67.5,141.8c-0.5-0.2-4-0.8-17.9-2.4l-1.3-0.2c-1.7-0.2-6-1.7-8.4-3.1c-2.3-1.4-8.8-6.1-9.1-6.3
		c-0.4-0.4-1.1-1-1.5-1c-0.1,0-0.1,0-0.2,0.1c-0.6,0.6-1,2.7,0,3.7c1.3,1.4,6.9,6.3,8.7,7.1c2,0.9,6.7,2.7,8.6,3
		c1.9,0.3,18.9,2.8,18.9,2.8c0.1,0,0.4,0.1,0.9,0.1c1,0,1.5-0.4,1.7-1.3C68.1,143.7,68.2,142.1,67.5,141.8z"/>
	<path fill="#FFFFFF" d="M48.7,56.8c-3.8-0.6-10.8-1.3-15.3,0.9c-2.9,5-2.8,11.5-2.8,13.9l0,7c3.1-9.6,5.5-15.1,7.1-16.8
		C40,59.4,43.7,57.7,48.7,56.8z"/>
	<path fill="#FFFFFF" d="M51.7,56.3c6.2-0.7,14.2-0.5,24.2,0.6c5.7,0.7,11.5,3,17.3,6.9c-5.8-8-11.6-9-14.9-9.5l-0.6-0.1
		c-1.9-0.3-11.1-1.6-17.9-2.4c-3.1-0.4-5.5-0.7-6.4-0.9c-2.6-0.4-5.6-0.8-11.5,0.4c-3.2,0.6-5.7,2.2-7.6,4.8
		C41.1,53.9,51,56.2,51.7,56.3z"/>
	<path fill="#FFFFFF" d="M31.1,124.4c1.1,1.2,6.9,6.3,8.7,7.1c1.9,0.9,6.7,2.7,8.6,3c0.7,0.1,3.8,0.6,7.2,1.1
		c4,0.6,8.4,1.2,10.5,1.6l-1.9-4.5c-3.9-0.5-9-1.1-11.8-1.4c-1-0.1-1.8-0.2-2.1-0.2c-1.7-0.2-6-1.7-8.4-3.1
		c-2.3-1.4-8.8-6.1-9.1-6.3c-0.4-0.4-1.1-1-1.5-1c-0.1,0-0.1,0-0.2,0.1C30.5,121.3,30.1,123.4,31.1,124.4z"/>
	<path fill="#FFFFFF" d="M33.4,115.5c1.3,1.4,6.9,6.3,8.7,7.1c2,0.9,6.7,2.7,8.6,3l14.5,2.2l4.1-3.6c-4.4-0.7-13-1.6-15.9-2
		l-0.8-0.1c-1.7-0.2-6-1.7-8.4-3.1c-2.3-1.4-8.8-6.1-9.1-6.3c-0.4-0.4-1.1-1-1.5-1c-0.1,0-0.1,0-0.2,0.1
		C32.8,112.4,32.4,114.5,33.4,115.5z"/>
	<path fill="#FFFFFF" d="M35.8,106.6c1.1,1.2,6.9,6.3,8.7,7.1c2,0.9,6.7,2.7,8.6,3c1.9,0.3,18.9,2.8,18.9,2.8c0.1,0,0.4,0.1,0.9,0.1
		c1,0,1.5-0.4,1.7-1.3c0.2-0.7,0.3-2.3-0.4-2.6c-0.6-0.3-5.8-1.1-19-2.5l-0.2,0c-1.8-0.2-6.1-1.7-8.4-3.1c-2.3-1.3-8.8-6.1-9.1-6.3
		c-0.4-0.4-1.1-1-1.5-1c-0.1,0-0.1,0-0.2,0.1C35.2,103.5,34.9,105.6,35.8,106.6z"/>
	<path fill="#FFFFFF" d="M37,172.8c1.6,1.4,2.6,1.6,3.2,1.6c0.3,0,0.6-0.1,1-0.1c0.1,0,0.3-0.1,0.4-0.1c1-0.1,2-1.6,2.8-3.7
		c0.2-0.7,0.2-1.3-0.1-1.8c-0.4-0.6-1.1-1.1-2.1-1.4c-1.2-0.3-3.6,2.7-4.5,4.7C37.5,172.3,37.3,172.6,37,172.8z"/>
	<path fill="#FFFFFF" d="M37.7,97.7c1.3,1.4,6.9,6.3,8.7,7.1c2,0.9,6.7,2.7,8.6,3c1.9,0.3,18.9,2.8,18.9,2.8c0.1,0,0.4,0.1,0.9,0.1
		c1,0,1.5-0.4,1.7-1.3c0.2-0.7,0.3-2.3-0.4-2.6c-0.5-0.2-4-0.8-18-2.4l-1.2-0.1c-1.7-0.2-6-1.7-8.4-3.1c-2.3-1.4-8.8-6.1-9.1-6.3
		c-0.4-0.4-1.1-1-1.5-1c-0.1,0-0.1,0-0.2,0.1C37.2,94.6,36.8,96.7,37.7,97.7z"/>
	<path fill="#FFFFFF" d="M78.6,97.9c-0.7-0.3-8-1.3-19.1-2.5l-0.2,0c-1.8-0.2-6.1-1.7-8.4-3.1c-2.3-1.3-8.8-6.1-9.1-6.3
		c-0.4-0.4-1.1-1-1.5-1c-0.1,0-0.1,0-0.2,0.1c-0.6,0.6-1,2.7,0,3.7c1.1,1.2,6.9,6.3,8.7,7.1c2,0.9,6.7,2.7,8.6,2.9
		c1.9,0.3,18.9,2.8,18.9,2.8c0.1,0,0.4,0.1,0.9,0.1c1,0,1.5-0.4,1.7-1.3C79.2,99.8,79.3,98.2,78.6,97.9z"/>
	<path fill="#FFFFFF" d="M47.3,175c-0.1,0.3-0.2,0.7-0.5,1c0.7,0.5,1.8,1.3,2.6,1.2c1.1-0.2,3.1-2.7,3.9-5.5
		c0.2-0.7,0.2-1.3-0.1-1.7c-0.4-0.6-1.4-0.8-2.1-0.8c-0.2,0-0.3,0-0.5,0C49.8,169.6,47.5,174,47.3,175z"/>
	<path fill="#FFFFFF" d="M55.4,177.5c0.8,0.6,1.8,0.9,3,0.7c1.1-0.1,2.5-1.9,3.6-4.4c0.6-1.5,0.8-2.5,0.5-3.2
		c-0.1-0.3-0.4-0.6-0.8-0.7c-0.3-0.1-0.6-0.1-0.8-0.1c-0.9,0-1.7,1-3.1,3.7C57.1,174.9,56.3,176.2,55.4,177.5z"/>
	<path fill="#FFFFFF" d="M59.4,70.5l0.4,0.5c1.2,1.5,1.9,4.7,1.9,7c0,0.9,0,2-0.1,3.1c-0.1,1.6-0.2,3.7,0,4.2
		c0.3,0.9,0.8,2.2,2.4,2.8c0.6-0.1,1.8-0.5,1.9-1.2c0.2-0.9,0.1-8.1,0-12.8c0-0.1,0.1-2.6-1.1-4.2c-1.2-1.7-4.6-5.1-4.7-5.2
		c0,0-1.3-0.8-2.5-0.8c-0.2,0-0.4,0-0.5,0.1c-0.4,0.1-0.7,0.3-0.8,0.5c-0.3,0.4-0.1,1.1,0,1.6C56.5,67,58.4,69.3,59.4,70.5z"/>
	<path fill="#FFFFFF" d="M65.1,179.7c0.6,0,0.9-0.3,1.2-0.5c0.1-0.1,0.2-0.2,0.3-0.2c1.1-0.7,4.3-4.7,4.4-6.4c0-0.4-0.1-0.8-0.3-1.1
		c-0.5-0.6-1.5-0.8-2.1-0.8c-0.6,0.1-2.1,3.1-3,4.9c-0.2,0.4-0.4,0.9-0.6,1.3c-0.4,0.9-1,1.6-1.5,2.3
		C64.1,179.5,64.7,179.7,65.1,179.7z"/>
	<path fill="#FFFFFF" d="M67.7,67.5c1.1,1.4,2.5,3.2,3,4.6c0.7,2.2,0.9,6.9,0.9,9.4c0,0.3,0,0.6,0,0.9c-0.1,2.3-0.3,7.1,1.4,7.8
		c0,0,0.1,0,0.1,0c0.7,0,1.9-0.2,2.2-1.7c0.5-2.6,1.1-14.9-1.4-18.2c-2.4-3.2-4.2-5.3-6.1-5.7c-0.2,0-0.4-0.1-0.6-0.1
		c-0.4,0-0.6,0.1-0.7,0.3c-0.2,0.2-0.1,0.6,0,0.9C66.5,66,67.2,66.8,67.7,67.5z"/>
	<path fill="#FFFFFF" d="M90.9,160.4l-18-0.3c-0.5,0-1.2,0.1-1.4,0.2c-0.2,0.2-0.4,1-0.3,2.3c0.1,0.9,0.2,1.1,0.5,1.5l0.1,0.2
		c0.1,0.2,0.6,0.3,1,0.4c0,0,0,0,0,0c0.3,0,5.9,0.1,10.4,0.1c2.7,0,4.4,0,5.2-0.1C89.9,164.6,90.7,161.9,90.9,160.4z"/>
	<path fill="#FFFFFF" d="M93,152.1l-18-0.3c-0.5,0-1.2,0.1-1.4,0.2c-0.2,0.1-0.4,1-0.3,2.3c0.1,0.9,0.2,1.1,0.4,1.5l0.1,0.2
		c0.1,0.2,0.6,0.3,1,0.4c0,0,0,0,0,0c0.3,0,5.9,0.1,10.4,0.1c2.7,0,4.4,0,5.2-0.1C92.1,156.3,92.8,153.6,93,152.1z"/>
	<path fill="#FFFFFF" d="M76,177.7c1.1-0.8,3.1-4.4,3.1-5.5c0-0.1,0-0.1-0.1-0.3c-0.4-0.4-1.4-0.7-2.2-0.7c-0.3,0-0.5,0-0.6,0.1
		c-0.5,0.3-1.7,3.6-2.4,5.7c-0.1,0.3-0.2,0.5-0.4,0.8C74.2,178.5,75,178.4,76,177.7z"/>
	<circle fill="#FFFFFF" cx="75.4" cy="131.5" r="2.1"/>
	<path fill="#FFFFFF" d="M85.1,80.5l0-0.3c-0.1-3-0.1-5.8-2.3-8.8c-2.3-3.3-5.7-6.6-6.4-6.8c-0.5-0.1-1.5,0-1.7,0.5
		c0,0.2,0.7,0.9,1.1,1.4c0.4,0.4,0.9,0.9,1.3,1.4l0.2,0.2c1.3,1.5,3.6,4.4,3.6,9.4c0,3.7-0.4,7.8-0.7,10.2c-0.1,0.8-0.1,1.4-0.2,1.7
		c-0.1,1.1,0.2,1.7,0.9,2.2c0.1,0,0.3,0,0.6,0c0.7,0,1.7-0.2,2-1C84.3,88.8,85.2,83.3,85.1,80.5z"/>
	<path fill="#FFFFFF" d="M95.6,143.5l-18-0.3c-0.5,0-1.2,0.1-1.4,0.2c-0.2,0.1-0.4,1-0.3,2.3c0.1,0.9,0.2,1.1,0.4,1.5l0.1,0.2
		c0.1,0.2,0.6,0.3,1,0.4c0,0,0,0,0,0c0.3,0,5.9,0.1,10.4,0.1c2.7,0,4.4,0,5.2-0.1C94.7,147.7,95.4,145,95.6,143.5z"/>
	<path fill="#FFFFFF" d="M97.8,134.8l-12.2-0.2l-5.8,4.5c0.8,0,6.1,0.1,10.3,0.1c2.7,0,4.4,0,5.2-0.1
		C96.8,139,97.6,136.3,97.8,134.8z"/>
	<path fill="#FFFFFF" d="M80.9,176.3l0.3,0.1c0.8,0.1,2.4-0.7,3.3-1.8c0.8-0.8,1.4-2.4,1.2-3.1c0-0.2-0.1-0.2-0.1-0.2
		c-0.7-0.3-2,0.5-2.6,1.6C82.6,173.6,81.6,175.1,80.9,176.3z"/>
	<path fill="#FFFFFF" d="M101.8,118.1l-18.1-1c-0.7,0-1.2,0.1-1.3,0.2c-0.2,0.1-0.4,0.9-0.4,2.2c0,0.9,0.2,1.1,0.4,1.5l0.1,0.2
		c0.1,0.2,0.6,0.4,1,0.4c0,0,0,0,0,0c0.1,0,12,0.5,15.2,0.5l0.4,0C100.7,122.3,101.5,119.7,101.8,118.1z"/>
	<path fill="#FFFFFF" d="M91.9,130.7c2.9,0,4.7,0,5.5-0.1c1.5-0.1,2.3-2.8,2.5-4.3l-16.3-0.3l3.4,4.7
		C88.6,130.7,90.3,130.7,91.9,130.7z"/>
	<path fill="#FFFFFF" d="M92.6,77.5c-1.1-3.2-5.9-10.3-6.9-11c-0.9-0.6-1.5-0.9-1.9-0.8c0,0.3,0.4,1.1,1.4,2.1c1,1,4.6,6.2,4.5,10.2
		c0,1.8-0.2,4.7-0.4,7.2c-0.2,2.6-0.4,5.2-0.3,5.7c0,0.2,0,0.4,0.1,0.6c0.1,0.8,0.1,0.8,0.5,0.8l0.2,0c0,0,0.2,0,0.4,0
		c0.9,0,1.4-0.3,1.6-1C92.2,89.6,93.6,80.5,92.6,77.5z"/>
	<path fill="#FFFFFF" d="M101.2,113.6l0.4,0c1.5,0,2.4-2.7,2.6-4.2l-18.1-1c-0.8,0-1.2,0.1-1.3,0.2c-0.2,0.2-0.5,0.9-0.4,2.3
		c0,0.9,0.2,1.1,0.4,1.5l0.1,0.2c0.1,0.2,0.6,0.4,1,0.4C86,113.1,97.9,113.6,101.2,113.6z"/>
	<path fill="#FFFFFF" d="M106.6,100.8l-17.9-1.2c0,0-0.1,0-0.2,0c-0.7,0-1.1,0.1-1.2,0.2c-0.2,0.1-0.5,0.9-0.4,2.2
		c0,0.9,0.2,1.2,0.4,1.5l0.1,0.2c0.1,0.2,0.6,0.4,1,0.5c0.1,0,12.7,0.8,15.5,0.8l0.1,0C105.5,105,106.3,102.4,106.6,100.8z"/>
	<path fill="#FFFFFF" d="M100.7,78.8c-0.8-2.1-7.5-10.5-8.8-11c0,0,0,0-0.1,0c0.1,0.4,0.6,1.2,1.5,2.2c1.5,1.7,3.8,6.4,3.9,9
		c0,1.1-0.1,3.3-0.2,5.6c-0.1,2.8-0.3,6.6-0.2,7.2c0.1,0.2,0.1,0.4,0.1,0.6c0.1,0.6,0.2,0.7,0.8,1c0.1,0,0.2,0,0.3,0
		c0.5,0,1.6-0.1,1.9-0.8C100.5,91.4,101.5,80.8,100.7,78.8z"/>
	<path fill="#FFFFFF" d="M106.8,80.8c-0.7-1.5-3.9-5.8-6.2-8.2c0.1,0.2,0.3,0.4,0.4,0.6c1.3,1.8,2.6,3.6,3,4.7
		c0.7,2.2,0.7,5.8,0.6,7.7c0,0.5-0.1,1.2-0.1,1.9c-0.1,1.5-0.3,4.3-0.1,4.7c0.1,0.2,0.2,0.3,0.3,0.5c0.3,0.4,0.5,0.9,0.9,0.8
		c0.2,0,1.7-0.1,1.9-1.6C107.9,90,107.6,82.7,106.8,80.8z"/>
	<path fill="#FFFFFF" d="M99.9,70.6c0.7,0.6,1.5,1.5,2.4,2.5c3.1,3.3,5.5,6.4,6.6,8.4c3,5.3,2.5,10.1,2.1,13.6
		c-0.3,2.8-2.7,4.7-3.3,5.1l0,0.2c0,0-0.1,0.3-0.1,0.7c0.4,0.4,1.8,2.3,1.2,4.2c-0.7,2.3-3.2,3.6-3.2,3.6l-0.2,0.1
		c0,0.1,0,0.2-0.1,0.4l0.1,0.2c0,0,1.6,2.2,1.3,4.3c-0.3,1.6-2.7,3-3.7,3.4l0,0.3c0,0,0,0.3-0.1,0.7c0.6,1.2,1.9,3.8,1.9,4.9
		c0,1-1.4,2.5-2.3,3.3l-0.2,0.2l0,0.3c0,0,0.2,2.9,0,4.5c-0.1,1.2-2.2,2-2.9,2.3l-0.3,0.1l0,0.4c0,0,0,0,0,0.1l0,0.1
		c0.4,1.1,1.2,4.4,1,5.5c-0.3,1.4-2.1,2.8-2.1,2.8l-0.2,0.2l0,0.3c0,0,0.4,2.6,0,4.3c-0.3,1.2-2.2,2.6-2.9,3l-0.4,0.2l0.1,0.4
		c0.4,1.1,1.3,4.2,1.1,5.2c-0.1,0.9-1.6,2.2-2.1,2.6l-0.2,0.1l0,0.2c0,0.2-0.4,4.3-0.4,6c0,1.4-5.4,8.9-7.9,11
		c-0.8,0.7-1.9,1-2.8,1.1c-0.3,0.1-0.5,0.1-0.8,0.1c-0.1,0-0.3,0-0.4,0l-0.7-0.1c-0.2,0.4-0.4,0.6-0.4,0.6l-0.8-0.5
		c0,0,0.1-0.1,0.2-0.3l0,0l0,0l0,0l-0.2,0.3c0,0-1.1,1.9-3.3,2.3c-1.5,0.2-2.6-0.3-3.1-0.7c-0.2,0.2-0.4,0.4-0.4,0.4l-0.7-0.7
		c0,0,0,0,0,0c-0.1,0.1-3,2.4-5.1,2.5c-1.4,0-3.2-0.5-4.2-0.8c-0.6,0.4-0.9,0.6-1,0.6l-0.2-0.5l-0.2-0.4c0,0,0.1,0,0.2-0.1l0,0
		l-0.2,0.2c0,0-2,1.4-3.7,1.1c-1.3-0.3-2.3-1.6-2.7-2.2c-0.2,0.2-0.3,0.3-0.3,0.3l-0.7-0.7c0,0,0,0,0-0.1c-0.9,0.5-3.3,1.6-4.7,1.1
		c-1.3-0.5-2.5-1.6-3.1-2.2c-0.2,0.2-0.4,0.3-0.4,0.4l-0.6-0.8c0,0,0,0,0.1-0.1c-0.3,0.1-2.1,0.6-4.2,0c-1.5-0.5-3.8-2.1-5.3-3.1
		c-0.1,0-0.3,0-0.4,0c-0.6,0-1-0.1-1.3-0.2l-0.1,0c0.6,0.5,4.4,3.5,6.8,4.3c2.1,0.6,3.9,0.3,4.6,0.1c0.5,0.6,2,1.9,3.6,2.6
		c1.7,0.7,4.2-0.4,5.2-1c0.5,0.7,1.7,2.2,3.3,2.5c1.8,0.4,3.6-0.7,4.2-1.1c0.8,0.3,3.2,1.2,5.2,1.2c0.1,0,0.1,0,0.2,0
		c2-0.1,4.5-1.7,5.4-2.4c0.6,0.5,1.9,1.3,4,1c2.1-0.3,3.4-1.8,3.8-2.4c1,0.2,3.8,0.6,5.9-1.1c2.2-1.8,8.3-9.7,8.3-11.8
		c0-1.5,0.3-4.8,0.4-5.7c0.6-0.4,2.1-1.8,2.3-3.1c0.2-1.2-0.7-4.2-1.1-5.3c0.8-0.5,2.6-1.8,3-3.4c0.3-1.5,0.1-3.6,0-4.3
		c0.5-0.5,1.9-1.8,2.3-3.2c0.3-1.4-0.5-4.4-0.8-5.6c1-0.4,3-1.3,3.2-3c0.2-1.5,0.1-3.7,0-4.5c0.6-0.6,2.5-2.4,2.5-3.9
		c0-1.4-1.3-4.1-1.9-5.2c1.1-0.5,3.5-2,3.9-4c0.3-1.9-0.6-3.7-1.1-4.5c0.9-0.5,2.6-1.9,3.2-3.9c0.7-2.1-0.5-4-1.1-4.9
		c1-0.7,3.1-2.7,3.4-5.7c0.4-3.4,1-8.6-2.2-14.2c-1.3-2.3-4.5-6.5-9.1-10.9c0,0,0,0.1,0,0.1L99.9,70.6z"/>
	<path fill="#FFFFFF" d="M95.6,65.7l-0.8,0.5c-0.5-0.8-1-1.6-1.6-2.3C87.4,60,81.6,57.6,75.9,57c-10-1.1-18-1.4-24.2-0.6
		c0,0,0,0,0,0l-0.2,1c0,0-1.1-0.3-2.8-0.5c-5,0.9-8.6,2.6-11,5c-1.7,1.7-4,7.2-7.1,16.8l0,3.3c4.4-13.9,6.7-18.2,7.8-19.3
		c5.4-5.4,17.3-6.8,37.4-4.5c6.3,0.7,12.7,3.5,19.1,8.4c1.5,1.1,2.9,2.4,4.4,3.7c0.2,0.1,0.4,0.2,0.7,0.5c-0.1-0.2-0.4-1-0.9-2
		C97.9,67.5,96.7,66.5,95.6,65.7C95.5,65.6,95.5,65.7,95.6,65.7z"/>
	<path fill="#FFFFFF" d="M33.5,173L33.5,173l0-0.5l0,0l0,0c-2.1-0.2-14.8-16.9-17.4-21.2c-1.5-2.4-1.9-6.3-1.3-11.7
		c0.1-0.5,1.9-8.3,4.6-18.9c-0.1-0.8-0.1-2,0-3.8l0-0.1c-3.2,12.1-5.5,21.9-5.6,22.7c-0.6,5.5-0.1,9.6,1.4,12.2
		c1.9,3.1,14.7,20.7,18,21.6l-0.1-0.1L33.5,173z"/>
	<path fill="#FFFFFF" d="M70.9,159.5c-0.8,0.6-0.7,2.4-0.7,3.1c0.1,1.1,0.3,1.5,0.6,2l0.1,0.2c0.4,0.7,1.5,0.9,1.8,0.9
		c0,0,5.9,0.1,10.5,0.1c2.7,0,4.5,0,5.2-0.1c2.9-0.2,3.5-5.5,3.5-5.7l0.1-0.5L73,159.1C72.6,159.1,71.4,159.1,70.9,159.5z
		 M83.2,164.8c-4.5,0-10.2-0.1-10.4-0.1c0,0,0,0,0,0c-0.4,0-0.9-0.2-1-0.4l-0.1-0.2c-0.2-0.4-0.4-0.7-0.5-1.5
		c-0.1-1.3,0.1-2.1,0.3-2.3c0.2-0.1,0.9-0.2,1.4-0.2l18,0.3c-0.2,1.5-1,4.2-2.5,4.3C87.7,164.7,85.9,164.8,83.2,164.8z"/>
	<path fill="#FFFFFF" d="M73,151.2c-0.8,0.7-0.7,2.5-0.7,3.1c0.1,1.1,0.3,1.5,0.6,2l0.1,0.2c0.4,0.7,1.5,0.9,1.8,0.9
		c0,0,5.9,0.1,10.5,0.1c2.7,0,4.5,0,5.2-0.1c2.9-0.2,3.5-5.5,3.5-5.7l0.1-0.5l-19.1-0.4C74.7,150.7,73.6,150.8,73,151.2z
		 M85.4,156.4c-4.5,0-10.2-0.1-10.4-0.1c0,0,0,0,0,0c-0.4,0-0.9-0.2-1-0.4l-0.1-0.2c-0.2-0.4-0.4-0.7-0.4-1.5
		c-0.1-1.3,0.1-2.1,0.3-2.3c0.2-0.1,0.9-0.2,1.4-0.2l18,0.3c-0.2,1.5-1,4.2-2.5,4.3C89.8,156.4,88.1,156.4,85.4,156.4z"/>
	<path fill="#FFFFFF" d="M75.6,142.6c-0.8,0.7-0.7,2.5-0.7,3.1c0.1,1.1,0.3,1.5,0.6,2l0.1,0.2c0.4,0.7,1.5,0.9,1.8,0.9
		c0,0,5.9,0.1,10.5,0.1c2.7,0,4.5,0,5.2-0.1c2.9-0.2,3.5-5.5,3.5-5.7l0.1-0.5l-19.1-0.4C77.3,142.1,76.2,142.2,75.6,142.6z
		 M88,147.8c-4.5,0-10.2-0.1-10.4-0.1c0,0,0,0,0,0c-0.4,0-0.9-0.2-1-0.4l-0.1-0.2c-0.2-0.4-0.4-0.6-0.4-1.5
		c-0.1-1.3,0.1-2.1,0.3-2.3c0.2-0.1,0.9-0.2,1.4-0.2l18,0.3c-0.2,1.5-1,4.2-2.5,4.3C92.4,147.8,90.7,147.8,88,147.8z"/>
	<path fill="#FFFFFF" d="M83.9,116.2l-0.2,0c-0.6,0-1.5,0.1-1.9,0.4c-0.8,0.6-0.8,2.3-0.8,3.1c0,1.1,0.3,1.6,0.5,2l0.1,0.2
		c0.4,0.7,1.5,0.9,1.8,1c0.1,0,12,0.5,15.3,0.5l0.4,0c2.3-0.1,3.3-3.5,3.6-4.9c0.1-0.4,0.1-0.6,0.1-0.7l0-0.3l0-0.2L83.9,116.2z
		 M83.5,121.8C83.5,121.8,83.5,121.8,83.5,121.8c-0.4-0.1-0.9-0.3-1-0.4l-0.1-0.2c-0.2-0.4-0.4-0.7-0.4-1.5c0-1.3,0.2-2.1,0.4-2.2
		c0.1-0.1,0.6-0.2,1.3-0.2l18.1,1c-0.3,1.5-1.1,4.2-2.6,4.2l-0.4,0C95.5,122.4,83.6,121.8,83.5,121.8z"/>
	<path fill="#FFFFFF" d="M105.4,108.5l-19.1-1l-0.2,0c-0.9,0-1.6,0.1-1.9,0.4c-0.8,0.6-0.8,2.4-0.8,3.1c0,1.1,0.3,1.6,0.5,2l0.1,0.2
		c0.4,0.7,1.5,0.9,1.8,1c0.1,0,12,0.5,15.3,0.5l0.4,0c2.4-0.1,3.3-3.7,3.6-5.1c0-0.2,0.1-0.3,0.1-0.4c0-0.1,0-0.1,0-0.1L105.4,108.5
		z M84.8,112.4c-0.2-0.4-0.4-0.7-0.4-1.5c0-1.3,0.2-2.1,0.4-2.3c0.1-0.1,0.5-0.2,1.3-0.2l18.1,1c-0.3,1.5-1.1,4.2-2.6,4.2l-0.4,0
		c-3.3,0-15.1-0.5-15.2-0.5c-0.4-0.1-0.9-0.3-1-0.4L84.8,112.4z"/>
	<path fill="#FFFFFF" d="M88.8,98.6c0,0-0.1,0-0.3,0c-0.8,0-1.5,0.1-1.8,0.4c-0.8,0.6-0.8,2.3-0.8,3.1c0,1.1,0.3,1.6,0.5,2l0.1,0.2
		c0.4,0.7,1.5,0.9,1.8,1c0.5,0,12.8,0.8,15.6,0.8l0.1,0c2.3,0,3.3-3.3,3.6-4.8c0.1-0.4,0.1-0.7,0.1-0.7l0-0.2l0-0.3L88.8,98.6z
		 M103.8,105c-2.8,0-15.4-0.8-15.5-0.8c-0.4-0.1-0.9-0.3-1-0.5l-0.1-0.2c-0.2-0.4-0.4-0.7-0.4-1.5c0-1.3,0.2-2.1,0.4-2.2
		c0.1-0.1,0.4-0.2,1.2-0.2c0.1,0,0.2,0,0.2,0l17.9,1.2c-0.3,1.5-1.2,4.2-2.7,4.2L103.8,105z"/>
	<path fill="#FFFFFF" d="M63.9,158.3c-0.8-0.4-6.5-1.1-18.3-2.5l-1.2-0.1c-1.6-0.2-5.8-1.6-8-2.9c-2.3-1.3-9-6.2-9-6.2
		c-0.1-0.1-1.2-1.2-2.2-1.2c-0.3,0-0.6,0.1-0.9,0.4c-1,1-1.4,3.7,0,5.1c1.2,1.3,7,6.5,9,7.4c1.9,0.9,6.8,2.7,8.8,3
		c1.9,0.3,18.8,2.8,18.8,2.8c0,0,0.5,0.1,1.1,0.1c1.4,0,2.4-0.7,2.7-2.1C64.9,161.7,65.4,159,63.9,158.3z M62.1,163.1
		c-0.5,0-0.8-0.1-0.9-0.1c0,0-17-2.5-18.9-2.8c-1.8-0.3-6.6-2.1-8.6-3c-1.8-0.8-7.5-5.8-8.7-7.1c-1-1-0.6-3.1,0-3.7
		c0,0,0.1-0.1,0.2-0.1c0.4,0,1.1,0.5,1.5,1c0.3,0.2,6.8,5,9.1,6.3c2.4,1.4,6.7,2.8,8.4,3.1l1.2,0.1c14,1.6,17.5,2.2,18,2.4
		c0.7,0.3,0.6,1.9,0.4,2.6C63.6,162.7,63.1,163.1,62.1,163.1z"/>
	<path fill="#FFFFFF" d="M65.7,149.8c-0.8-0.4-6.4-1.1-18.2-2.5l-1.3-0.2c-1.6-0.2-5.8-1.6-8-2.9c-2.3-1.3-8.9-6.2-9-6.2
		c-0.1-0.1-1.2-1.2-2.2-1.2c-0.3,0-0.6,0.1-0.9,0.4c-1,1-1.4,3.7,0,5.1c1.2,1.3,7,6.5,9,7.4c2,0.9,6.9,2.7,8.8,3
		c1.9,0.3,18.8,2.8,18.8,2.8c0,0,0.5,0.1,1.1,0.1c0,0,0,0,0,0c1.4,0,2.4-0.7,2.7-2.1C66.7,153.2,67.3,150.5,65.7,149.8z M63.9,154.6
		c-0.4,0-0.8-0.1-0.9-0.1c0,0-17-2.5-18.9-2.8c-1.9-0.3-6.7-2.1-8.6-3c-1.8-0.8-7.6-5.9-8.7-7.1c-1-1.1-0.6-3.2,0-3.8
		c0,0,0.1-0.1,0.2-0.1c0.4,0,1.1,0.5,1.5,1c0.3,0.2,6.8,5,9.1,6.3c2.4,1.4,6.7,2.9,8.4,3.1l1.3,0.2c14,1.6,17.4,2.2,17.9,2.4
		c0.7,0.3,0.6,1.9,0.4,2.6C65.5,154.2,64.9,154.6,63.9,154.6z"/>
	<path fill="#FFFFFF" d="M68,140.9c-0.8-0.4-6.4-1.1-18.2-2.5l-1.3-0.2c-1.6-0.2-5.8-1.6-8-2.9c-2.3-1.3-8.9-6.2-9-6.2
		c-0.1-0.1-1.2-1.2-2.2-1.2c-0.3,0-0.6,0.1-0.9,0.4c-1,1-1.3,3.7,0,5.1c1.2,1.3,7,6.5,9,7.4c1.9,0.9,6.8,2.7,8.8,3
		c1.9,0.3,18.8,2.8,18.8,2.8c0,0,0.5,0.1,1.1,0.1c1.4,0,2.4-0.7,2.7-2.1C69,144.3,69.5,141.6,68,140.9z M66.2,145.7
		c-0.5,0-0.8-0.1-0.9-0.1c0,0-17-2.5-18.9-2.8c-1.9-0.3-6.6-2.1-8.6-3c-1.8-0.8-7.5-5.8-8.7-7.1c-1-1-0.6-3.2,0-3.7
		c0,0,0.1-0.1,0.2-0.1c0.4,0,1.1,0.5,1.5,1c0.3,0.2,6.8,5,9.1,6.3c2.4,1.4,6.7,2.8,8.4,3.1l1.3,0.2c14,1.6,17.4,2.2,17.9,2.4
		c0.7,0.3,0.6,1.9,0.4,2.6C67.7,145.3,67.2,145.7,66.2,145.7z"/>
	<path fill="#FFFFFF" d="M44.1,114.6c1.9,0.9,6.8,2.7,8.8,3c1.9,0.3,18.8,2.8,18.9,2.8c0,0,0.5,0.1,1.1,0.1c1.4,0,2.4-0.7,2.7-2.1
		c0.1-0.3,0.6-3-1-3.7c-1.1-0.5-11.1-1.7-19.3-2.6l-0.2,0c-1.5-0.2-5.7-1.6-8-2.9c-2.3-1.3-8.9-6.2-9-6.2c-0.2-0.2-1.2-1.2-2.2-1.2
		c-0.3,0-0.6,0.1-0.9,0.4c-1,0.9-1.4,3.7,0,5.1C36.3,108.6,42.1,113.7,44.1,114.6z M36,102.8c0.4,0,1.1,0.5,1.5,1
		c0.3,0.2,6.8,5,9.1,6.3c2.3,1.4,6.6,2.9,8.4,3.1l0.2,0c13.2,1.5,18.5,2.3,19,2.5c0.7,0.3,0.6,1.9,0.4,2.6c-0.2,0.9-0.8,1.3-1.7,1.3
		c-0.5,0-0.8-0.1-0.9-0.1c0,0-17-2.5-18.9-2.8c-1.9-0.3-6.6-2.1-8.6-3c-1.8-0.8-7.6-5.9-8.7-7.1c-1-1.1-0.6-3.2,0-3.7
		C35.9,102.8,35.9,102.8,36,102.8z"/>
	<path fill="#FFFFFF" d="M46.1,105.7c1.9,0.9,6.8,2.7,8.8,3c1.9,0.3,18.8,2.8,18.8,2.8c0,0,0.5,0.1,1.1,0.1c1.4,0,2.4-0.7,2.7-2.1
		c0.1-0.3,0.6-3-1-3.7c-0.8-0.4-6.5-1.1-18.3-2.5l-1.2-0.1c-1.6-0.2-5.8-1.6-8-2.9c-2.3-1.3-9-6.2-9-6.2c-0.1-0.1-1.2-1.2-2.2-1.2
		c-0.3,0-0.6,0.1-0.9,0.4c-1,1-1.4,3.7,0,5.1C38.2,99.6,44,104.8,46.1,105.7z M37.9,93.9c0.4,0,1.1,0.5,1.5,1c0.3,0.2,6.8,5,9.1,6.3
		c2.4,1.4,6.7,2.8,8.4,3.1l1.2,0.1c14,1.6,17.5,2.2,18,2.4c0.7,0.3,0.6,1.9,0.4,2.6c-0.2,0.9-0.8,1.3-1.7,1.3
		c-0.5,0-0.8-0.1-0.9-0.1c0,0-17-2.5-18.9-2.8c-1.8-0.3-6.6-2.1-8.6-3c-1.8-0.8-7.5-5.8-8.7-7.1c-1-1-0.6-3.1,0-3.7
		C37.8,93.9,37.8,93.9,37.9,93.9z"/>
	<path fill="#FFFFFF" d="M79.1,97c-1.1-0.5-11.1-1.7-19.4-2.6l-0.2,0c-1.5-0.2-5.7-1.6-8-2.9c-2.3-1.3-9-6.2-9-6.2
		c-0.1-0.1-1.2-1.2-2.2-1.2c-0.3,0-0.6,0.1-0.9,0.4c-1,1-1.3,3.7,0,5.1c1.2,1.3,7,6.4,9,7.4c1.9,0.9,6.8,2.7,8.8,3
		c1.9,0.3,18.8,2.8,18.8,2.8c0,0,0.5,0.1,1.1,0.1c1.4,0,2.4-0.7,2.7-2.1C80.1,100.4,80.6,97.7,79.1,97z M77.3,101.8
		c-0.5,0-0.8-0.1-0.9-0.1c0,0-17-2.5-18.9-2.8c-1.8-0.3-6.6-2.1-8.6-2.9c-1.8-0.8-7.6-5.9-8.7-7.1c-1-1-0.6-3.2,0-3.7
		c0,0,0.1-0.1,0.2-0.1c0.4,0,1.1,0.5,1.5,1c0.3,0.2,6.8,5,9.1,6.3c2.3,1.4,6.6,2.9,8.4,3.1l0.2,0c11.1,1.2,18.4,2.2,19.1,2.5
		c0.7,0.3,0.6,1.9,0.4,2.6C78.8,101.4,78.3,101.8,77.3,101.8z"/>
	<path fill="#FFFFFF" d="M85.3,133.5l-7.5,5.9l0.7,0.4c0.5,0.2,1,0.3,1.1,0.3c0,0,5.9,0.1,10.5,0.1c2.7,0,4.5,0,5.2-0.1
		c2.8-0.2,3.4-5,3.5-5.7c0,0,0-0.1,0-0.1l0-0.4l0-0.1L85.3,133.5z M90.1,139.1c-4.3,0-9.6-0.1-10.3-0.1l5.8-4.5l12.2,0.2
		c-0.2,1.5-1,4.2-2.5,4.3C94.6,139.1,92.8,139.1,90.1,139.1z"/>
	<path fill="#FFFFFF" d="M86.8,131.7c1.6,0,3.5,0,5.1,0c2.9,0,4.7,0,5.5-0.1c2.9-0.2,3.5-5.5,3.5-5.7l0.1-0.5L81.6,125l4.9,6.7
		L86.8,131.7z M99.9,126.4c-0.2,1.5-1,4.2-2.5,4.3c-0.8,0-2.6,0.1-5.5,0.1c-1.6,0-3.3,0-4.9,0l-3.4-4.7L99.9,126.4z"/>
	<path fill="#FFFFFF" d="M39.4,132.5c2,0.9,6.9,2.7,8.8,3c0.7,0.1,3.8,0.6,7.2,1.1c4.7,0.7,10.1,1.5,11.4,1.7l0.9,0.1l-2.9-6.7
		l-0.3,0c-4-0.5-9.3-1.2-12.1-1.5c-1-0.1-1.8-0.2-2.1-0.2c-1.6-0.2-5.8-1.6-8-2.9c-2.3-1.3-8.9-6.2-9-6.2c-0.1-0.1-1.2-1.2-2.2-1.2
		c-0.3,0-0.6,0.1-0.9,0.4c-1,1-1.4,3.7,0,5.1C31.6,126.4,37.4,131.5,39.4,132.5z M31.2,120.6c0.4,0,1.1,0.5,1.5,1
		c0.3,0.2,6.8,5,9.1,6.3c2.4,1.4,6.7,2.9,8.4,3.1c0.3,0,1,0.1,2.1,0.2c2.8,0.3,7.9,0.9,11.8,1.4l1.9,4.5c-2.1-0.3-6.6-1-10.5-1.6
		c-3.4-0.5-6.4-1-7.2-1.1c-1.9-0.3-6.7-2.1-8.6-3c-1.8-0.8-7.6-5.9-8.7-7.1c-1-1.1-0.6-3.2,0-3.8C31.1,120.6,31.2,120.6,31.2,120.6z
		"/>
	<path fill="#FFFFFF" d="M41.7,123.5c1.9,0.9,6.8,2.7,8.8,3l15,2.2l6-5.3l-1-0.2c-4-0.7-13.8-1.8-17-2.2l-0.8-0.1
		c-1.5-0.2-5.7-1.6-8-2.9c-2.3-1.3-8.9-6.2-9-6.2c-0.2-0.2-1.2-1.2-2.2-1.2c-0.3,0-0.6,0.1-0.9,0.4c-1,1-1.3,3.7,0,5.1
		C33.8,117.4,39.7,122.6,41.7,123.5z M33.5,111.7c0.4,0,1.1,0.5,1.5,1c0.3,0.2,6.8,5,9.1,6.3c2.4,1.4,6.7,2.8,8.4,3.1l0.8,0.1
		c3,0.3,11.5,1.3,15.9,2l-4.1,3.6l-14.5-2.2c-1.8-0.3-6.6-2.1-8.6-3c-1.8-0.8-7.5-5.8-8.7-7.1c-1-1-0.6-3.2,0-3.7
		C33.4,111.7,33.4,111.7,33.5,111.7z"/>
	<path fill="#FFFFFF" d="M41.4,175.3c0.1,0,0.2,0,0.4-0.1c1.4-0.2,2.7-1.8,3.6-4.4c0.3-1,0.3-1.9-0.1-2.6c-0.5-0.9-1.5-1.6-2.7-1.9
		c-0.1,0-0.2,0-0.4,0c-2,0-4.5,3.6-5.3,5.2c-0.2,0.4-0.4,0.6-0.8,0.8l0.4,0.9c-0.1,0.1-0.2,0.1-0.3,0.1c1.6,1.4,2.9,2.1,4.1,2.1
		C40.6,175.5,41,175.4,41.4,175.3z M42.2,167.3c1,0.2,1.7,0.7,2.1,1.4c0.3,0.5,0.3,1.1,0.1,1.8c-0.8,2.2-1.8,3.6-2.8,3.7
		c-0.1,0-0.3,0-0.4,0.1c-0.3,0.1-0.6,0.1-1,0.1c-0.6,0-1.6-0.2-3.2-1.6c0.3-0.2,0.5-0.5,0.7-0.9C38.7,170,41,167,42.2,167.3z"/>
	<path fill="#FFFFFF" d="M34.8,173.6c0.1,0,0.3,0,0.4,0c0.3,0,0.6-0.1,0.9-0.2c0.1,0,0.2-0.1,0.3-0.1l-0.4-0.9
		c-0.8,0.4-2,0.2-2.3,0.1l0,0l-0.1,0l0,0v0.5v0l0,0l-0.3,0.3l0.1,0.1l0,0l0,0l0.1,0C33.7,173.5,34.2,173.6,34.8,173.6z"/>
	<path fill="#FFFFFF" d="M46.4,176.5c-0.1,0.1-0.2,0.2-0.3,0.3c0.6,0.5,2,1.4,3.1,1.4c0.1,0,0.2,0,0.3,0c1.7-0.2,3.8-3.1,4.7-6.3
		c0.3-1,0.2-1.9-0.3-2.6c-0.8-1.1-2.4-1.2-2.9-1.2c-0.2,0-0.5,0-0.7,0.1c-1.4,0.3-3.9,5.7-4.1,6.6c0,0.2-0.2,0.5-0.6,1l0,0
		c0,0,0,0,0,0L46.4,176.5z M53.1,170c0.3,0.4,0.4,1,0.1,1.7c-0.8,2.9-2.8,5.4-3.9,5.5c-0.8,0.1-1.9-0.7-2.6-1.2
		c0.3-0.4,0.5-0.7,0.5-1c0.2-1,2.6-5.5,3.3-5.8c0.1,0,0.3,0,0.5,0C51.7,169.2,52.7,169.4,53.1,170z"/>
	<path fill="#FFFFFF" d="M46.1,176.8c0.1-0.1,0.2-0.2,0.3-0.3l-0.7-0.7c0,0,0,0,0,0c-0.4,0.4-0.8,0.8-1,0.9c0,0-0.1,0-0.1,0.1
		l0.6,0.8c0,0,0.2-0.1,0.4-0.4C45.8,177.1,45.9,177,46.1,176.8z"/>
	<path fill="#FFFFFF" d="M55.1,177.9c-0.1,0.2-0.2,0.3-0.3,0.4c0.8,0.6,1.8,1,2.9,1c0.2,0,0.5,0,0.8,0c2.2-0.3,3.8-3.6,4.4-5
		c0.7-1.8,0.9-3.1,0.4-4c-0.3-0.6-0.8-1-1.4-1.2c-2.3-0.8-3.4,0.7-5,4.1c-0.7,1.5-1.5,2.9-2.5,4.3c0,0,0,0,0,0L55.1,177.9z
		 M60.8,169.8c0.2,0,0.5,0,0.8,0.1c0.4,0.1,0.7,0.4,0.8,0.7c0.3,0.6,0.1,1.7-0.5,3.2c-1,2.5-2.4,4.3-3.6,4.4c-1.2,0.1-2.2-0.1-3-0.7
		c0.9-1.3,1.7-2.6,2.3-4.1C59.1,170.7,59.9,169.8,60.8,169.8z"/>
	<path fill="#FFFFFF" d="M55.1,177.9l-0.8-0.6c0,0,0,0,0,0c-0.4,0.6-0.7,0.9-0.8,1c0,0,0,0.1,0,0.1l0.7,0.7c0,0,0.1-0.1,0.3-0.3
		c0.1-0.1,0.2-0.3,0.4-0.5C54.9,178.2,55,178,55.1,177.9z"/>
	<path fill="#FFFFFF" d="M62.9,179.7c-0.1,0.1-0.2,0.2-0.3,0.2c1,0.5,1.8,0.8,2.5,0.8c0.9,0,1.5-0.4,1.8-0.7
		c0.1-0.1,0.1-0.1,0.2-0.2c1.3-0.9,4.7-5.1,4.9-7.1c0.1-0.7-0.1-1.3-0.6-1.9c-0.8-0.9-2.2-1.2-3-1.1c-1.2,0.1-2.2,2.1-3.8,5.5
		c-0.2,0.4-0.4,0.9-0.6,1.3c-0.5,1-1.1,1.8-1.8,2.5c0,0,0,0,0,0L62.9,179.7z M65.6,175.6c0.9-1.8,2.4-4.8,3-4.9
		c0.6-0.1,1.6,0.2,2.1,0.8c0.3,0.3,0.4,0.7,0.3,1.1c-0.2,1.7-3.3,5.7-4.4,6.4c-0.1,0.1-0.2,0.1-0.3,0.2c-0.3,0.3-0.6,0.5-1.2,0.5
		c-0.5,0-1.1-0.2-1.8-0.5c0.6-0.6,1.1-1.4,1.5-2.3C65.1,176.5,65.3,176.1,65.6,175.6z"/>
	<path fill="#FFFFFF" d="M62.9,179.7l-0.7-0.7c0,0,0,0,0,0c-0.5,0.4-0.9,0.7-1.1,0.8c-0.1,0.1-0.2,0.1-0.2,0.1l0.2,0.4l0.2,0.5
		c0,0,0.4-0.2,1-0.6c0.1-0.1,0.2-0.2,0.3-0.2C62.7,179.8,62.8,179.8,62.9,179.7z"/>
	<path fill="#FFFFFF" d="M73.2,178.3c-0.1,0.2-0.2,0.3-0.4,0.4c0.5,0.4,1,0.6,1.6,0.6c0.7,0,1.4-0.3,2.1-0.8c1.4-1,3.5-4.9,3.5-6.2
		c0-0.4-0.1-0.7-0.4-1c-0.9-0.9-3-1.2-3.8-0.8c-1.1,0.4-2.5,5-3,6.4c-0.1,0.2-0.2,0.5-0.5,0.9l0,0L73.2,178.3z M73.9,177.1
		c0.7-2.2,1.9-5.4,2.4-5.7c0.1,0,0.3-0.1,0.6-0.1c0.8,0,1.8,0.2,2.2,0.7c0.1,0.1,0.1,0.2,0.1,0.3c-0.1,1.1-2,4.7-3.1,5.5
		c-1,0.7-1.8,0.8-2.5,0.2C73.7,177.6,73.8,177.3,73.9,177.1z"/>
	<path fill="#FFFFFF" d="M73.2,178.3l-0.8-0.6l0,0c-0.3,0.5-0.7,0.8-0.8,0.9c0,0,0,0,0,0l0.7,0.7c0,0,0.2-0.2,0.4-0.4
		c0.1-0.1,0.1-0.1,0.2-0.2C73,178.6,73.1,178.4,73.2,178.3z"/>
	<path fill="#FFFFFF" d="M85.3,175.3c0.9-1,1.7-2.9,1.5-4c-0.1-0.4-0.4-0.7-0.7-0.9c-0.2-0.1-0.4-0.1-0.7-0.1
		c-1.2,0-2.5,1.1-3.2,2.1c-0.5,0.8-1.8,2.8-2.5,4l-0.4,0.6l0,0l0,0c0.1-0.2,0.2-0.4,0.4-0.6l0.9,0.5c-0.1,0.1-0.1,0.2-0.2,0.3
		l0.7,0.1c0.1,0,0.2,0,0.4,0c0.2,0,0.5,0,0.8-0.1C83.2,177,84.4,176.2,85.3,175.3z M85.6,171.4c0,0,0.1,0,0.1,0.2
		c0.2,0.7-0.5,2.2-1.2,3.1c-1,1.1-2.6,1.9-3.3,1.8l-0.3-0.1c0.7-1.2,1.7-2.7,2.1-3.4C83.7,171.9,84.9,171.1,85.6,171.4z"/>
	<path fill="#FFFFFF" d="M80.5,176.9l-0.9-0.5c-0.2,0.3-0.3,0.5-0.4,0.6c-0.1,0.2-0.2,0.3-0.2,0.3l0.8,0.5c0,0,0.2-0.2,0.4-0.6
		C80.4,177.1,80.4,177,80.5,176.9z"/>
	<path fill="#FFFFFF" d="M75.4,128.4c-1.7,0-3.1,1.4-3.1,3.1s1.4,3.1,3.1,3.1s3.1-1.4,3.1-3.1S77.1,128.4,75.4,128.4z M73.3,131.5
		c0-1.1,0.9-2.1,2.1-2.1s2.1,0.9,2.1,2.1s-0.9,2.1-2.1,2.1S73.3,132.6,73.3,131.5z"/>
	<path fill="#FFFFFF" d="M58.6,71.2l0.4,0.5c0.9,1.1,1.6,4,1.6,6.4c0,0.8,0,2-0.1,3.1c-0.1,2.4-0.1,3.9,0,4.5
		c0.2,0.7,0.7,2.6,3.2,3.5l0.1,0l0.1,0c0.1,0,2.5-0.4,2.9-2c0.3-1.3,0-11.8,0-13c0-0.1,0.1-3-1.3-4.8c-1.3-1.7-4.7-5.1-4.9-5.3
		c-0.1,0-1.6-1-3.1-1c-0.3,0-0.6,0-0.8,0.1c-0.7,0.2-1.1,0.5-1.4,1c-0.4,0.8-0.2,1.7-0.1,2.4C55.6,67.4,57,69.2,58.6,71.2z
		 M56.2,64.6c0.1-0.3,0.4-0.4,0.8-0.5c0.2,0,0.4-0.1,0.5-0.1c1.2,0,2.5,0.8,2.5,0.8c0.1,0.1,3.5,3.5,4.7,5.2
		c1.2,1.6,1.1,4.1,1.1,4.2c0.1,4.6,0.2,11.9,0,12.8c-0.2,0.7-1.3,1.1-1.9,1.2c-1.6-0.6-2.2-1.9-2.4-2.8c-0.1-0.5,0-2.5,0-4.2
		c0-1.1,0.1-2.2,0.1-3.1c0-2.3-0.7-5.5-1.9-7l-0.4-0.5c-1-1.2-2.9-3.6-3.1-4.4C56.1,65.7,56,65,56.2,64.6z"/>
	<path fill="#FFFFFF" d="M66.9,68.1c1,1.3,2.4,3.1,2.8,4.3c0.6,2,0.9,6.7,0.8,9.1c0,0.3,0,0.6,0,0.9c-0.1,3-0.4,8,2.2,8.8
		c0,0,0.1,0,0.3,0c0.6,0,2.7-0.2,3.2-2.5c0.4-2.2,1.2-15.3-1.6-19c-2.6-3.4-4.5-5.6-6.7-6.1c-0.3-0.1-0.5-0.1-0.8-0.1
		c-0.9,0-1.3,0.4-1.6,0.7c-0.3,0.5-0.4,1.1-0.2,1.8C65.6,66.4,66.1,67,66.9,68.1z M66.5,64.8c0.1-0.2,0.4-0.3,0.7-0.3
		c0.2,0,0.4,0,0.6,0.1c1.9,0.4,3.7,2.5,6.1,5.7c2.5,3.3,1.9,15.6,1.4,18.2c-0.3,1.5-1.5,1.7-2.2,1.7c-0.1,0-0.1,0-0.1,0
		c-1.8-0.6-1.5-5.5-1.4-7.8c0-0.3,0-0.6,0-0.9c0.1-2.6-0.2-7.3-0.9-9.4c-0.4-1.4-1.8-3.2-3-4.6c-0.6-0.7-1.2-1.5-1.3-1.8
		C66.4,65.4,66.3,65.1,66.5,64.8z"/>
	<path fill="#FFFFFF" d="M86.1,80.2c-0.1-3-0.1-6.1-2.4-9.4c-2-2.9-5.9-7-7-7.2c-0.2,0-0.4-0.1-0.6-0.1c-1,0-1.8,0.4-2.1,1.1
		c-0.4,0.8,0.3,1.6,1.3,2.5c0.4,0.4,0.8,0.8,1.2,1.3l0.2,0.2c1.3,1.5,3.4,4.1,3.4,8.7c0,3.7-0.4,7.7-0.7,10.1
		c-0.1,0.8-0.1,1.5-0.2,1.8c-0.1,0.9,0,2.3,1.5,3.1l0.2,0.1c0,0,0.4,0.1,0.9,0.1c1.5,0,2.5-0.6,2.9-1.6c0.7-1.8,1.5-7.4,1.5-10.4
		L86.1,80.2z M81.7,91.5c-0.3,0-0.5,0-0.6,0c-0.7-0.5-1-1.1-0.9-2.2c0-0.3,0.1-0.9,0.2-1.7c0.2-2.4,0.7-6.5,0.7-10.2
		c0-4.9-2.4-7.8-3.6-9.4l-0.2-0.2c-0.4-0.5-0.9-1-1.3-1.4c-0.5-0.5-1.1-1.2-1.1-1.4c0.2-0.5,1.2-0.6,1.7-0.5
		c0.7,0.2,4.1,3.5,6.4,6.8c2.1,3,2.2,5.8,2.3,8.8l0,0.3c0.1,2.9-0.8,8.4-1.4,10.1C83.4,91.3,82.5,91.5,81.7,91.5z"/>
	<path fill="#FFFFFF" d="M86.3,65.7c-1.3-1-2.3-1.2-3.1-0.8c-0.2,0.1-0.4,0.3-0.5,0.6c-0.2,1,1.2,2.5,1.6,3c1.2,1.3,4.3,6.1,4.2,9.5
		c0,1.8-0.2,4.6-0.4,7.2c-0.2,3.3-0.4,5.4-0.3,6c0,0.2,0,0.4,0.1,0.5c0.1,0.8,0.2,1.7,1.5,1.7l0.1,0c0.1,0,0.3,0,0.5,0
		c1.3,0,2.2-0.6,2.6-1.7c0.6-1.7,2.2-11.1,1-14.5C92.4,74,87.6,66.7,86.3,65.7z M90,92.4c-0.2,0-0.4,0-0.4,0l-0.2,0
		c-0.4,0-0.4,0-0.5-0.8c0-0.2,0-0.4-0.1-0.6c-0.1-0.5,0.1-3.2,0.3-5.7c0.2-2.5,0.4-5.4,0.4-7.2c0.1-4-3.5-9.2-4.5-10.2
		c-0.9-1-1.3-1.8-1.4-2.1c0.4-0.1,1.1,0.1,1.9,0.8c1,0.8,5.8,7.9,6.9,11c1,3-0.4,12.1-1,13.8C91.4,92,90.8,92.4,90,92.4z"/>
	<path fill="#FFFFFF" d="M92.3,66.9c-0.7-0.3-1.2-0.1-1.4,0.3c-0.4,1,1.2,2.9,1.7,3.5c1.3,1.5,3.6,6,3.7,8.4c0,1-0.1,3.2-0.2,5.6
		c-0.2,4.2-0.3,6.8-0.1,7.5c0.1,0.2,0.1,0.4,0.1,0.5c0.2,0.9,0.4,1.2,1.4,1.7l0.2,0c0,0,0.2,0,0.5,0c0,0,0,0,0,0
		c1.5,0,2.5-0.5,2.8-1.4c0.5-1.3,1.5-12.3,0.7-14.6C100.9,76.2,94,67.5,92.3,66.9z M98.2,93.5c-0.1,0-0.3,0-0.3,0
		c-0.7-0.3-0.7-0.4-0.8-1c0-0.2-0.1-0.4-0.1-0.6c-0.2-0.6,0-4.4,0.2-7.2c0.1-2.4,0.2-4.6,0.2-5.6c-0.1-2.7-2.4-7.4-3.9-9
		c-0.9-1-1.3-1.8-1.5-2.2c0,0,0,0,0.1,0c1.3,0.5,8,8.9,8.8,11c0.7,2-0.2,12.6-0.7,13.9C99.8,93.4,98.7,93.5,98.2,93.5z"/>
	<path fill="#FFFFFF" d="M99.1,70c-0.1,0-0.2-0.1-0.3-0.1l-0.4,0l-0.1,0.3c-0.2,0.5,0.1,1,2,3.6c1.1,1.6,2.5,3.5,2.8,4.4
		c0.7,2.1,0.6,5.9,0.5,7.4c0,0.5-0.1,1.2-0.1,1.8c-0.2,2.9-0.3,4.7,0.1,5.4c0.1,0.1,0.2,0.3,0.3,0.5c0.4,0.6,0.8,1.3,1.6,1.3
		c0.1,0,0.2,0,0.2,0c0.8,0,2.5-0.6,2.8-2.4c0.3-1.8,0.1-9.5-0.9-11.7c-0.5-1.2-3.1-4.7-5.3-7.3c-0.9-1.1-1.8-2-2.4-2.5l0,0
		c0,0,0,0,0-0.1c-0.3-0.2-0.5-0.4-0.7-0.5C99.2,70,99.1,70,99.1,70z M105.6,93.5c-0.3,0.1-0.6-0.4-0.9-0.8c-0.1-0.2-0.2-0.4-0.3-0.5
		c-0.3-0.4,0-3.2,0.1-4.7c0.1-0.7,0.1-1.3,0.1-1.9c0.1-1.9,0.1-5.5-0.6-7.7c-0.3-1.1-1.7-2.9-3-4.7c-0.1-0.2-0.3-0.4-0.4-0.6
		c2.2,2.4,5.5,6.7,6.2,8.2c0.8,1.9,1.1,9.2,0.8,11.1C107.3,93.4,105.8,93.5,105.6,93.5z"/>
	<path fill="#FFFFFF" d="M19.6,120.7c0.1,0.9,0.4,1.4,1,1.6l0,0l-0.1-0.1l0.3-0.3l0-0.1v-0.5l0.2,0.1l0,0c-0.5-0.2-0.5-0.9-0.5-4.5
		l0-0.5c0-0.5,0-1.1,0-1.7c0.1-2.3,0.1-5.5,0.1-9.7c0-14.3-0.2-32.2-0.2-35.1c0-2.9,2.3-10.6,8-16.2c1.2-1.2,2.6-2.2,4-3.1
		c3.3-3,9.3-3.9,13.4-4.1l0,0c-7.1-0.3-13.2,1.9-18.1,6.5c-6,5.7-8.4,13.8-8.3,16.9c0,2.9,0.2,20.9,0.2,35.1c0,5.3-0.1,9-0.2,11.4
		l0,0.4l0,0.1C19.5,118.7,19.5,119.9,19.6,120.7z"/>
	<path fill="#FFFFFF" d="M70.4,49.6c-1.3-0.2-2.6-0.4-3.9-0.6c-0.3-0.1-0.7-0.1-1-0.2c-1.8-0.3-3.6-0.6-5.3-0.8
		c-0.3-0.1-0.7-0.1-1-0.2c-4.9-0.7-8.8-1.3-9.7-1.4c-0.7-0.1-2-0.1-3.6,0c-4.1,0.2-10.1,1.1-13.4,4.1c-0.5,0.5-1,1-1.3,1.5
		c-3.5,5.4-5.7,9.2-6,19.1c-0.2,5.7-0.2,18.3-0.2,25.3c0,0.6,0,1.2,0,1.8c0,5.6,0,10.6,0,13.4c0,1.2,0,2.1,0,2.4c0,0.4,0,0.8,0,1.2
		c0.1,1.6,0.1,2.9-1,4.1c-1.5,1.7-2.2,2.4-3.2,2l0,0l0,0l0,0c0.6,0.3,1.2,0.5,1.7,0.7c0.7-0.4,1.3-1.2,2.1-2.1
		c1.4-1.5,1.3-3.2,1.2-4.8c0-0.4,0-0.8,0-1.2c0-0.3,0-1.1,0-2.4c0-3.1,0-8.9,0-15.2c0-0.5,0-1.1,0-1.7c0-7.2,0-18.3,0.2-23.5
		c0.3-9.6,2.3-13.1,5.8-18.6c3.3-5.1,14.8-5.4,17.4-5.2c2.2,0.2,29,4.3,34.3,5.2c5,0.9,9.4,6.3,11.5,8.9c1.4,1.8,2.9,4.8,3.8,6.8
		c0.4,1,0.8,1.8,0.9,2c0,0.1,0,0.1,0,0.1l0,0l0.9-0.4c0,0,0-0.1,0-0.1c-0.3-0.8-2.6-6.3-4.8-9.1c-2.2-2.7-6.7-8.3-12.1-9.3
		c-1.9-0.3-6.9-1.1-12.5-2C71.1,49.7,70.7,49.7,70.4,49.6z"/>
	<path fill="#FFFFFF" d="M20.8,121.4v0.5v0l0,0l-0.3,0.3l0.1,0.1l0,0c1.1,0.5,3,1.3,4.5,1.3c0.5,0,1.1-0.1,1.5-0.3
		c0.2-0.1,0.5-0.3,0.7-0.4c1.5-0.8,3.2-1.8,3.2-4.9c0-2.4,0-12.5,0-20l0-6.8l0-9.5l0-3.3l0-7c0-2.4,0-8.8,2.8-13.9
		c0,0-0.1,0-0.1,0.1l-0.4-0.9c0.5-0.2,1-0.4,1.5-0.6c1.9-2.5,4.4-4.1,7.6-4.8c5.9-1.2,8.9-0.8,11.5-0.4c0.9,0.1,3.4,0.4,6.4,0.9
		c6.7,0.9,16,2.1,17.9,2.4l0.6,0.1c3.3,0.5,9.1,1.5,14.9,9.5c0.5,0.7,1,1.5,1.6,2.3l0.8-0.5c0,0,0-0.1-0.1-0.1
		C89,55.2,82.1,54,78.4,53.4l-0.6-0.1c-1.9-0.3-11.2-1.6-17.9-2.4c-3.1-0.4-5.5-0.7-6.4-0.8c-2.7-0.4-5.8-0.8-11.9,0.4
		c-4,0.8-7,3-9.1,6.6c-3.1,5.3-3.1,12-3,14.5l0,0.3l0,11.5l0,14.7c0,7.4,0,17.6,0,20c0,2.5-1.2,3.2-2.7,4c-0.3,0.1-0.5,0.3-0.7,0.4
		c-0.6,0.3-1.8,0.2-3.3-0.3c-0.6-0.2-1.1-0.4-1.7-0.7l0,0l0,0l0,0L20.8,121.4z"/>
	<path fill="#FFFFFF" d="M48.7,56.8c1.7,0.3,2.8,0.5,2.8,0.5l0.2-1c0,0,0,0,0,0c-0.7-0.2-10.6-2.5-17.4-0.2c-0.5,0.2-1,0.4-1.5,0.6
		l0.4,0.9c0,0,0.1,0,0.1-0.1C37.9,55.5,44.8,56.2,48.7,56.8z"/>
</g>
</svg>
