<?xml version="1.0" encoding="utf-8"?>
<!-- Generator: Adobe Illustrator 17.1.0, SVG Export Plug-In . SVG Version: 6.00 Build 0)  -->
<!DOCTYPE svg PUBLIC "-//W3C//DTD SVG 1.1 Tiny//EN" "http://www.w3.org/Graphics/SVG/1.1/DTD/svg11-tiny.dtd">
<svg version="1.1" baseProfile="tiny" id="圖層_1"
	 xmlns="http://www.w3.org/2000/svg" xmlns:xlink="http://www.w3.org/1999/xlink" x="0px" y="0px" viewBox="0 0 140 80"
	 xml:space="preserve">
<g id="XMLID_28_">
	<g>
		<path fill="#FFFFFF" d="M26.5,42.6c-2.3,8.2-2.7,13.6-0.8,14.4l83.4,9.7c0.7,0.1,1.5,0.3,2.4,0.6c-0.3-0.4,0-1.9,0.7-3.7
			L26.5,42.6z"/>
		<path fill="#FFFFFF" d="M114.7,64.7c0.2-0.5,0.4-1.1,0.6-1.6c1.1-2.6,2.3-4.6,2.9-4.7c-0.8-0.2-1.8-0.5-2.8-0.9
			c-0.6,0.1-1.7,2.1-2.8,4.6c-0.2,0.5-0.4,1-0.6,1.4c-0.6,1.9-0.9,3.3-0.7,3.7c0.9,0.3,1.9,0.8,2.6,1.2
			C113.8,68.1,114.1,66.6,114.7,64.7z"/>
		<path fill="#FFFFFF" d="M114.7,64.7c-0.6,1.8-0.9,3.3-0.7,3.7c0.1,0.1,0.3,0.2,0.4,0.3l12,9c-0.5-0.6,0-3.3,1.2-6.6L114.7,64.7z"
			/>
		<path fill="#FFFFFF" d="M127.6,71.1c-1.2,3.3-1.7,6-1.2,6.6l0,0l0.1,0.1c0.7,0.3,2.3-2,3.9-5.3L127.6,71.1z"/>
		<path fill="#FFFFFF" d="M127.6,71.1l2.9,1.4c0.4-0.8,0.8-1.7,1.2-2.6c1.9-4.8,2.8-8.9,2-9.2l-0.1,0c-0.9,0-3.1,3.5-4.9,8
			C128.2,69.4,127.9,70.3,127.6,71.1z"/>
	</g>
	<g>
		<path fill="none" stroke="#FFFFFF" stroke-miterlimit="10" d="M47.2,4.7c-2.8-1.1-9.4,8.5-15.7,24c-2.1,5.1-3.7,9.8-4.9,13.8
			c-2.3,8.2-2.7,13.6-0.8,14.4"/>
		<path fill="none" stroke="#FFFFFF" stroke-miterlimit="10" d="M126.5,77.7c0,0,0.1,0.1,0.1,0.1c0.7,0.3,2.3-2,3.9-5.3
			c0.4-0.8,0.8-1.7,1.2-2.6c1.9-4.8,2.8-8.9,2-9.2"/>
		<path fill="none" stroke="#FFFFFF" stroke-miterlimit="10" d="M133.5,60.6c-0.9,0-3.1,3.5-4.9,8c-0.4,0.9-0.7,1.7-0.9,2.5
			c-1.2,3.3-1.7,6-1.2,6.6"/>
		<path fill="none" stroke="#FFFFFF" stroke-miterlimit="10" d="M118.3,58.4c0,0-0.1,0-0.1,0c-0.6,0.2-1.8,2.1-2.9,4.7
			c-0.2,0.6-0.4,1.1-0.6,1.6c-0.6,1.8-0.9,3.3-0.7,3.7c0,0.1,0.1,0.1,0.1,0.1"/>
		<path fill="none" stroke="#FFFFFF" stroke-miterlimit="10" d="M115.6,57.5c0,0-0.1,0-0.1,0c-0.6,0.1-1.7,2.1-2.8,4.6
			c-0.2,0.5-0.4,1-0.6,1.4c-0.6,1.9-0.9,3.3-0.7,3.7c0,0.1,0.1,0.1,0.1,0.1"/>
		<path fill="none" stroke="#FFFFFF" stroke-miterlimit="10" d="M126.6,77.8l-0.1-0.1l0,0l-12-9c-0.1-0.1-0.2-0.2-0.4-0.3
			c-0.7-0.5-1.6-0.9-2.6-1.2c-0.8-0.3-1.7-0.5-2.4-0.6l-83.4-9.7"/>
		<path fill="none" stroke="#FFFFFF" stroke-miterlimit="10" d="M47.2,4.7l66.2,51.6c0.6,0.4,1.3,0.8,2.1,1.2
			c0.9,0.4,1.9,0.8,2.8,0.9c0.1,0,0.3,0.1,0.4,0.1l14.9,2.1l0.1,0"/>
	</g>
</g>
</svg>
