<?xml version="1.0" encoding="utf-8"?>
<!-- Generator: Adobe Illustrator 17.1.0, SVG Export Plug-In . SVG Version: 6.00 Build 0)  -->
<!DOCTYPE svg PUBLIC "-//W3C//DTD SVG 1.1 Tiny//EN" "http://www.w3.org/Graphics/SVG/1.1/DTD/svg11-tiny.dtd">
<svg version="1.1" baseProfile="tiny" id="圖層_1"
	 xmlns="http://www.w3.org/2000/svg" xmlns:xlink="http://www.w3.org/1999/xlink" x="0px" y="0px" viewBox="0 0 140 80"
	 xml:space="preserve">
<g id="XMLID_29_">
	<g>
		<path fill="#FFFFFF" d="M113,43.2c2.3,8.2,2.7,13.6,0.8,14.4l-83.4,9.7c-0.7,0.1-1.5,0.3-2.4,0.6c0.3-0.4,0-1.9-0.7-3.7L113,43.2z
			"/>
		<path fill="#FFFFFF" d="M24.8,65.4c-0.2-0.5-0.4-1.1-0.6-1.6c-1.1-2.6-2.3-4.6-2.9-4.7c0.8-0.2,1.8-0.5,2.8-0.9
			c0.6,0.2,1.7,2.1,2.7,4.6c0.2,0.5,0.4,1,0.6,1.4c0.6,1.9,0.9,3.3,0.7,3.7c-0.9,0.3-1.9,0.8-2.6,1.2C25.8,68.7,25.5,67.2,24.8,65.4
			z"/>
		<path fill="#FFFFFF" d="M24.8,65.4c0.6,1.8,0.9,3.3,0.7,3.7c-0.1,0.1-0.3,0.2-0.4,0.3l-12,9c0.5-0.6,0-3.3-1.2-6.6L24.8,65.4z"/>
		<path fill="#FFFFFF" d="M11.9,71.7c1.2,3.3,1.7,6,1.2,6.6l0,0L13,78.5c-0.7,0.3-2.3-2-3.9-5.3L11.9,71.7z"/>
		<path fill="#FFFFFF" d="M11.9,71.7l-2.9,1.4c-0.4-0.8-0.8-1.7-1.2-2.6c-1.9-4.8-2.8-8.9-2-9.2l0.1,0c0.9,0,3.1,3.5,4.9,8
			C11.3,70.1,11.7,70.9,11.9,71.7z"/>
	</g>
	<g>
		<path fill="none" stroke="#FFFFFF" stroke-miterlimit="10" d="M92.4,5.3c2.8-1.1,9.4,8.5,15.7,24c2.1,5.1,3.7,9.8,4.9,13.8
			c2.3,8.2,2.7,13.6,0.8,14.4"/>
		<path fill="none" stroke="#FFFFFF" stroke-miterlimit="10" d="M13.1,78.4c0,0-0.1,0.1-0.1,0.1c-0.7,0.3-2.3-2-3.9-5.3
			c-0.4-0.8-0.8-1.7-1.2-2.6c-1.9-4.8-2.8-8.9-2-9.2"/>
		<path fill="none" stroke="#FFFFFF" stroke-miterlimit="10" d="M6.1,61.2c0.9,0,3.1,3.5,4.9,8c0.4,0.9,0.7,1.7,0.9,2.5
			c1.2,3.3,1.7,6,1.2,6.6"/>
		<path fill="none" stroke="#FFFFFF" stroke-miterlimit="10" d="M21.2,59.1c0,0,0.1,0,0.1,0c0.6,0.2,1.8,2.1,2.9,4.7
			c0.2,0.6,0.4,1.1,0.6,1.6c0.6,1.8,0.9,3.3,0.7,3.7c0,0.1-0.1,0.1-0.1,0.1"/>
		<path fill="none" stroke="#FFFFFF" stroke-miterlimit="10" d="M24,58.1c0,0,0.1,0,0.2,0c0.6,0.2,1.7,2.1,2.7,4.6
			c0.2,0.5,0.4,1,0.6,1.4c0.6,1.9,0.9,3.3,0.7,3.7c0,0.1-0.1,0.1-0.1,0.1"/>
		<path fill="none" stroke="#FFFFFF" stroke-miterlimit="10" d="M13,78.5l0.1-0.1l0,0l12-9c0.1-0.1,0.2-0.2,0.4-0.3
			c0.7-0.5,1.6-0.9,2.6-1.2c0.8-0.3,1.7-0.5,2.4-0.6l83.4-9.7"/>
		<path fill="none" stroke="#FFFFFF" stroke-miterlimit="10" d="M92.4,5.3L26.2,56.9c-0.6,0.4-1.3,0.8-2.1,1.2
			c-0.9,0.4-1.9,0.8-2.8,0.9c-0.1,0-0.3,0.1-0.4,0.1L6.1,61.2l-0.1,0"/>
	</g>
</g>
</svg>
